<svg width="44" height="37" viewBox="0 0 44 37" fill="none" xmlns="http://www.w3.org/2000/svg">
<path d="M43.6952 13.5188C43.6775 13.2408 43.6329 12.9439 43.5271 12.6776C43.5184 11.8784 42.5546 11.1912 41.3321 11.1283C41.065 11.1145 40.8072 11.1319 40.5663 11.1754C40.5639 11.1755 40.5615 11.1757 40.559 11.1758C39.5959 11.1781 38.8998 10.4188 38.5256 9.58969C38.2974 9.08424 38.2143 8.53205 37.9943 8.02286C37.9414 7.9005 37.8832 7.78067 37.8211 7.66301C37.8192 7.65569 37.8173 7.64836 37.8143 7.64121C37.7828 7.56749 37.74 7.49817 37.6917 7.43193C37.5162 7.13531 37.3138 6.8544 37.0927 6.59007C36.6682 6.08279 36.169 5.64314 35.6291 5.26243C36.5994 4.38467 36.5128 2.6931 36.5115 2.67171C36.5072 2.60143 36.4547 2.54363 36.3851 2.53281C36.3154 2.52184 36.2477 2.56112 36.2224 2.62678C35.8847 3.50002 34.9903 3.82654 34.4806 3.94425C35.5537 2.46167 35.5581 0.739344 35.5575 0.648731C35.557 0.580985 35.5111 0.522013 35.4455 0.504905C35.3795 0.487654 35.311 0.516997 35.2776 0.575817C34.7465 1.50981 33.6197 2.21418 32.4411 2.72625C31.8026 2.34229 31.1021 2.07493 30.3687 1.94018C29.4423 1.76997 28.4926 1.78484 27.5587 1.87863C26.672 1.96769 25.8191 2.14069 24.9845 2.45326C24.6719 2.57032 24.3602 2.68906 24.0397 2.78326C23.5887 2.91586 23.1262 3.00503 22.661 3.07065C21.9002 3.17796 21.1305 3.22535 20.3633 3.25682C20.0959 3.26778 19.8283 3.27616 19.5606 3.28256C19.3222 3.28828 19.0911 3.28264 18.8666 3.37445C18.4942 3.5267 18.1289 3.91507 18.2848 4.34498C18.4061 4.67956 18.7555 4.95218 19.0694 5.09909C19.2984 5.20625 19.5399 5.28904 19.7781 5.37278C20.3481 5.5732 20.9237 5.75865 21.5014 5.93594C21.0898 6.08398 20.6784 6.23268 20.2612 6.36383C19.663 6.55189 19.0473 6.67636 18.4248 6.75074C17.1332 6.90508 15.8354 6.84745 14.5405 6.7773C13.6236 6.72763 12.6461 6.62824 11.7832 7.0141C11.5565 7.11547 11.34 7.26885 11.2187 7.49117C11.0668 7.76957 11.088 8.09526 11.1911 8.38637C11.3543 8.84727 11.656 9.25784 11.9653 9.63114C12.6457 10.4523 13.4733 11.1551 14.3293 11.7861C15.1218 12.3703 15.9689 12.9161 16.8846 13.2865C18.093 13.7752 19.3788 14.0941 20.6768 14.2167C21.0443 14.2513 21.4206 14.2714 21.7977 14.2684C21.6167 14.7735 21.6387 15.3597 21.7081 15.8775C21.8207 16.7186 22.1195 17.5381 22.5716 18.2563C22.7714 18.5738 23.0022 18.8701 23.2591 19.1411C21.8496 19.9198 20.198 19.5019 18.799 18.9013C18.2829 18.6797 17.7842 18.4007 17.2542 18.2133C16.4817 17.9404 15.6386 17.811 14.8217 17.7874C13.6626 17.7539 12.4895 17.9601 11.4155 18.4029C10.1379 18.0911 8.96857 17.2468 8.32055 16.0974C7.98459 15.5015 7.77845 14.8293 7.72487 14.1471C7.6982 13.8076 7.71141 13.4692 7.75245 13.1315C7.79576 12.7749 7.84309 12.3994 7.6826 12.0635C7.5582 11.8031 7.30795 11.5809 7.00935 11.5676C6.73106 11.5551 6.5025 11.728 6.35569 11.9509C6.19788 12.1904 6.13023 12.4768 6.07455 12.7541C6.02115 13.0201 5.98268 13.2895 5.95895 13.5598C5.86157 14.6689 6.03566 15.797 6.46922 16.8227C7.00879 18.0991 7.93707 19.1591 9.0726 19.9427C8.50056 20.5161 8.04155 21.1975 7.78043 21.9701C7.48692 22.8386 7.49944 23.7468 7.75192 24.5976C7.638 24.514 7.51419 24.4438 7.37649 24.3963C6.96533 24.2546 6.52236 24.3613 6.15434 24.5703C5.69562 24.8308 5.34005 25.2383 4.98314 25.6181C4.55235 26.0765 4.12155 26.535 3.69076 26.9934C2.82917 27.9103 1.96758 28.8271 1.10599 29.744C0.737114 30.1365 0.302824 30.5268 0.0998453 31.0381C-0.0743818 31.4769 -0.0380583 32.0354 0.348493 32.3514C0.532867 32.5022 0.758933 32.5773 0.991693 32.5923C1.28658 33.0124 1.93542 33.1973 2.41978 33.1244C2.66231 33.0879 2.88759 32.9852 3.08355 32.84C3.09498 32.8635 3.11367 32.8851 3.14233 32.9018C3.45943 33.0859 3.8384 33.0769 4.17045 32.9367C4.51465 32.7914 4.77323 32.5123 4.95656 32.1921C5.35671 31.4933 5.39492 30.6212 5.92849 29.9946C6.20596 29.6687 6.56778 29.4263 6.97594 29.2973C6.97987 29.2961 6.983 29.2942 6.98669 29.2927C7.15738 29.5682 7.35646 29.8257 7.58575 30.0552C7.84618 30.3159 8.13938 30.5281 8.45444 30.6954C7.79458 31.637 7.0993 32.5579 6.34444 33.4254C6.06336 33.7485 5.78966 34.1026 5.66154 34.5166C5.5659 34.8256 5.57586 35.1843 5.7376 35.4701C5.90067 35.7582 6.20991 35.9165 6.53655 35.916C6.5469 35.916 6.55637 35.9144 6.56658 35.9141C6.78524 36.4743 7.46051 36.6305 7.9764 36.3925C8.10283 36.3342 8.21423 36.2596 8.31443 36.1736C8.33845 36.2002 8.37298 36.2185 8.41874 36.2201C9.23637 36.2469 9.80298 35.4977 10.0309 34.7915C10.177 34.3387 10.236 33.8641 10.3618 33.4061C10.4731 33.0011 10.6517 32.6212 10.9235 32.2984C11.2003 31.9696 11.5494 31.7023 11.9439 31.5303C12.2831 31.8742 12.7975 32.043 13.2772 32.031C14.0795 32.011 14.8498 31.5501 15.4796 31.0885C15.8014 30.8527 16.0962 30.5833 16.4078 30.3345C16.6293 30.4153 16.8533 30.4864 17.077 30.5479C18.6594 30.9831 20.3433 31.0033 21.9632 30.8016C23.1325 30.656 24.2834 30.3934 25.4085 30.045C26.4353 30.0527 27.6275 29.9634 28.35 30.7907C28.7159 31.2097 28.752 31.801 28.9717 32.2934C29.1866 32.775 29.6021 33.0907 30.1339 33.1239C30.3612 33.1381 30.5831 33.0945 30.7804 33.003C30.8465 33.1028 30.898 33.2106 30.9833 33.2972C31.0683 33.3833 31.1723 33.4464 31.284 33.4912C31.5036 33.5793 31.766 33.5871 31.9883 33.5036C32.0997 33.4617 32.1986 33.4031 32.2868 33.3328C32.5593 33.6013 32.9924 33.6106 33.3165 33.4281C33.687 33.2195 33.8616 32.7883 33.9147 32.3861C34.0269 31.5359 33.6847 30.6998 33.1783 30.0318C32.7182 29.4247 32.133 28.9238 31.4999 28.5025C32.0207 28.3489 32.5454 28.1963 33.0941 28.2405C33.3771 28.2633 33.6605 28.3452 33.8943 28.51C34.1159 28.6662 34.2637 28.8969 34.4078 29.1212C34.6933 29.5656 35.0244 29.9999 35.599 30.0197C35.8985 30.03 36.1975 29.9244 36.4239 29.7348C36.5278 29.8226 36.6176 29.9126 36.7498 29.9645C36.8834 30.017 37.0307 30.025 37.1715 30.0044C37.4137 29.9691 37.6219 29.8331 37.7639 29.6395C38.0521 29.7814 38.3941 29.6978 38.6258 29.482C38.9054 29.2215 38.9554 28.806 38.9043 28.4465C38.8058 27.7531 38.366 27.1577 37.8295 26.7294C37.2471 26.2645 36.558 25.9573 35.8481 25.7428C35.0508 25.5018 34.2127 25.3858 33.3801 25.3958C32.8465 25.4023 32.3143 25.4622 31.7923 25.5714C31.7889 25.5566 31.7837 25.5415 31.7745 25.5262C31.5288 25.1157 31.434 24.6339 31.1923 24.2212C31.206 24.176 31.2204 24.131 31.2332 24.0853C31.3673 23.6077 31.4511 23.1193 31.5299 22.6302C31.592 22.2448 31.6461 21.8497 31.7797 21.481C31.895 21.1626 32.0941 20.9005 32.4105 20.766C32.6888 20.7932 32.9661 20.8333 33.2414 20.8912C33.4894 20.9434 33.7344 21.0077 33.9768 21.0813C34.5127 21.3792 35.0832 21.6071 35.7001 21.681C36.4869 21.7752 37.2659 21.5481 37.8304 20.9815C38.3633 20.4466 38.6685 19.7176 38.8565 18.9973C39.0939 18.0873 39.1708 17.1217 39.545 16.2512C39.643 16.1689 39.7374 16.0828 39.8296 15.9945C40.0622 16.4648 40.7979 16.5739 41.2586 16.5571C41.8088 16.5371 42.3607 16.3169 42.7797 15.9616C43.4747 15.3721 43.7518 14.4047 43.6952 13.5188Z" fill="black"/>
<path d="M39.186 10.9808C39.3262 11.0929 39.4772 11.1869 39.6356 11.2634C39.2019 11.327 38.7755 11.4237 38.3652 11.564C38.5332 11.1384 38.5971 10.7075 38.5586 10.2773C38.7317 10.5421 38.9399 10.7841 39.186 10.9808Z" fill="#DD9042"/>
<path d="M19.5259 4.96406C19.3023 4.88017 19.1164 4.80137 18.9169 4.65228C18.7677 4.54082 18.5805 4.38111 18.5488 4.18576C18.5184 3.99901 18.6725 3.8302 18.8168 3.73514C19.0195 3.60164 19.2283 3.58897 19.4638 3.58374C19.7208 3.57803 19.9778 3.57058 20.2347 3.56083C21.002 3.53167 21.7703 3.48539 22.5321 3.38687C23.3536 3.28063 24.1362 3.09031 24.9105 2.79878C25.6319 2.52714 26.3552 2.32703 27.1218 2.22745C28.7147 2.02057 30.4104 2.01463 31.8765 2.75424C31.9497 2.79118 32.0218 2.83021 32.0934 2.87013C30.3662 3.56312 28.6419 3.85444 28.6117 3.85939L28.6128 3.8662C28.6076 3.86683 28.6027 3.86682 28.5973 3.86799C27.543 4.09625 26.5371 4.50844 25.6109 5.05943C25.5795 5.07811 25.5596 5.1026 25.5489 5.12931C25.3811 5.11694 25.2131 5.1095 25.0456 5.10741C24.5098 5.10073 23.9942 5.16356 23.4748 5.29493C22.9666 5.42347 22.4693 5.59186 21.9751 5.76621C21.4427 5.61186 20.9146 5.44049 20.3887 5.26533C20.0997 5.16907 19.8111 5.07108 19.5259 4.96406Z" fill="#DD9042"/>
<path d="M6.91563 17.0816C6.436 16.1287 6.20674 15.0606 6.23241 13.9953C6.24486 13.4785 6.29981 12.9337 6.45698 12.439C6.52693 12.2189 6.65899 11.9193 6.91527 11.8714C7.18044 11.8219 7.39137 12.0802 7.457 12.3096C7.55688 12.6587 7.4517 13.0415 7.42378 13.3939C7.39845 13.7137 7.406 14.0359 7.44476 14.3543C7.52396 15.0048 7.72295 15.6369 8.04009 16.2111C8.6628 17.3384 9.76291 18.1999 10.9901 18.5929C10.778 18.6955 10.57 18.8067 10.3682 18.9288C9.98146 19.1628 9.61369 19.436 9.27799 19.7434C9.26713 19.7227 9.25132 19.7034 9.22828 19.6875C8.25851 19.0196 7.44655 18.1364 6.91563 17.0816Z" fill="#DD9042"/>
<path d="M10.259 32.7969C9.89957 33.6024 9.95898 34.57 9.44992 35.3104C9.23891 35.6173 8.92962 35.871 8.55763 35.9132C8.80048 35.5995 8.87642 34.5845 8.8084 34.7632C8.62304 35.2499 8.4141 35.7894 7.94411 36.0695C7.75455 36.1826 7.52884 36.2418 7.31043 36.1891C7.12823 36.1451 6.95603 36.0363 6.86994 35.868C7.95785 35.4459 7.89069 34.1236 7.81849 34.2998C7.59291 34.8503 7.27765 35.576 6.58682 35.614C6.29232 35.6302 6.033 35.4813 5.94031 35.1931C5.84478 34.8961 5.92362 34.586 6.06672 34.3186C6.21494 34.0417 6.40835 33.8061 6.61118 33.5707C6.87933 33.2595 7.13897 32.941 7.39342 32.6186C7.85453 32.0342 8.29742 31.4357 8.72459 30.8262C9.26487 31.0601 9.85878 31.1699 10.4622 31.1625C10.8291 31.158 11.1958 31.1139 11.5558 31.044C11.5917 31.0371 11.6275 31.0291 11.6633 31.0217C11.6536 31.0545 11.6537 31.0912 11.6703 31.1292C11.6946 31.1851 11.7236 31.2375 11.7548 31.2883C11.1004 31.5995 10.5563 32.1306 10.259 32.7969Z" fill="#DD9042"/>
<path d="M15.4749 30.7177C15.1861 30.9462 14.8705 31.1458 14.5484 31.3238C13.9603 31.6486 13.2752 31.8709 12.6187 31.6178C12.3129 31.4999 12.0617 31.2809 11.9302 30.9787C11.9278 30.9731 11.9247 30.9687 11.9219 30.9638C12.1171 30.9152 12.3097 30.8566 12.4941 30.775C12.9372 30.5788 13.3131 30.2567 13.6116 29.8783C13.8403 29.5885 14.028 29.2751 14.1971 28.9512C14.7171 29.5079 15.3805 29.9149 16.0872 30.2091C15.8824 30.3777 15.683 30.5529 15.4749 30.7177Z" fill="#DD9042"/>
<path d="M31.495 25.6394C31.0102 25.7565 30.5295 26.261 30.7106 26.1935C32.1159 25.6698 33.6626 25.5538 35.13 25.8673C35.8092 26.0124 36.4836 26.2377 37.0872 26.5852C37.6263 26.8956 38.1268 27.3159 38.4122 27.8787C38.5704 28.1904 38.6819 28.5823 38.5987 28.9307C38.5289 29.2229 38.2192 29.5297 37.9046 29.3751C38.2861 28.2923 37.1854 27.673 37.2954 27.8321C37.585 28.2509 37.8253 28.796 37.6129 29.3034C37.5273 29.5079 37.3636 29.6672 37.1417 29.7076C37.046 29.725 36.9433 29.7192 36.852 29.6844C36.7601 29.6493 36.6973 29.5777 36.6252 29.515C36.6816 29.4335 36.739 29.347 36.7592 29.247C36.9991 28.0629 35.8199 28.0009 35.9949 28.0818C36.3965 28.2675 36.6149 28.7605 36.4655 29.1826C36.317 29.6024 35.7986 29.8088 35.3871 29.6847C34.9147 29.5423 34.7094 28.9908 34.4339 28.6314C34.0992 28.1945 33.6175 27.979 33.0748 27.9397C32.416 27.8918 31.7883 28.1106 31.1636 28.2887C30.5453 27.9129 29.8816 27.6103 29.1934 27.3852C30.0185 26.605 30.6649 25.6758 31.0586 24.6182C31.2107 24.9553 31.3109 25.3171 31.495 25.6394Z" fill="#DD9042"/>
<path d="M43.3796 13.347C43.3753 13.3113 43.3704 13.2755 43.3649 13.2398C43.0196 13.7994 42.161 14.168 41.1773 14.1173C39.9229 14.0527 38.9405 13.331 38.983 12.5054C39.0019 12.1398 39.2188 11.8153 39.5634 11.5726C38.9004 11.6772 38.2473 11.8672 37.6583 12.1914C37.0173 12.5442 36.479 13.0471 36.0511 13.6384C35.9391 13.7933 36.0471 13.0005 36.6711 12.5151C36.9775 12.2767 37.2831 12.0556 37.6161 11.884C36.6791 11.7365 35.7046 11.9096 34.8753 12.3793C34.7073 12.4745 35.1806 11.7487 36.6436 11.5464C36.1329 11.0304 35.7239 10.022 35.8956 9.25183C36.0211 8.68831 36.437 8.35538 37.0665 8.3143C37.3455 8.29606 37.6524 8.41515 37.9185 8.69214C37.8669 8.52262 37.8115 8.35423 37.7421 8.19002C37.6572 7.98905 37.5588 7.79473 37.4495 7.60675C37.3024 7.4036 37.0572 7.25067 36.7813 7.20205C36.5944 7.16901 36.2383 7.15936 35.9517 7.46534C35.8952 7.52577 35.8003 7.52869 35.7401 7.47226C35.6798 7.41578 35.6766 7.32102 35.7332 7.26064C36.0128 6.96207 36.4138 6.83311 36.8334 6.90714C36.8901 6.91714 36.9458 6.93098 37.0003 6.94777C36.5493 6.37313 35.9947 5.8754 35.3989 5.4646C35.3925 5.46021 35.3874 5.45522 35.382 5.45036C35.1768 5.58264 34.5956 5.44173 34.5956 5.44173C35.7848 5.2225 36.1041 4.02817 36.1866 3.28642C35.5495 4.0954 34.4722 4.26738 34.1964 4.29885C33.9752 4.55131 33.2441 4.76777 33.2441 4.76777C34.6961 3.71011 35.1009 2.04379 35.2137 1.19141C33.5231 3.2596 29.2345 4.05573 28.7076 4.14672C28.6985 4.15068 28.6886 4.15407 28.6776 4.15644C27.7397 4.35951 26.8461 4.7096 26.0104 5.17661C28.3082 5.50798 28.6479 6.51818 28.4895 6.40773C28.2503 6.24101 27.998 6.09478 27.734 5.97099C27.1792 5.71088 26.5751 5.55173 25.9688 5.47113C25.4129 5.39723 24.8266 5.36765 24.2689 5.44033C23.7576 5.50698 23.2562 5.65544 22.7666 5.81306C22.5243 5.89107 22.2837 5.97414 22.0436 6.05877C22.0321 6.06477 22.0198 6.06947 22.0063 6.07179C21.7234 6.17177 21.4412 6.27401 21.1585 6.37433C20.6977 6.53778 20.2343 6.70128 19.7584 6.81555C19.0751 6.97963 18.3745 7.073 17.6736 7.11759C16.4714 7.19408 15.2731 7.10742 14.0723 7.05206C13.6367 7.03198 13.1958 7.01286 12.761 7.05707C12.5804 7.07545 12.4059 7.1159 12.2319 7.16737C11.9953 7.23737 11.7437 7.3274 11.5704 7.51129C11.1706 7.93551 11.5759 8.58306 11.8378 8.96996C12.0915 9.34473 12.3942 9.68536 12.711 10.0076C13.4516 10.7607 14.2872 11.4247 15.167 12.0076C15.5749 12.2778 15.9953 12.5313 16.4321 12.7524C16.8949 12.9867 17.3818 13.1676 17.875 13.3268C19.041 13.7032 20.2638 13.9403 21.4908 13.9633C22.4444 13.9812 23.4773 13.8881 24.3242 13.4118C24.4926 13.3171 23.9758 14.2493 22.1212 14.2593C22.1168 14.2689 22.1133 14.2765 22.1125 14.2778C22.1038 14.2993 22.0954 14.3209 22.0877 14.3428C21.9918 14.614 21.9695 14.8358 21.9619 15.1144C21.9523 15.4648 21.986 15.8012 22.0509 16.1353C22.2116 16.9623 22.5538 17.7514 23.0515 18.4315C23.6419 19.2383 24.4657 19.8633 25.3944 20.2304C26.6214 20.7155 27.9578 20.7721 29.2559 20.6225C29.9701 20.5401 30.6817 20.4364 31.4019 20.4234C31.7258 20.4175 32.049 20.4305 32.3703 20.4608C32.4069 20.4507 32.4389 20.4552 32.4643 20.4704C32.702 20.4955 32.9383 20.5309 33.173 20.5757C32.5283 20.136 31.9003 19.6662 31.1819 19.3512C31.0056 19.2738 31.7402 19.2019 33.7229 20.5821C34.3783 21.0383 35.1513 21.3734 35.9636 21.4014C36.7304 21.4278 37.4139 21.094 37.8693 20.4776C38.706 19.3451 38.6945 17.886 39.1068 16.5837C38.9973 16.6591 38.8849 16.7301 38.7705 16.7976C38.5268 17.086 38.4421 17.4731 38.3774 17.8357C38.3113 18.2056 38.2625 18.5759 38.1581 18.9379C37.9751 19.5723 37.6498 20.2315 37.004 20.4957C36.3109 20.7792 35.525 20.5048 34.973 20.0537C34.3529 19.5468 33.934 18.8182 33.491 18.1631C32.9968 17.432 32.5025 16.701 32.0082 15.9699C31.8293 16.0782 31.6698 16.2185 31.5472 16.3858C31.4992 16.4512 31.4182 16.4839 31.3423 16.4395C31.2776 16.4017 31.2408 16.3 31.2886 16.2347C31.6213 15.7806 32.1277 15.4926 32.6884 15.4403C32.7694 15.4328 32.8381 15.5149 32.8381 15.59C32.8381 15.6763 32.7689 15.7323 32.6884 15.7398C32.5494 15.7527 32.4119 15.7877 32.2796 15.8379C32.2858 15.847 32.2919 15.856 32.298 15.8651C32.2998 15.8666 32.3017 15.8676 32.3034 15.8692C32.8237 16.3464 33.4397 16.7169 34.1043 16.9553C35.2856 17.3791 36.5816 17.3892 37.7602 16.9517C38.0425 16.8469 38.3154 16.718 38.5758 16.5674C38.5932 16.5505 38.6118 16.5397 38.6308 16.5341C38.8664 16.3942 39.0917 16.237 39.3036 16.0634C39.3192 16.0387 39.3391 16.023 39.3612 16.0147C39.8065 15.6396 40.1924 15.1942 40.4943 14.6956C40.5941 14.5308 40.3155 15.4868 40.0516 15.7687C40.0629 15.7828 40.0726 15.7994 40.0791 15.8197C40.1523 16.0492 40.4691 16.1479 40.6756 16.1989C40.9833 16.2749 41.3084 16.2793 41.617 16.2074C42.0674 16.1025 42.4782 15.8812 42.7874 15.534C43.0551 15.2332 43.2254 14.8573 43.318 14.4679C43.4048 14.1028 43.4243 13.7196 43.3796 13.347ZM25.4629 9.80425C25.461 9.85983 25.4284 9.91013 25.355 9.92162C25.1652 9.95132 25.0151 10.0521 24.8951 10.2005C24.6114 10.5511 24.5802 11.0257 24.441 11.4392C24.3826 11.6126 24.3161 11.7703 24.191 11.9041C24.0133 12.0942 23.7718 12.2229 23.5354 12.3243C22.8025 12.6388 21.9829 12.7525 21.1917 12.7898C20.1788 12.8375 19.1511 12.736 18.1696 12.4799C17.1322 12.2093 16.1376 11.753 15.3031 11.074C14.4117 10.3488 13.7668 9.37594 13.4122 8.28605C13.2913 8.30737 13.1708 8.33009 13.0511 8.35496C12.8627 8.3941 13.1447 7.68632 15.8754 7.94812C16.4762 8.00572 17.0288 8.2736 17.5935 8.47951C18.209 8.70397 18.8357 8.87959 19.4917 8.92795C19.9268 8.96003 20.3643 8.94668 20.7982 8.90367C21.0608 8.87764 21.322 8.84006 21.5818 8.79431C21.8655 8.74435 22.1458 8.6742 22.4327 8.64409C23.5161 8.5304 24.6302 8.92945 25.4211 9.67139C25.4647 9.71226 25.4743 9.76071 25.4629 9.80425ZM29.2645 9.47104C29.2552 9.54702 29.1907 9.60272 29.116 9.60272C29.1099 9.60272 29.1039 9.60238 29.0978 9.60165C29.0157 9.59166 28.9572 9.51705 28.9671 9.43497C29.0429 8.81137 29.5328 8.24819 30.2777 7.92857C31.0774 7.5853 31.9569 7.60875 32.4651 7.98676C32.5315 8.03608 32.5453 8.12985 32.496 8.19623C32.4466 8.26266 32.3528 8.2764 32.2865 8.22703C31.8673 7.91545 31.09 7.90595 30.3958 8.20374C29.7501 8.48082 29.3271 8.95461 29.2645 9.47104ZM34.0742 12.6708C33.3491 12.9399 32.5039 13.7985 32.1558 14.4872C32.0688 14.6594 32.1965 13.9213 32.2263 13.8697C31.6846 13.6286 31.142 13.0888 30.7529 12.3963C30.0344 11.1174 30.3384 10.1023 30.9582 9.66361C31.9895 8.93371 32.7266 9.31644 33.0742 9.60965C33.7943 10.2173 34.1546 11.5349 33.8872 12.4248C33.9229 12.4101 34.1588 12.4137 34.1788 12.4866C34.2015 12.5694 34.15 12.6426 34.0742 12.6708Z" fill="#DD9042"/>
<path d="M33.6004 31.6407C33.4615 30.8643 32.9922 30.1896 32.4423 29.6427C32.0452 29.2478 31.594 28.9059 31.1165 28.6091L30.9684 28.5178C30.7996 28.4173 30.628 28.322 30.4544 28.2324C28.9683 27.4652 27.2779 27.1166 25.6099 27.2358C25.4173 27.2495 26.0046 26.9166 26.2022 26.9153C26.2012 26.9054 26.2009 26.8949 26.202 26.8837C26.3232 25.5773 26.0196 24.2575 25.3347 23.138C25.2338 22.973 26.3715 23.589 26.4882 25.6037C26.6531 25.5034 26.8175 25.4027 26.9762 25.2925C27.5115 24.921 27.9649 24.4432 28.2923 23.8757C28.8043 22.9881 29.0049 21.9564 29.0657 20.943C28.9182 20.958 28.7706 20.9713 28.6225 20.9806C27.317 21.0622 25.9672 20.8794 24.7909 20.2843C24.3099 20.041 23.8688 19.7277 23.4792 19.3595C23.3026 19.4628 23.1187 19.5514 22.9278 19.625C21.4571 20.1924 19.8501 19.6917 18.4787 19.0851C17.9965 18.8718 17.5266 18.6067 17.0212 18.4515C16.2264 18.2073 15.3988 18.0808 14.5672 18.082C13.068 18.0843 11.5625 18.499 10.3047 19.3227C9.22062 20.0326 8.30414 21.0819 7.9768 22.3573C7.62906 23.7121 8.0653 25.0806 8.90693 26.1629C9.02389 26.3133 8.48749 26.0419 8.11416 25.4874C8.11053 25.4823 8.10664 25.4778 8.10337 25.472C7.88816 25.0908 7.56913 24.7007 7.10748 24.6364C6.64964 24.5727 6.2123 24.8448 5.88257 25.133C5.5009 25.4666 5.16673 25.8578 4.82013 26.2266C4.43468 26.6368 4.04923 27.047 3.66379 27.4572C2.88722 28.2836 2.11066 29.1099 1.3341 29.9363C1.00078 30.291 0.597008 30.6441 0.396623 31.0973C0.230502 31.4731 0.252197 31.9767 0.648675 32.1939C0.987631 32.3797 1.42117 32.2978 1.73267 32.097C2.11633 31.8497 2.3744 31.4512 2.62039 31.0772C2.72596 30.9167 2.51764 32.0542 1.72214 32.447C1.61191 32.5014 1.49151 32.5398 1.36837 32.5647C1.63224 32.7857 2.06467 32.8773 2.37111 32.8295C2.84598 32.7555 3.49547 32.0371 3.65598 31.5955C3.7214 31.4155 3.76642 32.0882 3.30204 32.6467C3.63988 32.8363 4.07185 32.7221 4.35114 32.4756C4.93905 31.9567 5.01583 31.0947 5.31906 30.4137C5.60984 29.7607 6.16005 29.2604 6.83409 29.0285C6.71684 28.8086 6.75842 28.085 6.82229 28.2654C6.8404 28.3166 6.8593 28.3674 6.87913 28.4179C6.92426 28.5329 6.9686 28.6335 7.03475 28.7662C7.11015 28.9174 7.19367 29.0646 7.28539 29.2065C7.49982 29.5382 7.76235 29.8378 8.06824 30.0883C8.93631 30.7991 10.0899 30.9657 11.175 30.8068C11.7625 30.7208 12.3556 30.5872 12.839 30.226C13.2077 29.9506 13.4909 29.5757 13.7254 29.1839C14.2108 28.3729 14.4973 27.4551 15.0144 26.6625C15.2436 26.3112 15.5271 25.9837 15.8957 25.7741C16.3038 25.5421 16.7762 25.4834 17.2374 25.5378C17.4268 25.5602 16.1716 25.6463 15.6271 26.3629C15.9273 26.5654 16.2425 26.7447 16.5719 26.8958C18.0749 27.5851 19.7861 27.6744 21.3864 27.3141C21.0579 25.6716 21.6769 25.028 21.6272 25.2144C21.3071 26.4148 21.6342 27.7402 22.504 28.6328C22.8663 29.0046 23.3104 29.303 23.7957 29.489C24.3051 29.6844 24.8348 29.7347 25.3738 29.7439C25.3878 29.7421 25.401 29.7423 25.4135 29.7444C25.4567 29.745 25.4998 29.7458 25.5431 29.746C26.5698 29.7492 27.8008 29.7256 28.5494 30.5645C28.8971 30.9542 28.9907 31.4537 29.1518 31.9338C29.3046 32.3895 29.59 32.773 30.1007 32.8207C30.5291 32.8607 30.9636 32.6574 31.1287 32.2446C31.2922 31.8358 31.1885 31.3419 30.8551 31.0513C30.7095 30.9244 31.7488 31.1835 31.4174 32.3242C31.3541 32.5421 31.2022 32.7119 31.0347 32.8447C31.1039 32.9485 31.1523 33.0623 31.2561 33.1383C31.3453 33.2036 31.4547 33.2427 31.564 33.2561C31.8263 33.2883 32.0603 33.1672 32.2295 32.9721C32.6534 32.4833 32.5641 31.7736 32.3775 31.2087C32.3168 31.025 32.8702 31.4129 32.83 32.1702C32.8124 32.5035 32.699 32.8505 32.4953 33.117C32.7916 33.4085 33.2546 33.1969 33.4414 32.8882C33.6606 32.5261 33.673 32.0471 33.6004 31.6407Z" fill="#DD9042"/>
<path d="M37.4848 11.5679C37.2949 11.3793 37.1261 11.067 37.0329 10.6936C36.8662 10.025 37.0052 9.41461 37.3434 9.33025C37.5085 9.28906 37.6904 9.38155 37.8529 9.56409C37.8344 9.56322 37.816 9.56406 37.7981 9.56855C37.605 9.61671 37.5257 9.96514 37.6209 10.3468C37.7161 10.7285 37.9497 10.9988 38.1428 10.9507C38.1806 10.9412 38.2135 10.9193 38.2421 10.8888C38.2847 10.6145 38.2812 10.3398 38.2293 10.0667C38.0326 9.03061 37.5027 8.58924 37.086 8.61429C36.5869 8.64689 36.2847 8.88372 36.1878 9.31822C36.0131 10.1022 36.5518 11.2281 37.0969 11.5286L37.0915 11.5384C37.2228 11.5421 37.354 11.5527 37.4848 11.5679Z" fill="white"/>
<path d="M19.6516 30.6167C18.2894 30.5739 16.8843 30.3261 15.67 29.6815C15.174 29.4181 14.7143 29.0864 14.3398 28.666C14.5619 28.2097 14.761 27.7403 14.9963 27.2916C15.1234 27.0494 15.2627 26.8092 15.4306 26.5921C16.7684 27.5096 18.4164 27.9079 20.029 27.8128C20.5199 27.7838 21.0074 27.709 21.4866 27.5991C21.6184 27.9308 21.7951 28.2454 22.0172 28.53C22.3528 28.9602 22.7822 29.3188 23.2642 29.5746C23.6654 29.7875 24.0914 29.9191 24.5335 29.9864C22.9439 30.4163 21.2999 30.6685 19.6516 30.6167ZM31.6008 21.1425C31.4294 21.4787 31.3571 21.856 31.2938 22.2247C31.2126 22.6976 31.1459 23.1728 31.037 23.6406C30.9055 24.2053 30.717 24.7556 30.4497 25.271C30.0528 26.0363 29.5022 26.7019 28.8665 27.2809C28.8654 27.282 28.8647 27.2831 28.8636 27.2841C28.7978 27.2652 28.7321 27.2455 28.6659 27.228C27.9574 27.0406 27.227 26.9373 26.4944 26.919C26.4977 26.9084 26.5 26.8972 26.5011 26.8851C26.5303 26.5699 26.5342 26.2534 26.5156 25.9384C26.9626 25.6636 27.403 25.3871 27.782 25.0186C28.3826 24.4347 28.7924 23.6898 29.0375 22.893C29.2349 22.2512 29.3287 21.5807 29.3667 20.9115C29.8111 20.8594 30.2545 20.7962 30.7004 20.7598C31.1058 20.7267 31.5122 20.7159 31.9171 20.7319C31.7892 20.8453 31.6824 20.9823 31.6008 21.1425Z" fill="white"/>
<path d="M32.1009 11.823C31.8658 11.0352 32.0138 10.2956 32.4315 10.1709C32.6933 10.0927 32.999 10.2749 33.2485 10.6157C33.1567 10.5578 33.0621 10.5359 32.9752 10.5618C32.7302 10.635 32.639 11.0542 32.7715 11.4982C32.904 11.9422 33.2101 12.2428 33.4551 12.1697C33.5528 12.1405 33.6256 12.0558 33.6698 11.9367C33.7176 11.2259 33.4473 10.3154 32.8817 9.83814C32.3887 9.42225 31.7837 9.44623 31.1317 9.90763C30.6215 10.2687 30.3874 11.1328 31.0146 12.2492C31.3837 12.9063 31.8934 13.4099 32.3901 13.6134C32.5512 13.3853 32.7408 13.1791 32.952 12.9979C32.6169 12.8609 32.2767 12.412 32.1009 11.823Z" fill="white"/>
<path d="M37.2832 12.4227C37.3464 12.4003 38.1466 12.1166 38.743 11.9289C38.9407 11.8667 39.131 11.827 39.2989 11.8015C39.3754 11.7189 39.4627 11.6413 39.5621 11.5713C38.8991 11.6759 38.246 11.8659 37.6571 12.1901C37.5279 12.2612 37.404 12.3399 37.2832 12.4227Z" fill="white"/>
<path d="M34.875 12.3785C34.875 12.3785 35.8132 12.0951 36.3101 12.0823C36.8071 12.0696 36.9621 12.2946 36.9621 12.2946L36.963 12.295C37.1739 12.1419 37.3883 12.0004 37.6157 11.8832C36.6788 11.7357 35.7042 11.9089 34.875 12.3785Z" fill="white"/>
<path d="M34.197 4.29953C34.0991 4.41133 33.9012 4.51596 33.7111 4.59796L33.7109 4.59807C33.7109 4.59807 34.5272 4.68679 35.33 4.22806C36.1327 3.76933 36.1873 3.28711 36.1873 3.28711C35.5502 4.09609 34.4729 4.26806 34.197 4.29953Z" fill="white"/>
<path d="M35.2131 1.19141C33.5225 3.2596 29.2339 4.05573 28.7071 4.14672C28.6979 4.15068 28.688 4.15407 28.677 4.15644C27.7391 4.35951 26.8456 4.7096 26.0098 5.17661C26.0098 5.17661 26.3702 4.98449 30.1043 4.221C33.8384 3.4575 35.2131 1.19141 35.2131 1.19141Z" fill="white"/>
<path d="M19.3659 3.76681C19.8994 3.74982 22.227 3.88574 23.6032 3.444C24.9794 3.00227 28.48 1.50726 31.8435 2.96815C31.9273 2.93632 32.0113 2.90384 32.0953 2.87012C32.0237 2.8302 31.9517 2.79116 31.8785 2.75424C30.4123 2.01463 28.7167 2.02057 27.1238 2.22744C26.3571 2.32701 25.6339 2.52713 24.9125 2.79877C24.1382 3.09029 23.3555 3.28062 22.5341 3.38686C21.7723 3.48539 21.0039 3.53166 20.2367 3.56082C19.9798 3.57058 19.7228 3.57803 19.4658 3.58374C19.2303 3.58896 19.0215 3.60164 18.8188 3.73513C18.6745 3.8302 18.5204 3.999 18.5507 4.18576C18.5508 4.18577 18.8323 3.78381 19.3659 3.76681Z" fill="white"/>
<path d="M28.1433 6.18499C28.0106 6.10737 27.8747 6.03534 27.7353 5.96996C27.1805 5.70985 26.5764 5.5507 25.9701 5.4701C25.4142 5.3962 24.8279 5.36662 24.2702 5.4393C23.7589 5.50595 23.2575 5.65441 22.7679 5.81203C22.5256 5.89004 22.285 5.9731 22.0449 6.05774C22.0334 6.06374 22.0211 6.06844 22.0076 6.07076C21.7247 6.17074 21.4425 6.27298 21.1598 6.3733C20.699 6.53675 20.2356 6.70025 19.7597 6.81452C19.0764 6.9786 18.3758 7.07197 17.6749 7.11656C16.4727 7.19305 15.2744 7.10639 14.0736 7.05103C13.638 7.03095 13.1971 7.01183 12.7623 7.05604C12.5816 7.07442 12.4072 7.11487 12.2332 7.16635C11.9966 7.23635 11.745 7.32638 11.5717 7.51027C11.4171 7.67432 11.3836 7.87183 11.415 8.07468C11.698 6.71721 16.5064 7.41468 18.6422 7.21445C20.8169 7.01057 22.5159 6.17806 24.096 5.76488C25.6761 5.35169 28.4908 6.4067 28.4908 6.4067C28.4908 6.4067 28.3581 6.32176 28.1433 6.18499Z" fill="white"/>
<path d="M26.7906 5.32914C26.6264 5.22625 26.4606 5.12265 26.2977 5.02148C26.2017 5.07126 26.1062 5.1221 26.0117 5.17491C26.3016 5.21671 26.5601 5.26935 26.7906 5.32914Z" fill="white"/>
<path d="M8.89844 17.3312C8.89925 17.3318 8.90001 17.3323 8.90082 17.333C8.56159 17.0012 8.26877 16.6242 8.04055 16.2111C7.72342 15.6369 7.52441 15.0048 7.44523 14.3543C7.40647 14.0359 7.39891 13.7137 7.42425 13.3939C7.45217 13.0415 7.55733 12.6587 7.45747 12.3096C7.39183 12.0802 7.18092 11.8219 6.91574 11.8714C6.81722 11.8898 6.73721 11.9456 6.67188 12.0196C6.67192 12.0195 7.12153 11.8361 7.20647 12.2696C7.29141 12.703 6.35994 15.3163 8.89844 17.3312Z" fill="white"/>
<path d="M18.4789 19.0851C17.9967 18.8718 17.5268 18.6067 17.0214 18.4515C16.2266 18.2073 15.399 18.0808 14.5674 18.082C13.0682 18.0843 11.5627 18.499 10.3049 19.3227C9.99382 19.5264 9.69736 19.7589 9.42383 20.0159C12.5183 18.1761 15.3464 17.9362 17.9957 19.2438C20.6461 20.552 22.2824 19.807 22.2824 19.807L22.2818 19.8066C20.997 20.0446 19.6518 19.6039 18.4789 19.0851Z" fill="white"/>
<path d="M41.4456 12.2949C41.971 12.2949 42.397 12.0881 42.397 11.833C42.397 11.5779 41.971 11.3711 41.4456 11.3711C40.9201 11.3711 40.4941 11.5779 40.4941 11.833C40.4941 12.0881 40.9201 12.2949 41.4456 12.2949Z" fill="white"/>
<path d="M7.79163 25.0318L7.79161 25.0318L7.63112 24.8778C7.48135 24.7545 7.30795 24.6652 7.10763 24.6373C6.64979 24.5735 6.21245 24.8457 5.88272 25.1339C5.50104 25.4674 5.16687 25.8586 4.82028 26.2275C4.43483 26.6377 4.04938 27.0478 3.66393 27.458C3.30395 27.8411 2.94397 28.2242 2.58398 28.6072C2.5846 28.6066 5.661 25.5139 6.34053 25.0318C7.02011 24.5498 7.79156 25.0318 7.79163 25.0318Z" fill="white"/>
<path d="M37.0876 26.584C36.4839 26.2364 35.8095 26.0112 35.1303 25.866C33.663 25.5526 32.1163 25.6685 30.7109 26.1923C30.7109 26.1923 35.081 25.1115 37.9885 27.2809C37.7288 27.0032 37.4157 26.7729 37.0876 26.584Z" fill="white"/>
<path d="M31.116 28.61L30.9679 28.5188C30.7991 28.4183 30.6275 28.323 30.4539 28.2334C28.9678 27.4661 27.2774 27.1176 25.6094 27.2367C25.6094 27.2367 29.7063 27.3701 32.821 30.0604C32.7015 29.9144 32.5741 29.7752 32.4418 29.6436C32.0447 29.2488 31.5935 28.9069 31.116 28.61Z" fill="white"/>
<path d="M36.3348 9.42443C36.4317 8.98993 36.7339 8.75311 37.233 8.7205C37.3554 8.71314 37.4875 8.74726 37.6181 8.82364C37.4425 8.67344 37.2561 8.60611 37.0879 8.61622C36.5889 8.64883 36.2867 8.88565 36.1898 9.32015C36.0167 10.0965 36.5434 11.2068 37.0829 11.5203C36.5992 11.1125 36.1774 10.1307 36.3348 9.42443Z" fill="#C6C6C6"/>
<path d="M37.0983 11.5332L37.0938 11.5415C37.0989 11.5416 37.1041 11.5421 37.1093 11.5423C37.1056 11.5394 37.102 11.5362 37.0983 11.5332Z" fill="#C6C6C6"/>
<path d="M31.2267 12.3289C30.5995 11.2126 30.8336 10.3485 31.3438 9.98741C31.793 9.66958 32.2197 9.55941 32.603 9.65748C32.1683 9.4486 31.6668 9.53304 31.1337 9.91029C30.6235 10.2714 30.3893 11.1355 31.0165 12.2518C31.3857 12.909 31.8954 13.4125 32.3921 13.6161C32.3966 13.6097 32.4016 13.6038 32.4061 13.5974C31.974 13.3543 31.5473 12.8997 31.2267 12.3289Z" fill="#C6C6C6"/>
<path d="M31.1651 22.8471C30.4795 24.739 29.5126 26.1358 28.3984 27.161C28.4888 27.182 28.5789 27.2043 28.6686 27.2281C28.7348 27.2456 28.8005 27.2652 28.8664 27.2842C28.8674 27.2831 28.8681 27.282 28.8692 27.281C29.5049 26.702 30.0555 26.0363 30.4524 25.271C30.7197 24.7556 30.9082 24.2054 31.0397 23.6406C31.1117 23.3314 31.165 23.0189 31.2165 22.7061C31.1994 22.7529 31.1823 22.7995 31.1651 22.8471Z" fill="#C6C6C6"/>
<path d="M14.9983 27.2923C14.763 27.7409 14.5639 28.2103 14.3418 28.6666C14.7163 29.087 15.1759 29.4188 15.672 29.6821C16.8863 30.3267 18.2914 30.5746 19.6535 30.6174C21.3018 30.6692 22.9458 30.417 24.5355 29.987C24.1104 29.9223 23.7003 29.7973 23.3127 29.5986C20.9525 30.0336 18.7175 29.7624 17.4704 29.5757C14.6331 29.1509 15.4325 26.5928 15.4325 26.5928C15.2646 26.8098 15.1253 27.05 14.9983 27.2923Z" fill="#C6C6C6"/>
<path d="M12.6182 31.6165C13.2746 31.8695 13.9598 31.6473 14.5478 31.3225C14.87 31.1445 15.1856 30.9449 15.4744 30.7164C15.6825 30.5516 15.8818 30.3764 16.0867 30.2078C15.973 30.1604 15.8609 30.109 15.7499 30.0557C15.7496 30.0559 15.7494 30.0561 15.7492 30.0564C13.7068 32.1877 11.9297 30.9774 11.9297 30.9774C12.0611 31.2796 12.3123 31.4985 12.6182 31.6165Z" fill="#B77137"/>
<path d="M9.63657 34.1598C9.31376 35.519 8.82758 35.4763 8.82758 35.4763L8.73522 35.4811C8.65776 35.6344 8.66177 35.7787 8.55859 35.912C8.93058 35.8699 9.23987 35.6161 9.45088 35.3092C9.95993 34.5688 9.90052 33.6012 10.2599 32.7957C10.5572 32.1294 11.1014 31.5983 11.7558 31.2871C11.7246 31.2363 11.6955 31.1839 11.6712 31.128C11.6547 31.09 11.6546 31.0533 11.6643 31.0205C10.1041 31.7494 9.95937 32.8007 9.63657 34.1598Z" fill="#B77137"/>
<path d="M8.48381 35.493C8.1963 35.7979 7.91694 35.9124 7.70106 35.948C7.53744 35.9749 7.43471 35.7757 7.54858 35.6552L7.58099 35.6208C7.86982 35.315 7.77241 34.9053 7.77241 34.9053C7.5409 35.3757 7.29003 35.7249 6.87109 35.8667C6.9572 36.035 7.12938 36.1438 7.31159 36.1878C7.52999 36.2405 7.7557 36.1812 7.94526 36.0682C8.18008 35.9282 8.34972 35.7235 8.48381 35.493Z" fill="#B77137"/>
<path d="M5.94031 35.1929C6.033 35.481 6.29232 35.6299 6.58682 35.6137C7.0729 35.587 7.37265 35.2196 7.58644 34.8126C7.57994 34.8197 6.94152 35.5205 6.40751 35.1972C5.87078 34.8722 6.06672 34.3184 6.06672 34.3184C5.92362 34.5857 5.84478 34.8958 5.94031 35.1929Z" fill="#B77137"/>
<path d="M2.14871 31.7277C2.13168 31.7377 1.18571 32.2884 0.70821 31.9355C0.234698 31.5855 0.77483 30.5419 0.793664 30.5059C0.634991 30.6877 0.492329 30.881 0.396623 31.0975C0.230502 31.4732 0.252197 31.9768 0.648676 32.1941C0.987632 32.3798 1.42117 32.298 1.73267 32.0972C1.89012 31.9957 2.0257 31.868 2.14871 31.7277Z" fill="#B77137"/>
<path d="M2.22536 32.6106C2.02931 32.4458 2.2005 32.0964 2.31208 31.9124C2.31214 31.9123 2.31215 31.9122 2.31221 31.9121C2.16921 32.1219 1.97585 32.3221 1.72292 32.447C1.61269 32.5014 1.49228 32.5398 1.36914 32.5647C1.63302 32.7857 2.06545 32.8773 2.37189 32.8295C2.58474 32.7963 2.83248 32.6333 3.05575 32.4241C3.05028 32.4257 2.46111 32.8088 2.22536 32.6106Z" fill="#B77137"/>
<path d="M6.83479 29.0273C4.71004 29.2412 5.06876 31.9109 4.01346 32.3758C3.6829 32.5214 3.64371 32.3621 3.69065 32.1826C3.74481 31.9755 3.69424 31.722 3.69424 31.722C3.69424 31.722 3.6939 31.7227 3.69385 31.7228C3.6773 31.9304 3.58321 32.3082 3.30273 32.6455C3.64057 32.8351 4.07255 32.7209 4.35183 32.4744C4.93974 31.9556 5.01653 31.0935 5.31975 30.4125C5.61054 29.7595 6.16075 29.2592 6.83479 29.0273Z" fill="#B77137"/>
<path d="M13.8329 28.4013C13.0174 29.8114 12.491 30.4399 10.248 30.5056C8.00509 30.5712 6.82227 28.2653 6.82227 28.2653C6.84037 28.3165 6.85928 28.3673 6.8791 28.4178C6.92424 28.5328 6.96857 28.6334 7.03472 28.7661C7.11013 28.9173 7.19365 29.0644 7.28536 29.2063C7.4998 29.5381 7.76232 29.8376 8.06821 30.0881C8.93628 30.799 10.0899 30.9656 11.175 30.8067C11.7625 30.7206 12.3555 30.5871 12.839 30.2259C13.2077 29.9505 13.4909 29.5756 13.7254 29.1838C14.2108 28.3728 14.4973 27.455 15.0144 26.6624C15.129 26.4867 15.2571 26.317 15.4027 26.165C15.0486 26.4689 14.6484 26.9911 13.8329 28.4013Z" fill="#B77137"/>
<path d="M28.7171 30.3174C28.0672 29.1196 25.4678 29.5274 23.6456 28.9413C21.8234 28.3551 21.6282 25.2148 21.6282 25.2148C21.3081 26.4152 21.6352 27.7406 22.505 28.6333C22.8673 29.005 23.3114 29.3034 23.7967 29.4895C24.3061 29.6848 24.8358 29.7351 25.3748 29.7444C25.3888 29.7426 25.402 29.7428 25.4145 29.7448C25.4576 29.7454 25.5008 29.7463 25.544 29.7464C26.5708 29.7496 27.8017 29.7261 28.5503 30.565C28.8981 30.9546 28.9917 31.4542 29.1527 31.9342C29.3056 32.3899 29.591 32.7734 30.1016 32.8211C30.5301 32.8612 30.9646 32.6578 31.1297 32.2451C29.4519 33.3699 29.367 31.5152 28.7171 30.3174Z" fill="#B77137"/>
<path d="M35.0874 29.1059C34.9728 28.9494 34.9282 28.5453 33.8514 27.8763C32.8026 27.2246 30.877 28.12 30.877 28.12L30.8795 28.122C30.975 28.1754 31.0698 28.23 31.1633 28.2868C31.788 28.1087 32.4157 27.89 33.0745 27.9378C33.6172 27.9772 34.0989 28.1927 34.4336 28.6295C34.7091 28.9889 34.9144 29.5404 35.3868 29.6829C35.7983 29.8069 36.3167 29.6005 36.4652 29.1807C36.5077 29.0607 36.5195 28.9351 36.5068 28.8124C35.786 30.0141 35.2021 29.2624 35.0874 29.1059Z" fill="#B77137"/>
<path d="M37.1955 29.4052C37.0044 29.4307 36.8961 29.3606 36.9662 29.0193C37.0362 28.678 36.5801 28.3398 36.5801 28.3398L36.5801 28.3401C36.7404 28.5205 36.8472 28.8052 36.7581 29.245C36.7379 29.345 36.6805 29.4315 36.6241 29.513C36.6962 29.5757 36.759 29.6473 36.8509 29.6824C36.9422 29.7172 37.0449 29.723 37.1406 29.7056C37.3625 29.6652 37.5262 29.5059 37.6118 29.3014C37.711 29.0645 37.7107 28.8194 37.6535 28.5827C37.6725 29.1043 37.3863 29.3798 37.1955 29.4052Z" fill="#B77137"/>
<path d="M38.5989 28.9282C38.6439 28.7397 38.6307 28.5387 38.5852 28.3443C38.6201 29.0396 38.1144 29.2573 38.1588 28.9332C38.2034 28.6083 37.7676 28.2256 37.7676 28.2256L37.7676 28.2259C37.9492 28.4966 38.0755 28.8879 37.9048 29.3725C38.2194 29.5272 38.5291 29.2204 38.5989 28.9282Z" fill="#B77137"/>
<path d="M30.7172 20.0458C29.7743 20.1477 28.1178 20.1222 25.5438 19.6253C22.9698 19.1283 21.7338 14.8978 22.7404 14.6302C23.7471 14.3627 24.2786 13.5439 24.2786 13.5439L24.2786 13.544C24.0732 13.7844 23.4313 14.2509 22.1219 14.258C22.1175 14.2676 22.114 14.2752 22.1132 14.2765C22.1045 14.298 22.0961 14.3196 22.0884 14.3415C21.9925 14.6126 21.9702 14.8345 21.9625 15.1131C21.953 15.4634 21.9867 15.7999 22.0516 16.1339C22.2123 16.9609 22.5545 17.7501 23.0522 18.4302C23.6426 19.2369 24.4664 19.862 25.3951 20.2291C26.6221 20.7141 27.9585 20.7708 29.2565 20.6211C29.9708 20.5388 30.6824 20.4351 31.4026 20.422C31.7265 20.4161 32.0497 20.4291 32.371 20.4595C32.4076 20.4494 32.4396 20.4539 32.465 20.4691C32.7026 20.4941 32.939 20.5296 33.1737 20.5744C32.529 20.1346 31.9009 19.6649 31.1825 19.3498C31.1825 19.3498 31.6602 19.9438 30.7172 20.0458Z" fill="#B77137"/>
<path d="M38.6316 16.5339C38.8672 16.3939 39.0925 16.2367 39.3044 16.0631C39.32 16.0384 39.3399 16.0227 39.362 16.0145C39.8073 15.6393 40.1932 15.1939 40.4951 14.6953C40.4951 14.6953 39.5394 15.5403 37.2139 16.4237C34.8884 17.3072 32.2988 15.8648 32.2988 15.8648C32.3006 15.8663 32.3025 15.8673 32.3042 15.8689C32.8245 16.3461 33.4405 16.7166 34.1051 16.955C35.2864 17.3788 36.5824 17.3889 37.761 16.9514C38.0433 16.8467 38.3162 16.7177 38.5766 16.5672C38.594 16.5503 38.6126 16.5394 38.6316 16.5339Z" fill="#B77137"/>
<path d="M43.4025 13.8096C41.4647 16.8035 40.6267 15.0229 40.5099 14.7332C40.4712 14.9248 40.2576 15.5496 40.0527 15.7685C40.0641 15.7826 40.0738 15.7991 40.0802 15.8194C40.1534 16.0489 40.4703 16.1477 40.6768 16.1987C40.9844 16.2746 41.3095 16.2791 41.6182 16.2072C42.0686 16.1022 42.4794 15.881 42.7885 15.5337C43.0562 15.2329 43.2266 14.857 43.3192 14.4677C43.3703 14.2526 43.3974 14.0313 43.4025 13.8096Z" fill="#B77137"/>
<path d="M24.3249 13.4109C24.3249 13.4109 21.7168 13.7557 19.2367 13.3819C16.7822 13.012 14.2282 11.3325 14.1758 11.2979C14.498 11.5463 14.8294 11.7826 15.1676 12.0067C15.5756 12.277 15.996 12.5304 16.4328 12.7515C16.8955 12.9858 17.3825 13.1667 17.8757 13.3259C19.0417 13.7023 20.2645 13.9394 21.4915 13.9624C22.4451 13.9803 23.478 13.8872 24.3249 13.4109Z" fill="#B77137"/>
<path d="M9.22828 19.6867C9.25133 19.7026 9.26714 19.7219 9.278 19.7426C9.38163 19.6477 9.48924 19.5573 9.59859 19.469C9.5982 19.4687 9.59788 19.4684 9.59749 19.4681C5.88917 16.382 6.29093 13.2151 6.33791 12.9189C6.27036 13.274 6.24093 13.6407 6.23241 13.9945C6.20674 15.0598 6.436 16.1279 6.91563 17.0808C7.44655 18.1356 8.25851 19.0188 9.22828 19.6867Z" fill="#B77137"/>
<path d="M24.4549 10.3593C24.2829 10.7453 24.2688 11.1951 24.0697 11.5682C24.0599 11.5865 24.0488 11.6038 24.038 11.6215C24.0328 11.63 24.0265 11.6379 24.0208 11.6461C24.0196 11.6479 24.0201 11.6474 24.0204 11.6473C24.0187 11.6492 24.0179 11.65 24.0143 11.6542C23.9807 11.6927 23.9456 11.7293 23.9071 11.7631C23.8986 11.7705 23.8659 11.7969 23.8612 11.8011C23.8386 11.8182 23.8155 11.8347 23.792 11.8505C23.7388 11.8863 23.6836 11.9191 23.6273 11.9497C23.3596 12.095 23.0729 12.1891 22.7577 12.2694C22.3719 12.3677 21.979 12.4287 21.5836 12.4636C20.623 12.5486 19.6453 12.4932 18.7012 12.2964C17.6852 12.0846 16.6979 11.7063 15.8445 11.109C14.948 10.4816 14.2412 9.60432 13.8377 8.58553C13.7923 8.47082 13.7515 8.35443 13.7129 8.23727C14.3404 8.14563 14.9783 8.1156 15.6066 8.20547C16.2059 8.29118 16.7726 8.49308 17.3376 8.70243C17.9276 8.92103 18.5201 9.11018 19.1463 9.19163C20.0541 9.3097 20.9766 9.21676 21.8713 9.0443C22.1755 8.98567 22.4702 8.92568 22.7816 8.92469C23.0789 8.92374 23.3739 8.96155 23.6617 9.03558C24.1579 9.16321 24.6224 9.3956 25.0196 9.7171C24.763 9.84791 24.5715 10.0976 24.4549 10.3593Z" fill="#FEAE93"/>
<path d="M37.1907 20.0452C37.6004 19.7193 37.8037 19.1832 37.924 18.6719C36.9114 18.0815 36.3982 18.7695 36.3982 18.7695C35.0765 18.1347 34.4414 19.0286 34.4414 19.0286L34.4415 19.029C34.6858 19.3642 34.9559 19.6783 35.2893 19.9196C35.8296 20.3108 36.6265 20.4941 37.1907 20.0452Z" fill="#F08F7E"/>
<path d="M24.8279 9.57369C24.8197 9.56793 24.8113 9.56236 24.803 9.55667C24.7392 9.51264 24.674 9.47073 24.6075 9.431L24.6075 9.43098C24.3135 9.25539 23.9951 9.12133 23.6617 9.03558C23.3739 8.96155 23.0789 8.92374 22.7816 8.92469C22.4702 8.92567 22.1755 8.98566 21.8713 9.0443C20.9766 9.21676 20.0541 9.30969 19.1463 9.19163C18.5201 9.11018 17.9276 8.92104 17.3376 8.70243C16.7726 8.49308 16.2059 8.29119 15.6066 8.20547C14.9783 8.1156 14.3404 8.14563 13.7129 8.23727C13.7515 8.35443 13.7923 8.47082 13.8377 8.58553C14.206 9.5156 14.8278 10.3271 15.6152 10.9388C15.6009 10.9118 14.4733 8.76765 18.7784 9.78062C20.1624 10.1063 21.9451 10.2865 23.0034 10.3717C23.6449 10.4233 23.9531 11.1898 23.5207 11.6666C23.1795 12.0429 22.7577 12.2694 22.7577 12.2694C23.0729 12.1891 23.3596 12.095 23.6273 11.9497C23.6836 11.9191 23.7388 11.8863 23.792 11.8505C23.8155 11.8347 23.8386 11.8182 23.8612 11.8011C23.8659 11.7969 23.8986 11.7705 23.9071 11.7631C23.9456 11.7293 23.9807 11.6928 24.0143 11.6542C24.0179 11.65 24.0187 11.6492 24.0204 11.6473C24.0201 11.6474 24.0196 11.6479 24.0208 11.6461C24.0265 11.6379 24.0328 11.63 24.038 11.6215C24.0488 11.6038 24.0599 11.5865 24.0697 11.5682C24.2688 11.1951 24.2829 10.7453 24.4549 10.3593C24.5715 10.0976 24.763 9.84792 25.0196 9.71709C24.9575 9.66683 24.8932 9.61955 24.8279 9.57369Z" fill="#F08F7E"/>
</svg>
