<svg width="100" height="107" viewBox="0 0 100 107" fill="none" xmlns="http://www.w3.org/2000/svg">
<g opacity="0.3">
<path d="M43.963 106.613C68.2431 106.613 87.926 103.438 87.926 99.5212C87.926 95.6047 68.2431 92.4297 43.963 92.4297C19.6829 92.4297 0 95.6047 0 99.5212C0 103.438 19.6829 106.613 43.963 106.613Z" fill="#092522"/>
</g>
<path d="M24.0288 80.0762L20.7599 85.9143C20.7599 85.9143 7.73556 85.3059 6.1075 73.988C5.53938 70.0408 6.0969 66.8547 7.13988 64.3787C7.83094 62.7295 8.73825 61.3961 9.66885 60.3637C10.6355 59.291 12.3801 60.3128 11.8862 61.6716C10.8327 64.5737 9.96351 68.7053 11.1655 72.9599C12.0643 76.1418 14.3326 77.914 16.7174 78.8976C20.2448 80.3519 24.0288 80.0762 24.0288 80.0762Z" fill="#EFD49E"/>
<path d="M24.0288 80.0763L20.7599 85.9144C20.7599 85.9144 7.73556 85.3059 6.1075 73.988C5.53938 70.0409 6.0969 66.8547 7.13988 64.3787C7.28615 64.3406 7.43878 64.3172 7.59353 64.3066C7.59353 64.3066 5.43896 74.0296 10.9015 79.5395C12.5726 81.2251 15.3891 80.9561 16.6764 78.9619C16.6901 78.9406 16.7038 78.9192 16.7174 78.8976C20.2448 80.3519 24.0288 80.0763 24.0288 80.0763Z" fill="#E8AB79"/>
<path d="M20.7597 86.7332C20.7469 86.7332 20.7341 86.733 20.7212 86.7324C20.5819 86.7258 17.2673 86.5545 13.7055 84.9414C8.91102 82.7701 6.00256 79.0222 5.29441 74.103C4.20278 66.5184 7.18357 61.8946 9.05773 59.8135C9.75503 59.0387 10.8653 58.8717 11.758 59.4077C12.6533 59.9453 13.0148 60.9672 12.6575 61.9502C11.6951 64.5984 10.792 68.6194 11.9553 72.7353C13.9794 79.896 23.8692 79.2637 23.9684 79.2559C24.2688 79.2322 24.5583 79.3789 24.7201 79.6339C24.8822 79.8886 24.8912 80.2115 24.7438 80.475L21.4755 86.3136C21.3299 86.5734 21.0555 86.7332 20.7597 86.7332ZM10.6391 60.7355C10.5278 60.7355 10.3989 60.7764 10.2773 60.9114C10.2773 60.9116 10.2771 60.9116 10.2771 60.9116C8.59515 62.7792 5.92223 66.9463 6.91872 73.8694C7.54953 78.252 10.0455 81.4671 14.3372 83.4259C16.8493 84.5724 19.2854 84.9399 20.3022 85.0497L22.6219 80.9056C21.5226 80.8695 19.9207 80.7259 18.2188 80.2663C14.0824 79.1494 11.3704 76.6995 10.376 73.1816C9.09365 68.6449 10.0701 64.2651 11.1151 61.3897C11.2329 61.0657 11.039 60.8903 10.913 60.8147C10.8687 60.7879 10.7653 60.7355 10.6391 60.7355Z" fill="#3F2017"/>
<path d="M47.209 97.0215C47.209 97.0215 48.1236 101.347 55.6694 100.699C63.2151 100.051 64.1297 94.802 63.2723 93.5394C62.4148 92.2768 48.5238 91.0764 47.209 97.0215Z" fill="#E8AB79"/>
<path d="M54.1735 101.587C47.4188 101.587 46.447 97.3832 46.4064 97.1916C46.3823 97.0771 46.3827 96.9589 46.4081 96.8446C46.9393 94.4422 49.2027 92.792 52.9534 92.0729C56.8541 91.3249 63.0051 91.6855 63.9512 93.0788C64.5458 93.9544 64.4869 95.5055 63.8046 96.9386C63.0843 98.4516 61.0788 101.059 55.7398 101.517C55.186 101.564 54.6643 101.587 54.1735 101.587ZM48.0602 97.004C48.3155 97.7091 49.6819 100.39 55.5994 99.8818C60.1231 99.4935 61.7536 97.4291 62.3229 96.2332C62.8067 95.217 62.759 94.3412 62.6206 94.0486C61.6645 93.4289 55.3513 92.7364 51.2545 94.224C49.4831 94.8673 48.4098 95.802 48.0602 97.004Z" fill="#3F2017"/>
<path d="M75.6779 98.1096C74.8893 101.043 67.5949 102.368 62.4351 100.851C59.9379 100.115 57.9389 98.7137 57.4217 96.507C57.3814 96.3416 57.3496 96.172 57.3284 95.9961C57.3284 95.9961 49.3239 100.74 36.6344 96.8822C36.6344 96.8822 36.433 97.2934 35.9264 97.8552C34.8791 99.0126 32.5261 100.815 27.9451 100.969C21.1997 101.198 18.569 99.1398 19.1986 95.481C19.1986 95.481 10.4818 78.5327 21.628 73.2161C21.628 73.2161 24.8862 67.7278 30.031 62.7547C32.0449 60.8065 33.6221 58.2224 34.7944 55.7994C36.6153 52.0346 37.4611 48.6555 37.4611 48.6555C37.4611 48.6555 58.1572 39.432 72.3476 52.4649C72.3476 52.4649 72.8118 53.8767 73.1722 57.0417C73.5961 60.7514 73.8781 66.865 73.1128 75.9317C71.8876 90.4251 72.3476 92.5089 72.3476 92.5089C72.3476 92.5089 75.2433 93.2085 75.7944 95.7841C75.9323 96.4328 75.9217 97.2023 75.6779 98.1096Z" fill="#EFD49E"/>
<path d="M73.1708 57.0417C68.3736 59.8081 62.491 62.0975 56.1653 62.0975C45.3541 62.0975 38.2526 58.2712 34.793 55.7994C36.6139 52.0346 37.4597 48.6555 37.4597 48.6555C37.4597 48.6555 58.1559 39.432 72.3462 52.4649C72.3462 52.4649 72.8105 53.8767 73.1708 57.0417Z" fill="#E8AB79"/>
<path d="M75.6781 98.1081C74.8895 101.042 67.5951 102.367 62.4353 100.849C59.9381 100.113 57.9391 98.7122 57.4219 96.5054L60.5889 93.6797C60.5889 93.6797 59.4718 97.2135 64.4598 98.0615C68.9815 98.831 74.9595 97.6311 75.7947 95.7826C75.9325 96.4312 75.9219 97.2008 75.6781 98.1081Z" fill="#E8AB79"/>
<path d="M57.3278 95.995C57.3278 95.995 49.3232 100.739 36.6337 96.8811C36.6337 96.8811 36.4323 97.2923 35.9257 97.8541C36.1462 96.0777 35.8155 91.7023 27.2046 91.6026C27.2046 91.6026 30.6876 90.7356 31.031 84.6749C31.3744 78.6291 29.6848 75.5998 27.1113 73.8806C27.3911 74.0502 31.3786 76.3566 33.0321 72.4434C33.0321 72.4434 33.8591 88.5637 44.8484 81.1887C44.8484 81.1887 60.2913 92.8024 68.2704 81.0797C68.2704 81.0797 65.9033 91.1365 57.3278 95.995Z" fill="#E8AB79"/>
<path d="M19.8484 94.1836C19.8484 94.1836 19.3982 98.1693 24.543 98.0601C29.6878 97.951 34.4896 96.5361 34.2753 94.9498C34.0609 93.3635 35.7896 98.1095 35.1487 98.5914C34.5078 99.0734 31.2456 101.684 25.3862 100.932C19.5268 100.18 18.0264 96.9759 19.8484 94.1836Z" fill="#E8AB79"/>
<path d="M18.3956 95.3087C18.7455 93.9584 19.7459 92.8402 20.9156 92.1281C23.8056 90.4056 27.7069 90.6641 30.8298 91.513C31.1136 91.6059 31.3991 91.6885 31.6792 91.7902C32.1942 91.9799 32.0214 92.7593 31.4739 92.7097C29.2286 92.5073 26.9582 92.1309 24.7427 92.4894C22.7979 92.7851 20.793 93.6508 20.0378 95.5407L20.0134 95.6117L20.0037 95.6427C20.0023 95.6476 19.997 95.6673 20.0007 95.6504C19.7444 96.7023 18.2022 96.3777 18.3956 95.3087Z" fill="#3F2017"/>
<path d="M20.5008 72.8796C23.9062 71.3838 28.2811 72.0553 30.1802 75.5095C30.4955 76.0845 29.736 76.6333 29.2899 76.1581C28.0398 74.7411 26.3528 73.789 24.4511 73.7912C23.3332 73.7649 22.187 73.9897 21.1437 74.388C20.1498 74.7506 19.5517 73.3466 20.5008 72.8796Z" fill="#3F2017"/>
<path d="M56.9209 95.2798C63.8757 90.775 67.9265 82.625 69.6807 74.7089C70.7593 69.7705 71.0895 64.6879 70.8629 59.6337C70.8398 59.1221 71.6334 59.0057 71.7048 59.5807C71.9831 62.9887 71.9608 66.429 71.6406 69.8494C71.0039 76.6984 68.9689 83.5299 65.0854 89.275C63.116 92.1556 60.7086 94.8316 57.7333 96.7058C56.7743 97.2247 55.9774 95.8482 56.9209 95.2798Z" fill="#3F2017"/>
<path d="M64.2741 93.3616C65.5223 92.3237 67.0679 91.8826 68.6377 91.6578C70.2069 91.4568 71.8112 91.6057 73.3404 91.9932C74.3899 92.2605 74.0511 93.7975 72.9838 93.5947C72.6114 93.5043 72.2452 93.3834 71.8718 93.2953C71.6955 93.2591 71.2678 93.1712 71.0992 93.1338C70.9375 93.1114 70.4866 93.0461 70.3183 93.022C70.1429 93.0084 69.7009 92.9764 69.5315 92.9639C68.2089 92.9035 66.8847 93.1011 65.6239 93.5092C65.2791 93.6229 64.9221 93.7524 64.6086 93.8935C64.2791 94.0405 63.9982 93.5948 64.2741 93.3616Z" fill="#3F2017"/>
<path d="M67.114 100.775C67.8569 99.6349 68.3123 98.1007 67.7521 96.7987L67.697 96.6597C67.6467 96.5729 67.5203 96.3567 67.4705 96.2674C67.0827 95.7168 67.8303 95.1252 68.2648 95.6375L68.5099 95.9519L68.6318 96.1114L68.7331 96.2855C68.8618 96.4814 68.9998 96.7947 69.0826 97.0174C69.6256 98.5691 69.3128 100.285 68.6006 101.727C67.9573 102.823 66.3866 101.82 67.114 100.775Z" fill="#3F2017"/>
<path d="M71.2586 100.015C72.0015 98.8752 72.4568 97.3409 71.8966 96.0389L71.8415 95.8999C71.7912 95.8131 71.6649 95.597 71.615 95.5076C71.2273 94.957 71.9748 94.3654 72.4093 94.8778L72.6544 95.1922L72.7764 95.3517L72.8777 95.5258C73.0063 95.7217 73.1443 96.035 73.2272 96.2576C73.7702 97.8093 73.4574 99.525 72.7451 100.967C72.1018 102.064 70.5311 101.06 71.2586 100.015Z" fill="#3F2017"/>
<path d="M26.579 101.157C25.6402 99.2653 25.4462 96.774 26.9356 95.1067C27.3206 94.6224 28.0721 95.1304 27.7699 95.6665C27.7004 95.7878 27.5742 96.0095 27.5034 96.1289C26.8713 97.4635 27.3086 99.0606 28.0862 100.244C28.8255 101.314 27.191 102.309 26.579 101.157Z" fill="#3F2017"/>
<path d="M22.4345 100.929C21.4957 99.0368 21.3016 96.5455 22.791 94.8782C23.1759 94.3939 23.9276 94.9019 23.6254 95.438C23.5559 95.5593 23.4297 95.7809 23.3588 95.9004C22.7268 97.2349 23.1641 98.8321 23.9417 100.016C24.681 101.085 23.0464 102.081 22.4345 100.929Z" fill="#3F2017"/>
<path d="M67.1674 102.304C66.7009 102.304 66.2364 102.288 65.779 102.256C60.999 101.924 57.7285 100.061 56.7628 97.1956C55.1305 97.933 51.542 99.2233 46.4249 99.2237C43.6945 99.2239 40.5292 98.8564 36.9921 97.8418C36.1203 99.0367 33.6058 101.597 27.9722 101.788C23.6433 101.933 20.8292 101.188 19.363 99.5072C18.4772 98.4915 18.1362 97.1825 18.3477 95.613C17.5672 94.0152 13.5484 85.2493 15.8167 78.5256C16.7112 75.8741 18.4718 73.8758 21.0512 72.5827C21.7134 71.5065 24.8042 66.6643 29.4606 62.1631C34.3725 57.4149 36.6414 48.5442 36.6638 48.4552C36.7252 48.2107 36.8954 48.0078 37.1257 47.9051C37.3419 47.8088 42.502 45.5369 49.5022 44.8548C58.832 43.9455 66.9231 46.3677 72.902 51.859C73.0055 51.954 73.0828 52.0739 73.1266 52.2073C73.218 52.4857 75.349 59.2178 73.9298 75.9986C73.0053 86.9316 73.0449 90.7302 73.1112 91.8947C73.883 92.1891 75.2507 92.8748 76.0601 94.2397C76.7485 95.4003 76.8861 96.7741 76.4691 98.3226C75.7466 101.006 71.376 102.303 67.1674 102.304ZM57.3266 95.1744C57.4505 95.1744 57.5745 95.2023 57.6889 95.2586C57.9365 95.3807 58.107 95.6186 58.1412 95.8925C58.5305 99.0074 62.4007 100.376 65.8927 100.619C70.2112 100.919 74.4133 99.6462 74.8845 97.8961C75.1808 96.7956 75.1033 95.8505 74.6544 95.0867C73.8662 93.7459 72.1682 93.3084 72.1512 93.3041C71.8493 93.2286 71.613 92.988 71.5457 92.6842C71.4959 92.4586 71.0931 90.0684 72.2946 75.8603C73.5496 61.0209 71.9499 54.1257 71.6229 52.9137C65.9499 47.7937 58.578 45.6303 49.7097 46.4834C43.9791 47.0348 39.4216 48.7411 38.1487 49.2559C37.6345 51.1171 35.2938 58.8066 30.6012 63.343C25.6013 68.1761 22.3653 73.5792 22.3331 73.6331C22.2502 73.7727 22.1275 73.8847 21.9809 73.9546C19.6953 75.0447 18.1445 76.7591 17.3716 79.05C15.1392 85.6674 19.8797 95.0108 19.9278 95.1044C20.0093 95.2626 20.037 95.4431 20.0069 95.6187C19.801 96.816 19.9949 97.735 20.5997 98.4285C21.6897 99.6781 24.2217 100.272 27.9165 100.147C34.0837 99.9383 35.8281 96.6533 35.8992 96.5136C36.08 96.1593 36.4916 95.9801 36.8721 96.095C49.0279 99.7913 56.8325 95.3329 56.91 95.2876C57.0382 95.2123 57.1822 95.1744 57.3266 95.1744Z" fill="#3F2017"/>
<path d="M94.5989 41.4023C91.7689 47.8339 90.054 58.2933 82.9376 47.3188C82.9376 47.3188 79.6773 53.1102 66.9878 54.7107C66.9878 54.7107 63.2802 59.0458 56.3652 59.12C56.3058 59.1221 56.2444 59.1221 56.1829 59.1221C49.1513 59.1221 45.3801 54.7107 45.3801 54.7107C32.6886 53.1102 29.4303 47.3188 29.4303 47.3188C24.9277 54.2613 22.5874 52.6269 20.7601 48.8599C19.698 46.6722 18.8098 43.7659 17.769 41.4023C15.9862 37.3512 11.4242 32.9992 13.9108 25.9252C16.3974 18.8512 21.5423 15.3344 21.5423 15.3344C21.5423 15.3344 26.6872 8.24559 30.9163 5.55975C35.1476 2.87386 38.4058 5.96039 38.4058 5.96039C38.4058 5.96039 38.516 5.85017 38.7301 5.65937C38.8615 5.54491 39.0333 5.39863 39.2452 5.23116C40.2331 4.44259 42.0583 3.18973 44.5215 2.34391C48.3521 1.02959 56.1828 1.21615 56.1828 1.21615C56.1828 1.21615 56.185 1.21615 56.1892 1.21615C56.4584 1.20979 64.0835 1.05292 67.8442 2.34391C71.6747 3.65823 73.9621 5.96039 73.9621 5.96039C73.9621 5.96039 77.2203 2.8739 81.4494 5.55975C85.6807 8.24559 90.8255 15.3344 90.8255 15.3344C90.8255 15.3344 95.9704 18.8512 98.457 25.9252C100.944 32.9992 96.3817 37.3512 94.5989 41.4023Z" fill="#EFD49E"/>
<path d="M38.4057 6.53185C35.8322 7.39039 34.2317 9.84942 34.2317 9.84942C34.2317 9.84942 32.4023 12.0202 33.3181 17.8519C33.9646 21.9813 34.1533 30.959 32.5019 38.7388V38.7451C31.8215 41.9461 30.8294 44.9457 29.4302 47.32C27.0984 50.9152 25.3453 52.2105 23.944 52.1002C23.8719 52.0939 23.7978 52.0854 23.7278 52.0706C23.7087 52.0684 23.6896 52.0642 23.6705 52.0578C23.6366 52.0515 23.6027 52.043 23.5688 52.0345C23.5243 52.0239 23.4819 52.0091 23.4395 51.9942C23.2614 51.937 23.0918 51.8522 22.9244 51.7483C22.8883 51.725 22.8523 51.7017 22.8184 51.6762C22.7781 51.6508 22.74 51.6211 22.6997 51.5893C22.6361 51.5405 22.5725 51.4897 22.5089 51.4324C22.4792 51.407 22.4496 51.3794 22.4199 51.3518C22.3987 51.3306 22.3753 51.3095 22.3541 51.2883C22.2312 51.1674 22.1125 51.036 21.9938 50.8919C21.9683 50.8601 21.9429 50.8283 21.9175 50.7944C21.8793 50.7477 21.8412 50.699 21.8052 50.6481C21.7733 50.6057 21.7416 50.5612 21.7119 50.5188C21.502 50.2241 21.3006 49.8934 21.1077 49.5373C21.0759 49.4801 21.0441 49.4207 21.0123 49.3592C20.9275 49.1981 20.8427 49.0328 20.7601 48.861C19.698 46.6733 18.8098 43.767 17.769 41.4034C15.9862 37.3523 11.4242 33.0003 13.9108 25.9263C16.3974 18.8524 21.5423 15.3355 21.5423 15.3355C21.5423 15.3355 24.2027 11.6703 27.2702 8.61137C28.4679 7.41787 29.7292 6.31556 30.9163 5.56092C35.1476 2.87504 38.4058 5.96157 38.4058 5.96157C38.4058 5.96157 38.6962 5.66903 39.2452 5.23233C39.3194 5.8111 39.1138 6.29656 38.4057 6.53185Z" fill="#D19D65"/>
<path d="M73.9605 6.53185C75.7331 8.1049 77.1337 10.3629 77.1337 10.3629C77.1337 10.3629 79.964 12.0202 79.0482 17.8519C78.1345 23.6815 78.1345 39.1734 82.936 47.32C90.0524 58.2944 91.7674 47.8351 94.5974 41.4034C96.3802 37.3524 100.942 33.0003 98.4555 25.9264C95.9689 18.8524 90.824 15.3356 90.824 15.3356C90.824 15.3356 85.6791 8.24677 81.45 5.56092C77.2188 2.87504 73.9605 5.96157 73.9605 5.96157C73.9605 5.96157 73.6701 5.66903 73.1211 5.23233C73.0469 5.8111 73.4025 6.03658 73.9605 6.53185Z" fill="#D19D65"/>
<path d="M79.8717 38.7441C80.0858 43.2319 78.4272 49.6911 66.5658 51.4632C66.5658 51.4632 62.8202 55.653 56.1865 56.3347C49.5529 55.653 45.8072 51.4632 45.8072 51.4632C33.9459 49.6911 32.2873 43.2319 32.5014 38.7441C31.8209 41.9451 30.8288 44.9447 29.4297 47.3189C29.4297 47.3189 32.6879 53.1104 45.3795 54.7109C45.3795 54.7109 49.0898 59.0464 56.0085 59.1189C56.0085 59.1193 56.0084 59.1197 56.0084 59.1201C56.0609 59.122 56.1153 59.122 56.1696 59.122C56.1739 59.122 56.178 59.1223 56.1822 59.1223C56.1837 59.1223 56.185 59.1222 56.1865 59.1222C56.1879 59.1222 56.1893 59.1223 56.1907 59.1223C56.195 59.1223 56.1991 59.122 56.2033 59.122C56.2577 59.122 56.3121 59.122 56.3646 59.1201C56.3645 59.1197 56.3645 59.1193 56.3645 59.1189C63.2832 59.0463 66.9935 54.7109 66.9935 54.7109C79.685 53.1104 82.9433 47.3189 82.9433 47.3189C81.5443 44.9447 80.5522 41.9451 79.8717 38.7441Z" fill="#E8AB79"/>
<path d="M41.2051 39.8303C41.2051 39.8303 42.8927 43.0887 47.3801 42.7458C51.8676 42.4028 53.0966 39.373 53.0966 39.373L55.2117 40.1663L56.1835 41.3452L55.9548 44.2892C55.9548 44.2892 43.68 48.7756 41.2051 39.8303Z" fill="#E8AB79"/>
<path d="M71.162 39.8303C71.162 39.8303 69.4744 43.0887 64.987 42.7458C60.4995 42.4028 59.2705 39.373 59.2705 39.373L57.1554 40.1663L56.1836 41.3452L56.4122 44.2892C56.4122 44.2892 68.6871 48.7756 71.162 39.8303Z" fill="#E8AB79"/>
<path d="M33.4322 23.623C33.4322 23.623 32.7136 34.2478 32.5016 38.7376V38.744C31.8211 41.9449 30.829 44.9445 29.4299 47.3188C27.0981 50.914 25.3449 52.2093 23.9437 52.099C23.8716 52.0927 23.7996 52.0842 23.7275 52.0694C23.7084 52.0672 23.6893 52.063 23.6702 52.0566C23.6363 52.0503 23.6024 52.0418 23.5685 52.0333C23.5239 52.0227 23.4816 52.0079 23.4392 51.993C23.2611 51.9358 23.0915 51.851 22.9241 51.7471C22.888 51.7238 22.852 51.7005 22.8181 51.675C22.7778 51.6496 22.7397 51.6199 22.6994 51.5881C22.6358 51.5393 22.5722 51.4885 22.5086 51.4312C22.4789 51.4058 22.4492 51.3782 22.4196 51.3506C22.3984 51.3294 22.375 51.3083 22.3538 51.2871C22.2309 51.1663 22.1122 51.0348 21.9935 50.8907C21.968 50.8589 21.9426 50.8271 21.9172 50.7932C21.879 50.7465 21.8408 50.6978 21.8048 50.6469C21.773 50.6045 21.7413 50.56 21.7116 50.5176C21.5017 50.2229 21.3003 49.8922 21.1074 49.5361C21.0756 49.4789 21.0438 49.4195 21.012 49.358C20.9272 49.1969 20.8424 49.0316 20.7598 48.8598C20.923 48.5185 21.0269 48.3193 21.0269 48.3193C21.0269 48.3193 23.1766 52.0704 26.7441 46.4899C30.5448 40.5447 32.0035 34.8286 33.4322 23.623Z" fill="#BA713F"/>
<path d="M78.9414 23.623C78.9414 23.623 79.66 34.2478 79.872 38.7376V38.744C80.5525 41.9449 81.5446 44.9445 82.9437 47.3188C85.2755 50.914 87.0286 52.2093 88.4298 52.099C88.5019 52.0927 88.574 52.0842 88.6461 52.0694C88.6652 52.0672 88.6843 52.063 88.7033 52.0566C88.7372 52.0503 88.7712 52.0418 88.8051 52.0333C88.8496 52.0227 88.892 52.0079 88.9344 51.993C89.1125 51.9358 89.2821 51.851 89.4495 51.7471C89.4855 51.7238 89.5216 51.7005 89.5555 51.675C89.5958 51.6496 89.6339 51.6199 89.6742 51.5881C89.7378 51.5393 89.8014 51.4885 89.865 51.4312C89.8947 51.4058 89.9243 51.3782 89.954 51.3506C89.9752 51.3294 89.9985 51.3083 90.0197 51.2871C90.1427 51.1663 90.2614 51.0348 90.3801 50.8907C90.4056 50.8589 90.431 50.8271 90.4564 50.7932C90.4946 50.7465 90.5328 50.6978 90.5688 50.6469C90.6006 50.6045 90.6324 50.56 90.6621 50.5176C90.8719 50.2229 91.0733 49.8922 91.2662 49.5361C91.2981 49.4789 91.3298 49.4195 91.3616 49.358C91.4464 49.1969 91.5312 49.0316 91.6139 48.8598C91.4506 48.5185 91.3468 48.3193 91.3468 48.3193C91.3468 48.3193 89.197 52.0704 85.6295 46.4899C81.8289 40.5447 80.3702 34.8286 78.9414 23.623Z" fill="#BA713F"/>
<path d="M23.8452 28.4116C23.8555 28.9124 23.1431 29.0184 23.0091 28.5357C22.3639 26.2112 21.5679 23.2588 21.1113 21.252C20.2549 17.4808 16.225 21.9389 13.9102 25.9263C16.3967 18.8523 21.5416 15.3355 21.5416 15.3355C21.5416 15.3355 24.202 11.6703 27.2695 8.61133C27.4433 8.99289 27.5429 9.2473 27.5429 9.2473C27.5429 9.2473 23.5763 15.3051 23.8452 28.4116Z" fill="#BA713F"/>
<path d="M88.5337 28.4116C88.5234 28.9124 89.2358 29.0184 89.3698 28.5357C90.015 26.2112 90.811 23.2588 91.2676 21.252C92.124 17.4808 96.1539 21.9389 98.4687 25.9263C95.9822 18.8523 90.8372 15.3355 90.8372 15.3355C90.8372 15.3355 88.1768 11.6703 85.1094 8.61133C84.9356 8.99289 84.8359 9.2473 84.8359 9.2473C84.8359 9.2473 88.8026 15.3051 88.5337 28.4116Z" fill="#BA713F"/>
<path d="M74.5376 5.37308L75.4493 7.41659L75.5128 7.5589C75.69 7.95458 75.1788 8.30341 74.8747 8.00235C74.7327 7.86316 73.2577 6.41638 73.166 6.32644C72.2706 5.32415 73.9097 4.18431 74.5376 5.37308Z" fill="#3F2017"/>
<path d="M38.9788 6.54591L36.918 7.41782L36.7744 7.47851C36.3754 7.64803 36.0366 7.13 36.3435 6.83198C36.4855 6.69255 37.9605 5.24612 38.0523 5.15598C39.0719 4.2804 40.1796 5.94123 38.9788 6.54591Z" fill="#3F2017"/>
<path d="M78.1346 9.84854C79.0667 11.1687 79.3109 12.8518 79.3991 14.4329C79.464 15.5918 79.347 16.8871 79.2028 18.0441C78.9596 20.0179 78.8999 22.0109 78.8996 23.9995C78.964 30.3142 79.5989 36.7354 81.6755 42.7146C82.2043 44.1838 82.8505 45.6016 83.6433 46.9033C83.8789 47.2904 83.7562 47.7952 83.3692 48.0309C82.9805 48.2678 82.4729 48.1425 82.2388 47.7523C78.2707 40.7762 77.5499 31.8381 77.491 23.9726C77.5116 21.9394 77.5941 19.8804 77.8671 17.8438C78.0128 16.7708 78.1353 15.5297 78.0838 14.463C78.0168 13.1282 77.8564 11.7694 77.1456 10.6434C76.692 10.0886 77.4838 9.19068 78.1346 9.84854Z" fill="#3F2017"/>
<path d="M34.2329 9.84749C33.3637 11.1978 33.1943 12.8674 33.1734 14.4365C33.1591 15.5829 33.3281 16.8549 33.5198 17.9898C33.8506 19.9727 33.9971 21.9812 34.0832 23.9866C34.2802 31.7926 33.8562 40.676 30.1381 47.7356C29.5953 48.6579 28.2053 47.9253 28.7006 46.9444C29.459 45.6027 30.0602 44.1572 30.5415 42.663C32.4005 36.6636 32.8199 30.2742 32.6749 24.0136C32.6088 22.0529 32.4861 20.1098 32.1841 18.19C31.9924 16.9726 31.8303 15.6484 31.8581 14.4064C31.892 12.632 32.1497 10.6962 33.1614 9.16287C33.6595 8.32181 34.8142 9.05368 34.2329 9.84749Z" fill="#3F2017"/>
<path d="M37.7718 16.7132C38.845 14.4697 41.7329 13.3721 44.0642 14.245C44.8509 14.5437 45.5428 15.0083 46.0379 15.613C46.6869 16.4013 45.9192 17.5677 44.9483 17.2995C43.8601 16.9921 42.973 16.7333 41.8931 16.809C40.8582 16.8658 39.7147 17.2795 38.6985 17.5947L38.3826 17.6188C37.9085 17.6684 37.5514 17.1303 37.7718 16.7132Z" fill="#3F2017"/>
<path d="M74.561 16.7132C73.4878 14.4697 70.5999 13.3721 68.2686 14.245C67.4819 14.5437 66.7901 15.0083 66.295 15.613C65.6459 16.4013 66.4137 17.5677 67.3846 17.2995C68.4728 16.9921 69.3599 16.7333 70.4398 16.809C71.4747 16.8658 72.6182 17.2795 73.6344 17.5947L73.9502 17.6188C74.4243 17.6684 74.7815 17.1303 74.561 16.7132Z" fill="#3F2017"/>
<g opacity="0.5">
<path d="M73.6359 5.65937C73.5045 5.54491 73.3328 5.39863 73.1208 5.23116C72.1329 4.44259 70.3077 3.18973 67.8445 2.34391C64.0139 1.02959 56.1832 1.21615 56.1832 1.21615C56.1832 1.21615 48.3524 1.02959 44.5219 2.34391C42.0586 3.18973 40.2334 4.44259 39.2456 5.23116C39.0336 5.39863 38.8619 5.54491 38.7305 5.65937C38.8089 6.15543 38.864 6.4755 38.864 6.4755C38.864 6.4755 42.0768 4.01722 56.1832 4.0165C70.2896 4.01726 73.5024 6.4755 73.5024 6.4755C73.5024 6.4755 73.5574 6.15543 73.6359 5.65937Z" fill="white"/>
</g>
<path d="M66.5262 47.125C59.8465 47.9982 56.1761 43.0393 56.1676 43.0279V43.0273L56.1674 43.0276L56.1672 43.0273V43.0279C56.1588 43.0393 52.4884 47.9982 45.8086 47.125C45.8086 47.125 50.0044 51.9765 56.1672 51.9767C56.1673 51.9767 56.1673 51.9767 56.1674 51.9767C56.1675 51.9767 56.1675 51.9767 56.1676 51.9767C62.3303 51.9765 66.5262 47.125 66.5262 47.125Z" fill="#3F2017"/>
<path d="M62.2374 37.5865C62.1768 36.2726 61.1471 35.209 59.8354 35.1105L59.7755 35.106C57.3723 34.9256 54.9589 34.9256 52.5558 35.106L52.441 35.1146C51.1909 35.2085 50.1764 36.1999 50.101 37.4514C50.0988 37.4886 50.0968 37.5258 50.095 37.5629C50.0509 38.4688 50.4697 39.3443 51.2149 39.8613C52.3782 40.6684 53.7326 41.2396 55.2401 41.6217C55.8472 41.7756 56.4839 41.7756 57.0911 41.6217C58.6202 41.2341 59.9918 40.652 61.1663 39.8264C61.8772 39.3267 62.2757 38.4919 62.239 37.6237C62.2385 37.6114 62.238 37.5989 62.2374 37.5865Z" fill="#3F2017"/>
<g opacity="0.35">
<path d="M56.1908 37.1651C58.0091 37.1651 59.4832 36.8859 59.4832 36.5415C59.4832 36.1972 58.0091 35.918 56.1908 35.918C54.3725 35.918 52.8984 36.1972 52.8984 36.5415C52.8984 36.8859 54.3725 37.1651 56.1908 37.1651Z" fill="white"/>
</g>
<path d="M72.9257 40.2503C72.7896 42.5249 71.531 44.6772 69.6471 45.9672C68.5097 46.7536 67.1496 47.0759 65.7982 47.235C62.5561 47.5941 59.247 46.9461 56.3538 45.465C56.1556 45.3603 55.9758 45.2625 55.7576 45.1295H56.6091C53.224 47.0915 49.1237 47.7879 45.2819 47.0162C42.561 46.5023 40.3466 44.2266 39.7343 41.56C39.6303 41.1156 39.5607 40.7028 39.5509 40.2345C39.5448 39.9716 39.7529 39.7535 40.0158 39.7474C40.2432 39.7416 40.428 39.8946 40.4892 40.1001C41.1297 41.8192 42.0323 43.6111 43.6095 44.6242C44.5449 45.2393 45.6593 45.4496 46.7562 45.5654C49.0769 45.806 51.4537 45.4636 53.6543 44.6791C54.2058 44.4846 54.7446 44.256 55.2697 44.0036C55.4393 43.9214 55.6229 43.8261 55.7601 43.7489C56.033 43.5955 56.3549 43.6072 56.6091 43.7502C59.9394 45.5039 64.1637 46.2424 67.7955 45.0918C69.9228 44.2902 71.066 42.1321 71.7675 40.0843C71.9525 39.4079 72.944 39.5438 72.9257 40.2503Z" fill="#3F2017"/>
<path d="M56.5474 40.167L56.9779 44.4395C57.0396 45.6236 55.2959 45.6254 55.357 44.4395L55.7874 40.167C55.8357 39.7141 56.5008 39.7162 56.5474 40.167Z" fill="#3F2017"/>
<path d="M68.4332 37.1356C62.7806 32.5033 52.1097 32.3408 45.8365 35.8117C45.3851 36.0605 44.8907 36.3642 44.4776 36.6702C44.3196 36.7859 44.1654 36.904 44.0194 37.028L43.8971 37.1356C43.7251 37.2867 43.4632 37.2699 43.312 37.0979C43.1688 36.9355 43.1782 36.6949 43.3196 36.5405C43.6863 36.0886 44.1237 35.6998 44.5783 35.3343C45.4944 34.6055 46.5194 34.0106 47.5839 33.5281C52.0376 31.518 57.5814 31.3208 62.2621 32.6227C64.7542 33.3783 67.2637 34.5589 68.9977 36.5539C69.3326 36.9304 68.8231 37.4671 68.4332 37.1356Z" fill="#3F2017"/>
<path d="M41.9909 35.3194C45.195 35.3194 47.7924 32.2621 47.7924 28.4907C47.7924 24.7194 45.195 21.6621 41.9909 21.6621C38.7869 21.6621 36.1895 24.7194 36.1895 28.4907C36.1895 32.2621 38.7869 35.3194 41.9909 35.3194Z" fill="#3F2017"/>
<path d="M43.1818 29.5303C44.2735 29.5303 45.1585 28.4886 45.1585 27.2036C45.1585 25.9186 44.2735 24.877 43.1818 24.877C42.0901 24.877 41.2051 25.9186 41.2051 27.2036C41.2051 28.4886 42.0901 29.5303 43.1818 29.5303Z" fill="white"/>
<g opacity="0.35">
<path d="M41.5766 32.7383C42.0972 32.2177 41.9501 31.2266 41.2481 30.5246C40.5461 29.8226 39.555 29.6755 39.0344 30.1961C38.5138 30.7167 38.6609 31.7078 39.3629 32.4098C40.0649 33.1118 41.056 33.2589 41.5766 32.7383Z" fill="white"/>
</g>
<path d="M70.3757 35.3194C73.5797 35.3194 76.1771 32.2621 76.1771 28.4907C76.1771 24.7194 73.5797 21.6621 70.3757 21.6621C67.1716 21.6621 64.5742 24.7194 64.5742 28.4907C64.5742 32.2621 67.1716 35.3194 70.3757 35.3194Z" fill="#3F2017"/>
<path d="M69.1837 29.5303C70.2754 29.5303 71.1604 28.4886 71.1604 27.2036C71.1604 25.9186 70.2754 24.877 69.1837 24.877C68.092 24.877 67.207 25.9186 67.207 27.2036C67.207 28.4886 68.092 29.5303 69.1837 29.5303Z" fill="white"/>
<g opacity="0.35">
<path d="M73.002 32.411C73.704 31.709 73.8511 30.7179 73.3305 30.1973C72.8099 29.6767 71.8188 29.8238 71.1168 30.5258C70.4148 31.2278 70.2677 32.2189 70.7883 32.7395C71.3089 33.26 72.3 33.113 73.002 32.411Z" fill="white"/>
</g>
<path d="M56.1834 59.9436C49.7418 59.9436 45.9192 56.4577 44.9791 55.4863C35.3253 54.2056 31.0341 50.5331 29.4675 48.7326C27.3416 51.766 25.5235 53.0965 23.7941 52.9087C21.1517 52.6197 19.7796 48.9448 18.3268 45.0543C17.9059 43.9275 17.4708 42.7622 17.0178 41.7325C16.6248 40.8396 16.0785 39.9114 15.5001 38.9287C13.5389 35.5969 11.0982 31.4503 13.1361 25.6527C15.5004 18.9269 20.1319 15.3415 20.9583 14.7428C21.6574 13.7927 26.4057 7.45297 30.4768 4.86727C33.7668 2.77759 36.7976 3.78248 38.3735 4.88319C39.2982 4.09827 41.3473 2.5667 44.2554 1.56833C48.121 0.241373 55.6492 0.383043 56.1835 0.394646C56.7185 0.382803 64.246 0.241293 68.1115 1.56833C71.0195 2.5667 73.0686 4.09827 73.9935 4.88319C75.5693 3.78276 78.6 2.77759 81.8901 4.86727C85.9612 7.45297 90.7095 13.7927 91.4087 14.7428C92.235 15.3416 96.8664 18.9269 99.2307 25.6527C101.269 31.4502 98.828 35.5968 96.8669 38.9286C96.2884 39.9114 95.7421 40.8395 95.3492 41.7326C94.896 42.7624 94.4609 43.9277 94.0401 45.0545C92.5873 48.945 91.2151 52.6197 88.5728 52.9087C86.8401 53.0976 85.0252 51.7659 82.8994 48.7326C81.3327 50.5331 77.0415 54.2057 67.3878 55.4863C66.4477 56.4577 62.625 59.9436 56.1834 59.9436ZM29.4302 46.4981C29.4388 46.4981 29.4475 46.4982 29.4561 46.4985C29.7432 46.5075 30.0046 46.666 30.1454 46.9163C30.1744 46.9663 33.4389 52.3777 45.4819 53.8967C45.6846 53.9222 45.8702 54.0223 46.003 54.1775C46.0373 54.2171 49.6426 58.3026 56.1834 58.3026C62.7243 58.3026 66.3296 54.2171 66.3653 54.1759C66.4978 54.0225 66.6838 53.9219 66.8849 53.8966C78.9279 52.3777 82.1923 46.9663 82.2239 46.9118C82.3669 46.6648 82.6293 46.5078 82.9146 46.5006C83.2047 46.492 83.4697 46.6327 83.6249 46.8722C86.0903 50.6744 87.5781 51.3659 88.3943 51.2773C90.0314 51.0983 91.3444 47.5824 92.5027 44.4804C92.9316 43.3318 93.3751 42.1442 93.8471 41.0715C94.2789 40.0902 94.849 39.1215 95.4525 38.0961C97.3346 34.8988 99.4677 31.2748 97.6825 26.1968C95.3125 19.4543 90.4115 16.0459 90.3622 16.0123C90.2845 15.9592 90.2165 15.8931 90.1612 15.8169C90.1106 15.7472 85.058 8.82322 81.0102 6.25236C77.3938 3.95528 74.6385 6.45064 74.5231 6.55819C74.1989 6.85941 73.6915 6.85221 73.3796 6.53826C73.3588 6.51754 71.1647 4.35136 67.5785 3.12026C63.9299 1.86764 56.28 2.03371 56.2029 2.03555C56.19 2.03583 56.177 2.03583 56.164 2.03555C56.0867 2.03371 48.4342 1.86852 44.7881 3.12026C41.1807 4.35872 39.0087 6.5167 38.9871 6.53826C38.6733 6.85425 38.1643 6.86197 37.8409 6.55555C37.7282 6.45072 34.973 3.95528 31.3566 6.25236C27.3088 8.82322 22.2562 15.7472 22.2056 15.8169C22.1503 15.8931 22.0823 15.9592 22.0045 16.0123C21.9562 16.0455 17.0448 19.4809 14.6842 26.1968C12.8991 31.2749 15.0322 34.8988 16.9143 38.0962C17.5178 39.1216 18.0879 40.0902 18.5198 41.0715C18.9917 42.1441 19.4352 43.3317 19.864 44.4802C21.0224 47.5823 22.3353 51.0983 23.9725 51.2773C24.7873 51.3653 26.2762 50.6746 28.7419 46.8722C28.8934 46.6385 29.1528 46.4981 29.4302 46.4981Z" fill="#3F2017"/>
<path d="M62.7531 56.0986C61.7195 61.8539 56.1892 61.4496 56.1892 61.4496C56.1892 61.4496 50.6589 61.8539 49.6268 56.0986C49.1475 53.4285 49.4946 51.188 50.0054 49.5511C50.5959 47.6587 51.4041 46.5747 51.4041 46.5747C51.4041 46.5747 54.2587 46.1943 56.1877 44.1895L56.1893 44.1913C58.1183 46.1943 60.9744 46.5747 60.9744 46.5747C60.9744 46.5747 63.7853 50.3415 62.7531 56.0986Z" fill="#F48787"/>
<path d="M60.9709 46.5747C60.9709 46.5747 58.1164 46.1943 56.1873 44.1895C54.2582 46.1943 51.4037 46.5747 51.4037 46.5747C51.4037 46.5747 51.167 46.934 50.9258 47.3533C50.9258 47.3533 52.0726 47.6125 53.4774 47.2709C54.3834 47.0506 55.252 47.8051 55.3502 48.9139C55.5363 51.0165 55.8393 54.1031 56.1859 56.3344V56.3542C56.5286 54.1476 56.8316 51.0846 57.0183 48.984C57.1207 47.8312 58.0522 47.0753 58.9816 47.3698C60.4375 47.8312 61.6845 47.8123 61.6845 47.8123C61.6378 47.7116 60.9709 46.5747 60.9709 46.5747Z" fill="#D85050"/>
<path d="M56.5479 62.2828C56.4231 62.2828 56.3038 62.2791 56.1897 62.2723C54.0025 62.4044 49.7309 61.3236 48.8189 56.2421C47.7354 50.2055 50.6234 46.2484 50.7468 46.0829C50.8791 45.9057 51.0772 45.7894 51.2963 45.7602C51.3203 45.7568 53.8991 45.3843 55.5968 43.6206C55.7514 43.4599 55.9648 43.3691 56.1879 43.3691C56.4109 43.3691 56.6243 43.4599 56.779 43.6206C58.4897 45.3976 61.0572 45.7568 61.083 45.7602C61.3022 45.7893 61.5003 45.9056 61.6325 46.0829C61.756 46.2484 64.644 50.2055 63.5604 56.2421C62.696 61.0583 58.8126 62.2828 56.5479 62.2828ZM56.1903 60.6294C56.2103 60.6294 56.2302 60.6302 56.2494 60.6315C56.4418 60.6437 61.0588 60.8902 61.9453 55.9522C62.7572 51.4289 61.0466 48.2198 60.4865 47.3199C59.6874 47.1568 57.7883 46.6508 56.1879 45.3097C54.5898 46.6492 52.6948 47.1557 51.8952 47.3195C51.3383 48.2229 49.627 51.4559 50.4341 55.9522C51.3203 60.8902 55.9372 60.6444 56.1329 60.6313C56.1515 60.6301 56.1709 60.6294 56.1903 60.6294Z" fill="#3F2017"/>
<path d="M52.6675 98.1667C51.8662 101.336 46.3121 102.752 40.0734 101.516C37.2095 100.95 34.9158 98.8154 34.1336 96.0044C33.7563 94.6477 33.3683 92.9879 33.0504 90.9889C32.2766 86.1302 31.9035 79.2682 33.0313 69.8666C33.0313 69.8666 35.433 65.2411 41.6633 66.5554C47.8936 67.8697 50.2381 71.7003 50.2381 71.7003C50.2381 71.7003 50.98 75.2447 49.3986 81.5321C47.9042 87.4656 48.9238 92.7949 48.9238 92.7949C48.9238 92.7949 51.4846 93.592 52.4449 95.5656C52.7904 96.2758 52.9283 97.1364 52.6675 98.1667Z" fill="#EFD49E"/>
<path d="M52.6679 98.1643C51.8666 101.334 46.3126 102.75 40.0739 101.514C37.2099 100.948 34.9163 98.813 34.1341 96.0021C33.7567 94.6454 33.3688 92.9855 33.0508 90.9865C33.2437 90.041 33.3751 89.4199 33.3751 89.4199C33.3751 89.4199 34.346 98.5607 41.2631 98.5904C48.1802 98.6222 52.6997 97.3652 52.4411 95.7647C52.4263 95.6692 52.4284 95.6035 52.4453 95.5633C52.7909 96.2734 52.9287 97.1341 52.6679 98.1643Z" fill="#E8AB79"/>
<path d="M50.2468 71.6964C50.987 75.2107 50.3766 78.8454 49.6789 82.3179C49.0653 85.7156 49.0752 89.2497 49.7296 92.6378L49.1676 92.0084C50.4229 92.462 51.5478 93.1322 52.4399 94.1547C53.6293 95.4701 53.8948 97.5018 53.1188 99.0899C52.6715 100.017 51.8396 100.748 50.9834 101.231C47.5959 103.071 42.9399 102.823 39.315 101.926C36.5966 101.145 34.3864 98.8754 33.6777 96.1416C33.5642 95.7125 33.3566 94.8487 33.2612 94.4157C32.5 90.9599 32.1505 87.4192 32.0627 83.8911C31.9661 79.1919 32.2147 74.4836 33.032 69.8642C33.0714 69.6411 33.2843 69.4922 33.5074 69.5317C33.7039 69.5665 33.8428 69.7357 33.8461 69.928C33.8911 72.2832 33.7188 74.5979 33.589 76.9174C33.2917 82.9351 33.5246 89.0313 34.9907 94.8884C35.1831 95.614 35.3889 96.4537 35.7676 97.1062C36.7161 98.9052 38.5124 100.189 40.5216 100.529C43.7022 101.107 47.2454 101.263 50.139 99.7806C50.7714 99.4206 51.2962 98.9861 51.6144 98.3676C52.105 97.3238 51.9583 96.1104 51.1903 95.2376C50.5631 94.4913 49.6028 93.9166 48.68 93.5755C48.3579 93.5176 48.155 93.2486 48.1179 92.9461C48.0179 92.4698 47.944 92.0373 47.8803 91.5663C47.3935 87.9449 47.6093 84.2352 48.5091 80.6833C49.109 78.1932 49.325 75.6267 49.4048 73.0756C49.4228 72.7569 49.4231 72.0936 49.4413 71.7693C49.4659 71.3195 50.1338 71.236 50.2468 71.6964Z" fill="#3F2017"/>
<path d="M49.4967 93.9208C47.9122 93.3113 46.147 93.2641 44.4762 93.5068C43.6765 93.6381 42.8961 93.8719 42.0987 94.0282C41.6751 94.1351 41.4295 93.5569 41.8022 93.3303C42.7608 92.714 43.8943 92.3816 45.002 92.1477C46.6973 91.8347 48.5071 91.8243 50.1502 92.4154C51.1566 92.8692 50.5194 94.3454 49.4967 93.9208Z" fill="#3F2017"/>
<path d="M44.0946 100.777C44.8374 99.6367 45.2929 98.1027 44.7325 96.8006L44.6775 96.6616C44.6272 96.5748 44.5009 96.3586 44.451 96.2693C44.0631 95.7187 44.8109 95.1271 45.2453 95.6395L45.4903 95.9539L45.6124 96.1134L45.7137 96.2875C45.8421 96.4834 45.9803 96.7967 46.0632 97.0193C46.6061 98.5711 46.2934 100.287 45.5811 101.729C44.9379 102.825 43.3669 101.822 44.0946 100.777Z" fill="#3F2017"/>
<path d="M48.6434 100.246C49.3863 99.1056 49.8416 97.5714 49.2813 96.2694L49.2262 96.1304C49.176 96.0436 49.0497 95.8273 48.9998 95.738C48.6119 95.1875 49.3596 94.5958 49.794 95.1082L50.0392 95.4226L50.1612 95.5821L50.2625 95.7562C50.391 95.9521 50.529 96.2655 50.612 96.488C51.1549 98.0398 50.8422 99.7555 50.1299 101.198C49.4866 102.294 47.9158 101.291 48.6434 100.246Z" fill="#3F2017"/>
</svg>
