<svg width="47" height="50" viewBox="0 0 47 50" fill="none" xmlns="http://www.w3.org/2000/svg">
<g opacity="0.3">
<path d="M24.2095 49.9979C36.7961 49.9979 46.9996 48.352 46.9996 46.3217C46.9996 44.2914 36.7961 42.6455 24.2095 42.6455C11.6229 42.6455 1.41943 44.2914 1.41943 46.3217C1.41943 48.352 11.6229 49.9979 24.2095 49.9979Z" fill="#3F2017"/>
</g>
<path d="M12.3378 40.655C5.3289 43.4478 2.54525 40.2289 1.74381 38.9111C1.58759 38.6555 1.70628 38.3217 1.99034 38.2253L2.92669 37.9068C0.813579 36.589 0.573144 33.573 0.5762 32.2289C0.5772 31.9022 0.904879 31.677 1.20922 31.7947L2.02484 32.1082C1.91327 30.0235 2.79683 28.5606 3.69362 27.6253C3.69464 27.6243 3.69464 27.6243 3.69464 27.6243C4.09129 27.2104 4.49098 26.9 4.8075 26.6849C5.0956 26.4891 5.48819 26.6707 5.52978 27.0156L5.6079 27.6628C10.2572 26.484 11.8387 28.7838 12.2303 29.5639C12.2901 29.6836 12.2252 29.8277 12.0953 29.8622C11.44 30.0346 9.65659 30.7194 9.30152 33.1196C8.86329 36.0747 12.0517 37.9068 12.0517 37.9068L12.2769 40.0717L12.3378 40.655Z" fill="#FFBD5C"/>
<path d="M12.3378 40.6566C5.3289 43.4494 2.54525 40.2306 1.74381 38.9128C1.58759 38.6571 1.70628 38.3234 1.99034 38.227L2.92669 37.9085C0.813579 36.5907 0.573144 33.5747 0.5762 32.2306C0.5772 31.9039 0.904879 31.6787 1.20922 31.7964L2.02484 32.1098C1.91327 30.0251 2.79683 28.5623 3.69362 27.627C3.65407 27.7294 1.37254 33.6376 5.08851 36.2945L3.17322 36.1038C3.17322 36.1038 4.15825 37.806 6.57874 38.1966L4.60967 38.8935C4.60967 38.8935 6.48946 41.2541 12.2769 40.0733L12.3378 40.6566Z" fill="#F79654"/>
<path d="M7.30587 42.1382C6.32177 42.1382 5.41314 41.9845 4.5834 41.6766C2.79133 41.0118 1.83545 39.7815 1.42513 39.1072C1.29125 38.8871 1.26479 38.6226 1.35243 38.3812C1.43962 38.1412 1.62845 37.9563 1.87046 37.8742L2.14132 37.7822C0.39646 36.2096 0.20031 33.433 0.203655 32.2299C0.204404 31.9533 0.340949 31.6949 0.568967 31.5388C0.796562 31.383 1.08618 31.3491 1.34376 31.4482L1.64428 31.5638C1.72007 28.7625 3.49795 27.1257 4.59829 26.3784C4.84118 26.2136 5.14597 26.1875 5.41372 26.3094C5.68279 26.4317 5.86464 26.6798 5.9002 26.9732L5.9284 27.2062C10.5475 26.1949 12.1697 28.6137 12.5638 29.3985C12.6432 29.5567 12.6471 29.7397 12.5744 29.9006C12.5016 30.0617 12.3616 30.1799 12.1902 30.225C11.5387 30.3963 9.98886 31.0267 9.67033 33.1767C9.27582 35.8399 12.2088 37.5689 12.2386 37.5861C12.342 37.6459 12.411 37.7518 12.4233 37.8707L12.7089 40.6184C12.7261 40.7844 12.631 40.9417 12.476 41.0035C10.5793 41.7594 8.85006 42.1382 7.30587 42.1382ZM1.04171 32.1381C1.02016 32.1381 1.0028 32.1461 0.99056 32.1545C0.972069 32.1672 0.949965 32.1909 0.949869 32.232C0.946544 33.4339 1.15184 36.3622 3.12476 37.5927C3.2471 37.669 3.31449 37.809 3.29792 37.9522C3.28135 38.0954 3.18378 38.2162 3.04728 38.2625L2.11045 38.5807C2.076 38.5924 2.06067 38.6172 2.05386 38.636C2.048 38.6521 2.04133 38.6843 2.06265 38.7193C2.8808 40.0639 5.46977 42.8886 11.9373 40.4128L11.7001 38.1302C11.0143 37.6872 8.51759 35.8659 8.93219 33.0673C9.29145 30.6422 11.0275 29.8132 11.8028 29.5615C11.3244 28.7547 9.77268 26.994 5.69988 28.0269C5.59599 28.0531 5.48566 28.0336 5.39721 27.9729C5.30875 27.9123 5.25065 27.8165 5.23781 27.7101L5.15945 27.0629C5.15391 27.0173 5.12289 26.9968 5.10488 26.9885C5.08385 26.9791 5.05158 26.9725 5.01756 26.9957C3.97524 27.7036 2.24872 29.3069 2.3972 32.0899C2.40391 32.2162 2.34625 32.3373 2.24394 32.4116C2.14174 32.4859 2.00869 32.5034 1.89068 32.4579L1.0759 32.1446C1.06356 32.14 1.05212 32.1381 1.04171 32.1381Z" fill="#3F2017"/>
<path d="M40.5152 45.9692C40.0841 47.8155 34.8931 47.3641 32.924 47.3022C30.954 47.2413 30.0105 46.6256 30.0105 46.6256C30.0105 46.6256 27.3943 47.007 24.3661 47.0151H24.2748C21.2081 47.0151 18.5391 46.6256 18.5391 46.6256C18.5391 46.6256 17.5956 47.2413 15.6266 47.3022C13.6565 47.3641 8.46555 47.8155 8.03442 45.9692C7.95123 45.6131 7.95631 45.3088 8.01718 45.0511C8.26369 43.992 9.4506 43.6918 9.4506 43.6918C6.16782 35.8947 12.0507 35.9636 12.0507 35.9636C12.9596 31.9241 14.1901 28.1463 15.1447 25.4924C15.9867 23.1501 16.6126 21.6832 16.6126 21.6832C16.6126 21.6832 20.3428 19.7912 24.2079 19.7861H24.3276C28.1987 19.7861 31.937 21.6832 31.937 21.6832C31.937 21.6832 34.7876 28.3583 36.499 35.9636C36.499 35.9636 42.3818 35.8947 39.0991 43.6918C39.099 43.6918 40.9372 44.1574 40.5152 45.9692Z" fill="#FFBD5C"/>
<path d="M40.7151 45.0519C40.4118 45.4972 39.6722 45.9222 37.9487 45.9111C34.3575 45.8877 32.6309 45.8259 32.007 44.2869C31.3831 42.748 33.2619 41.763 33.2619 41.763C33.2619 41.763 33.2761 37.0853 37.0519 36.1561C37.0519 36.1561 34.8779 35.6904 34.0572 33.9121L25.7813 39.0554C25.7813 39.0554 25.269 39.6306 24.3661 39.6306C23.4633 39.6306 22.951 39.0554 22.951 39.0554L14.6751 33.9121C13.8544 35.6904 11.6804 36.1561 11.6804 36.1561C15.4562 37.0853 15.4704 41.763 15.4704 41.763C15.4704 41.763 17.3492 42.748 16.7253 44.2869C16.1014 45.8259 14.3748 45.8877 10.7836 45.9111C9.06003 45.9222 8.3205 45.4972 8.01718 45.0519C7.95631 45.3095 7.95123 45.6138 8.03442 45.9699C8.46556 47.8162 13.6565 47.3648 15.6266 47.3029C17.5956 47.2421 18.5391 46.6263 18.5391 46.6263C18.5391 46.6263 21.2081 47.0158 24.2748 47.0158H24.3661H24.4574C27.5241 47.0158 30.1932 46.6263 30.1932 46.6263C30.1932 46.6263 31.1366 47.2421 33.1056 47.3029C35.0757 47.3648 40.2667 47.8162 40.6978 45.9699C40.781 45.6138 40.7759 45.3095 40.7151 45.0519Z" fill="#F79654"/>
<path d="M31.8024 21.6832C31.8024 21.6832 28.0723 19.7912 24.2072 19.7861C20.3421 19.7912 16.6119 21.6832 16.6119 21.6832C16.6119 21.6832 15.986 23.1501 15.144 25.4924C16.2315 25.9246 17.5747 26.3375 18.8661 26.4166C18.8661 26.4166 20.8696 28.9598 24.2072 28.9598C27.5447 28.9598 29.5483 26.4166 29.5483 26.4166C30.8397 26.3375 32.1828 25.9246 33.2703 25.4924C32.4283 23.1501 31.8024 21.6832 31.8024 21.6832Z" fill="#F79654"/>
<path d="M9.35578 43.3299C10.4333 43.1081 11.5341 43.0616 12.6226 43.2138C12.9839 43.2616 13.3403 43.3511 13.691 43.4538C13.8215 43.4919 13.8961 43.6286 13.858 43.759C13.8203 43.8889 13.6843 43.9624 13.5559 43.9271C13.2274 43.8528 12.8962 43.7896 12.5581 43.7658C11.5511 43.6852 10.5122 43.7912 9.53894 44.0534C9.04686 44.1761 8.86284 43.4572 9.35578 43.3299Z" fill="#3F2017"/>
<path d="M39.0045 44.0518C38.0337 43.7916 36.998 43.686 35.9939 43.7666C35.6517 43.7907 35.3167 43.8551 34.9843 43.9305C34.8518 43.9605 34.7201 43.8774 34.6902 43.7449C34.6614 43.6176 34.7376 43.4909 34.8609 43.4545C35.5593 43.2408 36.2882 43.1377 37.0167 43.1284C37.5619 43.1192 38.1063 43.1539 38.6463 43.2321C38.8291 43.2587 39.002 43.2876 39.1962 43.3306C39.3975 43.3751 39.5247 43.5745 39.4801 43.7758C39.4342 43.9883 39.2117 44.1169 39.0045 44.0518Z" fill="#3F2017"/>
<path d="M11.7604 47.3673C11.2583 46.5288 11.1518 45.4396 11.921 44.724C12.1199 44.5165 12.4459 44.7832 12.2838 45.0187C11.7977 45.5895 11.9885 46.3465 12.4229 46.8844C12.8315 47.3557 12.089 47.9004 11.7604 47.3673Z" fill="#3F2017"/>
<path d="M9.64463 47.2716C9.1426 46.433 9.03614 45.3441 9.80526 44.6283C10.0042 44.4208 10.3302 44.6876 10.1681 44.923C9.68196 45.4939 9.87279 46.2506 10.3071 46.7887C10.7158 47.26 9.97321 47.8047 9.64463 47.2716Z" fill="#3F2017"/>
<path d="M36.1279 46.8855C36.4291 46.5051 36.6487 45.9805 36.5181 45.4958C36.4841 45.3354 36.3883 45.1936 36.2885 45.0507C36.195 44.9436 36.2046 44.7762 36.3249 44.6936C36.4216 44.6261 36.5514 44.6417 36.6297 44.7251L36.7495 44.8525C37.2149 45.3419 37.2803 46.0962 37.0793 46.7151C37.0042 46.9587 36.912 47.1774 36.7728 47.396C36.4245 47.8868 35.7298 47.3382 36.1279 46.8855Z" fill="#3F2017"/>
<path d="M38.2436 46.7898C38.5448 46.4095 38.7645 45.8848 38.6338 45.4001C38.5998 45.2398 38.5041 45.098 38.4042 44.9549C38.3107 44.8479 38.3203 44.6805 38.4406 44.5979C38.5373 44.5304 38.6671 44.546 38.7454 44.6294L38.8652 44.7567C39.3307 45.2462 39.3961 46.0005 39.1951 46.6194C39.1199 46.863 39.0278 47.0817 38.8885 47.3003C38.5402 47.7912 37.8455 47.2425 38.2436 46.7898Z" fill="#3F2017"/>
<path d="M12.6629 47.7707C10.4067 47.7708 8.00678 47.4954 7.67068 46.0552C7.33493 44.6163 8.21634 43.8097 8.95689 43.4738C7.8692 40.7365 7.79266 38.6437 8.7302 37.2494C9.60988 35.9411 11.1061 35.6648 11.749 35.607C13.4549 28.1689 16.2405 21.6048 16.2688 21.5385C16.3032 21.4579 16.3649 21.392 16.4431 21.3523C16.599 21.2732 20.3065 19.4141 24.2211 19.4141C24.2391 19.4141 24.2568 19.4153 24.2742 19.4177C24.2915 19.4153 24.3092 19.4141 24.3273 19.4141C28.2418 19.4141 31.9494 21.2732 32.1053 21.3523C32.1834 21.392 32.2451 21.4579 32.2795 21.5385C32.3078 21.6048 35.0935 28.1689 36.7993 35.607C37.4423 35.6648 38.9385 35.9411 39.8181 37.2494C40.7557 38.6437 40.6791 40.7365 39.5914 43.4738C40.332 43.8097 41.2134 44.6163 40.8776 46.0552C40.4219 48.0083 36.1698 47.819 33.6295 47.7061C33.3606 47.6942 33.1181 47.6833 32.9114 47.6769C31.2502 47.625 30.27 47.1912 29.9352 47.0138C29.3627 47.0904 26.9544 47.3898 24.2742 47.3898C21.594 47.3898 19.1857 47.0904 18.6131 47.0138C18.2783 47.1912 17.2982 47.625 15.637 47.6769C15.4303 47.6833 15.1878 47.6942 14.9189 47.7061C14.2519 47.7358 13.4662 47.7707 12.6629 47.7707ZM12.0453 36.338C12.0037 36.338 10.2293 36.3504 9.34596 37.671C8.52053 38.9049 8.67111 40.8823 9.7936 43.5482C9.83579 43.6484 9.83217 43.762 9.7837 43.8593C9.73522 43.9566 9.64673 44.0279 9.54138 44.0547C9.39117 44.0941 8.07028 44.4836 8.39741 45.8857C8.71238 47.2353 13.0386 47.0427 14.8857 46.9607C15.1583 46.9485 15.4041 46.9376 15.6138 46.931C17.4342 46.8742 18.328 46.3188 18.3368 46.3133C18.4123 46.2652 18.5043 46.2449 18.5927 46.2577C18.6191 46.2615 21.2725 46.6437 24.2742 46.6437C27.2759 46.6437 29.9292 46.2615 29.9556 46.2577C30.0455 46.2444 30.1372 46.2647 30.2134 46.3144C30.2204 46.3188 31.1141 46.8742 32.9347 46.931C33.1443 46.9376 33.3901 46.9485 33.6627 46.9606C35.5099 47.0427 39.836 47.2352 40.1509 45.8856C40.4866 44.4471 39.0676 44.07 39.007 44.0547C38.9016 44.0279 38.8131 43.9566 38.7646 43.8593C38.7162 43.762 38.7125 43.6484 38.7547 43.5482C39.8789 40.8784 40.0283 38.8993 39.1989 37.6657C38.3026 36.3327 36.5241 36.3392 36.5024 36.338C36.5009 36.338 36.4995 36.338 36.498 36.338C36.3237 36.3381 36.1724 36.2172 36.134 36.0468C34.5786 29.1351 32.0462 22.9192 31.6468 21.9591C30.9814 21.6432 27.6786 20.1602 24.3272 20.1602C24.3092 20.1602 24.2915 20.159 24.2742 20.1565C24.2568 20.159 24.2391 20.1602 24.221 20.1602C20.8698 20.1602 17.5669 21.6432 16.9015 21.9591C16.5021 22.9192 13.9697 29.1351 12.4142 36.0468C12.3759 36.2172 12.2246 36.338 12.0503 36.338C12.0487 36.338 12.0487 36.3381 12.0453 36.338Z" fill="#3F2017"/>
<path d="M44.4134 14.0469C44.0299 17.4605 42.703 15.8323 42.703 15.8323C42.703 15.8323 42.3368 16.9919 41.6855 18.6495C40.8922 20.6703 40.2237 23.4884 38.8623 23.526C38.5904 23.5341 38.2911 23.4306 37.9574 23.1882C37.5019 22.8564 36.9825 22.265 36.383 21.3398C36.383 21.3398 36.3434 21.4098 36.2541 21.5295C35.7875 22.1463 33.9625 24.0921 29.1306 24.7017C29.1306 24.7017 27.4152 26.7083 24.2176 26.7083C21.02 26.7083 19.3046 24.7017 19.3046 24.7017C13.5344 23.9734 12.0523 21.3398 12.0523 21.3398C8.81616 26.331 7.91735 21.6239 6.74972 18.6495C6.09843 16.9919 5.73222 15.8324 5.73222 15.8324C5.73222 15.8324 4.40532 17.4606 4.02286 14.0469C3.6394 10.6333 6.36118 7.51585 6.36118 7.51585C3.73476 6.33909 11.0185 2.96806 11.0185 2.96806C9.99294 2.43445 10.773 1.53159 12.7421 1.49001C14.77 1.44842 16.1334 2.53388 16.1334 2.53388C16.1334 2.53388 17.1732 1.48696 18.9151 0.889453C20.6569 0.291951 24.2176 0.376139 24.2176 0.376139C24.2176 0.376139 27.7794 0.291951 29.5202 0.889453C30.6401 1.27393 31.4689 1.84304 31.9194 2.20215C31.9194 2.20215 31.9204 2.20215 31.9214 2.20317C32.1699 2.40099 32.3018 2.53388 32.3018 2.53388C32.3018 2.53388 33.6652 1.44842 35.6931 1.49001C37.6632 1.53161 38.4423 2.43447 37.4167 2.96806C37.4167 2.96806 44.7005 6.33909 42.0741 7.51585C42.0741 7.51585 44.7958 10.6333 44.4134 14.0469Z" fill="#FFBD5C"/>
<path d="M44.4134 14.0473C44.0299 17.461 42.703 15.8328 42.703 15.8328C42.703 15.8328 42.3368 16.9923 41.6855 18.6499C40.8922 20.6707 40.2237 23.4889 38.8623 23.5264C38.5387 23.4513 38.2374 23.3377 37.9574 23.1886C37.2706 22.8234 36.7096 22.2502 36.2541 21.53C33.3883 17.0055 34.6371 6.67123 34.4078 5.63547C34.1035 4.26191 31.9873 2.26647 31.9214 2.20358C32.1699 2.4014 32.3018 2.53429 32.3018 2.53429C32.3018 2.53429 33.6652 1.44883 35.6931 1.49042C37.6632 1.53202 38.4423 2.43488 37.4167 2.96847C37.4167 2.96847 44.7005 6.3395 42.0741 7.51626C42.0741 7.51626 44.7958 10.6337 44.4134 14.0473Z" fill="#C47737"/>
<path d="M15.793 2.31515C15.9107 2.38717 15.9989 2.44702 16.0527 2.4866C15.3456 2.95324 14.0086 3.96465 13.616 5.30679C13.3187 6.32531 15.0311 17.0055 12.1653 21.5299C11.7098 22.2502 11.1488 22.8234 10.462 23.1886C10.182 23.3377 9.88076 23.4513 9.55716 23.5264C8.19576 23.4888 7.52723 20.6707 6.73393 18.6499C6.08265 16.9923 5.71643 15.8328 5.71643 15.8328C5.71643 15.8328 5.23354 16.4252 4.7659 16.1462C4.45852 15.9626 4.15825 15.4016 4.00607 14.0473C3.62362 10.6337 6.34542 7.51625 6.34542 7.51625C3.71899 6.33949 11.0028 2.96846 11.0028 2.96846C9.97717 2.43485 10.7563 1.53199 12.7263 1.49041C14.1679 1.46097 15.2746 2.00065 15.793 2.31515Z" fill="#C47737"/>
<path d="M16.4854 2.21289C16.245 2.40564 16.1172 2.53448 16.1172 2.53448C16.1172 2.53448 16.0949 2.51723 16.0522 2.48681C16.2775 2.33767 16.4388 2.24434 16.4854 2.21289Z" fill="#D37826"/>
<path d="M34.9878 17.4404C35.0852 19.4811 34.331 22.4182 28.9374 23.2241C28.9374 23.2241 27.2341 25.1293 24.2177 25.4392C21.2012 25.1292 19.498 23.2241 19.498 23.2241C14.1044 22.4182 13.3502 19.4811 13.4475 17.4404C13.1381 18.896 12.687 20.26 12.0508 21.3396C12.0508 21.3396 13.5324 23.9731 19.3035 24.7008C19.3035 24.7008 20.9906 26.6723 24.1367 26.7053C24.1367 26.7055 24.1367 26.7056 24.1367 26.7058C24.1606 26.7067 24.1853 26.7067 24.21 26.7067C24.2119 26.7067 24.2138 26.7068 24.2157 26.7068C24.2164 26.7068 24.217 26.7068 24.2177 26.7068C24.2183 26.7068 24.2189 26.7068 24.2196 26.7068C24.2215 26.7068 24.2234 26.7067 24.2253 26.7067C24.25 26.7067 24.2748 26.7067 24.2986 26.7058C24.2986 26.7056 24.2986 26.7055 24.2986 26.7053C27.4447 26.6723 29.1318 24.7008 29.1318 24.7008C34.9029 23.9731 36.3845 21.3396 36.3845 21.3396C35.7483 20.2599 35.2972 18.896 34.9878 17.4404Z" fill="#F79654"/>
<path d="M19.0537 17.2509C19.0537 17.2509 19.6355 18.7326 21.1825 18.5766C22.7295 18.4206 23.1532 17.043 23.1532 17.043L23.8824 17.4037L24.2174 17.9398L24.1386 19.2785C24.1386 19.2785 19.9069 21.3185 19.0537 17.2509Z" fill="#F79654"/>
<path d="M29.3864 17.2509C29.3864 17.2509 28.8046 18.7326 27.2576 18.5766C25.7105 18.4206 25.2868 17.043 25.2868 17.043L24.5577 17.4037L24.2227 17.9398L24.3015 19.2785C24.3015 19.2785 28.5332 21.3185 29.3864 17.2509Z" fill="#F79654"/>
<path d="M13.8718 10.5674C13.8718 10.5674 13.5451 15.3987 13.4487 17.4403V17.4432C13.1392 18.8988 12.6881 20.2627 12.0519 21.3424C10.9916 22.9772 10.1944 23.5662 9.55723 23.516C9.52446 23.5131 9.49169 23.5093 9.45892 23.5026C9.45023 23.5016 9.44156 23.4997 9.43289 23.4968C9.41748 23.4939 9.40204 23.49 9.38663 23.4862C9.36639 23.4813 9.34711 23.4746 9.32783 23.4678C9.24685 23.4418 9.16974 23.4033 9.09358 23.356C9.07719 23.3454 9.06081 23.3348 9.04538 23.3232C9.02706 23.3117 9.0097 23.2982 8.99141 23.2837C8.96248 23.2616 8.93357 23.2384 8.90464 23.2124C8.89115 23.2008 8.87766 23.1883 8.86416 23.1758C8.85451 23.1661 8.84392 23.1565 8.83427 23.1469C8.77836 23.0919 8.72439 23.0321 8.6704 22.9666C8.65882 22.9521 8.64725 22.9377 8.6357 22.9223C8.61835 22.9011 8.60099 22.8789 8.58461 22.8557C8.57016 22.8365 8.55569 22.8162 8.54219 22.797C8.44676 22.663 8.35519 22.5126 8.26747 22.3506C8.25301 22.3246 8.23856 22.2976 8.22409 22.2697C8.18553 22.1964 8.14697 22.1212 8.10938 22.0431C8.18361 21.8879 8.23083 21.7973 8.23083 21.7973C8.23083 21.7973 9.20835 23.503 10.8306 20.9654C12.5588 18.262 13.2221 15.6628 13.8718 10.5674Z" fill="#96511E"/>
<path d="M34.4072 10.7188C34.4072 10.7188 34.893 15.3982 34.9894 17.4398V17.4427C35.2988 18.8983 35.7499 20.2622 36.3861 21.3419C37.4465 22.9767 38.2437 23.5657 38.8808 23.5155C38.9136 23.5126 38.9464 23.5088 38.9791 23.5021C38.9878 23.5011 38.9965 23.4992 39.0052 23.4963C39.0206 23.4934 39.036 23.4895 39.0514 23.4857C39.0717 23.4808 39.0909 23.4741 39.1102 23.4673C39.1912 23.4413 39.2683 23.4028 39.3445 23.3555C39.3609 23.3449 39.3772 23.3343 39.3927 23.3227C39.411 23.3112 39.4283 23.2977 39.4466 23.2832C39.4756 23.2611 39.5045 23.2379 39.5334 23.2119C39.5469 23.2003 39.5604 23.1878 39.5739 23.1753C39.5835 23.1656 39.5941 23.156 39.6038 23.1464C39.6597 23.0914 39.7137 23.0316 39.7677 22.9661C39.7792 22.9516 39.7908 22.9372 39.8023 22.9218C39.8197 22.9006 39.8371 22.8784 39.8534 22.8553C39.8679 22.836 39.8823 22.8157 39.8959 22.7965C39.9913 22.6625 40.0829 22.5121 40.1706 22.3501C40.185 22.3241 40.1995 22.2971 40.214 22.2692C40.2525 22.1959 40.2911 22.1207 40.3287 22.0426C40.2544 21.8874 40.2072 21.7968 40.2072 21.7968C40.2072 21.7968 39.2297 23.5025 37.6075 20.965C35.8792 18.2615 35.0569 15.8141 34.4072 10.7188Z" fill="#96511E"/>
<g opacity="0.25">
<path d="M11.7438 3.69882C10.3666 4.38449 6.70423 6.34207 7.59689 7.35805C7.74212 7.52335 7.72915 7.77456 7.55637 7.91082C6.62446 8.64577 4.50536 10.9076 4.7659 16.1462C4.45852 15.9626 4.15825 15.4016 4.00607 14.0473C3.62362 10.6337 6.34542 7.51625 6.34542 7.51625C3.71899 6.33949 11.0028 2.96846 11.0028 2.96846C9.97717 2.43485 10.7563 1.53199 12.7263 1.49041C14.1679 1.46099 15.2747 2.00067 15.793 2.31516C15.794 2.40037 15.7951 2.44704 15.7951 2.44704C15.2767 2.24922 14.6061 2.08386 13.828 2.1001C12.3542 2.13159 11.6077 2.68876 11.8951 3.15835C12.0121 3.3495 11.9445 3.59893 11.7438 3.69882Z" fill="white"/>
</g>
<g opacity="0.25">
<path d="M36.6967 3.69882C38.074 4.38449 41.7363 6.34207 40.8437 7.35805C40.6984 7.52335 40.7114 7.77456 40.8842 7.91082C41.8161 8.64577 43.9352 10.9076 43.6747 16.1462C43.982 15.9626 44.2823 15.4016 44.4345 14.0473C44.8169 10.6337 42.0951 7.51625 42.0951 7.51625C44.7216 6.33949 37.4378 2.96846 37.4378 2.96846C38.4634 2.43485 37.6843 1.53199 35.7142 1.49041C34.2727 1.46099 33.1659 2.00067 32.6475 2.31516C32.6465 2.40037 32.6455 2.44704 32.6455 2.44704C33.1639 2.24922 33.8344 2.08386 34.6125 2.1001C36.0864 2.13159 36.8329 2.68876 36.5454 3.15835C36.4284 3.3495 36.4961 3.59893 36.6967 3.69882Z" fill="white"/>
</g>
<path d="M32.5616 2.26795L32.9762 3.19715L33.0051 3.26189C33.0857 3.44178 32.8531 3.60043 32.7149 3.46351C32.6503 3.40022 31.9797 2.74235 31.9379 2.70144C31.5303 2.24646 32.277 1.72725 32.5616 2.26795Z" fill="#3F2017"/>
<path d="M16.394 2.79938L15.4569 3.19583L15.3916 3.22345C15.2102 3.30057 15.0561 3.065 15.1957 2.92945C15.2602 2.86606 15.931 2.20832 15.9727 2.16738C16.4355 1.76875 16.9401 2.52521 16.394 2.79938Z" fill="#3F2017"/>
<path d="M34.1995 4.30151C34.6234 4.9018 34.7344 5.66717 34.7746 6.38609C34.8187 7.10467 34.6957 7.853 34.6283 8.56696C34.3688 12.4019 34.7313 17.8105 36.7044 21.1511C36.8116 21.3271 36.7558 21.5566 36.5798 21.6638C36.4031 21.7715 36.1722 21.7145 36.0658 21.5371C34.2613 18.3647 33.9338 14.3008 33.9069 10.724C33.9162 9.79941 33.9538 8.86315 34.0779 7.93709C34.1441 7.44918 34.1999 6.88478 34.1764 6.39978C34.1459 5.79278 34.0731 5.17485 33.7498 4.66292C33.5437 4.41061 33.9035 4.00235 34.1995 4.30151Z" fill="#3F2017"/>
<path d="M14.2351 4.29924C14.0293 4.60056 13.9256 4.95625 13.8513 5.30824C13.7105 6.01914 13.7377 6.75056 13.8266 7.46573C14.5071 11.5907 14.3833 17.7916 12.3731 21.5277C12.2736 21.7082 12.0468 21.774 11.8663 21.6746C11.6783 21.5717 11.617 21.3302 11.7301 21.1488C12.4117 19.9375 12.8038 18.5516 13.0728 17.1557C13.5811 14.3555 13.675 11.4419 13.376 8.6114C13.3392 8.29871 13.2653 7.84711 13.2214 7.53279C13.1328 6.752 13.1135 5.96563 13.2777 5.18007C13.3692 4.76065 13.5097 4.32357 13.7644 3.9647C13.9988 3.61228 14.4949 3.95989 14.2351 4.29924Z" fill="#3F2017"/>
<path d="M16.6412 7.36249C17.0828 6.43941 18.2711 5.98775 19.2303 6.34694C19.554 6.46987 19.8387 6.66101 20.0424 6.9098C20.3094 7.23417 19.9936 7.7141 19.5941 7.60374C19.1463 7.47726 18.7813 7.37078 18.337 7.40193C17.9112 7.42531 17.4407 7.59553 17.0225 7.72521L16.8926 7.73513C16.6975 7.75554 16.5505 7.53412 16.6412 7.36249Z" fill="#3F2017"/>
<path d="M31.7779 7.36249C31.3363 6.43941 30.148 5.98775 29.1888 6.34694C28.8651 6.46987 28.5804 6.66101 28.3767 6.9098C28.1096 7.23417 28.4255 7.7141 28.825 7.60374C29.2728 7.47726 29.6378 7.37078 30.0821 7.40193C30.5079 7.42531 30.9784 7.59553 31.3966 7.72521L31.5265 7.73513C31.7216 7.75554 31.8685 7.53412 31.7779 7.36249Z" fill="#3F2017"/>
<g opacity="0.5">
<path d="M32.1521 2.3976C32.0923 2.34555 32.0142 2.27905 31.9178 2.2029C31.4686 1.84431 30.6387 1.27462 29.5186 0.89001C27.7767 0.292354 24.2159 0.377196 24.2159 0.377196C24.2159 0.377196 20.6551 0.292373 18.9133 0.89001C17.7932 1.27462 16.9632 1.84431 16.514 2.2029C16.4176 2.27905 16.3396 2.34555 16.2798 2.3976C16.3155 2.62316 16.3405 2.76872 16.3405 2.76872C16.3405 2.76872 17.8015 1.65089 24.2159 1.65056C30.6304 1.65091 32.0913 2.76872 32.0913 2.76872C32.0913 2.76872 32.1164 2.62316 32.1521 2.3976Z" fill="white"/>
</g>
<path d="M24.209 18.9736C24.2053 18.9787 22.5762 20.4435 19.6118 20.056C19.6118 20.056 21.4739 22.2091 24.2089 22.2092C24.2089 22.2092 24.2089 22.2092 24.209 22.2092H24.2091C26.944 22.2091 28.8061 20.056 28.8061 20.056C25.8417 20.4435 24.209 19.7096 24.209 18.9736Z" fill="#3F2017"/>
<path d="M26.9033 16.0564C26.8764 15.4733 26.4194 15.0013 25.8373 14.9576L25.8107 14.9556C24.7442 14.8755 23.6732 14.8755 22.6067 14.9556L22.5558 14.9594C22.0009 15.001 21.5507 15.4411 21.5173 15.9964C21.5163 16.0129 21.5154 16.0294 21.5146 16.0459C21.4951 16.4479 21.6809 16.8365 22.0116 17.0659C22.5279 17.4241 23.1289 17.6776 23.798 17.8472C24.0674 17.9155 24.35 17.9155 24.6194 17.8472C25.298 17.6752 25.9067 17.4168 26.428 17.0504C26.7434 16.8287 26.9203 16.4582 26.904 16.0729C26.9038 16.0674 26.9035 16.0619 26.9033 16.0564Z" fill="#3F2017"/>
<g opacity="0.35">
<path d="M24.2209 15.8679C25.0278 15.8679 25.682 15.744 25.682 15.5912C25.682 15.4383 25.0278 15.3145 24.2209 15.3145C23.4139 15.3145 22.7598 15.4383 22.7598 15.5912C22.7598 15.744 23.4139 15.8679 24.2209 15.8679Z" fill="white"/>
</g>
<path d="M30.2977 17.0225C30.2981 18.2276 29.7302 19.727 28.6351 20.3518C28.3945 20.4979 28.0846 20.5704 27.8122 20.6329C26.6332 20.8627 25.3986 20.5233 24.4173 19.8566C24.2573 19.749 24.1245 19.6485 23.9739 19.5161H24.4482C24.1662 19.7663 23.8683 19.9594 23.5409 20.1372C22.6576 20.6174 21.605 20.8249 20.6105 20.6292C20.5322 20.6054 20.285 20.5548 20.2047 20.5272C19.8747 20.4218 19.5596 20.2341 19.3132 19.9956C18.7719 19.4687 18.4597 18.7835 18.284 18.0745C18.2033 17.7243 18.1581 17.3813 18.1726 17.0179C18.178 16.9026 18.2758 16.8135 18.3911 16.8189C18.4861 16.8233 18.562 16.8903 18.5844 16.9775C18.7733 17.595 18.9625 18.2245 19.2538 18.7693C19.5044 19.2242 19.8394 19.6186 20.3205 19.8008C21.2729 20.1169 22.3186 19.9491 23.1999 19.4893C23.4682 19.3499 23.7424 19.1784 23.975 18.9902C24.115 18.8753 24.3137 18.8798 24.4482 18.9911C24.4943 19.0293 24.5611 19.0808 24.6221 19.1242C24.8123 19.26 25.0136 19.3828 25.2215 19.4905C26.1022 19.9506 27.1493 20.1147 28.0998 19.7961C28.8825 19.4928 29.2638 18.6546 29.514 17.8929C29.6154 17.5878 29.7067 17.2648 29.7933 16.9591C29.8724 16.6793 30.29 16.731 30.2977 17.0225Z" fill="#3F2017"/>
<path d="M24.3786 17.1992L24.5696 19.0954C24.597 19.6208 23.8231 19.6216 23.8503 19.0954L24.0413 17.1993C24.0628 16.9981 24.3579 16.9992 24.3786 17.1992Z" fill="#3F2017"/>
<path d="M29.6543 15.8529C27.1414 13.7964 22.4143 13.7249 19.6261 15.2654C19.3257 15.4319 19.0222 15.6254 18.7654 15.8529C18.5928 16.0018 18.3528 15.7626 18.5091 15.5889C19.013 14.9986 19.7003 14.576 20.4015 14.252C22.382 13.3594 24.8344 13.2724 26.9156 13.8502C28.0205 14.1843 29.1373 14.7122 29.9048 15.5948C30.0539 15.7616 29.8273 16.0002 29.6543 15.8529Z" fill="#3F2017"/>
<path d="M18.3773 15.0179C19.6957 15.0179 20.7644 13.7599 20.7644 12.2082C20.7644 10.6564 19.6957 9.39844 18.3773 9.39844C17.059 9.39844 15.9902 10.6564 15.9902 12.2082C15.9902 13.7599 17.059 15.0179 18.3773 15.0179Z" fill="#3F2017"/>
<path d="M18.867 12.6334C19.3162 12.6334 19.6804 12.2048 19.6804 11.6761C19.6804 11.1474 19.3162 10.7188 18.867 10.7188C18.4179 10.7188 18.0537 11.1474 18.0537 11.6761C18.0537 12.2048 18.4179 12.6334 18.867 12.6334Z" fill="white"/>
<g opacity="0.35">
<path d="M18.2058 13.955C18.42 13.7408 18.3595 13.333 18.0707 13.0442C17.7818 12.7553 17.374 12.6948 17.1598 12.909C16.9456 13.1232 17.0061 13.531 17.295 13.8199C17.5838 14.1087 17.9916 14.1692 18.2058 13.955Z" fill="white"/>
</g>
<path d="M30.0565 15.0179C31.3748 15.0179 32.4436 13.7599 32.4436 12.2082C32.4436 10.6564 31.3748 9.39844 30.0565 9.39844C28.7382 9.39844 27.6694 10.6564 27.6694 12.2082C27.6694 13.7599 28.7382 15.0179 30.0565 15.0179Z" fill="#3F2017"/>
<path d="M29.5663 12.6334C30.0155 12.6334 30.3796 12.2048 30.3796 11.6761C30.3796 11.1474 30.0155 10.7188 29.5663 10.7188C29.1171 10.7188 28.7529 11.1474 28.7529 11.6761C28.7529 12.2048 29.1171 12.6334 29.5663 12.6334Z" fill="white"/>
<g opacity="0.35">
<path d="M31.1385 13.8201C31.4274 13.5312 31.4879 13.1234 31.2737 12.9092C31.0595 12.695 30.6517 12.7555 30.3628 13.0444C30.074 13.3332 30.0135 13.741 30.2277 13.9552C30.4419 14.1694 30.8497 14.1089 31.1385 13.8201Z" fill="white"/>
</g>
<path d="M24.2171 27.0828C21.288 27.0828 19.5497 25.4976 19.1222 25.056C14.7325 24.4736 12.7811 22.8035 12.0687 21.9848C11.0903 23.3798 10.2481 23.9882 9.44054 23.8925C8.16744 23.7417 7.49957 21.8517 6.85373 20.0237C6.69977 19.5879 6.55429 19.1763 6.40183 18.788C6.00891 17.7872 5.71672 16.9599 5.54665 16.4607C5.34051 16.572 5.08204 16.6423 4.79953 16.5595C4.18465 16.3787 3.81967 15.5941 3.65097 14.0902C3.32479 11.1833 5.09821 8.53724 5.80375 7.61429C5.49525 7.36117 5.41787 7.07295 5.41652 6.85052C5.41353 6.36916 5.69967 5.55451 8.20796 4.04386C9.02504 3.55171 9.83357 3.13377 10.3398 2.88273C10.1613 2.62313 10.1836 2.37433 10.2128 2.24932C10.3664 1.5915 11.3559 1.14787 12.7337 1.11915C14.3678 1.08451 15.5894 1.73135 16.102 2.05965C16.5144 1.70714 17.4533 0.998269 18.7932 0.538312C20.5509 -0.0651481 23.9738 -0.00114315 24.2171 0.00466157C24.4603 -0.000970166 27.8834 -0.0650713 29.641 0.538312C30.9809 0.998288 31.9197 1.70716 32.3321 2.05965C32.8448 1.73135 34.0661 1.08499 35.7005 1.11915C37.0783 1.14787 38.0678 1.5915 38.2213 2.24932C38.2505 2.37433 38.2729 2.62313 38.0944 2.88273C38.6006 3.13377 39.4091 3.55171 40.2262 4.04386C42.7345 5.55451 43.0206 6.36916 43.0176 6.85052C43.0163 7.07295 42.9389 7.36117 42.6304 7.61429C43.3359 8.53724 45.1093 11.1833 44.7832 14.0902C44.6145 15.5941 44.2495 16.3787 43.6346 16.5595C43.3522 16.6424 43.0936 16.5719 42.8875 16.4608C42.7174 16.9599 42.4252 17.7872 42.0323 18.788C41.8798 19.1763 41.7344 19.5879 41.5804 20.0237C40.9346 21.8517 40.2667 23.7418 38.9936 23.8925C38.1864 23.9882 37.3439 23.3798 36.3655 21.9848C35.653 22.8035 33.7016 24.4736 29.3119 25.056C28.8845 25.4976 27.1462 27.0828 24.2171 27.0828ZM12.0518 20.9689C12.0558 20.9689 12.0597 20.9689 12.0635 20.969C12.1941 20.9731 12.313 21.0452 12.377 21.159C12.3902 21.1817 13.8747 23.6424 19.3509 24.3331C19.443 24.3447 19.5274 24.3903 19.5878 24.4608C19.6034 24.4789 21.2428 26.3367 24.2171 26.3367C27.1913 26.3367 28.8307 24.4789 28.8469 24.4601C28.9072 24.3904 28.9917 24.3447 29.0832 24.3331C34.5595 23.6424 36.0439 21.1818 36.0582 21.157C36.1233 21.0447 36.2426 20.9732 36.3723 20.97C36.5002 20.9647 36.6247 21.03 36.6953 21.139C37.8273 22.8847 38.5231 23.1959 38.9059 23.1514C39.7178 23.0553 40.3336 21.3127 40.8768 19.7751C41.0261 19.3526 41.1805 18.9156 41.3377 18.5152C41.9768 16.8876 42.3432 15.7326 42.3469 15.7212C42.3882 15.5904 42.4979 15.4928 42.6326 15.4671C42.7671 15.4416 42.9052 15.4915 42.9919 15.5979C43.0783 15.7016 43.296 15.8824 43.4248 15.8434C43.4683 15.8303 43.8553 15.6679 44.0416 14.0071C44.4012 10.8015 41.8183 7.79254 41.7922 7.7625C41.7146 7.67343 41.6837 7.55265 41.7091 7.4372C41.7345 7.32186 41.813 7.2252 41.9209 7.17686C42.1527 7.07297 42.2707 6.96166 42.2714 6.84593C42.2761 6.09643 39.6734 4.42596 37.2593 3.30807C37.1302 3.24829 37.0463 3.12026 37.043 2.97799C37.0398 2.83581 37.1177 2.70403 37.2439 2.63843C37.4469 2.53285 37.4994 2.43928 37.4946 2.41891C37.4636 2.28601 36.9578 1.89173 35.6849 1.86527C33.8129 1.82688 32.5461 2.8173 32.5335 2.82716C32.3846 2.9457 32.1706 2.93322 32.0365 2.79825C32.0271 2.78887 31.0294 1.80389 29.3987 1.24407C27.7409 0.674953 24.2608 0.749838 24.2259 0.75078C24.2201 0.750972 24.2141 0.750972 24.2083 0.75078C24.1733 0.749934 20.6932 0.675049 19.0354 1.24407C17.4047 1.80389 16.407 2.78887 16.3972 2.79873C16.263 2.93276 16.0491 2.94543 15.9006 2.82716C15.8886 2.81778 14.6087 1.82679 12.7493 1.86527C11.4763 1.89173 10.9705 2.28601 10.9395 2.41891C10.9347 2.43928 10.9872 2.53285 11.1902 2.63843C11.3164 2.70403 11.3943 2.83581 11.3911 2.97799C11.3878 3.12026 11.3039 3.24829 11.1748 3.30807C8.7607 4.42594 6.15799 6.09641 6.16274 6.84593C6.16345 6.96164 6.28137 7.07295 6.51319 7.17686C6.62118 7.2252 6.69977 7.32186 6.7251 7.4374C6.75044 7.55293 6.71951 7.67362 6.64176 7.76279C6.61576 7.79254 4.03287 10.8015 4.39251 14.0071C4.57886 15.6679 4.96585 15.8303 5.00935 15.8434C5.13816 15.8823 5.35575 15.7016 5.44351 15.5963C5.53089 15.4916 5.66886 15.442 5.80286 15.4684C5.93664 15.4947 6.04612 15.5911 6.08724 15.7212C6.09089 15.7326 6.45818 16.8897 7.09643 18.5152C7.25358 18.9156 7.40802 19.3526 7.55733 19.7751C8.10055 21.3127 8.71631 23.0553 9.52823 23.1514C9.91203 23.1967 10.6069 22.8846 11.7388 21.139C11.8077 21.0327 11.9257 20.9689 12.0518 20.9689Z" fill="#3F2017"/>
<path d="M27.3782 25.0468C26.8808 27.8166 24.2193 27.622 24.2193 27.622C24.2193 27.622 21.5578 27.8166 21.0611 25.0468C20.8304 23.7618 20.9975 22.6835 21.2433 21.8958C21.5274 20.985 21.9164 20.4633 21.9164 20.4633C21.9164 20.4633 23.2902 20.2803 24.2186 19.3154L24.2193 19.3163C25.1477 20.2803 26.5221 20.4634 26.5221 20.4634C26.5221 20.4634 27.875 22.2761 27.3782 25.0468Z" fill="#F48787"/>
<path d="M26.5198 20.4633C26.5198 20.4633 25.1461 20.2803 24.2177 19.3154C23.2893 20.2803 21.9156 20.4633 21.9156 20.4633C21.9156 20.4633 21.8017 20.6363 21.6855 20.838C21.6855 20.838 22.2375 20.9628 22.9135 20.7984C23.3495 20.6924 23.7676 21.0555 23.8148 21.5891C23.9044 22.6009 24.0502 24.0864 24.217 25.1602V25.1698C24.3819 24.1078 24.5278 22.6338 24.6176 21.6228C24.6669 21.068 25.1152 20.7043 25.5624 20.846C26.2631 21.068 26.8632 21.059 26.8632 21.059C26.8408 21.0104 26.5198 20.4633 26.5198 20.4633Z" fill="#D85050"/>
<path d="M24.1358 27.9996C23.5903 27.9996 21.1823 27.8425 20.6927 25.1149C20.1729 22.2189 21.5574 20.3218 21.6166 20.2425C21.6767 20.1619 21.7668 20.109 21.8664 20.0957C21.8782 20.0941 23.1263 19.9142 23.9489 19.0596C24.0193 18.9865 24.1163 18.9453 24.2177 18.9453C24.3191 18.9453 24.4162 18.9865 24.4865 19.0596C25.3149 19.9202 26.5581 20.0941 26.5705 20.0957C26.6702 20.109 26.7603 20.1619 26.8205 20.2425C26.8796 20.3218 28.2641 22.2189 27.7443 25.1149C27.2224 28.0226 24.5191 28.0086 24.2185 27.9983C24.1998 27.9989 24.1719 27.9996 24.1358 27.9996ZM24.2188 27.2518C24.2279 27.2518 24.2369 27.2521 24.2457 27.2527C24.34 27.2584 26.5798 27.379 27.0099 24.9831C27.4017 22.7999 26.5643 21.2332 26.2989 20.8052C25.9191 20.7285 24.9927 20.4849 24.2177 19.8289C23.443 20.4849 22.5175 20.7285 22.1382 20.8052C21.8735 21.2319 21.0352 22.799 21.4272 24.9831C21.8572 27.3791 24.097 27.2582 24.1926 27.2526C24.2011 27.2521 24.21 27.2518 24.2188 27.2518Z" fill="#3F2017"/>
<path d="M34.8661 46.1541C34.4937 47.627 31.9123 48.2852 29.0127 47.7108C27.6816 47.4477 26.6155 46.4555 26.252 45.1491C26.0766 44.5185 25.8963 43.747 25.7485 42.8179C25.3889 40.5597 25.2155 37.3704 25.7396 33.0008C25.7396 33.0008 26.8559 30.8509 29.7516 31.4618C32.6473 32.0727 33.737 33.853 33.737 33.853C33.737 33.853 34.0818 35.5004 33.3468 38.4227C32.6522 41.1804 33.1261 43.6574 33.1261 43.6574C33.1261 43.6574 34.3163 44.0279 34.7627 44.9451C34.9232 45.2752 34.9873 45.6752 34.8661 46.1541Z" fill="#FFBD5C"/>
<path d="M34.8652 46.1531C34.4928 47.6261 31.9114 48.2842 29.0117 47.7098C27.6806 47.4467 26.6146 46.4546 26.251 45.1481C26.0756 44.5175 25.8953 43.7461 25.7476 42.817C25.8372 42.3775 25.8983 42.0889 25.8983 42.0889C25.8983 42.0889 26.3496 46.3373 29.5645 46.3511C32.7794 46.3659 34.88 45.7816 34.7597 45.0377C34.7528 44.9934 34.7538 44.9629 34.7617 44.9441C34.9223 45.2742 34.9864 45.6743 34.8652 46.1531Z" fill="#F79654"/>
<path d="M33.7401 33.8529C34.0031 35.0733 33.8934 36.3463 33.7051 37.5705C33.5703 38.3737 33.3722 39.1777 33.3142 39.9919C33.2226 41.1868 33.2653 42.412 33.4997 43.586L33.2384 43.2935C33.3987 43.3483 33.5203 43.4017 33.6656 43.4722C34.3582 43.8129 35.0102 44.3622 35.2167 45.147C35.4698 46.1576 34.9744 47.1022 34.0824 47.5799C32.5046 48.4357 30.3471 48.3201 28.6592 47.903C27.3957 47.5401 26.3685 46.4851 26.0391 45.2145C25.9863 45.015 25.8899 44.6136 25.8455 44.4124C25.4917 42.8062 25.3293 41.1605 25.2884 39.5208C25.2436 37.3367 25.3592 35.1483 25.739 33.0014C25.7875 32.7715 26.124 32.8042 26.1177 33.0468C26.1331 35.2088 25.8557 37.3394 25.9664 39.4947C26.0232 41.0959 26.1966 42.6878 26.5564 44.2458C26.6009 44.4378 26.6981 44.8252 26.7505 45.0154C26.9374 45.6912 27.3531 46.2991 27.9241 46.7096C28.3125 46.9895 28.7452 47.1686 29.22 47.2535C30.6983 47.5222 32.345 47.5948 33.69 46.9059C33.9839 46.7386 34.2278 46.5366 34.3757 46.2491C34.6038 45.764 34.5355 45.2001 34.1786 44.7944C33.8871 44.4475 33.4408 44.1804 33.0119 44.0218C32.8621 43.995 32.768 43.8699 32.7506 43.7293C32.7042 43.5079 32.6698 43.307 32.6402 43.088C32.4139 41.4048 32.5142 39.6807 32.9324 38.0299C33.2112 36.8725 33.3117 35.6797 33.3487 34.494C33.3571 34.345 33.3573 34.0381 33.3657 33.8868C33.3771 33.6776 33.6876 33.6391 33.7401 33.8529Z" fill="#3F2017"/>
<path d="M33.3905 44.1805C32.6541 43.8972 31.8337 43.8753 31.0571 43.9881C30.6801 44.0497 30.3124 44.1616 29.9361 44.2332C29.7451 44.2665 29.6487 44.0049 29.8143 43.9061C30.2602 43.6195 30.7864 43.4651 31.3015 43.3564C32.0894 43.211 32.9306 43.2061 33.6943 43.4809C34.1621 43.6918 33.8658 44.3779 33.3905 44.1805Z" fill="#3F2017"/>
<path d="M30.881 47.3636C31.2263 46.8338 31.4379 46.1207 31.1775 45.5156L31.1519 45.451C31.1285 45.4106 31.0698 45.3101 31.0467 45.2686C30.8653 45.0148 31.2157 44.737 31.4158 44.9759C31.4554 45.026 31.5493 45.1474 31.5864 45.1961C31.6686 45.3315 31.7418 45.4658 31.7959 45.6172C32.0483 46.3384 31.9029 47.1358 31.5719 47.8062C31.2729 48.3157 30.5428 47.8493 30.881 47.3636Z" fill="#3F2017"/>
<path d="M32.9962 47.1195C33.3415 46.5897 33.5531 45.8767 33.2927 45.2715L33.2671 45.2069C33.2438 45.1665 33.185 45.066 33.1619 45.0245C32.9817 44.7686 33.3291 44.4936 33.531 44.7318C33.5706 44.7819 33.6645 44.9033 33.7017 44.952C33.7839 45.0874 33.857 45.2216 33.9112 45.3731C34.1635 46.0943 34.0182 46.8917 33.6871 47.5621C33.3881 48.0716 32.6581 47.6052 32.9962 47.1195Z" fill="#3F2017"/>
<path d="M13.5737 46.1541C13.9462 47.627 16.5276 48.2852 19.4272 47.7108C20.7583 47.4477 21.8243 46.4555 22.1879 45.1491C22.3633 44.5185 22.5436 43.747 22.6914 42.8179C23.051 40.5597 23.2244 37.3704 22.7002 33.0008C22.7002 33.0008 21.5839 30.8509 18.6882 31.4618C15.7926 32.0727 14.7029 33.853 14.7029 33.853C14.7029 33.853 14.358 35.5004 15.093 38.4227C15.7876 41.1804 15.3137 43.6574 15.3137 43.6574C15.3137 43.6574 14.1235 44.0279 13.6772 44.9451C13.5166 45.2752 13.4526 45.6752 13.5737 46.1541Z" fill="#FFBD5C"/>
<path d="M13.5737 46.1531C13.9462 47.6261 16.5276 48.2842 19.4272 47.7098C20.7583 47.4467 21.8243 46.4546 22.1879 45.1481C22.3633 44.5175 22.5436 43.7461 22.6914 42.817C22.6017 42.3775 22.5406 42.0889 22.5406 42.0889C22.5406 42.0889 22.0894 46.3373 18.8745 46.3511C15.6595 46.3659 13.559 45.7816 13.6792 45.0377C13.6861 44.9934 13.6851 44.9629 13.6772 44.9441C13.5166 45.2742 13.4526 45.6743 13.5737 46.1531Z" fill="#F79654"/>
<path d="M14.7071 33.8508C14.5759 35.4932 14.9286 37.1247 15.3701 38.6955C15.7851 40.3339 15.8966 42.0453 15.6889 43.7255C15.6591 43.9469 15.4516 44.0091 15.2681 44.076C14.6943 44.3117 14.0923 44.7149 13.9132 45.3291C13.8044 45.7325 13.8801 46.2232 14.1597 46.5546C14.639 47.1152 15.3875 47.3512 16.1165 47.4956C17.1388 47.6809 18.2151 47.6403 19.2591 47.4613C19.5179 47.4189 19.7524 47.3588 19.9924 47.2636C20.9408 46.8958 21.6906 46.0695 21.9737 45.0913C22.9534 41.7034 23.0198 38.1261 22.794 34.6272C22.7806 34.3558 22.7686 34.084 22.7466 33.8131L22.7005 32.9976C22.6945 32.8923 22.775 32.8022 22.8803 32.7962C22.9778 32.7907 23.0614 32.8595 23.0791 32.9521C23.3479 34.0241 23.4653 35.1216 23.5197 36.2217C23.6549 39.2575 23.5045 42.3468 22.6851 45.2905C22.3132 46.6435 21.1954 47.7515 19.8411 48.1144C18.5771 48.4109 17.2719 48.4806 15.9845 48.2654C14.968 48.0813 13.7784 47.6348 13.2883 46.6177C12.7705 45.4379 13.3095 44.2941 14.3717 43.6725C14.6395 43.5115 14.9012 43.3873 15.201 43.2897L14.9398 43.5822C14.9639 43.4014 14.9816 43.1953 14.9963 42.9992C15.0928 41.611 15.0038 40.2022 14.6891 38.8467C14.39 37.6181 14.1086 36.3597 14.131 35.0871C14.1424 34.6442 14.1948 34.1985 14.33 33.7717C14.4002 33.5535 14.732 33.6159 14.7071 33.8508Z" fill="#3F2017"/>
<path d="M14.7447 43.4806C15.627 43.166 16.603 43.2124 17.4985 43.439C17.8898 43.5444 18.283 43.6856 18.6247 43.9058C18.7087 43.9566 18.7356 44.0657 18.6848 44.1497C18.6427 44.2197 18.5617 44.2482 18.4869 44.2302C18.3331 44.2039 18.187 44.1635 18.0403 44.1282C17.9342 44.1063 17.8171 44.0769 17.7116 44.0504C17.6441 44.0377 17.4524 44.0013 17.3819 43.9878C17.2557 43.9726 17.0654 43.9436 16.94 43.9386C16.2969 43.895 15.6366 43.9491 15.0358 44.1855C14.5646 44.3647 14.2831 43.6873 14.7447 43.4806Z" fill="#3F2017"/>
<path d="M16.8591 47.7891C16.508 47.0683 16.3733 46.193 16.7155 45.4429C16.7733 45.336 16.8338 45.2178 16.9109 45.123L17.0248 44.9769C17.1043 44.8749 17.2514 44.8567 17.3533 44.9362C17.4463 45.0087 17.4697 45.1376 17.4126 45.2371C17.3803 45.2934 17.3216 45.3965 17.2887 45.452C16.9949 46.0722 17.1982 46.8146 17.5596 47.3646C17.9033 47.8617 17.1435 48.3245 16.8591 47.7891Z" fill="#3F2017"/>
<path d="M14.7444 47.5413C14.3414 46.7204 14.2192 45.6452 14.7962 44.8753L14.9101 44.7291C15.0891 44.5041 15.4384 44.7401 15.2979 44.9893C15.2656 45.0457 15.207 45.1487 15.174 45.2042C14.8803 45.8245 15.0835 46.5668 15.4449 47.1169C15.7886 47.6139 15.0288 48.0767 14.7444 47.5413Z" fill="#3F2017"/>
</svg>
