<svg width="61" height="60" viewBox="0 0 61 60" fill="none" xmlns="http://www.w3.org/2000/svg">
<g opacity="0.8" clip-path="url(#clip0_1151_17416)">
<path d="M54.5352 7.13476L31.0039 0.0683516C30.6745 -0.025388 30.3255 -0.025388 29.9961 0.0683516L6.46484 7.13476C6.10308 7.24534 5.7862 7.4688 5.56057 7.77244C5.33495 8.07609 5.21243 8.44397 5.21094 8.82226V34.709C5.21094 38.0723 6.57031 41.5176 9.26562 44.9512C11.3164 47.5762 14.1641 50.2012 17.7031 52.7676C21.5072 55.4889 25.5513 57.8581 29.7852 59.8457C30.0098 59.9467 30.2537 59.9979 30.5 59.9957C30.7466 59.9984 30.9907 59.9463 31.2148 59.8434C31.4609 59.7379 37.332 57.0894 43.2969 52.7652C46.8477 50.1988 49.6836 47.5621 51.7344 44.9488C54.418 41.5152 55.7891 38.0699 55.7891 34.7066V8.8082C55.789 8.4312 55.6668 8.06436 55.4408 7.76267C55.2147 7.46097 54.897 7.24066 54.5352 7.13476ZM52.2969 34.709H52.2734C52.2734 38.3652 50.0234 41.8809 47.1289 44.8926C45.3008 46.791 43.2148 48.4902 41.2812 49.8965C39.4895 51.1937 37.6895 52.3422 36.0617 53.3066L35.9621 53.3652C33.5469 54.7937 31.523 55.8121 30.5 56.3066H30.4883C28.7539 55.4746 24.207 53.1543 19.7188 49.9082C14.8566 46.3867 9.09102 41.0254 8.74414 35.2691C8.73242 35.0875 8.72656 34.9059 8.72656 34.723V10.123L30.5 3.5957H30.5117L37.5312 5.70507L52.2969 10.1348V34.709Z" fill="#DBA87B"/>
<path d="M52.5938 9.85332V34.7768H52.582C52.582 38.4846 50.2992 42.0506 47.3637 45.1045C45.5098 47.0299 43.3945 48.7537 41.434 50.1799C39.6164 51.4959 37.7906 52.6596 36.1395 53.6381L36.0387 53.6978C33.5859 55.1393 31.5316 56.1682 30.4875 56.6686C28.7297 55.8248 24.1172 53.4717 19.5645 50.1799C14.6426 46.6104 8.79492 41.1775 8.43164 35.3428C8.41992 35.1576 8.41406 34.9736 8.41406 34.7885V9.83926L30.4992 3.22168L37.6184 5.36152L52.5938 9.85332Z" fill="#D57E22"/>
<path d="M52.5931 9.81523V34.7387H52.5825C52.5825 38.4465 50.2997 42.0125 47.363 45.0664C47.2224 45.2141 47.0771 45.3605 46.9318 45.5059C46.8579 45.582 46.7818 45.657 46.7044 45.732L46.6142 45.8211C46.5075 45.9242 46.4032 46.0262 46.2954 46.127C46.1876 46.2277 46.0611 46.3531 45.9439 46.4645L45.5665 46.809C45.4423 46.9215 45.3181 47.0324 45.1939 47.1418C45.0696 47.2512 44.9462 47.3563 44.8236 47.457C44.4431 47.7875 44.0599 48.1082 43.6739 48.4191C43.5568 48.5187 43.4278 48.6184 43.3048 48.7156C43.0857 48.8902 42.8665 49.0602 42.6509 49.2277L42.1446 49.3063L41.6607 48.0523C36.4008 34.403 34.8179 19.6115 37.0704 5.1582L37.6165 5.32227L52.5931 9.81523Z" fill="#B96D1F"/>
<g clip-path="url(#clip1_1151_17416)">
<mask id="mask0_1151_17416" style="mask-type:luminance" maskUnits="userSpaceOnUse" x="13" y="10" width="35" height="35">
<path d="M13.5 10.2325H47.4999V44.2324H13.5V10.2325Z" fill="white"/>
</mask>
<g mask="url(#mask0_1151_17416)">
<path d="M40.8782 43.5488C40.028 43.5488 39.1811 43.3546 38.3638 42.9668C36.8159 42.2323 35.7387 40.9763 35.2487 39.3345L33.983 35.0941C33.9386 34.9452 33.9296 34.7879 33.9568 34.6349L36.8991 18.0849C36.9358 17.879 37.0363 17.6899 37.1865 17.5443C37.3366 17.3988 37.5288 17.3042 37.7357 17.2739C37.9426 17.2436 38.1538 17.2792 38.3393 17.3757C38.5249 17.4721 38.6754 17.6245 38.7695 17.8112L46.7846 33.7266C47.644 35.4332 47.7305 37.3063 47.035 39.1435C46.3526 40.9456 45.0517 42.2897 43.2728 43.0305L43.1475 43.0827C42.401 43.3936 41.6383 43.5488 40.8782 43.5488Z" fill="#803602"/>
<path d="M20.1254 43.5488C19.3653 43.5488 18.6027 43.3936 17.8561 43.0827L17.7308 43.0305C15.9521 42.2897 14.6511 40.9456 13.9687 39.1435C13.2731 37.3064 13.3597 35.4333 14.2191 33.7266L22.2342 17.8112C22.3284 17.6242 22.4791 17.4715 22.6651 17.3751C22.851 17.2786 23.0626 17.2432 23.2698 17.2739C23.477 17.3046 23.6692 17.3998 23.8192 17.546C23.9692 17.6922 24.0692 17.882 24.1051 18.0884L27.0101 34.7634C27.0366 34.9154 27.0274 35.0715 26.9833 35.2193L25.755 39.3345C25.2649 40.9763 24.1877 42.2323 22.6398 42.9668C21.8226 43.3546 20.9756 43.5488 20.1254 43.5488Z" fill="#A24603"/>
<path d="M37.0753 33.8701C37.0673 33.8701 23.7941 33.6045 23.7941 33.6045C23.4088 33.5951 22.6993 32.1135 22.5432 31.7611C21.5796 29.5859 21.0703 27.0604 21.0703 24.4575C21.0703 20.9092 22.0075 17.5601 23.7093 15.0271C24.8647 13.3073 26.2835 12.088 27.8449 11.4426C28.6937 11.0916 29.4545 14.546 30.3683 14.546C31.2665 14.546 32.2728 11.0856 33.1087 11.4249C34.6871 12.0656 36.1214 13.2914 37.2874 15.0271C38.9891 17.5601 39.9264 20.9092 39.9264 24.4575C39.9264 27.2143 39.3599 29.8642 38.2885 32.1208C38.1232 32.4688 37.4591 33.8701 37.0753 33.8701Z" fill="#B34F03"/>
<path d="M37.2863 15.0271C36.1203 13.2914 34.686 12.0656 33.1075 11.4249C32.3127 11.1022 31.3637 14.2159 30.5 14.5219V33.7386C33.7959 33.8046 37.0701 33.8701 37.0742 33.8701C37.458 33.8701 38.1221 32.4687 38.2873 32.1208C39.3588 29.8642 39.9252 27.2142 39.9252 24.4575C39.9252 20.9092 38.988 17.5601 37.2863 15.0271Z" fill="#A24603"/>
<path d="M30.4977 38.2061C28.6764 38.2061 27.0694 36.9789 26.5898 35.2219C26.5387 35.0345 26.5435 34.8362 26.6036 34.6514C26.6637 34.4667 26.7765 34.3036 26.9282 34.1821L29.9442 31.7668C30.1232 31.6234 30.3462 31.5462 30.5756 31.5482C30.805 31.5502 31.0266 31.6313 31.2031 31.7779L34.0866 34.1716C34.2328 34.293 34.3413 34.4537 34.3991 34.6347C34.457 34.8158 34.4619 35.0096 34.4132 35.1933C33.943 36.9672 32.3328 38.2061 30.4977 38.2061Z" fill="#F6EFEA"/>
<path d="M34.0862 34.1716L31.2026 31.7779C31.0063 31.6147 30.7547 31.5332 30.5 31.5504V38.2061C32.334 38.2048 33.9428 36.9663 34.4128 35.1933C34.4615 35.0096 34.4566 34.8158 34.3987 34.6347C34.3409 34.4537 34.2324 34.293 34.0862 34.1716Z" fill="#EEE1DC"/>
<path d="M37.6371 32.6206C38.0026 30.9746 37.4561 28.982 36.6862 27.6486C36.32 27.0144 35.883 26.4414 35.387 25.9455C33.8935 24.4521 33.1358 22.6241 33.135 20.5123L33.1349 20.5088V11.4352C32.2921 11.0897 31.4079 10.9112 30.5014 10.9112C29.5948 10.9112 28.7106 11.0897 27.8678 11.4352V20.5088C27.8678 22.6221 27.1101 24.4512 25.6157 25.9455C25.1199 26.4413 24.6828 27.0144 24.3166 27.6486C23.8929 28.3824 23.5739 29.1801 23.3981 30.0099C23.2392 30.7601 23.1974 31.5567 23.3258 32.3147C23.5243 33.4822 24.1021 34.3886 24.9833 34.8974C25.8487 35.3971 26.9332 35.4495 28.0368 35.0452C28.9101 34.7252 29.7692 34.1278 30.5014 33.3382C31.2335 34.1278 32.0927 34.7252 32.966 35.0452C33.4568 35.225 33.9436 35.3145 34.4091 35.3145C34.9906 35.3145 35.5388 35.1749 36.0195 34.8974C36.9328 34.3702 37.4306 33.5507 37.6371 32.6206Z" fill="#FFF4F4"/>
<path d="M36.6821 27.6486C36.3159 27.0144 35.8788 26.4414 35.383 25.9456C33.8894 24.4521 33.1317 22.6241 33.1309 20.5123L33.1308 20.5088V11.4352C32.2888 11.0901 31.4056 10.9116 30.5 10.9112V33.3412C31.2316 34.1293 32.0897 34.7256 32.9619 35.0452C33.4526 35.225 33.9394 35.3145 34.405 35.3145C34.9865 35.3145 35.5347 35.1749 36.0154 34.8974C36.9286 34.3702 37.4264 33.5507 37.6329 32.6206C37.9984 30.9746 37.452 28.982 36.6821 27.6486Z" fill="#F6EFEA"/>
<path d="M31.2612 28.7655H29.7335C28.6441 28.7655 27.7578 29.6518 27.7578 30.7411V30.7553C27.7578 31.5142 28.2097 32.1692 29.0304 32.5996L30.3894 33.3124C30.4227 33.3298 30.4597 33.3389 30.4973 33.3389C30.5349 33.3389 30.5719 33.3298 30.6052 33.3124L31.9643 32.5996C32.7848 32.1693 33.2368 31.5143 33.2368 30.7553V30.7411C33.2368 29.6518 32.3505 28.7655 31.2612 28.7655Z" fill="#2E2E2E"/>
<path fill-rule="evenodd" clip-rule="evenodd" d="M25.6562 20.6417C26.2064 20.6417 26.6523 21.0877 26.6523 21.6378C26.6523 22.1879 26.2064 22.6338 25.6562 22.6338C25.1061 22.6338 24.6602 22.1879 24.6602 21.6378C24.6602 21.0877 25.1061 20.6417 25.6562 20.6417Z" fill="#2E2E2E"/>
<path fill-rule="evenodd" clip-rule="evenodd" d="M35.8125 20.6417C36.3626 20.6417 36.8086 21.0877 36.8086 21.6378C36.8086 22.1879 36.3626 22.6338 35.8125 22.6338C35.2624 22.6338 34.8164 22.1879 34.8164 21.6378C34.8164 21.0877 35.2624 20.6417 35.8125 20.6417Z" fill="#1A1A1A"/>
<path d="M31.2611 28.7655H30.5V33.3389C30.5361 33.3385 30.5722 33.3296 30.6052 33.3124L31.9643 32.5996C32.7848 32.1693 33.2367 31.5144 33.2367 30.7553V30.7411C33.2367 29.6518 32.3505 28.7655 31.2611 28.7655Z" fill="#1A1A1A"/>
</g>
</g>
</g>
<defs>
<clipPath id="clip0_1151_17416">
<rect width="60" height="60" fill="white" transform="translate(0.5 -0.00195312)"/>
</clipPath>
<clipPath id="clip1_1151_17416">
<rect width="34" height="34" fill="white" transform="translate(13.5 10.2324)"/>
</clipPath>
</defs>
</svg>
