<svg width="61" height="60" viewBox="0 0 61 60" fill="none" xmlns="http://www.w3.org/2000/svg">
<g clip-path="url(#clip0_1151_17277)">
<path d="M55.8125 -0.00195312H38.9376L14.5625 35.6229H31.4374L55.8125 -0.00195312Z" fill="#BF392C"/>
<path d="M5.1875 -0.00195312H22.0624L46.4373 35.6229H29.5624L5.1875 -0.00195312Z" fill="#E2574C"/>
<path d="M31.4375 18.748C42.875 18.748 52.0625 27.9356 52.0625 39.3731C52.0625 50.8105 42.875 59.9981 31.4375 59.9981C20.0001 59.9981 10.8125 50.8105 10.8125 39.3731C10.8125 27.9356 20.0001 18.748 31.4375 18.748Z" fill="#F2F2F2"/>
<path d="M31.4376 24.373C23.1876 24.373 16.4375 31.123 16.4375 39.3731C16.4375 47.6232 23.1874 54.3731 31.4376 54.3731C39.6877 54.3731 46.4376 47.6232 46.4376 39.3731C46.4376 31.123 39.6875 24.373 31.4376 24.373ZM31.4376 50.623C25.25 50.623 20.1876 45.5604 20.1876 39.3731C20.1876 33.1857 25.2502 28.1232 31.4376 28.1232C37.6249 28.1232 42.6875 33.1857 42.6875 39.3731C42.6875 45.5604 37.6249 50.623 31.4376 50.623Z" fill="#D9D2D2"/>
<g clip-path="url(#clip1_1151_17277)">
<path d="M45.9884 41.4227C44.5833 25.5474 43.8261 14.4594 36.2208 28.3679C35.4147 28.1919 32.6615 27.7887 31.5035 27.8191C30.3527 27.7848 27.5721 28.1973 26.7836 28.3686C21.0044 17.9483 19.1741 21.0365 17.8652 32.3733C17.1124 40.49 16.4495 42.8548 17.9588 45.5953C20.4744 50.8091 28.2807 56.5574 32.1385 55.9544C37.5385 55.1864 46.5837 47.1338 45.9884 41.4227Z" fill="#F2F2F2"/>
<path d="M45.988 41.4227C45.9561 41.1086 45.9378 40.9447 45.9097 40.6436C45.271 44.0172 42.5188 47.3776 38.973 50.159C35.9385 52.4666 33.0773 53.7785 30.9648 53.5519C25.753 52.8484 17.9311 45.8567 17.0965 40.6436C15.805 47.0681 25.988 55.5756 31.2229 55.9864C36.3274 56.2386 46.648 47.4457 45.988 41.4227Z" fill="#D3D3D3"/>
<path d="M45.9896 41.4224C44.5845 25.5472 43.8273 14.4592 36.222 28.3677C35.4159 28.1917 32.6627 27.7885 31.5047 27.8188C30.3539 27.7846 27.5733 28.1971 26.7848 28.3683C17.6103 10.8539 18.0564 34.7767 17.0652 40.98C16.4471 45.3724 20.6248 49.9562 24.148 52.6601C21.8253 50.2454 20.7071 47.4688 19.6291 44.736C17.8839 40.598 19.2554 38.854 22.7773 37.2881C24.307 34.1914 23.4616 34.8617 26.633 34.2108C27.9306 31.9052 28.1654 32.3777 30.3215 33.9378C31.2973 34.6276 29.6032 31.1453 31.5046 31.2354C33.4769 31.2427 31.6684 34.7041 32.6879 33.9378C36.3704 31.025 35.3013 33.7522 36.6056 34.3446C40.8083 34.5393 38.8156 36.2837 40.4939 37.4905C45.0282 39.0495 44.5222 42.3971 43.1261 45.3613C42.0244 48.1664 41.0137 50.3569 38.8613 52.6582C42.3733 49.9581 46.2749 45.6225 45.9896 41.4224Z" fill="#424242"/>
<path d="M25.2758 29.1432C19.5951 17.1571 19.9284 29.8252 19.1914 35.2309C20.6523 32.8303 22.8073 30.5958 25.2758 29.1432ZM37.7326 29.1432C43.4133 17.1571 43.08 29.8252 43.817 35.2309C42.3561 32.8303 40.201 30.5958 37.7326 29.1432Z" fill="#F2F2F2"/>
<path d="M37.7872 45.7414C37.634 45.439 37.3518 45.2228 36.8886 45.3585C35.0617 46.0917 33.515 45.625 32.3679 44.4878C32.0517 43.9519 32.4704 42.3814 31.0634 43.1377C30.7861 43.3825 30.8731 43.9649 30.8613 44.3524C30.4213 44.9743 28.9476 45.7658 28.0468 45.7098C27.1763 45.915 26.2156 44.9765 25.4644 45.495C24.4344 46.9541 27.1321 46.5684 27.2594 47.6091C29.2391 50.7684 34.7957 50.0252 35.9389 47.0401C36.55 46.8764 38.0865 46.8248 37.7872 45.7414Z" fill="#AA0C18"/>
<path d="M28.4648 48.825C30.0579 49.8994 32.7751 49.9299 34.4377 48.8243C32.0642 46.6059 30.0389 47.382 28.4648 48.825Z" fill="#EA6077"/>
<path d="M33.2169 40.4684C26.1981 39.3326 29.0756 44.4303 31.512 44.3167C33.8132 44.4219 35.4448 41.1787 33.2169 40.4684ZM36.64 36.8887C34.1469 37.0309 34.3534 40.4518 36.6401 40.5109C39.1334 40.3682 38.9258 36.95 36.64 36.8887ZM26.4768 36.8887C23.9837 37.0309 24.1902 40.4518 26.4769 40.5109C28.9702 40.3682 28.7626 36.95 26.4768 36.8887Z" fill="#424242"/>
</g>
</g>
<defs>
<clipPath id="clip0_1151_17277">
<rect width="60" height="60" fill="white" transform="translate(0.5 -0.00195312)"/>
</clipPath>
<clipPath id="clip1_1151_17277">
<rect width="34" height="34" fill="white" transform="translate(14.5 21.998)"/>
</clipPath>
</defs>
</svg>
