<svg width="61" height="60" viewBox="0 0 61 60" fill="none" xmlns="http://www.w3.org/2000/svg">
<path d="M32.8634 17.8233L41.6094 13.7027C41.9318 13.5507 42.2044 13.3103 42.3953 13.0093C42.5861 12.7083 42.6875 12.3593 42.6875 12.0029V2.22449C42.6875 1.91371 42.564 1.61567 42.3442 1.39593C42.1245 1.17618 41.8264 1.05273 41.5156 1.05273H19.4844C19.1736 1.05273 18.8755 1.1762 18.6557 1.39597C18.436 1.61574 18.3125 1.91381 18.3125 2.22461V12.0029C18.3125 12.3593 18.4139 12.7083 18.6047 13.0093C18.7956 13.3103 19.0682 13.5507 19.3906 13.7027L28.1366 17.8233" fill="url(#paint0_linear_1151_17304)"/>
<path d="M28.1371 17.9407H32.864L37.4308 15.672V1.05297C32.8106 1.01359 28.1905 1.01359 23.5703 1.05297V15.6719L28.1371 17.9407Z" fill="url(#paint1_linear_1151_17304)"/>
<path d="M26.8672 22.4061V18.5857C26.8672 17.7241 27.2095 16.8977 27.8187 16.2885C28.428 15.6792 29.2543 15.3369 30.116 15.3369H30.884C31.7456 15.3369 32.5719 15.6792 33.1812 16.2885C33.7904 16.8978 34.1327 17.7241 34.1327 18.5857V22.406" fill="#9B7A29"/>
<path d="M50.827 38.6176C50.827 41.1891 47.6997 43.1204 46.7725 45.3566C45.8112 47.6746 46.6206 51.2429 44.8737 52.9899C43.1268 54.737 39.5584 53.9274 37.2404 54.8887C35.0042 55.8159 33.0729 58.9432 30.5014 58.9432C27.9298 58.9432 25.9986 55.8159 23.7624 54.8887C21.4443 53.9274 17.8761 54.7368 16.129 52.9899C14.382 51.243 15.1915 47.6746 14.2302 45.3566C13.303 43.1204 10.1758 41.1891 10.1758 38.6176C10.1758 36.046 13.303 34.1148 14.2302 31.8786C15.1915 29.5605 14.3821 25.9923 16.129 24.2452C17.8759 22.4982 21.4443 23.3077 23.7624 22.3464C25.9986 21.4193 27.9298 18.292 30.5014 18.292C33.0729 18.292 35.0042 21.4193 37.2404 22.3464C39.5584 23.3077 43.1267 22.4983 44.8737 24.2452C46.6207 25.9921 45.8112 29.5605 46.7725 31.8786C47.6997 34.1148 50.827 36.046 50.827 38.6176Z" fill="#F7DEA5"/>
<path d="M30.5021 55.5062C39.8296 55.5062 47.3909 47.9448 47.3909 38.6173C47.3909 29.2899 39.8296 21.7285 30.5021 21.7285C21.1747 21.7285 13.6133 29.2899 13.6133 38.6173C13.6133 47.9448 21.1747 55.5062 30.5021 55.5062Z" fill="#E8C36F"/>
<path d="M30.5025 54.086C39.0449 54.086 45.9698 47.1611 45.9698 38.6187C45.9698 30.0763 39.0449 23.1514 30.5025 23.1514C21.9601 23.1514 15.0352 30.0763 15.0352 38.6187C15.0352 47.1611 21.9601 54.086 30.5025 54.086Z" fill="url(#paint2_linear_1151_17304)"/>
<path d="M32.6472 47.7269C32.0089 48.1448 31.2624 48.3673 30.4994 48.3672C29.7364 48.3673 28.99 48.1448 28.3516 47.7269L30.4994 44.3047L32.6472 47.7269Z" fill="#9B7A29"/>
<path d="M28.7305 47.1245C29.2777 47.4072 29.8846 47.5547 30.5005 47.5547C31.1164 47.5547 31.7233 47.4072 32.2705 47.1245L30.5005 44.3047L28.7305 47.1245Z" fill="#BC9834"/>
<path d="M22.4843 33.3809C21.81 33.9212 21.3314 34.6677 21.1217 35.506C20.8772 36.484 20.4083 37.3917 19.7523 38.1571L19.3549 38.6207C18.6823 39.4055 18.3125 40.4051 18.3125 41.4388C18.3124 42.2504 18.5405 43.0456 18.9706 43.7337L19.7677 45.009C20.1442 45.6112 20.3438 46.3072 20.3438 47.0175C20.3438 47.268 20.4433 47.5082 20.6204 47.6853C20.7975 47.8625 21.0378 47.962 21.2883 47.962C21.4864 47.9619 21.6796 47.8996 21.8403 47.7837C22.0011 47.6679 22.1213 47.5044 22.1841 47.3165C22.5796 46.1296 22.7813 44.8868 22.7812 43.6358C22.7813 43.0057 22.9092 42.3821 23.1574 41.8028L23.4418 41.1394M38.5157 33.3809C39.19 33.9212 39.6686 34.6677 39.8783 35.506C40.1228 36.484 40.5917 37.3917 41.2478 38.1571L41.6451 38.6207C42.3177 39.4055 42.6875 40.4051 42.6875 41.4388C42.6876 42.2504 42.4595 43.0456 42.0294 43.7337L41.2323 45.009C40.8558 45.6112 40.6562 46.3072 40.6562 47.0175C40.6562 47.268 40.5567 47.5082 40.3796 47.6853C40.2025 47.8625 39.9622 47.962 39.7117 47.962C39.5139 47.9615 39.3212 47.899 39.1609 47.7831C39.0005 47.6673 38.8806 47.5041 38.818 47.3165C38.4217 46.1298 38.2194 44.8869 38.2188 43.6358C38.2187 43.0057 38.0908 42.3821 37.8426 41.8028L37.5582 41.1394" fill="#9B7A29"/>
<path d="M31.0663 45.4905L31.5156 46.5431C31.6962 46.9644 31.9965 47.3233 32.3793 47.5753C32.7621 47.8274 33.2104 47.9615 33.6687 47.9609C34.1644 47.9611 34.6472 47.8038 35.0477 47.5117C35.4481 47.2196 35.7454 46.8079 35.8966 46.3359L37.6155 40.9641C38.285 38.8709 38.6256 36.6865 38.625 34.4889C38.6252 33.7506 38.4799 33.0196 38.1975 32.3375C37.9151 31.6555 37.5011 31.0357 36.9791 30.5137C36.4571 29.9916 35.8374 29.5775 35.1554 29.295C34.4734 29.0125 33.7424 28.8671 33.0041 28.8672C32.153 28.8673 31.3075 29.0044 30.5 29.2734C29.6928 29.0045 28.8475 28.8673 27.9967 28.8672C27.2584 28.8671 26.5274 29.0125 25.8453 29.295C25.1632 29.5775 24.5435 29.9916 24.0214 30.5136C23.4994 31.0357 23.0853 31.6554 22.8028 32.3375C22.5203 33.0196 22.3749 33.7506 22.375 34.4889C22.3749 36.6862 22.7159 38.8702 23.3857 40.9629L25.1046 46.3359C25.2558 46.8077 25.5529 47.2193 25.9531 47.5113C26.3533 47.8034 26.8358 47.9608 27.3313 47.9609C27.7896 47.9615 28.2379 47.8274 28.6207 47.5753C29.0035 47.3233 29.3038 46.9644 29.4844 46.5431L29.9353 45.4905C29.9827 45.38 30.0615 45.2857 30.1618 45.2194C30.2621 45.153 30.3797 45.1175 30.5 45.1172C30.6206 45.1172 30.7385 45.1526 30.8391 45.2189C30.9398 45.2853 31.0188 45.3797 31.0663 45.4905Z" fill="#BC9834"/>
<path d="M33.0041 28.8672C32.153 28.8673 31.3075 29.0044 30.5 29.2734C29.6928 29.0045 28.8475 28.8673 27.9967 28.8672C26.7041 28.8656 25.4507 29.3116 24.4497 30.1294C23.6319 31.1304 23.1859 32.3837 23.1875 33.6764C23.1875 35.8737 23.5285 38.0577 24.1983 40.1504L25.9171 45.5234C26.0234 45.8594 26.2047 46.1669 26.4471 46.4227C26.6895 46.6785 26.9868 46.876 27.3166 47.0002C27.6464 47.1244 28.0001 47.1722 28.351 47.1399C28.702 47.1076 29.041 46.996 29.3426 46.8137C29.3952 46.7271 29.442 46.6371 29.4828 46.5443L29.9337 45.4918C29.9812 45.381 30.0602 45.2866 30.1609 45.2202C30.2616 45.1539 30.3795 45.1186 30.5 45.1186C30.6206 45.1186 30.7385 45.1539 30.8391 45.2202C30.9398 45.2866 31.0188 45.381 31.0663 45.4918L31.5156 46.5431C31.703 46.982 32.0201 47.3531 32.4244 47.6066C32.8287 47.86 33.3008 47.9838 33.7775 47.9613C34.2542 47.9387 34.7125 47.7709 35.0911 47.4804C35.4697 47.1899 35.7503 46.7905 35.8954 46.3359L37.6143 40.9641C38.2842 38.871 38.6251 36.6866 38.625 34.4889C38.6252 33.7507 38.4799 33.0196 38.1975 32.3376C37.9151 31.6555 37.5011 31.0357 36.9791 30.5137C36.4571 29.9916 35.8374 29.5775 35.1554 29.295C34.4734 29.0125 33.7424 28.8671 33.0041 28.8672Z" fill="#E7B541"/>
<path d="M26.8438 36.1797C27.2925 36.1797 27.6562 35.8159 27.6562 35.3672C27.6562 34.9185 27.2925 34.5547 26.8438 34.5547C26.395 34.5547 26.0312 34.9185 26.0312 35.3672C26.0312 35.8159 26.395 36.1797 26.8438 36.1797Z" fill="#353535"/>
<path d="M34.1562 36.1797C34.605 36.1797 34.9688 35.8159 34.9688 35.3672C34.9688 34.9185 34.605 34.5547 34.1562 34.5547C33.7075 34.5547 33.3438 34.9185 33.3438 35.3672C33.3438 35.8159 33.7075 36.1797 34.1562 36.1797Z" fill="#353535"/>
<path d="M21.5625 34.4896C21.5625 34.4729 21.5649 34.4571 21.5649 34.4404C21.3658 34.7719 21.2165 35.1308 21.1217 35.5056C20.8771 36.4836 20.4083 37.3913 19.7522 38.1568L19.3549 38.6203C18.7547 39.3206 18.3938 40.1942 18.3247 41.1139C18.2556 42.0336 18.4818 42.9513 18.9706 43.7334L19.7676 45.0086C20.1441 45.6109 20.3437 46.3069 20.3437 47.0171C20.3437 47.2676 20.4432 47.5079 20.6204 47.685C20.7975 47.8621 21.0377 47.9616 21.2882 47.9616C21.4864 47.9616 21.6795 47.8993 21.8403 47.7834C22.001 47.6676 22.1213 47.5041 22.184 47.3161C22.5796 46.1293 22.7812 44.8865 22.7812 43.6355C22.7816 43.1704 22.8517 42.7079 22.9892 42.2636L22.5732 40.9636C21.9034 38.8709 21.5624 36.6869 21.5625 34.4896ZM41.645 38.6203L41.2477 38.1568C40.5917 37.3913 40.1228 36.4836 39.8782 35.5056C39.7834 35.1308 39.6341 34.7719 39.435 34.4404C39.435 34.4567 39.4375 34.4725 39.4375 34.4888C39.4375 36.6861 39.0965 38.8701 38.4267 40.9628L38.0107 42.2628C38.1483 42.7074 38.2184 43.1701 38.2187 43.6355C38.2187 44.8865 38.4203 46.1293 38.8159 47.3161C38.8786 47.5041 38.9989 47.6676 39.1596 47.7834C39.3204 47.8993 39.5135 47.9616 39.7117 47.9616C39.9622 47.9616 40.2024 47.8621 40.3796 47.685C40.5567 47.5079 40.6562 47.2676 40.6562 47.0171C40.6562 46.3069 40.8558 45.6109 41.2323 45.0086L42.0293 43.7334C42.5181 42.9513 42.7444 42.0336 42.6752 41.1139C42.6061 40.1942 42.2452 39.3206 41.645 38.6203Z" fill="#BC9834"/>
<path d="M26.8438 35.3672C27.0681 35.3672 27.25 35.1853 27.25 34.9609C27.25 34.7366 27.0681 34.5547 26.8438 34.5547C26.6194 34.5547 26.4375 34.7366 26.4375 34.9609C26.4375 35.1853 26.6194 35.3672 26.8438 35.3672Z" fill="#E2E2E2"/>
<path d="M34.1562 35.3672C34.3806 35.3672 34.5625 35.1853 34.5625 34.9609C34.5625 34.7366 34.3806 34.5547 34.1562 34.5547C33.9319 34.5547 33.75 34.7366 33.75 34.9609C33.75 35.1853 33.9319 35.3672 34.1562 35.3672Z" fill="#E2E2E2"/>
<path d="M30.0938 45.2797C30.2037 45.1761 30.349 45.1184 30.5 45.1184C30.651 45.1184 30.7963 45.1761 30.9062 45.2797V42.2734H30.0938V45.2797Z" fill="#9B7A29"/>
<path d="M32.5312 41.0547C32.5312 40.3815 31.6217 39.8359 30.5 39.8359C29.3783 39.8359 28.4688 40.3815 28.4688 41.0547C28.4688 41.7278 29.3783 43.0859 30.5 43.0859C31.6217 43.0859 32.5312 41.7278 32.5312 41.0547Z" fill="#353535"/>
<defs>
<linearGradient id="paint0_linear_1151_17304" x1="14.2873" y1="25.716" x2="34.8586" y2="2.2818" gradientUnits="userSpaceOnUse">
<stop stop-color="#CE3A50"/>
<stop offset="0.999" stop-color="#D94452"/>
</linearGradient>
<linearGradient id="paint1_linear_1151_17304" x1="23.5703" y1="9.48203" x2="37.4308" y2="9.48203" gradientUnits="userSpaceOnUse">
<stop stop-color="#E5E5E5"/>
<stop offset="0.999" stop-color="#F4F6F8"/>
</linearGradient>
<linearGradient id="paint2_linear_1151_17304" x1="30.5025" y1="10.9298" x2="30.5025" y2="63.9138" gradientUnits="userSpaceOnUse">
<stop stop-color="#F8E6BC"/>
<stop offset="0.999" stop-color="#D6AA45"/>
</linearGradient>
</defs>
</svg>
