<svg width="50" height="50" viewBox="0 0 50 50" fill="none" xmlns="http://www.w3.org/2000/svg">
<g opacity="0.2">
<path fill-rule="evenodd" clip-rule="evenodd" d="M25.9117 42.2959C13.6541 42.2959 3.7172 44.0198 3.7172 46.1465C3.7172 48.2731 13.6541 49.997 25.9117 49.997C38.1691 49.997 48.106 48.2731 48.106 46.1465C48.106 44.0198 38.1691 42.2959 25.9117 42.2959Z" fill="#380072"/>
</g>
<path fill-rule="evenodd" clip-rule="evenodd" d="M48.3582 17.875C49.7411 22.3088 46.8877 26.2338 40.8856 29.3586C41.9339 35.3826 38.6104 41.3156 32.9256 43.5685C33.5168 44.1526 33.7086 45.0295 33.4155 45.8071C33.1222 46.5847 32.399 47.1165 31.5694 47.165C29.2104 47.1358 27.7364 47.1061 27.147 47.0764C26.0601 46.4823 25.4213 45.7649 25.2307 44.9243C23.9037 45.0028 23.2405 45.0425 23.2405 45.0425C23.5235 46.4229 22.924 47.0914 21.4422 47.0472C16.0764 46.9782 13.3934 46.944 13.3934 46.944C10.7524 44.9117 9.48664 41.5617 10.1232 38.2906C10.7599 35.0196 13.2071 32.4479 16.4006 31.4957C19.6757 30.5193 21.387 28.8685 21.5892 26.7197C19.3032 24.8817 17.7036 22.3268 17.0491 19.4673C17.3294 16.6767 18.3468 14.0106 19.9969 11.7428C23.7778 -0.609491 26.9615 -2.90913 29.549 4.8442C38.2592 2.51614 44.8853 6.74237 48.3582 17.875Z" fill="#6E787A"/>
<path fill-rule="evenodd" clip-rule="evenodd" d="M20.5838 36.5902C21.6934 36.4456 22.5239 35.6898 23.075 34.3223C23.1855 38.2167 23.8953 41.7502 25.2046 44.9226L23.2398 45.0396C23.3238 45.4486 23.3301 45.7954 23.2588 46.0791C23.3587 45.0484 22.9977 44.2913 22.1759 43.8075C22.0006 43.7038 21.8042 43.6132 21.5867 43.5351C23.7727 43.2651 22.7433 38.7569 20.5838 36.5902Z" fill="white"/>
<g opacity="0.3">
<path fill-rule="evenodd" clip-rule="evenodd" d="M31.3724 42.6983C31.5123 41.7729 31.6491 40.0489 31.043 38.0257C30.4542 36.0604 29.4368 34.7219 28.8227 34.0244C29.3221 34.8027 30.1408 36.3062 30.3886 38.3755C30.604 40.1752 30.2961 41.6382 30.0473 42.4915C30.0471 42.4946 30.0468 42.4977 30.0465 42.5007C30.0228 42.7592 30.1783 43.0012 30.4238 43.0856C32.1494 43.6784 32.968 44.7109 32.8793 46.1833C33.0138 46.0653 33.3225 45.7613 33.4177 45.2809C33.5297 44.7158 33.2747 44.2673 33.1272 44.0077C32.6141 43.1048 31.6779 42.7877 31.3724 42.6983Z" fill="white"/>
</g>
<g opacity="0.3">
<path fill-rule="evenodd" clip-rule="evenodd" d="M21.1087 43.4657C19.9593 43.4469 19.2361 43.5643 18.939 43.8183C21.7001 43.9457 22.7956 45.0011 22.2257 46.9853C23.9693 45.7937 23.5968 44.6205 21.1087 43.4657ZM21.5518 38.0228C21.1221 36.6616 19.9377 35.6768 18.5214 35.5021C17.105 35.3275 15.7168 35.9952 14.9695 37.211C18.7242 34.2061 22.8942 40.2008 21.5869 43.5354C23.2113 43.0399 23.1999 41.2024 21.5518 38.0228Z" fill="white"/>
</g>
<g opacity="0.3">
<path fill-rule="evenodd" clip-rule="evenodd" d="M18.1968 30.82C13.7375 32.251 11.3946 34.1136 11.1686 36.4079C12.5934 34.2227 15.0699 32.6112 18.5979 31.573C20.5556 31.0695 21.9371 29.3218 21.9756 27.3008C21.8095 27.3154 21.6459 27.3309 21.4834 27.3467C20.9578 28.9691 19.862 30.1273 18.1968 30.82Z" fill="white"/>
</g>
<path fill-rule="evenodd" clip-rule="evenodd" d="M48.611 21.1178C48.1028 24.2313 45.3744 27.019 40.8817 29.3579C41.93 35.3819 38.6065 41.3148 32.9217 43.5677H32.9219C32.4086 43.1624 31.8331 42.7543 31.1947 42.3435C31.1947 42.3435 31.2341 41.96 31.3131 41.1937C31.694 37.6552 30.4608 35.191 28.0703 33.2043C26.7809 32.1326 26.4619 30.8144 26.653 29.1189C18.8188 25.1564 20.0102 18.422 25.8299 17.5496C27.8317 9.10896 35.3396 6.71113 38.4483 15.6628C38.6305 8.44127 43.3602 8.44547 45.4651 17.1665C47.6846 17.1744 48.7333 18.4918 48.611 21.1178Z" fill="white"/>
<g opacity="0.3">
<path fill-rule="evenodd" clip-rule="evenodd" d="M48.356 17.8744C48.3677 17.9116 48.3783 17.9488 48.3892 17.986C48.2703 18.095 48.1494 18.202 48.0255 18.3064C46.0407 13.1247 43.5396 9.51103 40.5226 7.46623C40.6737 7.68267 40.7259 7.88574 40.6469 8.03531C40.4658 8.37706 39.6659 8.30814 38.8601 7.88154C38.0544 7.45494 37.5478 6.83199 37.7289 6.49024C37.8091 6.33858 38.0117 6.26794 38.2829 6.27337C36.0058 5.36631 33.4772 5.2234 30.6973 5.84429C28.2341 6.61724 25.8523 7.89618 23.5518 9.68065C25.2837 7.67223 27.0155 6.38534 28.7469 5.82007C28.6435 5.6826 28.5763 5.49667 28.5455 5.26311C26.9232 -1.06466 24.2208 1.16603 20.4379 11.9552C20.3192 11.7785 20.2051 11.5993 20.095 11.4184C23.8315 -0.648107 26.9823 -2.8412 29.5468 4.84363C38.257 2.51557 44.8831 6.74179 48.356 17.8744Z" fill="white"/>
</g>
<path d="M31.5669 47.5244C31.5739 47.5244 31.5808 47.5241 31.5878 47.5237C32.5579 47.4671 33.4064 46.8431 33.7493 45.9339C34.0301 45.1892 33.9298 44.3642 33.5046 43.7148C36.1327 42.5589 38.3354 40.5636 39.7416 38.0533C41.1844 35.4777 41.7269 32.4704 41.2796 29.5562C47.5087 26.2477 50.0736 22.1754 48.6988 17.768C46.9634 12.2048 44.4124 8.25034 41.1169 6.01442C37.9438 3.86167 34.1312 3.32323 29.7792 4.41277C28.7455 1.44489 27.6015 0 26.2877 0C26.2802 0 26.2727 5.59593e-05 26.2652 0.000131631C24.1799 0.0262762 22.0831 3.70681 19.6685 11.5803C18.0034 13.8868 16.9735 16.6001 16.6891 19.4314C16.6852 19.4702 16.6876 19.5094 16.6963 19.5475C17.351 22.4079 18.9496 25.0017 21.2071 26.8736C20.933 28.8225 19.2818 30.2611 16.2955 31.1514C12.9224 32.157 10.4212 34.8663 9.76802 38.222C9.2039 41.121 10.0798 44.1305 12.1111 46.2722C12.7302 46.9251 13.6036 47.3061 14.5071 47.3177L21.4351 47.4065C22.3007 47.4333 22.9293 47.2232 23.2981 46.7848C23.5884 46.4397 23.7067 45.9675 23.6518 45.3778C23.9352 45.3609 24.3721 45.335 24.9628 45.3001C25.2468 46.1148 25.9213 46.8174 26.9722 47.3918C27.0197 47.4178 27.0725 47.4327 27.1265 47.4354C27.7217 47.4654 29.2141 47.4953 31.5625 47.5243C31.5639 47.5244 31.5654 47.5244 31.5669 47.5244ZM48.0126 17.982C49.6228 23.1439 44.9341 26.8445 40.7171 29.0398C40.5783 29.1121 40.5022 29.2659 40.5291 29.4202C41.5429 35.2459 38.2884 41.0556 32.7907 43.2343C32.6779 43.279 32.5952 43.3777 32.571 43.4966C32.5467 43.6156 32.5842 43.7388 32.6706 43.8241C33.1601 44.3078 33.3195 45.0363 33.0767 45.6803C32.8354 46.3204 32.2401 46.7609 31.5581 46.8054C29.3294 46.7778 27.88 46.7496 27.2455 46.7214C26.3012 46.1899 25.7406 45.5588 25.5788 44.8448C25.5399 44.6733 25.3832 44.5557 25.2071 44.5655C23.8799 44.644 23.2165 44.6837 23.2165 44.6837C23.1125 44.69 23.0164 44.7411 22.9529 44.8237C22.8894 44.9064 22.865 45.0126 22.886 45.1146C23.0001 45.6713 22.9536 46.0774 22.748 46.322C22.5277 46.584 22.0912 46.7072 21.4504 46.6879L14.5163 46.599C13.8056 46.5898 13.119 46.2904 12.6326 45.7776C10.7608 43.804 9.95367 41.0308 10.4735 38.3592C11.0754 35.2671 13.385 32.7691 16.5009 31.8401C20.723 30.5814 21.7916 28.3791 21.9445 26.7534C21.9559 26.6331 21.9061 26.5152 21.812 26.4396C19.6138 24.6722 18.0522 22.19 17.4102 19.4444C17.6923 16.7412 18.6858 14.1523 20.2852 11.9542C20.3086 11.9219 20.3266 11.8861 20.3382 11.8479C23.1456 2.6759 25.1158 0.733352 26.2742 0.718804C26.2784 0.718747 26.2825 0.718709 26.2867 0.718709C27.2709 0.718709 28.2799 2.18382 29.2057 4.95791C29.2658 5.13818 29.4557 5.24056 29.6395 5.19134C38.3243 2.87022 44.6781 7.29279 48.0126 17.982Z" fill="#3B0075"/>
<path fill-rule="evenodd" clip-rule="evenodd" d="M43.3589 8.4455C41.4211 6.29586 39.0725 4.95757 36.3137 4.43154C38.1782 -1.1312 40.5267 0.20662 43.3589 8.4455Z" fill="#6E787A"/>
<path d="M43.3614 8.86267C43.4327 8.86267 43.5046 8.84411 43.5697 8.80582C43.7378 8.70674 43.8131 8.50298 43.7496 8.31842C41.9546 3.09692 40.3836 0.664062 38.8064 0.664062C38.8044 0.664062 38.8025 0.664119 38.8005 0.664119C37.6869 0.668413 36.7468 1.86017 35.9265 4.30748C35.8888 4.41989 35.9016 4.54312 35.9615 4.64543C36.0214 4.74778 36.1225 4.81923 36.239 4.84144C38.8948 5.34783 41.1884 6.65508 43.0562 8.72695C43.1363 8.81588 43.2481 8.86267 43.3614 8.86267ZM38.8063 1.48546C39.3883 1.48546 40.581 2.23654 42.3648 6.90455C40.7604 5.52874 38.9159 4.59925 36.8583 4.13171C37.4837 2.42305 38.1683 1.48792 38.8036 1.48548C38.8044 1.48546 38.8055 1.48546 38.8063 1.48546Z" fill="#3B0075"/>
<g opacity="0.3">
<path fill-rule="evenodd" clip-rule="evenodd" d="M37.4161 4.69004C37.0576 4.58895 36.6916 4.50247 36.3176 4.43142H36.3168H36.3166C37.0693 2.2914 37.874 1.17122 38.7309 1.07093C39.474 1.01997 40.2701 1.72566 41.1191 3.18802C39.333 1.43947 38.1464 1.9513 37.5602 4.72389L37.4161 4.69004Z" fill="white"/>
</g>
<path d="M33.6551 44.2327C33.5047 43.908 33.2989 43.6003 33.0406 43.3365C32.7841 43.0716 32.4773 42.8498 32.1443 42.691C31.8128 42.528 31.4568 42.4284 31.1023 42.3764C30.9247 42.35 30.7449 42.3483 30.5677 42.3668C30.4791 42.3791 30.3909 42.3908 30.3039 42.4145C30.217 42.4407 30.131 42.4661 30.0468 42.5065C29.9992 42.5294 29.9792 42.5864 30.002 42.634C30.0114 42.6535 30.0265 42.6683 30.0443 42.6775L30.0489 42.6799C30.1314 42.7224 30.2123 42.7499 30.2922 42.7782C30.372 42.8055 30.4501 42.8334 30.528 42.8549C30.6831 42.9019 30.835 42.9411 30.9846 42.9805C31.2847 43.0557 31.5693 43.1641 31.8331 43.3033C31.9648 43.3736 32.0887 43.4555 32.2103 43.5402C32.271 43.5828 32.3266 43.6324 32.3853 43.6777L32.5522 43.826C32.7678 44.033 32.9589 44.2697 33.1377 44.5251L33.1403 44.5289C33.2347 44.6638 33.4206 44.6966 33.5554 44.6022C33.6757 44.5181 33.7147 44.3613 33.6551 44.2327Z" fill="#3B0075"/>
<path d="M31.5913 42.6837C31.7233 41.8874 31.79 41.0777 31.7734 40.2677C31.7575 39.8628 31.7341 39.4579 31.6727 39.0568C31.6494 38.8556 31.6062 38.6569 31.5715 38.4575C31.5508 38.3584 31.5265 38.2599 31.5042 38.1611C31.4823 38.0623 31.4585 37.9639 31.4295 37.8668L31.3473 37.5745L31.2516 37.2865C31.2212 37.19 31.1859 37.0953 31.1485 37.0013C31.1116 36.9072 31.0768 36.8124 31.038 36.7192C30.8784 36.3476 30.7036 35.9857 30.499 35.635C30.0809 34.9314 29.5461 34.3286 28.9732 33.7765C28.9008 33.7068 28.7856 33.7089 28.7158 33.7813C28.6482 33.8515 28.6481 33.962 28.7142 34.0322L28.7153 34.0334C29.2443 34.594 29.7298 35.2034 30.0815 35.8685C30.2563 36.2045 30.4063 36.5578 30.5391 36.9138C30.5713 37.0033 30.5995 37.0943 30.63 37.1842C30.6609 37.2741 30.6898 37.3646 30.7138 37.4567L30.7904 37.731L30.854 38.0086C30.8768 38.1006 30.8946 38.1938 30.9104 38.2874C30.9268 38.3809 30.9452 38.4739 30.96 38.5675C30.9831 38.7559 31.0149 38.9427 31.0272 39.1323C31.0666 39.5094 31.0695 39.8897 31.0663 40.2686C31.0447 41.0274 30.9455 41.7838 30.7847 42.5282L30.7844 42.5298C30.7365 42.7516 30.8774 42.9702 31.0992 43.0181C31.321 43.066 31.5397 42.925 31.5876 42.7032C31.5889 42.6972 31.5902 42.6897 31.5913 42.6837Z" fill="#3B0075"/>
<path d="M25.8647 45.4283L25.5731 44.724C25.4817 44.4869 25.3861 44.2515 25.2981 44.0132C25.1243 43.5356 24.9596 43.0548 24.807 42.5699C24.5034 41.5993 24.2508 40.6123 24.0438 39.6143C23.84 38.6157 23.6773 37.6069 23.5641 36.5906C23.5034 36.0828 23.4529 35.5736 23.3962 35.0635C23.3731 34.8081 23.342 34.5528 23.315 34.2969C23.2885 34.0409 23.2621 33.7845 23.2252 33.5276L23.2247 33.5239C23.2115 33.4321 23.1265 33.3684 23.0347 33.3816C22.9571 33.3927 22.8996 33.4555 22.8917 33.5301C22.8643 33.7897 22.8474 34.0499 22.8304 34.3103C22.8188 34.5707 22.8127 34.8314 22.8094 35.0922C22.8044 35.3532 22.8162 35.6136 22.8203 35.8746C22.8253 36.1356 22.8486 36.3956 22.862 36.6564C22.9417 37.6972 23.0661 38.737 23.2552 39.767C23.4408 40.7975 23.6865 41.8188 23.9947 42.822C24.0687 43.0736 24.1563 43.3212 24.2373 43.5708C24.3216 43.8193 24.4169 44.0641 24.5063 44.3108C24.5996 44.5561 24.7005 44.7986 24.7973 45.0425C24.8989 45.2846 25.0092 45.523 25.1147 45.7632C25.206 45.9708 25.4482 46.0652 25.6558 45.974C25.8606 45.884 25.9552 45.6471 25.8702 45.4414L25.8647 45.4283Z" fill="#3B0075"/>
<path d="M15.5841 47.2807C15.6706 47.2807 15.7567 47.2444 15.8176 47.1737C15.9286 47.0449 15.9142 46.8503 15.7853 46.7393C14.145 45.3255 13.1539 42.845 13.3193 40.5667C13.4472 38.8043 14.2474 37.3696 15.5727 36.5269C16.6474 35.8436 17.9671 35.642 19.1963 35.9727C21.1753 36.8555 22.7365 40.2422 22.46 42.1418C22.3638 42.8028 22.0566 43.17 21.5469 43.2329C21.4055 43.2503 21.2944 43.3626 21.2785 43.5043C21.2626 43.6461 21.3461 43.7801 21.4802 43.8284C22.5911 44.2288 23.0582 44.9357 22.9502 46.0531C22.9338 46.2224 23.0578 46.373 23.2271 46.3893C23.3965 46.4064 23.5471 46.2817 23.5634 46.1124C23.6728 44.9805 23.2586 44.1118 22.3594 43.5648C22.736 43.2926 22.9812 42.8383 23.0696 42.2305C23.3826 40.0802 21.6704 36.3812 19.4228 35.3993C19.4092 35.3934 19.3952 35.3884 19.3809 35.3845C17.9782 34.9999 16.4695 35.2266 15.2421 36.007C13.7482 36.957 12.8471 38.5605 12.7048 40.5221C12.5232 43.0237 13.5746 45.6473 15.3831 47.206C15.4413 47.2561 15.5128 47.2807 15.5841 47.2807Z" fill="#3B0075"/>
<path d="M22.3044 43.5317C21.7617 43.3231 21.1999 43.231 20.6484 43.2044C20.0958 43.1784 19.5502 43.2171 19.0139 43.2889C18.9745 43.2942 18.9468 43.3304 18.9521 43.3699C18.9569 43.4057 18.9878 43.4319 19.023 43.4323C19.5574 43.4393 20.0895 43.4808 20.6032 43.5816C21.116 43.6822 21.6107 43.8449 22.0427 44.0895C22.1912 44.1736 22.3797 44.1213 22.4638 43.9728C22.5478 43.8244 22.4956 43.6358 22.3471 43.5518C22.3341 43.5444 22.3209 43.5382 22.3074 43.5329L22.3044 43.5317Z" fill="#3B0075"/>
<path d="M17.8025 45.1137C17.9169 45.2767 18.0307 45.4396 18.123 45.6083C18.216 45.7749 18.2987 45.9479 18.3347 46.1067C18.3392 46.1448 18.3487 46.1836 18.3508 46.2182C18.3477 46.25 18.3557 46.2868 18.3453 46.3094C18.3401 46.3661 18.3114 46.3845 18.2909 46.4048C18.2831 46.409 18.2768 46.4134 18.2716 46.4186L18.2429 46.4324C18.2301 46.4437 18.1942 46.4509 18.1727 46.462C18.1441 46.4712 18.1088 46.4784 18.0787 46.4879L17.9675 46.5066L17.9535 46.5089C17.7279 46.5468 17.5757 46.7604 17.6136 46.986C17.6515 47.2117 17.8651 47.3638 18.0907 47.326C18.1223 47.3207 18.1544 47.311 18.1828 47.2993L18.3604 47.2246C18.4217 47.1913 18.4811 47.1612 18.5411 47.1221L18.6312 47.0556C18.6606 47.0352 18.6899 47.0076 18.7183 46.9775C18.7465 46.9479 18.7746 46.9202 18.8003 46.8878C18.8251 46.8523 18.8487 46.816 18.8709 46.7795C18.9539 46.629 18.9915 46.4454 18.9702 46.2989C18.9681 46.2197 18.9444 46.158 18.9289 46.0897C18.9091 46.0257 18.8825 45.9694 18.8587 45.9105C18.7511 45.6897 18.6123 45.5194 18.4707 45.3576C18.3293 45.1957 18.1757 45.0539 18.0228 44.9134C17.962 44.8576 17.8675 44.8616 17.8116 44.9223C17.7632 44.975 17.7597 45.0531 17.7993 45.1094L17.8025 45.1137Z" fill="#3B0075"/>
<path d="M20.9173 45.0772C20.9919 45.2459 21.0621 45.4151 21.1108 45.5845C21.1587 45.753 21.189 45.9223 21.1829 46.0704C21.1768 46.2196 21.1348 46.3347 21.0622 46.4015C20.9928 46.4712 20.892 46.5233 20.7568 46.559C20.5352 46.6174 20.4029 46.8443 20.4613 47.0659C20.5197 47.2876 20.7466 47.4199 20.9683 47.3615C20.9995 47.3532 21.029 47.3416 21.0565 47.3272L21.0834 47.3126C21.2942 47.1998 21.5165 47.0241 21.6503 46.7724C21.6871 46.7127 21.7066 46.6441 21.7307 46.5797C21.7477 46.514 21.7629 46.4467 21.7692 46.382C21.7803 46.2521 21.7737 46.1269 21.7492 46.0139C21.7038 45.7854 21.6157 45.5912 21.5184 45.4112C21.4197 45.2319 21.3049 45.0703 21.1882 44.913C21.1359 44.8424 21.0363 44.8276 20.9658 44.8799C20.9049 44.925 20.8855 45.0054 20.915 45.0719L20.9173 45.0772Z" fill="#3B0075"/>
<path d="M29.0996 45.1803C29.1471 45.3466 29.194 45.5124 29.225 45.6775C29.2569 45.8419 29.2811 46.0062 29.2825 46.1597C29.2848 46.3115 29.2628 46.4572 29.2133 46.541C29.1638 46.629 29.1176 46.6367 29.0442 46.6549C28.8206 46.7105 28.6844 46.9369 28.74 47.1605C28.7957 47.3841 29.022 47.5203 29.2456 47.4647C29.285 47.4549 29.3216 47.4398 29.3549 47.4204L29.3871 47.4013C29.5073 47.3306 29.6255 47.2407 29.7136 47.1194C29.7992 47.0008 29.8598 46.8657 29.882 46.7405C29.9346 46.4859 29.8976 46.2708 29.8506 46.0763C29.8011 45.8815 29.7296 45.7061 29.653 45.5364C29.5769 45.3665 29.4881 45.2074 29.3994 45.0497C29.355 44.9706 29.2548 44.9425 29.1757 44.9869C29.108 45.0249 29.0777 45.1037 29.0981 45.1752L29.0996 45.1803Z" fill="#3B0075"/>
<path d="M31.4721 44.836C31.5336 45.0316 31.586 45.2279 31.6201 45.4228C31.6527 45.6174 31.6653 45.8111 31.6473 45.9892C31.6295 46.1673 31.5795 46.3273 31.4944 46.4463C31.4107 46.5665 31.3007 46.6538 31.1651 46.7206C30.9594 46.822 30.8748 47.0709 30.9762 47.2766C31.0775 47.4823 31.3264 47.5669 31.5322 47.4656C31.5625 47.4506 31.5901 47.4325 31.615 47.4118L31.6376 47.3925C31.8415 47.2203 32.016 46.9864 32.1067 46.7287C32.2012 46.471 32.2071 46.2068 32.1743 45.9712C32.1046 45.4958 31.9008 45.1042 31.6837 44.7381C31.6506 44.6824 31.5787 44.6641 31.5231 44.6971C31.4754 44.7254 31.4551 44.7822 31.4711 44.833L31.4721 44.836Z" fill="#3B0075"/>
<path fill-rule="evenodd" clip-rule="evenodd" d="M9.95932 39.8634C10.018 38.2561 10.3859 36.8735 11.063 35.7154C8.96596 35.2307 7.15328 33.9212 6.03478 32.0829C4.91567 30.2445 4.58521 28.0322 5.11792 25.9473C3.13663 28.1964 2.15708 31.1558 2.40546 34.1431C1.60847 33.7771 0.947927 33.1684 0.518849 32.4038C-0.0464554 34.9077 0.875848 37.5145 2.89032 39.1059C4.90459 40.6973 7.6536 40.9919 9.95932 39.8634Z" fill="#6E787A"/>
<g opacity="0.3">
<path fill-rule="evenodd" clip-rule="evenodd" d="M10.9233 35.6815C8.88588 35.1718 7.12915 33.8799 6.03573 32.0829C4.91662 30.2445 4.58616 28.0322 5.11887 25.9473C3.34439 27.9615 2.37385 30.5453 2.3688 33.2089C2.50713 33.498 2.65378 33.7922 2.80835 34.0913C3.0446 32.6737 3.27067 30.7768 3.95818 29.5806C4.62249 32.8203 7.36795 35.9552 10.5983 36.665C10.7152 36.3316 10.8228 36.0045 10.9233 35.6815Z" fill="white"/>
</g>
<path d="M7.03815 40.9021C8.09017 40.9021 9.1459 40.6686 10.1192 40.1923C10.2383 40.134 10.3156 40.0149 10.3204 39.8825C10.3766 38.3428 10.7315 37.0037 11.3752 35.9028C11.4329 35.8041 11.4402 35.6839 11.3949 35.579C11.3496 35.4741 11.2572 35.3969 11.1459 35.3712C9.15542 34.9112 7.40515 33.6468 6.34378 31.9021C5.2815 30.1572 4.96236 28.0214 5.46809 26.0422C5.5092 25.8813 5.43464 25.7131 5.28778 25.6355C5.1409 25.5577 4.95996 25.591 4.85021 25.7156C2.96137 27.8598 1.9462 30.6713 2.01391 33.5174C1.52776 33.1895 1.12584 32.7536 0.834131 32.2339C0.761334 32.1042 0.615764 32.0331 0.468885 32.0542C0.321647 32.0756 0.202843 32.1855 0.170153 32.3306C-0.422053 34.9542 0.558951 37.7267 2.66938 39.3939C3.92925 40.3893 5.47946 40.9021 7.03815 40.9021ZM9.61212 39.6362C7.48209 40.5907 4.95422 40.2832 3.11499 38.8299C1.44822 37.5132 0.566157 35.4286 0.739994 33.3427C1.15613 33.8209 1.66964 34.2058 2.25731 34.4758C2.37323 34.5288 2.50894 34.5168 2.61368 34.4433C2.71824 34.37 2.77608 34.2467 2.76544 34.1194C2.56527 31.7112 3.20394 29.2926 4.53752 27.2984C4.40922 29.0282 4.82083 30.7828 5.72976 32.2757C6.80978 34.051 8.54159 35.3718 10.5305 35.9529C9.99611 37.0157 9.68777 38.2514 9.61212 39.6362Z" fill="#3B0075"/>
<path d="M18.5443 23.9817C18.6773 24.1791 18.8108 24.3765 18.9487 24.5706C19.0958 24.7581 19.2372 24.9504 19.3895 25.1338C19.5489 25.3113 19.7019 25.4944 19.8667 25.6666L20.118 25.9212C20.2021 26.0056 20.2837 26.0926 20.374 26.1707C21.0733 26.8189 21.8514 27.3785 22.6793 27.8373C23.5065 28.2977 24.3796 28.6646 25.2752 28.9395C26.1698 29.2183 27.085 29.4128 28.0057 29.5331C28.0645 29.5408 28.1184 29.4994 28.126 29.4406C28.1332 29.3861 28.0981 29.3358 28.046 29.3226L28.0454 29.3225C27.1545 29.0967 26.2795 28.8256 25.436 28.4869C25.2229 28.408 25.0178 28.3098 24.8107 28.218C24.6016 28.1308 24.4006 28.0263 24.1985 27.9256C23.9941 27.8292 23.7995 27.7145 23.6026 27.6051C23.4034 27.4999 23.2149 27.3767 23.0244 27.2577C22.2672 26.7743 21.5623 26.218 20.9286 25.5914C20.8455 25.517 20.7711 25.4339 20.6941 25.3535L20.4641 25.1113C20.3133 24.9476 20.174 24.7733 20.0283 24.6052L19.6169 24.0788L19.2316 23.532L19.2202 23.5159C19.0896 23.3305 18.8335 23.2862 18.6482 23.4168C18.4654 23.5456 18.42 23.797 18.5443 23.9817Z" fill="#3B0075"/>
<path d="M41.6491 28.4732C40.4205 29.2224 39.0617 29.7695 37.6442 30.081C36.2269 30.3932 34.7517 30.4696 33.2977 30.3024C33.1943 30.2904 33.1008 30.3646 33.0889 30.4679C33.0774 30.568 33.147 30.6588 33.2452 30.6754C34.7299 30.9218 36.2617 30.9212 37.7579 30.6692C39.2543 30.418 40.7143 29.9155 42.0585 29.1854L42.0591 29.185C42.2585 29.0767 42.3323 28.8273 42.224 28.6279C42.1157 28.4285 41.8663 28.3547 41.6669 28.463C41.6612 28.466 41.6545 28.47 41.6491 28.4732Z" fill="#3B0075"/>
<path fill-rule="evenodd" clip-rule="evenodd" d="M37.9307 46.23C36.1393 46.2024 35.1345 44.9828 34.9166 42.5704C37.4099 41.0433 39.2725 38.734 40.2658 36.0684C40.2982 39.4388 40.6596 41.2931 41.3507 41.6307C42.4272 41.7047 43.3184 42.496 43.5194 43.556C43.7203 44.6164 43.2843 46.1193 42.2056 46.1415L37.9307 46.23Z" fill="#6E787A"/>
<g opacity="0.3">
<path fill-rule="evenodd" clip-rule="evenodd" d="M40.2901 37.2578C40.3896 39.8829 40.7422 41.3436 41.3478 41.6394C42.4243 41.7134 43.3155 42.5047 43.5165 43.5647C43.6544 44.2934 43.4921 45.2309 43.0264 45.7536C42.9458 45.7628 42.8645 45.7699 42.7828 45.7749C43.1925 43.5697 41.9984 42.3121 39.2009 42.0012C39.2009 42.0012 39.3482 41.7756 39.6432 41.3231C39.4037 40.6458 39.3315 39.499 39.4267 37.8833C39.6933 37.6376 39.9837 37.4291 40.2901 37.2578Z" fill="white"/>
</g>
<path d="M37.9297 46.5954C37.9322 46.5954 37.9347 46.5953 37.9372 46.5953L42.2121 46.5067C42.6565 46.4975 43.0509 46.2961 43.3526 45.9242C43.901 45.248 44.0083 44.217 43.8715 43.495C43.6457 42.3037 42.6614 41.4065 41.4618 41.2855C41.2268 41.1108 40.6645 40.253 40.6242 36.0709C40.6225 35.8976 40.4975 35.7503 40.3269 35.7203C40.1563 35.6902 39.9886 35.7865 39.9281 35.9488C38.9516 38.569 37.1048 40.8139 34.7279 42.2698C34.6114 42.3412 34.5454 42.4726 34.5577 42.6086C34.7939 45.2232 35.9266 46.5645 37.9242 46.5953C37.9261 46.5953 37.9279 46.5954 37.9297 46.5954ZM39.9503 37.6671C40.1161 40.9773 40.6887 41.7137 41.1919 41.9595C41.2335 41.9799 41.2787 41.992 41.325 41.9951C42.2381 42.0579 42.9949 42.7297 43.1653 43.6288C43.2887 44.2794 43.1326 45.0543 42.7944 45.4713C42.6254 45.6796 42.43 45.7832 42.1972 45.788L37.9289 45.8765C36.3954 45.8501 35.5325 44.8308 35.2959 42.7625C37.2652 41.5084 38.8764 39.7373 39.9503 37.6671Z" fill="#3B0075"/>
<path d="M41.9747 41.3822C41.053 41.2362 40.1176 41.2731 39.2369 41.4804C39.1635 41.4977 39.1179 41.5713 39.1352 41.6448C39.1498 41.7065 39.2039 41.7485 39.2644 41.7502L39.2774 41.7505C39.4973 41.7565 39.7141 41.7665 39.9288 41.7818C40.1436 41.8009 40.3559 41.8199 40.5661 41.8508C40.7759 41.8847 40.984 41.9176 41.1897 41.96L41.8065 42.081L41.8495 42.0894C42.0442 42.1276 42.2329 42.0007 42.2711 41.8061C42.3092 41.6114 42.1824 41.4226 41.9877 41.3845C41.9839 41.3837 41.9786 41.3828 41.9747 41.3822Z" fill="#3B0075"/>
<path d="M38.7926 44.3299C38.8602 44.4885 38.9274 44.6466 38.9751 44.8057C39.0239 44.9639 39.0616 45.1227 39.0717 45.2686C39.0832 45.4144 39.0577 45.5424 39.0117 45.6103C38.9869 45.6438 38.9644 45.667 38.9295 45.6847C38.9004 45.7048 38.8537 45.7187 38.8073 45.7343C38.5908 45.8072 38.4744 46.0419 38.5473 46.2584C38.6203 46.475 38.855 46.5913 39.0715 46.5184C39.1014 46.5083 39.1295 46.4951 39.1554 46.4793L39.1614 46.4754C39.2702 46.4081 39.3791 46.3324 39.4709 46.2226C39.5652 46.119 39.6339 45.9857 39.6726 45.8555C39.7463 45.5888 39.7073 45.3502 39.6484 45.1519C39.587 44.9515 39.4996 44.7777 39.406 44.6131C39.3128 44.4479 39.2055 44.2982 39.0989 44.1496C39.0415 44.0696 38.9301 44.0512 38.85 44.1087C38.7808 44.1583 38.7577 44.2482 38.7898 44.3234L38.7926 44.3299Z" fill="#3B0075"/>
<path d="M41.2945 44.3765C41.3979 44.6672 41.4799 44.968 41.4838 45.2363C41.4861 45.369 41.4644 45.4891 41.4231 45.5719C41.381 45.6554 41.3246 45.6965 41.2523 45.7347C41.0492 45.842 40.9714 46.0936 41.0787 46.2968C41.186 46.4999 41.4376 46.5776 41.6407 46.4704C41.671 46.4544 41.6986 46.4351 41.7231 46.4133L41.7565 46.3832C41.9343 46.2233 42.0706 45.9896 42.1099 45.763C42.1519 45.5362 42.1267 45.3298 42.0816 45.1473C41.987 44.7819 41.8183 44.4853 41.6411 44.2034C41.5839 44.1124 41.4637 44.085 41.3727 44.1422C41.2941 44.1916 41.263 44.288 41.2929 44.372L41.2945 44.3765Z" fill="#3B0075"/>
<path fill-rule="evenodd" clip-rule="evenodd" d="M28.4814 5.9466C26.5595 0.975847 24.8692 2.09641 23.4108 9.30746C24.7556 7.94583 26.4457 6.82526 28.4814 5.9466Z" fill="#FC5180"/>
<path d="M23.4089 9.56125C23.4759 9.56125 23.5421 9.53501 23.5916 9.48495C24.9074 8.15262 26.5862 7.04049 28.5813 6.17941C28.7079 6.12477 28.7688 5.97979 28.719 5.85116C27.8456 3.59206 27.0345 2.5743 26.1585 2.64829C25.0025 2.74639 24.049 4.84532 23.1573 9.25366C23.1348 9.36492 23.1881 9.47776 23.2883 9.53115C23.3264 9.55141 23.3678 9.56125 23.4089 9.56125ZM28.1502 5.80792C26.4828 6.55198 25.0341 7.47163 23.8303 8.54938C24.834 3.97284 25.7384 3.19918 26.2019 3.15983C26.5261 3.13249 27.204 3.44719 28.1502 5.80792Z" fill="#3B0075"/>
<path fill-rule="evenodd" clip-rule="evenodd" d="M41.7856 6.95581C40.9226 6.26095 40.0206 5.70361 39.079 5.28329C39.5509 2.8006 40.4532 3.358 41.7856 6.95581Z" fill="#FC5180"/>
<path d="M41.7828 7.20987C41.8353 7.20987 41.8879 7.19385 41.9328 7.16152C42.0265 7.09409 42.0637 6.97234 42.0236 6.86403C40.9022 3.83598 40.2816 3.46763 39.8206 3.50537C39.351 3.54468 39.0436 4.07739 38.8241 5.23269C38.8018 5.34964 38.8629 5.46648 38.9716 5.51502C39.8887 5.92455 40.7804 6.47565 41.6218 7.1531C41.6688 7.19084 41.7258 7.20987 41.7828 7.20987ZM39.8687 4.0168C39.9381 4.0168 40.3604 4.11216 41.2178 6.20719C40.6192 5.78782 40.0002 5.42788 39.3681 5.13187C39.6001 4.05191 39.8521 4.01795 39.8634 4.01702C39.8648 4.01689 39.8667 4.0168 39.8687 4.0168Z" fill="#3B0075"/>
<path fill-rule="evenodd" clip-rule="evenodd" d="M39.0327 18.208C37.7546 18.208 36.7187 18.6567 36.7187 19.2104C36.7187 19.7639 37.7546 21.3036 39.0327 21.3036C40.311 21.3036 41.3472 19.7639 41.3472 19.2104C41.3472 18.6567 40.311 18.208 39.0327 18.208Z" fill="#3B0075"/>
<path d="M42.5929 21.7864C42.2243 22.0715 41.8652 22.3344 41.5013 22.4981C41.3158 22.5693 41.1386 22.6281 40.9586 22.6436C40.78 22.6612 40.6008 22.6478 40.4202 22.6062C40.2386 22.5733 40.0546 22.4953 39.8727 22.4119C39.7821 22.3647 39.6911 22.3208 39.6019 22.2644L39.5347 22.2245C39.509 22.2096 39.4992 22.2027 39.4524 22.1771C39.413 22.156 39.3744 22.1341 39.333 22.1155C39.2901 22.0983 39.2465 22.082 39.2029 22.0666C39.023 22.0106 38.8289 22.0026 38.6606 22.0272C38.4908 22.0507 38.3436 22.1012 38.213 22.1568C37.9545 22.2693 37.7481 22.4005 37.5583 22.5062C37.1851 22.7106 36.8019 22.8748 36.4137 22.9689C36.0254 23.0617 35.6359 23.0743 35.2648 22.9993C34.8937 22.9233 34.5419 22.7495 34.2218 22.5062C33.9021 22.2615 33.62 21.9475 33.3605 21.6062L33.3398 21.5789C33.2027 21.3986 32.9454 21.3636 32.7651 21.5007C32.5891 21.6345 32.552 21.8836 32.6779 22.063C32.9606 22.4648 33.2921 22.8446 33.6933 23.1591C33.7406 23.201 33.7949 23.2359 33.8477 23.2722L34.0065 23.3802C34.1143 23.4496 34.2317 23.5064 34.3441 23.5688C34.4627 23.6211 34.5833 23.6704 34.7046 23.7152L34.8924 23.7687C34.9551 23.7854 35.0167 23.8065 35.0815 23.8145C35.5922 23.917 36.1177 23.8819 36.5996 23.7541C37.0836 23.6273 37.5283 23.4138 37.9403 23.1674C38.1428 23.0435 38.3279 22.9199 38.5097 22.8334C38.6919 22.7472 38.8584 22.7087 39.0026 22.7459C39.0207 22.7523 39.0389 22.7581 39.0576 22.7635C39.0758 22.7707 39.0937 22.7809 39.1122 22.7889C39.1269 22.7945 39.1598 22.8131 39.1848 22.8261L39.2649 22.8687C39.3698 22.9277 39.4823 22.9765 39.5932 23.0268C39.8202 23.1185 40.0541 23.204 40.3059 23.2388C40.5556 23.2742 40.8149 23.2727 41.0647 23.2194C41.3137 23.1623 41.5454 23.0582 41.7551 22.9287C41.8555 22.858 41.9589 22.7916 42.0482 22.71C42.1432 22.6344 42.2276 22.5494 42.3113 22.4642C42.3961 22.3797 42.4667 22.2843 42.5445 22.1953C42.6172 22.1024 42.6854 22.0067 42.7556 21.9129C42.7893 21.868 42.7801 21.8043 42.7351 21.7706C42.6977 21.7426 42.6473 21.7442 42.6121 21.7715L42.5929 21.7864Z" fill="#3B0075"/>
<path fill-rule="evenodd" clip-rule="evenodd" d="M39.791 22.8586C38.796 29.1183 36.5199 28.901 33.0197 21.832C34.1906 23.5814 35.8255 24.0477 37.766 22.938C38.2614 22.6543 38.7586 22.287 39.2549 22.5841C39.4381 22.6936 39.6165 22.7855 39.791 22.8586Z" fill="#3B0075"/>
<path d="M37.4967 27.7672C37.5724 27.7672 37.6475 27.7615 37.7221 27.7501C38.9155 27.5684 39.7016 26.0351 40.196 22.9247C40.2258 22.7377 40.1238 22.5546 39.9491 22.4814C39.7967 22.4175 39.6339 22.334 39.4649 22.2331C38.8142 21.8436 38.1823 22.2171 37.7207 22.4899C37.6676 22.5213 37.6144 22.5527 37.5613 22.5832C35.8598 23.5563 34.446 23.2273 33.3604 21.6052C33.2398 21.4253 33.0005 21.3697 32.8132 21.4781C32.6259 21.5866 32.555 21.8219 32.651 22.0158C34.5871 25.9258 36.1353 27.7672 37.4967 27.7672ZM39.3346 23.1C38.788 26.2838 38.0172 26.8743 37.5985 26.9381C37.1339 27.0078 36.1605 26.6171 34.4623 23.6744C35.5033 24.143 36.6985 24.0229 37.9693 23.2961C38.026 23.2636 38.0823 23.2304 38.1387 23.197C38.596 22.9267 38.8341 22.8126 39.0434 22.9381C39.1417 22.9968 39.239 23.0509 39.3346 23.1Z" fill="#3B0075"/>
<path fill-rule="evenodd" clip-rule="evenodd" d="M34.6023 24.7006C35.4312 23.9151 36.6694 23.7475 37.6774 24.2848C39.4241 25.2153 39.6752 28.1847 37.7116 28.4287C35.9493 28.6481 35.712 26.0046 34.6023 24.7006Z" fill="#FC5180"/>
<path d="M37.5027 28.7481C37.5811 28.7481 37.6621 28.743 37.7461 28.7325C38.6034 28.626 39.1881 28.0629 39.35 27.1876C39.5427 26.1459 39.0715 24.6786 37.8186 24.0112C36.6924 23.4108 35.3132 23.5973 34.3867 24.4751C34.268 24.5877 34.258 24.7736 34.364 24.8983C34.7179 25.3142 34.989 25.9049 35.2512 26.4761C35.7418 27.5451 36.294 28.7481 37.5027 28.7481ZM36.4246 24.2784C36.8011 24.2784 37.1802 24.3691 37.5288 24.5549C38.4871 25.0653 38.8992 26.2374 38.7442 27.0756C38.6797 27.4243 38.4544 28.0238 37.67 28.1212C36.8028 28.2286 36.3875 27.475 35.8111 26.2192C35.5768 25.7084 35.3357 25.1832 35.0229 24.7435C35.4339 24.4369 35.9269 24.2784 36.4246 24.2784Z" fill="#3B0075"/>
<g opacity="0.3">
<path fill-rule="evenodd" clip-rule="evenodd" d="M23.2014 44.9771C22.8819 44.2893 22.4311 43.8285 21.8491 43.5949C23.5417 42.0908 22.8727 39.4151 19.8423 35.5675C21.016 35.8767 21.9889 35.13 22.761 33.3271C23.254 38.6697 24.0796 42.5717 25.2378 45.0322C23.8801 44.9954 23.2014 44.9771 23.2014 44.9771Z" fill="#3B0075"/>
</g>
<path d="M32.4575 22.7284C32.6395 22.7284 32.8058 22.6065 32.8543 22.4222C32.927 22.1464 33.1221 21.766 33.9727 21.6485C34.1973 21.6175 34.3543 21.4102 34.3232 21.1855C34.2923 20.9608 34.085 20.8044 33.8602 20.8348C32.6277 21.0052 32.201 21.6783 32.0601 22.2129C32.0023 22.4322 32.1332 22.6569 32.3526 22.7147C32.3877 22.7239 32.4229 22.7284 32.4575 22.7284Z" fill="#3B0075"/>
<g opacity="0.3">
<path fill-rule="evenodd" clip-rule="evenodd" d="M40.6419 29.447C41.6239 29.0247 42.8188 28.3928 44.0441 27.4392C46.3092 25.6764 47.6031 23.6517 48.2954 22.3354C47.4632 23.4489 43.6819 28.2513 36.959 29.2875C31.5233 30.1253 25.8423 28.2422 22.3038 24.4842C21.2978 23.4158 19.4384 21.3765 18.9542 18.141C18.6496 16.1055 18.9962 13.9726 19.9939 11.7422C18.3893 13.8124 17.4912 15.8413 17.2982 17.8293L17.298 17.8285V17.8331C17.125 19.623 17.5245 21.3799 18.4967 23.103L18.4975 23.1038C20.0892 26.0723 23.2639 28.1806 28.0231 29.4282C24.8318 28.3565 22.7554 27.6237 21.7949 27.2305C25.945 30.7535 31.2743 32.5756 36.7125 32.3307C37.6655 32.7105 37.4199 33.8503 35.9755 35.7506C34.79 37.3236 33.7776 37.589 32.9388 36.5465C32.556 36.0198 31.8239 35.1665 30.6314 34.5385C29.9586 34.1841 29.3303 34.0021 28.8438 33.9043C29.416 34.4821 30.7476 35.9835 31.2249 38.3497C31.6066 40.242 31.2619 41.7947 31.0315 42.5722C32.1011 42.9495 32.7632 43.3331 33.0174 43.7237C33.2244 43.6402 33.4279 43.5504 33.628 43.4567C33.1678 43.3632 32.7105 43.2282 32.2611 43.0494C33.4405 42.4996 36.2965 40.9763 38.3975 37.6592C40.6132 34.1611 40.6806 30.7342 40.6419 29.447Z" fill="#3B0075"/>
</g>
<g opacity="0.3">
<path fill-rule="evenodd" clip-rule="evenodd" d="M27.481 47.0929C24.8564 46.2384 23.4823 41.7022 23.3582 33.4834C24.4959 41.3099 26.511 45.3523 29.4039 45.6101C30.8999 46.0976 32.2363 46.1641 33.4131 45.8098C33.2597 47.0557 31.2822 47.4831 27.481 47.0929Z" fill="#3B0075"/>
</g>
<g opacity="0.3">
<path fill-rule="evenodd" clip-rule="evenodd" d="M15.3525 46.7768C15.2537 46.7953 15.1578 46.8125 15.065 46.8285C13.9929 47.0127 12.8972 46.6402 12.1744 45.8272C11.0031 44.5097 10.2469 42.8589 10.0258 41.084C9.73568 38.7547 10.3914 36.4062 11.8463 34.5645C11.3422 36.6778 11.9211 37.9358 13.5833 38.3378C12.4274 41.2512 13.1239 44.5728 15.3525 46.7768Z" fill="#3B0075"/>
</g>
<g opacity="0.3">
<path fill-rule="evenodd" clip-rule="evenodd" d="M21.0586 46.6055C17.6006 46.8558 15.8717 46.9811 15.8717 46.9811C14.2512 45.8902 13.2121 44.1241 13.0458 42.1784C12.8792 40.2317 13.6033 38.3148 15.0149 36.9648C13.7882 43.4669 15.8029 46.6803 21.0586 46.6055Z" fill="#3B0075"/>
</g>
<g opacity="0.3">
<path fill-rule="evenodd" clip-rule="evenodd" d="M9.73823 40.1428C9.96426 39.0828 10.1174 38.355 10.1982 37.9593C7.3709 37.4809 5.12743 35.3158 4.54958 32.5068C4.14137 33.7883 4.11067 35.1595 4.46103 36.4573C2.66337 36.1193 1.18076 34.8504 0.569502 33.1261C0.240443 35.4934 1.2102 37.8549 3.10836 39.3072C5.00649 40.7599 7.53925 41.0791 9.73823 40.1428Z" fill="#3B0075"/>
</g>
<g opacity="0.3">
<path fill-rule="evenodd" clip-rule="evenodd" d="M28.2861 6.0336C27.5731 3.83171 26.7709 2.90878 25.8793 3.26474C27.0793 4.46928 27.1727 5.33916 26.1595 5.87397C25.0245 6.5776 24.1819 7.66765 23.7863 8.94327C25.9855 7.25569 27.4854 6.28594 28.2861 6.0336Z" fill="#3B0075"/>
</g>
<g opacity="0.3">
<path fill-rule="evenodd" clip-rule="evenodd" d="M38.5414 39.9082C36.3744 41.4052 35.1926 42.5045 34.9958 43.2069C35.3848 46.2707 37.7162 47.0875 41.9907 45.6573C38.2941 45.6632 37.1442 43.7471 38.5414 39.9082Z" fill="#3B0075"/>
</g>
<path d="M43.361 8.80689C43.4234 8.80689 43.4863 8.79064 43.5432 8.7571C43.6904 8.6704 43.7562 8.49213 43.7006 8.33061C41.9139 3.13286 40.3582 0.710938 38.8061 0.710938C38.8041 0.710938 38.8023 0.710938 38.8003 0.710938C37.7115 0.715137 36.7872 1.89543 35.9748 4.31928C35.9418 4.41765 35.953 4.52545 36.0054 4.61501C36.0577 4.70456 36.1463 4.76709 36.2482 4.78653C38.9152 5.29505 41.2184 6.6077 43.0938 8.68807C43.1641 8.76593 43.2619 8.80689 43.361 8.80689ZM38.8058 1.4297C39.4085 1.4297 40.6479 2.20545 42.4846 7.0728C40.8363 5.6158 38.9278 4.64058 36.7895 4.16449C37.599 1.91934 38.3259 1.43156 38.8031 1.4297C38.804 1.4297 38.8049 1.4297 38.8058 1.4297Z" fill="#3B0075"/>
<g opacity="0.38">
<path fill-rule="evenodd" clip-rule="evenodd" d="M39.0533 18.8779C38.3205 18.8779 37.7265 18.9686 37.7265 19.0806C37.7265 19.1925 38.3205 19.2832 39.0533 19.2832C39.786 19.2832 40.3799 19.1925 40.3799 19.0806C40.3799 18.9686 39.786 18.8779 39.0533 18.8779Z" fill="white"/>
</g>
<path d="M34.2676 14.0132C33.4172 13.8921 32.6532 14.8608 32.5612 16.1768C32.4692 17.4929 33.084 18.6579 33.9344 18.779C34.7848 18.9001 35.5488 17.9314 35.6408 16.6153C35.7328 15.2993 35.118 14.1342 34.2676 14.0132Z" fill="#3B0075"/>
<path d="M34.2166 14.5677C33.9486 14.6795 33.841 15.1249 33.9763 15.5625C34.1116 16 34.4386 16.2641 34.7066 16.1522C34.9746 16.0404 35.0822 15.595 34.9469 15.1574C34.8116 14.7199 34.4847 14.4558 34.2166 14.5677Z" fill="white"/>
<path d="M33.3665 17.38C33.2404 17.4772 33.2297 17.7244 33.3425 17.9321C33.4553 18.1398 33.649 18.2294 33.775 18.1322C33.901 18.0351 33.9117 17.7879 33.7989 17.5802C33.6861 17.3725 33.4925 17.2829 33.3665 17.38Z" fill="#B199C5"/>
<path d="M42.4109 14.5751C41.7018 14.4923 41.0873 15.3131 41.0384 16.4085C40.9894 17.5039 41.5245 18.4591 42.2337 18.5419C42.9428 18.6247 43.5573 17.8039 43.6063 16.7085C43.6552 15.6131 43.12 14.6579 42.4109 14.5751Z" fill="#3B0075"/>
<path d="M42.3769 15.027C42.1565 15.1256 42.0764 15.4979 42.198 15.8586C42.3195 16.2194 42.5967 16.4319 42.8171 16.3334C43.0374 16.2348 43.1175 15.8625 42.996 15.5018C42.8744 15.141 42.5972 14.9285 42.3769 15.027Z" fill="white"/>
<path d="M41.726 17.3808C41.6233 17.4641 41.6196 17.6697 41.7177 17.84C41.8157 18.0102 41.9785 18.0806 42.0811 17.9972C42.1838 17.9138 42.1875 17.7082 42.0895 17.538C41.9914 17.3678 41.8286 17.2974 41.726 17.3808Z" fill="#B199C5"/>
</svg>
