<svg width="61" height="60" viewBox="0 0 61 60" fill="none" xmlns="http://www.w3.org/2000/svg">
<g clip-path="url(#clip0_1151_17198)">
<path d="M54.5352 7.13476L31.0039 0.0683516C30.6745 -0.025388 30.3255 -0.025388 29.9961 0.0683516L6.46484 7.13476C6.10308 7.24534 5.7862 7.4688 5.56057 7.77244C5.33495 8.07609 5.21243 8.44397 5.21094 8.82226V34.709C5.21094 38.0723 6.57031 41.5176 9.26562 44.9512C11.3164 47.5762 14.1641 50.2012 17.7031 52.7676C21.5072 55.4889 25.5513 57.8581 29.7852 59.8457C30.0098 59.9467 30.2537 59.9979 30.5 59.9957C30.7466 59.9984 30.9907 59.9463 31.2148 59.8434C31.4609 59.7379 37.332 57.0894 43.2969 52.7652C46.8477 50.1988 49.6836 47.5621 51.7344 44.9488C54.418 41.5152 55.7891 38.0699 55.7891 34.7066V8.8082C55.789 8.4312 55.6668 8.06436 55.4408 7.76267C55.2147 7.46097 54.897 7.24066 54.5352 7.13476ZM52.2969 34.709H52.2734C52.2734 38.3652 50.0234 41.8809 47.1289 44.8926C45.3008 46.791 43.2148 48.4902 41.2812 49.8965C39.4895 51.1937 37.6895 52.3422 36.0617 53.3066L35.9621 53.3652C33.5469 54.7937 31.523 55.8121 30.5 56.3066H30.4883C28.7539 55.4746 24.207 53.1543 19.7188 49.9082C14.8566 46.3867 9.09102 41.0254 8.74414 35.2691C8.73242 35.0875 8.72656 34.9059 8.72656 34.723V10.123L30.5 3.5957H30.5117L37.5312 5.70507L52.2969 10.1348V34.709Z" fill="#F6F6F6"/>
<path d="M52.5938 9.85332V34.7768H52.582C52.582 38.4846 50.2992 42.0506 47.3637 45.1045C45.5098 47.0299 43.3945 48.7537 41.434 50.1799C39.6164 51.4959 37.7906 52.6596 36.1395 53.6381L36.0387 53.6978C33.5859 55.1393 31.5316 56.1682 30.4875 56.6686C28.7297 55.8248 24.1172 53.4717 19.5645 50.1799C14.6426 46.6104 8.79492 41.1775 8.43164 35.3428C8.41992 35.1576 8.41406 34.9736 8.41406 34.7885V9.83926L30.4992 3.22168L37.6184 5.36152L52.5938 9.85332Z" fill="#F0F0F0"/>
<path d="M52.5931 9.81523V34.7387H52.5825C52.5825 38.4465 50.2997 42.0125 47.363 45.0664C47.2224 45.2141 47.0771 45.3605 46.9318 45.5059C46.8579 45.582 46.7818 45.657 46.7044 45.732L46.6142 45.8211C46.5075 45.9242 46.4032 46.0262 46.2954 46.127C46.1876 46.2277 46.0611 46.3531 45.9439 46.4645L45.5665 46.809C45.4423 46.9215 45.3181 47.0324 45.1939 47.1418C45.0696 47.2512 44.9462 47.3563 44.8236 47.457C44.4431 47.7875 44.0599 48.1082 43.6739 48.4191C43.5568 48.5187 43.4278 48.6184 43.3048 48.7156C43.0857 48.8902 42.8665 49.0602 42.6509 49.2277L42.1446 49.3063L41.6607 48.0523C36.4008 34.403 34.8179 19.6115 37.0704 5.1582L37.6165 5.32227L52.5931 9.81523Z" fill="#D5D5D5"/>
<path d="M35.9297 19.6726C36.1172 18.7203 36.5275 17.8259 37.1271 17.0626L40.6918 12.5257C40.9929 12.1425 41.3771 11.8327 41.8155 11.6196C42.2538 11.4066 42.7348 11.2959 43.2222 11.2959C44.0754 11.296 44.8936 11.635 45.4969 12.2384C46.1003 12.8417 46.4393 13.6599 46.4394 14.5131V21.4725C46.4393 23.8716 45.9358 26.2439 44.9615 28.4361C44.7684 28.8691 44.454 29.2368 44.0563 29.4947C43.6586 29.7527 43.1947 29.8899 42.7207 29.8896C42.5558 29.8898 42.3913 29.8747 42.2293 29.8445" fill="#303030"/>
<path d="M35.9297 19.6726C36.1172 18.7203 36.5275 17.8259 37.1271 17.0626L40.6918 12.5257C40.9929 12.1425 41.3771 11.8327 41.8155 11.6196C42.2538 11.4066 42.7348 11.2959 43.2222 11.2959C44.0754 11.296 44.8936 11.635 45.4969 12.2384C46.1003 12.8417 46.4393 13.6599 46.4394 14.5131V21.4725C46.4393 23.8716 45.9358 26.2439 44.9615 28.4361C44.7684 28.8691 44.454 29.2368 44.0563 29.4947C43.6586 29.7527 43.1947 29.8899 42.7207 29.8896C42.5558 29.8898 42.3913 29.8747 42.2293 29.8445L35.9297 19.6726Z" fill="#303030"/>
<path d="M38.4688 20.0613V23.7694L42.23 29.8416C42.3909 29.8741 42.5546 29.8901 42.7188 29.8894C43.1933 29.8882 43.6577 29.7519 44.0575 29.4963C44.4549 29.2369 44.7686 28.8678 44.9606 28.4338C45.9337 26.2408 46.4368 23.8683 46.4375 21.4691V14.515C46.4374 13.8459 46.2289 13.1934 45.8409 12.6483C45.4528 12.1032 44.9046 11.6925 44.2724 11.4734C43.6402 11.2543 42.9554 11.2376 42.3132 11.4257C41.6711 11.6138 41.1035 11.9973 40.6894 12.5228L40.0625 13.325V15.28C40.0612 16.1419 39.7817 16.9804 39.2656 17.6707C38.7495 18.3609 38.47 19.1994 38.4688 20.0613Z" fill="#E8C1C1"/>
<path d="M25.0722 19.6726C24.8847 18.7203 24.4744 17.8259 23.8748 17.0626L20.3101 12.5257C20.009 12.1425 19.6248 11.8327 19.1865 11.6196C18.7481 11.4066 18.2671 11.2959 17.7798 11.2959C16.9265 11.296 16.1083 11.635 15.505 12.2384C14.9016 12.8417 14.5626 13.6599 14.5625 14.5131V21.4725C14.563 23.8707 15.0664 26.242 16.0404 28.4335C16.2331 28.8669 16.5473 29.2352 16.9451 29.4936C17.3428 29.7521 17.8069 29.8896 18.2813 29.8896C18.4461 29.8898 18.6106 29.8747 18.7727 29.8445" fill="#303030"/>
<path d="M25.0722 19.6726C24.8847 18.7203 24.4744 17.8259 23.8748 17.0626L20.3101 12.5257C20.009 12.1425 19.6248 11.8327 19.1865 11.6196C18.7481 11.4066 18.2671 11.2959 17.7798 11.2959C16.9265 11.296 16.1083 11.635 15.505 12.2384C14.9016 12.8417 14.5626 13.6599 14.5625 14.5131V21.4725C14.563 23.8707 15.0664 26.242 16.0404 28.4335C16.2331 28.8669 16.5473 29.2352 16.9451 29.4936C17.3428 29.7521 17.8069 29.8896 18.2813 29.8896C18.4461 29.8898 18.6106 29.8747 18.7727 29.8445L25.0722 19.6726Z" fill="#303030"/>
<path d="M22.5312 20.0613V23.7694L18.77 29.8416C18.6091 29.8741 18.4454 29.8901 18.2812 29.8894C17.8067 29.8882 17.3423 29.7519 16.9425 29.4963C16.5451 29.2369 16.2314 28.8678 16.0394 28.4338C15.0663 26.2408 14.5632 23.8683 14.5625 21.4691V14.515C14.5626 13.8459 14.7711 13.1934 15.1591 12.6483C15.5472 12.1032 16.0954 11.6925 16.7276 11.4734C17.3599 11.2543 18.0446 11.2376 18.6868 11.4257C19.3289 11.6138 19.8965 11.9973 20.3106 12.5228L20.9375 13.325V15.28C20.9388 16.1419 21.2183 16.9804 21.7344 17.6707C22.2505 18.3609 22.53 19.1994 22.5312 20.0613Z" fill="#D6B4B4"/>
<path d="M16.1563 13.984V20.9381C16.1569 23.3373 16.66 25.7098 17.6331 27.9028C17.8251 28.3368 18.1388 28.7059 18.5363 28.9653C18.7244 29.0843 18.9275 29.1779 19.1403 29.2436L22.5313 23.7696V20.0615C22.53 19.1996 22.2505 18.3612 21.7344 17.6709C21.2183 16.9806 20.9388 16.1422 20.9375 15.2803V13.3253L20.3106 12.5231C20.0092 12.1408 19.625 11.8319 19.1871 11.6193C18.7491 11.4068 18.2687 11.2962 17.7819 11.2959C17.716 11.2959 17.6517 11.3017 17.5869 11.3055C17.411 11.4226 17.2468 11.5563 17.0966 11.705C16.4937 12.3101 16.1555 13.1298 16.1563 13.984Z" fill="#E8C1C1"/>
<path d="M29.4375 25.4772V25.3673C29.438 23.1986 28.7905 21.0793 27.5781 19.2812C25.5574 19.3546 23.6007 20.0093 21.9426 21.1667C21.1404 21.7279 20.4853 22.4743 20.0328 23.3426C19.5804 24.2109 19.3441 25.1755 19.3437 26.1546C19.3437 26.5198 19.3108 26.8843 19.2455 27.2436L18.3832 31.9866C18.2209 32.8791 18.2527 33.7961 18.4763 34.6752C18.7 35.5543 19.1104 36.3749 19.6795 37.0813H28.4074V30.0986C29.0859 28.6524 29.4376 27.0746 29.4375 25.4772Z" fill="#444444"/>
<path d="M19.3459 33.1171C19.3462 34.5593 19.8395 35.9581 20.7442 37.0813H28.4096V30.0986C29.088 28.6524 29.4397 27.0746 29.4397 25.4772V25.3673C29.4402 23.1986 28.7927 21.0793 27.5803 19.2812C25.5595 19.3546 23.6029 20.0093 21.9448 21.1667C21.1425 21.7279 20.4874 22.4743 20.035 23.3426C19.5826 24.2109 19.3462 25.1755 19.3459 26.1546C19.3459 26.5198 19.313 26.8843 19.2476 27.2436L18.8906 29.2092L19.4479 31.9888C19.3801 32.361 19.346 32.7387 19.3459 33.1171Z" fill="#565656"/>
<path d="M31.5607 25.476V25.3661C31.5602 23.1974 32.2077 21.0781 33.4201 19.2801C33.2883 19.2747 33.1571 19.2646 33.0248 19.2646H27.9695C27.8372 19.2646 27.7038 19.2747 27.5742 19.2801C28.7874 21.0779 29.4356 23.1972 29.4357 25.3661V25.476C29.4359 27.0736 29.0842 28.6516 28.4056 30.0979V37.0801H32.5908V30.0974C31.9123 28.6512 31.5606 27.0734 31.5607 25.476Z" fill="#D3D1D1"/>
<path d="M42.7188 33.1171C42.7188 32.738 42.6847 32.3596 42.6167 31.9866L41.7545 27.2431C41.6892 26.8839 41.6563 26.5196 41.6562 26.1546C41.6613 25.2039 41.4414 24.2656 41.0145 23.4162C40.5877 22.5668 39.966 21.8304 39.2003 21.2671C37.5134 20.0472 35.5022 19.3561 33.4219 19.2812C32.2095 21.0793 31.562 23.1986 31.5625 25.3673V25.4772C31.5623 27.0748 31.914 28.6528 32.5926 30.0991V37.0813H41.321C42.2255 35.958 42.7186 34.5593 42.7188 33.1171Z" fill="#565656"/>
<path d="M34.3706 41.8689C33.2562 42.7135 31.8961 43.1706 30.4978 43.1705C29.0995 43.1706 27.7395 42.7135 26.625 41.8689V37.3799H34.3706V41.8689Z" fill="#A3A3A3"/>
<path d="M31.0313 37.8584C31.3537 37.8584 31.6704 37.9441 31.9488 38.1067C32.2273 38.2693 32.4575 38.503 32.616 38.7838L34.3064 41.7785C34.6075 42.2085 35.0078 42.5597 35.4734 42.8021C35.9391 43.0444 36.4563 43.171 36.9813 43.1709C37.6058 43.1709 38.2172 42.9917 38.7429 42.6545L40.2394 41.6983C40.6832 41.3283 41.0402 40.8653 41.2851 40.342C41.5299 39.8187 41.6566 39.2479 41.6562 38.6701C41.6562 38.0846 41.5256 37.5065 41.274 36.9778C41.0224 36.4491 40.6561 35.9832 40.2017 35.6139L34.8031 31.2295C33.7368 30.3632 32.405 29.8902 31.0313 29.8896H29.9688C28.595 29.8902 27.2632 30.3632 26.1969 31.2295L20.7983 35.6139C20.3439 35.9832 19.9776 36.4491 19.726 36.9778C19.4744 37.5065 19.3438 38.0846 19.3438 38.6701C19.3434 39.2479 19.4701 39.8187 19.7149 40.342C19.9598 40.8653 20.3168 41.3283 20.7606 41.6983L22.2571 42.6545C22.7828 42.9917 23.3942 43.1709 24.0188 43.1709C24.5437 43.171 25.0609 43.0444 25.5266 42.8021C25.9922 42.5597 26.3925 42.2085 26.6936 41.7785L28.384 38.7838C28.5425 38.503 28.7727 38.2693 29.0512 38.1067C29.3296 37.9441 29.6463 37.8584 29.9688 37.8584H31.0313Z" fill="#AAAAAA"/>
<path d="M21.2924 40.6331L22.7889 41.5894C23.2814 41.9055 23.8514 43.002 24.4332 43.1411C24.8843 43.0836 25.3185 42.9324 25.7078 42.6973C26.0972 42.4622 26.4331 42.1483 26.6942 41.7758L28.3846 38.7812C28.5434 38.5008 28.7738 38.2677 29.0522 38.1055C29.3306 37.9434 29.6471 37.8581 29.9693 37.8584H31.0318C31.3543 37.8584 31.6709 37.9441 31.9494 38.1067C32.2278 38.2693 32.4581 38.503 32.6165 38.7838L34.307 41.7785C34.7903 42.469 35.522 42.9458 36.3489 43.1091C37.1759 43.2724 38.0339 43.1095 38.7434 42.6545L40.24 41.6983C40.6866 41.326 41.0453 40.8595 41.2903 40.3322C41.5353 39.8049 41.6605 39.2299 41.6569 38.6485C41.6533 38.0671 41.521 37.4937 41.2695 36.9694C41.018 36.4452 40.6535 35.9832 40.2022 35.6165L34.8037 31.2295C33.7374 30.3632 32.4056 29.8902 31.0318 29.8896H29.9693C28.5955 29.8902 27.2637 30.3632 26.1974 31.2295L20.7989 35.6139C20.5199 35.843 20.2739 36.1096 20.0679 36.406C19.8247 37.1519 19.8112 37.9537 20.029 38.7074C20.2469 39.4611 20.6861 40.132 21.2897 40.6331H21.2924Z" fill="#D3D1D1"/>
<path d="M31.0174 32.0146C31.3587 32.0146 31.6967 32.0819 32.012 32.2125C32.3273 32.3431 32.6137 32.5346 32.855 32.7759C33.0476 32.9686 33.1559 33.2298 33.1563 33.5021C33.1561 33.6933 33.1028 33.8806 33.0023 34.0432C32.9019 34.2058 32.7582 34.3372 32.5873 34.4228L32.056 34.6034C31.7203 34.7325 31.3942 34.8854 31.0801 35.0608C30.9006 35.1529 30.7018 35.2013 30.5 35.2021C30.2978 35.2021 30.0985 35.1542 29.9183 35.0624C29.6042 34.887 29.2781 34.7341 28.9424 34.605L28.4111 34.4244C28.2403 34.3384 28.0968 34.2067 27.9966 34.0438C27.8964 33.8809 27.8435 33.6934 27.8438 33.5021C27.8437 33.2292 27.9521 32.9674 28.145 32.7743L28.1551 32.7642C28.6364 32.2838 29.2887 32.0142 29.9688 32.0146H31.0174Z" fill="#212121"/>
<path d="M37.4062 29.8896C38.5799 29.8896 39.5312 28.9383 39.5312 27.7646C39.5312 26.591 38.5799 25.6396 37.4062 25.6396C36.2326 25.6396 35.2812 26.591 35.2812 27.7646C35.2812 28.9383 36.2326 29.8896 37.4062 29.8896Z" fill="#E8E6E6"/>
<path d="M23.5938 29.8896C24.7674 29.8896 25.7188 28.9383 25.7188 27.7646C25.7188 26.591 24.7674 25.6396 23.5938 25.6396C22.4201 25.6396 21.4688 26.591 21.4688 27.7646C21.4688 28.9383 22.4201 29.8896 23.5938 29.8896Z" fill="#E8E6E6"/>
<path d="M23.5938 29.3584C24.474 29.3584 25.1875 28.6449 25.1875 27.7646C25.1875 26.8844 24.474 26.1709 23.5938 26.1709C22.7135 26.1709 22 26.8844 22 27.7646C22 28.6449 22.7135 29.3584 23.5938 29.3584Z" fill="#212121"/>
<path d="M37.4062 29.3584C38.2865 29.3584 39 28.6449 39 27.7646C39 26.8844 38.2865 26.1709 37.4062 26.1709C36.526 26.1709 35.8125 26.8844 35.8125 27.7646C35.8125 28.6449 36.526 29.3584 37.4062 29.3584Z" fill="#212121"/>
<path d="M23.5938 27.2334C23.8872 27.2334 24.125 26.9955 24.125 26.7021C24.125 26.4087 23.8872 26.1709 23.5938 26.1709C23.3003 26.1709 23.0625 26.4087 23.0625 26.7021C23.0625 26.9955 23.3003 27.2334 23.5938 27.2334Z" fill="#E8E6E6"/>
<path d="M37.4062 27.2334C37.6997 27.2334 37.9375 26.9955 37.9375 26.7021C37.9375 26.4087 37.6997 26.1709 37.4062 26.1709C37.1128 26.1709 36.875 26.4087 36.875 26.7021C36.875 26.9955 37.1128 27.2334 37.4062 27.2334Z" fill="#E8E6E6"/>
<path d="M30.2344 35.1719V37.8595H30.7656V35.1719C30.591 35.2137 30.409 35.2137 30.2344 35.1719Z" fill="#212121"/>
<path d="M29.4375 34.1396C29.7309 34.1396 29.9688 33.9018 29.9688 33.6084C29.9688 33.315 29.7309 33.0771 29.4375 33.0771C29.1441 33.0771 28.9062 33.315 28.9062 33.6084C28.9062 33.9018 29.1441 34.1396 29.4375 34.1396Z" fill="#3D3D3D"/>
<path d="M31.5625 34.1396C31.8559 34.1396 32.0938 33.9018 32.0938 33.6084C32.0938 33.315 31.8559 33.0771 31.5625 33.0771C31.2691 33.0771 31.0312 33.315 31.0312 33.6084C31.0312 33.9018 31.2691 34.1396 31.5625 34.1396Z" fill="#3D3D3D"/>
</g>
<defs>
<clipPath id="clip0_1151_17198">
<rect width="60" height="60" fill="white" transform="translate(0.5 -0.00195312)"/>
</clipPath>
</defs>
</svg>
