<svg width="61" height="60" viewBox="0 0 61 60" fill="none" xmlns="http://www.w3.org/2000/svg">
<g clip-path="url(#clip0_1151_17124)">
<path d="M54.9047 3.34473H46.6947C45.5407 3.34473 44.5607 4.28902 44.5824 5.44273C44.6034 6.56164 45.5168 7.46223 46.6408 7.46223H57.4906V5.93059C57.4906 4.50242 56.3329 3.34473 54.9047 3.34473Z" fill="#FFD15B"/>
<path d="M58.4398 3.3457H54.322C55.4591 3.3457 56.3804 4.2668 56.3804 5.4041V14.0347H56.3808C56.3808 18.9684 52.3669 22.9822 47.4333 22.9822H46.6408C45.5038 22.9822 44.582 23.904 44.582 25.041C44.582 26.1779 45.5038 27.0997 46.6408 27.0997H47.4333C54.6372 27.0996 60.4982 21.2387 60.4982 14.0346V5.40398C60.4982 4.2668 59.5758 3.3457 58.4398 3.3457Z" fill="#FEB237"/>
<path d="M9.12266 21.7982L11.3258 24.4467L9.11914 26.3205C4.09648 24.4982 0.5 19.6783 0.5 14.0346V5.40371C0.5 4.26699 1.42227 3.34473 2.55898 3.34473H9.11914L11.3258 5.96855L9.11914 7.4627H4.61797V14.0346C4.61797 17.3521 6.4332 20.2537 9.12266 21.7982Z" fill="#FFD15B"/>
<path d="M9.12109 7.46223H14.3593C15.4962 7.46223 16.418 6.54043 16.418 5.40348C16.418 4.26652 15.4962 3.34473 14.3593 3.34473H9.12109V7.46223ZM14.3593 22.9816H13.5667C12.0063 22.9828 10.4731 22.5732 9.12109 21.794V26.3198C10.5094 26.8237 12.0065 27.0991 13.5667 27.0991H14.3593C15.4962 27.0991 16.418 26.1773 16.418 25.0404C16.418 23.9034 15.4962 22.9816 14.3593 22.9816Z" fill="#FEB237"/>
<path d="M41.1836 29.9975C35.7496 35.8322 30.2066 38.7666 30.0145 54.8705H27.5277V48.2752C27.5277 42.0502 24.516 36.2529 19.532 32.524C15.7516 29.6939 13.3047 25.1811 13.3047 20.0951V2.42207C13.3047 1.75527 13.8449 1.21387 14.5117 1.21387L22.5027 4.4998L23.9711 1.21387H40.327L44.5855 6.87051C44.5855 6.87051 46.7148 24.0584 41.1836 29.9975Z" fill="#FFD15B"/>
<path d="M46.492 1.21484H38.0896L36.345 4.50816H35.8907C35.6688 4.50814 35.4512 4.5693 35.2618 4.68491C35.0723 4.80052 34.9185 4.96611 34.817 5.16348L31.0306 12.5291L27.2439 5.16348C27.1424 4.96613 26.9886 4.80056 26.7991 4.68496C26.6097 4.56935 26.3921 4.50818 26.1702 4.50816H24.6588L22.9142 1.21484H14.5117L23.153 17.4738C21.1868 19.4086 19.981 22.1136 20.0253 25.1002C20.1091 30.7508 24.737 35.3581 30.3878 35.4181C31.2318 35.4277 32.074 35.3356 32.896 35.1438C33.2321 35.0653 33.477 35.462 33.2552 35.7263C30.3276 39.2152 28.6473 43.6254 28.6473 48.2756V54.872H33.4763V48.2756C33.4763 42.0499 36.4872 36.2539 41.4719 32.5235C45.2518 29.6949 47.6989 25.181 47.6989 20.0961V2.42211C47.6989 1.75578 47.1595 1.21496 46.492 1.21484ZM41.6168 26.2123C41.4541 26.5913 40.8797 26.4463 40.9224 26.036C40.9598 25.6762 40.979 25.3109 40.979 24.9412C40.979 22.0179 39.7812 19.3747 37.8503 17.4741L42.1879 9.31285C42.365 8.97969 42.8699 9.10555 42.8699 9.48277V20.096C42.8699 22.268 42.4232 24.3357 41.6168 26.2123Z" fill="#FEB237"/>
<path d="M36.893 50.1504H19.7352C18.7834 50.1504 18.0117 50.9221 18.0117 51.8739V54.8712L39.0942 56.5927V52.3516C39.0942 51.1359 38.1087 50.1504 36.893 50.1504Z" fill="#FEB237"/>
<path d="M42.9904 51.8743V54.8719L38.1614 56.0003V51.8743C38.1614 50.9218 37.39 50.1504 36.4375 50.1504H41.2664C42.2189 50.1504 42.9904 50.9218 42.9904 51.8743Z" fill="#FE9901"/>
<path d="M41.1772 54.8711H15.835C14.555 54.8711 13.465 55.8664 13.4195 57.1455C13.3718 58.4883 14.4462 59.592 15.7784 59.592H41.1774C42.4007 59.592 43.3924 58.6002 43.3924 57.3769V57.0863C43.3924 55.8628 42.4007 54.8711 41.1772 54.8711Z" fill="#FFD15B"/>
<path d="M47.5836 57.2322C47.584 57.5423 47.5232 57.8493 47.4047 58.1358C47.2862 58.4223 47.1124 58.6827 46.8931 58.9019C46.6739 59.1211 46.4136 59.295 46.1271 59.4134C45.8406 59.5319 45.5335 59.5927 45.2235 59.5924H40.3945C40.7046 59.5927 41.0116 59.5319 41.2981 59.4134C41.5846 59.295 41.845 59.1211 42.0642 58.9019C42.2834 58.6827 42.4573 58.4223 42.5758 58.1358C42.6942 57.8493 42.755 57.5423 42.7547 57.2322C42.7547 55.9284 41.6984 54.8721 40.3945 54.8721H45.2235C46.5273 54.8721 47.5836 55.9284 47.5836 57.2322Z" fill="#FEB237"/>
<path d="M38.8668 2.16102C38.8668 1.19023 38.0799 0.40332 37.1091 0.40332H35.8879C35.4355 0.40332 35.0219 0.656445 34.8145 1.0584L27.0742 16.1146H32.0177L38.8668 4.33145V2.16102Z" fill="#2944AE"/>
<path d="M42.6195 2.1623L35.4461 16.1156H30.6172L37.7906 2.1623C38.2034 1.35945 37.6203 0.40332 36.7161 0.40332H41.545C42.4494 0.40332 43.0324 1.35945 42.6195 2.1623Z" fill="#213993"/>
<path d="M26.6085 16.115H34.9811L23.7113 1.05863C23.5045 0.656328 23.0075 0.40332 21.5644 0.40332H20.5096C19.6062 0.40332 19.023 1.3591 19.4359 2.16254L26.6085 16.115Z" fill="#5169CD"/>
<path d="M22.6397 1.05887L30.3798 16.115H34.9831L27.2429 1.05887C27.1415 0.861489 26.9877 0.69587 26.7984 0.580217C26.6091 0.464564 26.3915 0.403355 26.1696 0.40332H21.5664C22.0179 0.40332 22.4332 0.656797 22.6397 1.05887Z" fill="#3351C5"/>
<g clip-path="url(#clip1_1151_17124)">
<path d="M41.6013 13.7191L39.3793 22.5963C39.3793 22.5963 37.4898 24.247 37.4898 27.2892L36.5106 27.8824H35.1095L34.4295 27.1619L34.1839 26.9016L31.1698 23.7078L25.8914 27.8824H24.4903L23.5111 27.2892C23.5111 24.2469 21.6215 22.5962 21.6215 22.5962L19.8086 13.1529L24.972 10.8977C27.3828 10.0295 29.9642 9.74133 32.5072 10.0565C32.8656 10.1008 33.2224 10.1572 33.577 10.2256C34.4106 10.3854 35.2303 10.6101 36.0289 10.8977L41.6013 13.7191Z" fill="#8D8D8D"/>
<path d="M41.6023 13.7201L39.3804 22.5973C39.3804 22.5973 37.4908 24.248 37.4908 27.2903L36.5116 27.8835H35.1105L34.4305 27.1629L35.8852 23.3077C37.6987 19.3421 35.0204 13.0885 33.5781 10.2266C34.4117 10.3864 35.2314 10.6111 36.0299 10.8987L41.6023 13.7201Z" fill="#727272"/>
<path d="M32.0562 22.4624V13.4375C32.0562 12.5773 31.3588 11.8799 30.4985 11.8799C29.6382 11.8799 28.9408 12.5773 28.9408 13.4375V22.4624H32.0562V22.4624ZM36.5086 27.8829L33.8601 29.4874C33.0894 30.5015 31.8703 31.1561 30.4984 31.1561C30.2087 31.1562 29.9197 31.1268 29.6359 31.0682C28.6218 30.8575 27.7413 30.2829 27.1367 29.4874L24.4883 27.8829H25.8894L31.1677 23.7082L34.9727 27.7404L35.1074 27.8829H36.5086Z" fill="#FFF7F3"/>
<path d="M36.5094 27.8837L33.8609 29.4882C33.0902 30.5023 31.8711 31.1569 30.4993 31.1569C30.2095 31.157 29.9205 31.1276 29.6367 31.0691C32.0463 29.7992 33.0232 28.1322 33.0232 28.1322L34.9736 27.7412L35.1083 27.8837H36.5094V27.8837Z" fill="#FFEEE7"/>
<path d="M25.623 22.7396C25.4528 22.6442 25.2941 22.5311 25.1464 22.4047C23.473 20.9671 23.7599 18.2907 25.6655 17.1795L26.4187 16.7407C27.3943 16.1717 28.6441 16.6835 28.9407 17.7734L29.6683 20.4486L25.623 22.7396ZM36.3321 21.8891C36.1909 22.0781 36.0294 22.251 35.8504 22.4046C35.7029 22.5317 35.5433 22.644 35.3738 22.7398L31.3281 20.4485L32.056 17.7736C32.3524 16.6835 33.6025 16.1719 34.5783 16.7403L35.3309 17.1792C35.7281 17.4108 36.0554 17.711 36.309 18.053L36.3095 18.0535C37.1377 19.1731 37.1811 20.7466 36.3321 21.8891Z" fill="#838383"/>
<path d="M36.335 21.8892C36.5722 20.6943 36.5266 19.3777 36.3125 18.0537C37.1407 19.1732 37.1841 20.7467 36.335 21.8892Z" fill="#5A5A5A"/>
<path d="M36.6829 32.1055C36.5655 32.3456 36.383 32.548 36.1564 32.6897C35.9297 32.8313 35.6678 32.9065 35.4005 32.9067C35.3223 32.9067 35.2441 32.9001 35.1653 32.887C34.4659 32.7705 33.972 32.1646 33.972 31.481C33.972 31.3979 33.9791 31.3147 33.9939 31.2305C34.03 31.0243 34.0475 30.8193 34.0475 30.6158C34.0475 29.6725 33.668 28.7827 33.0237 28.1319C32.6038 27.7079 32.0829 27.3978 31.51 27.2307C31.2831 27.1641 31.0767 27.0413 30.9101 26.8736C30.7799 26.7434 30.6766 26.5888 30.6063 26.4187C30.5359 26.2485 30.4998 26.0662 30.4999 25.8821C30.4999 26.2638 30.3462 26.6171 30.0898 26.8736C29.9268 27.0376 29.7223 27.1623 29.4898 27.2307C27.9646 27.6775 26.9523 29.0747 26.9523 30.6158C26.9523 30.8193 26.9698 31.0243 27.0059 31.2305C27.0207 31.3147 27.0278 31.3979 27.0278 31.481C27.0278 32.1646 26.534 32.7705 25.8345 32.887C25.7558 32.9001 25.6776 32.9067 25.5994 32.9067C25.0612 32.9067 24.5598 32.6015 24.317 32.1055C23.7275 30.9012 23.4292 29.5754 23.446 28.2347C23.4628 26.894 23.7943 25.576 24.4137 24.3869C24.9756 23.3075 25.8228 22.403 26.8632 21.7718C27.9034 21.1408 29.0968 20.8073 30.3134 20.8076H30.6864C31.9262 20.8076 33.1151 21.1521 34.1366 21.7718C34.8047 22.1771 35.396 22.6972 35.8834 23.3079C36.1521 23.6439 36.3875 24.0052 36.5861 24.3869C37.2056 25.576 37.537 26.894 37.5539 28.2347C37.5707 29.5754 37.2723 30.9012 36.6829 32.1055Z" fill="#9C9C9C"/>
<path d="M30.9102 21.501V26.8729C30.6537 26.6164 30.3463 26.6164 30.0898 26.8729V21.501C30.0898 21.2746 30.2736 21.0908 30.5 21.0908C30.7264 21.0908 30.9102 21.2746 30.9102 21.501ZM36.6831 32.1049C36.5656 32.3451 36.3831 32.5475 36.1563 32.6891C35.9296 32.8307 35.6676 32.9059 35.4003 32.9061C35.3225 32.9061 35.2442 32.8993 35.1653 32.8863C34.4662 32.7697 33.9721 32.1641 33.9721 31.4801C33.9721 31.3973 33.9794 31.3139 33.9941 31.23C34.0301 31.0238 34.0476 30.8187 34.0476 30.6154C34.0476 29.6717 33.6679 28.7821 33.024 28.1314C33.7688 27.0193 34.7648 25.6001 34.9834 25.2108C35.3474 24.5629 35.6454 23.928 35.8837 23.3071C36.1523 23.6431 36.3876 24.0045 36.5862 24.386C37.2057 25.5752 37.5373 26.8932 37.5541 28.2339C37.5709 29.5747 37.2726 30.9006 36.6831 32.1049Z" fill="#838383"/>
<path d="M30.4993 20.4492H29.6694C28.5576 20.4492 27.6562 21.3505 27.6562 22.4624C27.6562 23.2278 28.2445 23.8864 29.0091 23.9224C29.8254 23.9609 30.4993 23.3104 30.4993 22.5025C30.4993 23.3104 31.1732 23.9609 31.9895 23.9224C32.7541 23.8864 33.3423 23.2278 33.3423 22.4624C33.3423 21.3505 32.441 20.4492 31.3292 20.4492H30.4993Z" fill="#5A5A5A"/>
<path d="M31.1694 23.7085C31.4054 23.8566 31.688 23.9367 31.9906 23.9226C32.7554 23.8861 33.3433 23.2277 33.3433 22.4622C33.3433 21.9064 33.1182 21.4032 32.7541 21.039C32.3894 20.6749 31.8868 20.4492 31.3303 20.4492H29.8359C30.3917 20.4492 30.8956 20.6749 31.2598 21.039C31.6239 21.4031 31.8496 21.9064 31.8496 22.4622C31.8496 22.9796 31.5804 23.4489 31.1694 23.7085Z" fill="#444444"/>
<path d="M36.0269 10.8984L37.7385 13.0961C38.7081 14.3416 39.148 15.919 38.9627 17.4865L38.7525 19.2662C38.6379 20.2389 38.7765 21.2248 39.1551 22.1282C39.5336 23.0316 40.1392 23.8218 40.9131 24.4222C41.0348 24.5169 41.1711 24.5586 41.3035 24.5586C41.6686 24.5586 42.006 24.238 41.9413 23.8166L41.85 23.2268C41.7453 22.5465 41.7855 21.8518 41.968 21.1882C42.1505 20.5246 42.4712 19.9071 42.9091 19.3761C43.9366 18.1297 44.4984 16.5648 44.4984 14.9496C44.4984 14.3553 44.4218 13.7569 44.2664 13.1688C44.1331 12.6654 43.8798 12.2019 43.5283 11.8178C43.1774 11.4336 42.7386 11.1401 42.2495 10.9626L40.7869 10.4307L37.2923 9.15973C36.237 8.77609 35.3373 10.0121 36.0269 10.8984Z" fill="#5A5A5A"/>
<path d="M18.7491 10.9624L23.7063 9.15975C24.7616 8.77601 25.6611 10.0124 24.9713 10.8983L23.2602 13.0961C22.2905 14.3416 21.8505 15.919 22.0356 17.4866L22.2457 19.2664C22.3605 20.2391 22.222 21.2249 21.8435 22.1282C21.465 23.0316 20.8594 23.8218 20.0856 24.4221C19.6269 24.778 18.9688 24.3908 19.0572 23.8169L19.1481 23.2267C19.2529 22.5465 19.2127 21.8518 19.0302 21.1882C18.8477 20.5246 18.5271 19.9071 18.0892 19.3761C17.3863 18.5236 16.8965 17.5159 16.6605 16.4365C16.4245 15.357 16.4491 14.2369 16.7321 13.1688C16.8655 12.6657 17.1186 12.2023 17.4698 11.8181C17.821 11.4339 18.2599 11.1403 18.7491 10.9624Z" fill="#838383"/>
<path d="M27.2702 19.9996C27.1581 19.9996 27.0506 19.9551 26.9714 19.8758C26.8922 19.7966 26.8477 19.6891 26.8477 19.5771V18.7038C26.8477 18.5917 26.8922 18.4842 26.9714 18.405C27.0506 18.3258 27.1581 18.2812 27.2702 18.2812C27.3822 18.2812 27.4897 18.3258 27.5689 18.405C27.6482 18.4842 27.6927 18.5917 27.6927 18.7038V19.5771C27.6927 19.6891 27.6482 19.7966 27.5689 19.8758C27.4897 19.9551 27.3822 19.9996 27.2702 19.9996ZM33.7299 19.9996C33.6744 19.9996 33.6195 19.9887 33.5682 19.9674C33.517 19.9462 33.4704 19.9151 33.4311 19.8759C33.3919 19.8366 33.3608 19.79 33.3395 19.7388C33.3183 19.6875 33.3074 19.6326 33.3074 19.5771V18.7038C33.3074 18.5917 33.3519 18.4842 33.4312 18.405C33.5104 18.3258 33.6179 18.2812 33.7299 18.2812C33.842 18.2812 33.9494 18.3258 34.0287 18.405C34.1079 18.4842 34.1524 18.5917 34.1524 18.7038V19.5771C34.1524 19.6326 34.1415 19.6875 34.1203 19.7388C34.0991 19.79 34.0679 19.8366 34.0287 19.8759C33.9895 19.9151 33.9429 19.9462 33.8916 19.9674C33.8403 19.9887 33.7854 19.9996 33.7299 19.9996Z" fill="#444444"/>
<path d="M27.1821 26.3734C27.0701 26.3734 26.9626 26.3289 26.8834 26.2497C26.8041 26.1704 26.7596 26.063 26.7596 25.9509V25.943C26.7596 25.831 26.8041 25.7235 26.8834 25.6443C26.9626 25.565 27.0701 25.5205 27.1821 25.5205C27.2942 25.5205 27.4017 25.565 27.4809 25.6443C27.5601 25.7235 27.6047 25.831 27.6047 25.943V25.9509C27.6047 26.0064 27.5937 26.0613 27.5725 26.1126C27.5513 26.1639 27.5202 26.2104 27.4809 26.2497C27.4417 26.2889 27.3951 26.32 27.3438 26.3413C27.2926 26.3625 27.2376 26.3734 27.1821 26.3734ZM26.3342 25.2318C26.2221 25.2318 26.1146 25.1873 26.0354 25.1081C25.9562 25.0288 25.9116 24.9214 25.9116 24.8093V24.8014C25.9116 24.6894 25.9562 24.5819 26.0354 24.5027C26.1146 24.4234 26.2221 24.3789 26.3342 24.3789C26.4462 24.3789 26.5537 24.4234 26.6329 24.5027C26.7122 24.5819 26.7567 24.6894 26.7567 24.8014V24.8093C26.7567 24.8648 26.7458 24.9197 26.7245 24.971C26.7033 25.0223 26.6722 25.0688 26.6329 25.1081C26.5937 25.1473 26.5471 25.1784 26.4959 25.1997C26.4446 25.2209 26.3897 25.2318 26.3342 25.2318ZM25.8249 26.4788C25.7128 26.4788 25.6053 26.4343 25.5261 26.355C25.4469 26.2758 25.4023 26.1683 25.4023 26.0563V26.0484C25.4023 25.9363 25.4469 25.8289 25.5261 25.7496C25.6053 25.6704 25.7128 25.6259 25.8249 25.6259C25.9369 25.6259 26.0444 25.6704 26.1236 25.7496C26.2029 25.8289 26.2474 25.9363 26.2474 26.0484V26.0563C26.2474 26.1683 26.2029 26.2758 26.1236 26.355C26.0444 26.4343 25.9369 26.4788 25.8249 26.4788ZM33.8197 26.3734C33.7642 26.3734 33.7093 26.3625 33.658 26.3413C33.6068 26.32 33.5602 26.2889 33.521 26.2497C33.4817 26.2104 33.4506 26.1639 33.4294 26.1126C33.4081 26.0613 33.3972 26.0064 33.3972 25.9509V25.943C33.3972 25.831 33.4417 25.7235 33.521 25.6443C33.6002 25.565 33.7077 25.5205 33.8197 25.5205C33.9318 25.5205 34.0393 25.565 34.1185 25.6443C34.1977 25.7235 34.2422 25.831 34.2422 25.943V25.9509C34.2423 26.0064 34.2313 26.0613 34.2101 26.1126C34.1889 26.1639 34.1578 26.2104 34.1185 26.2497C34.0793 26.2889 34.0327 26.32 33.9814 26.3413C33.9302 26.3625 33.8752 26.3734 33.8197 26.3734ZM34.6677 25.2318C34.6122 25.2318 34.5573 25.2209 34.506 25.1997C34.4548 25.1784 34.4082 25.1473 34.3689 25.1081C34.3297 25.0688 34.2986 25.0223 34.2773 24.971C34.2561 24.9197 34.2452 24.8648 34.2452 24.8093V24.8014C34.2452 24.6894 34.2897 24.5819 34.369 24.5027C34.4482 24.4234 34.5557 24.3789 34.6677 24.3789C34.7798 24.3789 34.8872 24.4234 34.9665 24.5027C35.0457 24.5819 35.0902 24.6894 35.0902 24.8014V24.8093C35.0902 24.8648 35.0793 24.9197 35.0581 24.971C35.0369 25.0223 35.0057 25.0688 34.9665 25.1081C34.9273 25.1473 34.8807 25.1784 34.8294 25.1997C34.7782 25.2209 34.7232 25.2318 34.6677 25.2318ZM35.1771 26.4788C35.1216 26.4788 35.0666 26.4679 35.0154 26.4466C34.9641 26.4254 34.9175 26.3943 34.8783 26.3551C34.8391 26.3158 34.8079 26.2692 34.7867 26.218C34.7655 26.1667 34.7546 26.1118 34.7546 26.0563V26.0484C34.7546 25.9363 34.7991 25.8289 34.8783 25.7496C34.9576 25.6704 35.065 25.6259 35.1771 25.6259C35.2891 25.6259 35.3966 25.6704 35.4758 25.7496C35.5551 25.8289 35.5996 25.9363 35.5996 26.0484V26.0563C35.5996 26.1118 35.5887 26.1667 35.5674 26.218C35.5462 26.2692 35.5151 26.3158 35.4759 26.3551C35.4366 26.3943 35.39 26.4254 35.3388 26.4466C35.2875 26.4679 35.2326 26.4788 35.1771 26.4788Z" fill="#5A5A5A"/>
</g>
</g>
<defs>
<clipPath id="clip0_1151_17124">
<rect width="60" height="60" fill="white" transform="translate(0.5 -0.00195312)"/>
</clipPath>
<clipPath id="clip1_1151_17124">
<rect width="28" height="28" fill="white" transform="translate(16.5 6.99805)"/>
</clipPath>
</defs>
</svg>
