<svg width="61" height="60" viewBox="0 0 61 60" fill="none" xmlns="http://www.w3.org/2000/svg">
<g clip-path="url(#clip0_1151_17338)">
<path d="M55.8125 -0.00195312H38.9376L14.5625 35.6229H31.4374L55.8125 -0.00195312Z" fill="#BF392C"/>
<path d="M5.1875 -0.00195312H22.0624L46.4373 35.6229H29.5624L5.1875 -0.00195312Z" fill="#E2574C"/>
<path d="M31.4375 18.748C42.875 18.748 52.0625 27.9356 52.0625 39.3731C52.0625 50.8105 42.875 59.9981 31.4375 59.9981C20.0001 59.9981 10.8125 50.8105 10.8125 39.3731C10.8125 27.9356 20.0001 18.748 31.4375 18.748Z" fill="#EFD2C2"/>
<path d="M31.4376 24.373C23.1876 24.373 16.4375 31.123 16.4375 39.3731C16.4375 47.6232 23.1874 54.3731 31.4376 54.3731C39.6877 54.3731 46.4376 47.6232 46.4376 39.3731C46.4376 31.123 39.6875 24.373 31.4376 24.373ZM31.4376 50.623C25.25 50.623 20.1876 45.5604 20.1876 39.3731C20.1876 33.1857 25.2502 28.1232 31.4376 28.1232C37.6249 28.1232 42.6875 33.1857 42.6875 39.3731C42.6875 45.5604 37.6249 50.623 31.4376 50.623Z" fill="#CC987B"/>
<g clip-path="url(#clip1_1151_17338)">
<path d="M26.7188 28.9043C26.7188 28.9043 23 26.248 21.9375 22.5293C21.9375 22.5293 18.2188 25.7168 18.2188 28.9043C18.2188 30.498 18.7325 32.8988 20.3438 34.2168L26.7188 28.9043Z" fill="#B3714B"/>
<path d="M20.8745 31.5605C20.8745 31.5605 19.2808 27.8418 21.4058 26.248L23.5308 29.4355L20.8745 31.5605Z" fill="#F59DAA"/>
<path d="M36.2812 28.9043C36.2812 28.9043 40 26.248 41.0625 22.5293C41.0625 22.5293 44.7812 25.7168 44.7812 28.9043C44.7812 30.498 44.2675 32.8988 42.6562 34.2168L36.2812 28.9043Z" fill="#B3714B"/>
<path d="M42.125 31.5605C42.125 31.5605 43.7188 27.8418 41.5938 26.248L39.4688 29.4355L42.125 31.5605Z" fill="#F59DAA"/>
<path d="M31.5 53.3418C33.625 53.3418 44.7812 49.623 44.7812 36.873C44.7812 29.9668 37.3438 26.7793 31.5 26.7793C25.6562 26.7793 18.2188 29.9668 18.2188 36.873C18.2188 49.623 29.375 53.3418 31.5 53.3418Z" fill="#A0623A"/>
<path d="M29.375 48.0293V53.3418C29.375 53.9054 29.5989 54.4459 29.9974 54.8444C30.3959 55.2429 30.9364 55.4668 31.5 55.4668C32.0636 55.4668 32.6041 55.2429 33.0026 54.8444C33.4011 54.4459 33.625 53.9054 33.625 53.3418V48.0293H29.375Z" fill="#D95952"/>
<path d="M31.5 49.0918C31.5 49.0918 33.625 52.8105 36.2812 52.8105C38.9375 52.8105 41.0625 51.2168 41.0625 49.0918C41.0625 46.9668 41.0625 45.9043 37.875 43.7793C34.6875 41.6543 37.875 37.9355 31.5 37.9355C25.6562 37.9355 28.3125 41.6543 25.125 43.7793C21.9375 45.9043 21.9375 46.9668 21.9375 49.0918C21.9375 51.2168 24.0625 52.8105 26.7188 52.8105C29.375 52.8105 31.5 49.0918 31.5 49.0918Z" fill="#B3714B"/>
<path d="M26.1875 38.4668C27.0677 38.4668 27.7812 37.2776 27.7812 35.8105C27.7812 34.3435 27.0677 33.1543 26.1875 33.1543C25.3073 33.1543 24.5938 34.3435 24.5938 35.8105C24.5938 37.2776 25.3073 38.4668 26.1875 38.4668Z" fill="#333333"/>
<path d="M36.8125 38.4668C37.6927 38.4668 38.4062 37.2776 38.4062 35.8105C38.4062 34.3435 37.6927 33.1543 36.8125 33.1543C35.9323 33.1543 35.2188 34.3435 35.2188 35.8105C35.2188 37.2776 35.9323 38.4668 36.8125 38.4668Z" fill="#333333"/>
<path d="M31.5 53.873C31.3591 53.873 31.224 53.8171 31.1243 53.7174C31.0247 53.6178 30.9688 53.4827 30.9688 53.3418V51.2168C30.9688 51.0759 31.0247 50.9408 31.1243 50.8411C31.224 50.7415 31.3591 50.6855 31.5 50.6855C31.6409 50.6855 31.776 50.7415 31.8757 50.8411C31.9753 50.9408 32.0312 51.0759 32.0312 51.2168V53.3418C32.0312 53.4827 31.9753 53.6178 31.8757 53.7174C31.776 53.8171 31.6409 53.873 31.5 53.873Z" fill="#BB4449"/>
<path d="M24.0625 42.7168C23.9216 42.7168 23.7865 42.6608 23.6868 42.5612C23.5872 42.4616 23.5312 42.3264 23.5312 42.1855C23.5312 42.1069 23.5467 40.2555 24.8875 39.5824C24.95 39.5506 25.0182 39.5314 25.0881 39.5261C25.158 39.5207 25.2283 39.5292 25.2948 39.5512C25.3614 39.5731 25.423 39.608 25.4761 39.6538C25.5291 39.6997 25.5726 39.7556 25.6039 39.8183C25.6353 39.881 25.6539 39.9493 25.6587 40.0193C25.6635 40.0892 25.6544 40.1594 25.632 40.2258C25.6095 40.2923 25.5742 40.3536 25.5279 40.4063C25.4817 40.459 25.4254 40.502 25.3625 40.5328C24.623 40.9047 24.5938 42.1717 24.5938 42.1845C24.5939 42.2543 24.5803 42.3235 24.5536 42.3881C24.527 42.4527 24.4879 42.5114 24.4385 42.5608C24.3892 42.6103 24.3306 42.6495 24.266 42.6763C24.2015 42.703 24.1324 42.7168 24.0625 42.7168ZM38.9375 42.7168C38.7966 42.7168 38.6615 42.6608 38.5618 42.5612C38.4622 42.4616 38.4062 42.3264 38.4062 42.1855C38.4062 42.1611 38.3733 40.902 37.6375 40.5344C37.5114 40.4714 37.4155 40.3609 37.3709 40.2272C37.3262 40.0935 37.3366 39.9476 37.3995 39.8215C37.4625 39.6954 37.573 39.5995 37.7067 39.5548C37.8404 39.5102 37.9864 39.5205 38.1125 39.5835C39.4533 40.2555 39.4688 42.1075 39.4688 42.1855C39.4688 42.3264 39.4128 42.4616 39.3132 42.5612C39.2135 42.6608 39.0784 42.7168 38.9375 42.7168ZM31.5 33.1543C31.3591 33.1543 31.224 33.0983 31.1243 32.9987C31.0247 32.8991 30.9688 32.7639 30.9688 32.623V29.4355C30.9688 29.2947 31.0247 29.1595 31.1243 29.0599C31.224 28.9603 31.3591 28.9043 31.5 28.9043C31.6409 28.9043 31.776 28.9603 31.8757 29.0599C31.9753 29.1595 32.0312 29.2947 32.0312 29.4355V32.623C32.0312 32.7639 31.9753 32.8991 31.8757 32.9987C31.776 33.0983 31.6409 33.1543 31.5 33.1543ZM30.9688 49.8945C31.3066 49.4275 31.5 49.0918 31.5 49.0918C31.5 49.0918 31.6934 49.4275 32.0312 49.8945V42.7168H30.9688V49.8945Z" fill="#874F2A"/>
<path d="M27.7812 44.8418H28.8438V45.9043H27.7812V44.8418ZM25.6562 49.0918H26.7188V50.1543H25.6562V49.0918ZM27.7812 49.0918H28.8438V50.1543H27.7812V49.0918ZM24.5938 46.9668H25.6562V48.0293H24.5938V46.9668ZM26.7188 46.9668H27.7812V48.0293H26.7188V46.9668ZM34.1562 44.8418H35.2188V45.9043H34.1562V44.8418ZM34.1562 49.0918H35.2188V50.1543H34.1562V49.0918ZM36.2812 49.0918H37.3438V50.1543H36.2812V49.0918ZM35.2188 46.9668H36.2812V48.0293H35.2188V46.9668ZM37.3438 46.9668H38.4062V48.0293H37.3438V46.9668Z" fill="#A0623A"/>
<path d="M31.5 44.3105C29.9062 44.3105 29.375 42.7168 29.375 41.6543C29.375 40.5918 30.4375 40.0605 31.5 40.0605C32.5625 40.0605 33.625 40.5918 33.625 41.6543C33.625 42.7168 33.0938 44.3105 31.5 44.3105Z" fill="#333333"/>
</g>
</g>
<defs>
<clipPath id="clip0_1151_17338">
<rect width="60" height="60" fill="white" transform="translate(0.5 -0.00195312)"/>
</clipPath>
<clipPath id="clip1_1151_17338">
<rect width="34" height="34" fill="white" transform="translate(14.5 21.998)"/>
</clipPath>
</defs>
</svg>
