<svg width="61" height="60" viewBox="0 0 61 60" fill="none" xmlns="http://www.w3.org/2000/svg">
<g clip-path="url(#clip0_1151_17243)">
<path d="M55.8125 -0.00195312H38.9376L14.5625 35.6229H31.4374L55.8125 -0.00195312Z" fill="#BF392C"/>
<path d="M5.1875 -0.00195312H22.0624L46.4373 35.6229H29.5624L5.1875 -0.00195312Z" fill="#E2574C"/>
<path d="M31.4375 18.748C42.875 18.748 52.0625 27.9356 52.0625 39.3731C52.0625 50.8105 42.875 59.9981 31.4375 59.9981C20.0001 59.9981 10.8125 50.8105 10.8125 39.3731C10.8125 27.9356 20.0001 18.748 31.4375 18.748Z" fill="#E4E7E7"/>
<path d="M31.4376 24.373C23.1876 24.373 16.4375 31.123 16.4375 39.3731C16.4375 47.6232 23.1874 54.3731 31.4376 54.3731C39.6877 54.3731 46.4376 47.6232 46.4376 39.3731C46.4376 31.123 39.6875 24.373 31.4376 24.373ZM31.4376 50.623C25.25 50.623 20.1876 45.5604 20.1876 39.3731C20.1876 33.1857 25.2502 28.1232 31.4376 28.1232C37.6249 28.1232 42.6875 33.1857 42.6875 39.3731C42.6875 45.5604 37.6249 50.623 31.4376 50.623Z" fill="#CDCFCF"/>
<path d="M35.1029 46.3167H27.8981C23.987 46.3167 20.8164 43.1462 20.8164 39.235V33.192C20.8164 29.281 23.9869 26.1104 27.8981 26.1104H35.1029C39.014 26.1104 42.1846 29.2809 42.1846 33.192V39.235C42.1846 43.1461 39.014 46.3167 35.1029 46.3167Z" fill="#58595B"/>
<path d="M35.1029 26.1104H27.8981C23.987 26.1104 20.8164 29.2809 20.8164 33.192V39.235C20.8164 41.5284 21.9067 43.5671 23.5971 44.8612C24.5904 45.6217 25.1474 46.8219 25.1474 48.073C25.1474 49.5047 26.3081 50.6654 27.7398 50.6654H35.2611C36.6928 50.6654 37.8535 49.5047 37.8535 48.073C37.8535 46.8221 38.4105 45.6217 39.4038 44.8612C41.0942 43.5671 42.1845 41.5284 42.1845 39.235V33.192C42.1846 29.281 39.014 26.1104 35.1029 26.1104Z" fill="#995222"/>
<path d="M40.3624 37.7804C40.4675 37.1004 40.2508 36.4097 39.9541 35.7889C39.3428 34.51 38.3949 33.4301 37.3599 32.476C36.5397 31.72 35.5176 30.538 34.3145 31.2358C33.7658 31.554 33.3805 32.0847 32.9213 32.5222C32.5307 32.8942 32.0211 33.2134 31.4974 33.2125C30.9737 33.2135 30.4641 32.8944 30.0735 32.5222C29.6142 32.0847 29.229 31.554 28.6803 31.2358C27.4772 30.5379 26.455 31.72 25.6349 32.476C24.5999 33.4301 23.652 34.5099 23.0407 35.7889C22.7439 36.4098 22.5272 37.1004 22.6324 37.7804C22.7871 38.7813 23.5735 39.4788 24.0509 40.3244C24.4999 41.1198 24.3747 41.8809 24.0623 42.695C23.7302 43.5607 23.5096 44.4554 23.4616 45.3835C23.3746 47.0592 23.3638 49.053 24.1648 50.5895C24.5776 51.3812 25.3526 52.0365 26.2444 52.0802C26.7516 52.105 27.3005 51.8968 27.5465 51.4525C27.8225 50.9541 27.6604 50.3028 27.9261 49.7986C28.3052 49.0788 29.297 49.0267 30.1099 49.0596C30.5722 49.0784 31.0348 49.0926 31.4975 49.1043C31.9602 49.0928 32.4227 49.078 32.8851 49.0596C33.6981 49.0267 34.6897 49.0789 35.069 49.7986C35.3346 50.3028 35.1724 50.9541 35.4486 51.4525C35.6945 51.8968 36.2434 52.105 36.7507 52.0802C37.6425 52.0366 38.4175 51.3813 38.8302 50.5895C39.6314 49.053 39.6205 47.0592 39.5335 45.3835C39.4853 44.4553 39.2648 43.5605 38.9328 42.695C38.6204 41.8809 38.4951 41.1198 38.9442 40.3244C39.4212 39.4789 40.2076 38.7813 40.3624 37.7804Z" fill="#58595B"/>
<path d="M33.2355 40.1492H29.8555L31.0424 30.687C31.1414 29.8986 31.9497 29.8986 32.0485 30.687L33.2355 40.1492Z" fill="#F1F2F2"/>
<path d="M32.5016 39.6826H30.5918C27.2661 39.6826 24.5703 42.1673 24.5703 45.2323V48.1936C24.5703 48.71 24.6899 49.2193 24.9196 49.6818C25.1494 50.1442 25.4831 50.5471 25.8947 50.859C26.3062 51.1708 26.7844 51.3831 27.2917 51.4793C27.799 51.5754 28.3217 51.5528 28.8189 51.4131C29.6926 51.1682 30.7657 50.9174 31.4945 50.9174C32.1546 50.9174 33.0969 51.1231 33.9179 51.344C35.0298 51.6429 36.2169 51.357 37.0636 50.5766L37.4453 50.2247C37.7851 49.9116 38.0563 49.5314 38.2418 49.1082C38.4273 48.6849 38.5231 48.2278 38.5231 47.7657V45.2325C38.5231 42.1673 35.8272 39.6826 32.5016 39.6826Z" fill="#F1F2F2"/>
<path d="M36.2045 40.8604C36.8283 41.7347 37.1923 42.7804 37.1923 43.9049V46.4382C37.1923 46.9003 37.0965 47.3574 36.911 47.7806C36.7255 48.2039 36.4543 48.5841 36.1145 48.8972L35.7328 49.2491C34.8862 50.0293 33.6991 50.3154 32.5872 50.0164C31.7661 49.7957 30.8238 49.5899 30.1637 49.5899C29.435 49.5899 28.3619 49.8407 27.4881 50.0856C26.6471 50.3216 25.7472 50.2194 24.9805 49.8009C25.2254 50.2489 25.5697 50.6348 25.9869 50.929C26.393 51.2147 26.8576 51.4064 27.3469 51.4903C27.8363 51.5742 28.3382 51.5481 28.8162 51.4139C29.69 51.169 30.7631 50.9181 31.4919 50.9181C32.1519 50.9181 33.0943 51.1238 33.9153 51.3447C35.0272 51.6437 36.2143 51.3577 37.061 50.5773L37.4427 50.2255C37.7825 49.9123 38.0537 49.5321 38.2392 49.1089C38.4247 48.6857 38.5205 48.2286 38.5204 47.7665V45.2332C38.5204 43.4564 37.6136 41.8761 36.2045 40.8604Z" fill="#E6E7E8"/>
<path d="M36.5765 41.1504C37.3776 42.0928 37.8565 43.279 37.8565 44.569V47.1022C37.8565 47.5643 37.7607 48.0214 37.5752 48.4447C37.3897 48.8679 37.1185 49.2481 36.7788 49.5613L36.3971 49.9131C35.5504 50.6934 34.3633 50.9794 33.2514 50.6805C32.4303 50.4597 31.488 50.2539 30.828 50.2539C30.0992 50.2539 29.0261 50.5048 28.1523 50.7497C27.6743 50.8839 27.1724 50.91 26.683 50.8261C26.1936 50.7423 25.7291 50.5505 25.323 50.2648C25.2939 50.2443 25.2664 50.2224 25.2383 50.2012C25.4482 50.4815 25.7009 50.727 25.9871 50.9288C26.3931 51.2145 26.8577 51.4063 27.3471 51.4902C27.8365 51.574 28.3384 51.5479 28.8164 51.4137C29.6902 51.1688 30.7633 50.918 31.492 50.918C32.1521 50.918 33.0944 51.1237 33.9155 51.3445C35.0274 51.6435 36.2144 51.3576 37.0611 50.5772L37.4428 50.2253C37.7826 49.9122 38.0538 49.532 38.2393 49.1087C38.4248 48.6855 38.5206 48.2284 38.5206 47.7663V45.233C38.5206 43.618 37.7714 42.1645 36.5765 41.1504Z" fill="#D1D3D4"/>
<path d="M31.8948 46.7909V44.8594H31.0979V46.7909C29.1545 47.0325 27.6084 49.0219 27.4453 51.5037C27.7083 51.541 27.9756 51.5475 28.2423 51.5214C28.3998 49.3035 29.7989 47.5626 31.4965 47.5626C33.1783 47.5626 34.5671 49.2714 34.7459 51.4598C35.0134 51.4637 35.2791 51.4351 35.538 51.3766C35.3311 48.9542 33.8049 47.0283 31.8948 46.7909Z" fill="#D1D3D4"/>
<path d="M34.5917 42.5593C34.5917 44.2696 33.2053 45.656 31.4951 45.656C29.7849 45.656 28.3984 44.2696 28.3984 42.5593C28.3984 40.8491 29.7849 40.6289 31.4951 40.6289C33.2053 40.6289 34.5917 40.8491 34.5917 42.5593Z" fill="#414042"/>
<path d="M26.7532 37.5952C27.5208 37.5952 28.143 36.9729 28.143 36.2053C28.143 35.4377 27.5208 34.8154 26.7532 34.8154C25.9856 34.8154 25.3633 35.4377 25.3633 36.2053C25.3633 36.9729 25.9856 37.5952 26.7532 37.5952Z" fill="#414042"/>
<path d="M36.2454 37.8227C37.013 37.8227 37.6352 37.2005 37.6352 36.4329C37.6352 35.6652 37.013 35.043 36.2454 35.043C35.4777 35.043 34.8555 35.6652 34.8555 36.4329C34.8555 37.2005 35.4777 37.8227 36.2454 37.8227Z" fill="#414042"/>
<path d="M24.1763 28.9937C24.1942 28.912 24.2131 28.8306 24.2331 28.7495C24.4284 27.9618 24.7709 27.1667 25.3933 26.6565C25.4631 26.5992 25.4579 26.4909 25.385 26.4373C24.6696 25.9113 23.6909 25.8133 22.814 25.9955C21.8765 26.1903 21.0245 26.665 20.1894 27.1331L17.6924 28.5329C17.1386 28.8434 16.1779 29.2781 16.1779 30.056C16.119 30.4411 16.1905 30.8332 16.27 31.2147C16.9221 34.3451 18.1151 37.3329 19.3073 40.2999C19.4879 40.7495 19.7471 41.2671 20.2719 41.2657C20.4368 41.2653 20.5974 41.2042 20.7301 41.1065C21.0557 40.8666 21.1944 40.4892 21.2895 40.1154C21.7073 38.474 21.4154 36.7035 21.9142 35.0849C22.3253 33.7509 23.2442 32.6214 23.6789 31.295C23.9237 30.5486 24.008 29.761 24.1763 28.9937Z" fill="#414042"/>
<path d="M20.0465 40.2676C19.9377 40.2676 19.8406 40.2025 19.8008 40.1016L19.7901 40.075C18.636 37.201 17.4407 34.2286 16.7899 31.1062C16.7421 30.8738 16.6875 30.6108 16.6875 30.3531C16.6875 30.2735 16.6928 30.2017 16.7034 30.1367L16.7101 30.0556C16.7182 29.8737 16.8058 29.7767 16.8829 29.6904L16.8895 29.6838C16.9639 29.6067 17.0542 29.5337 17.1817 29.446C17.3876 29.3039 17.6186 29.1778 17.7581 29.1034L17.7687 29.0967C17.827 29.0649 17.8948 29.029 17.952 28.9958L20.4673 27.5867C20.81 27.3941 21.1633 27.1962 21.526 27.0196C21.656 26.9571 21.818 27.0142 21.8819 27.1431C21.8971 27.1745 21.906 27.2085 21.908 27.2434C21.9101 27.2782 21.9052 27.3131 21.8937 27.346C21.8823 27.3789 21.8644 27.4093 21.8412 27.4353C21.818 27.4613 21.7898 27.4825 21.7584 27.4977C21.4091 27.6677 21.0544 27.8669 20.7119 28.0581L20.7091 28.0595L18.2122 29.4593C18.163 29.4872 18.1139 29.5138 18.0606 29.543L18.0223 29.5642C17.908 29.6267 17.7153 29.7303 17.5493 29.8392C17.4059 29.9268 17.2744 30.041 17.2399 30.0862L17.2372 30.1553L17.2279 30.219C17.2213 30.2562 17.2186 30.3 17.2186 30.3531C17.2186 30.5324 17.2624 30.7689 17.3103 30.9973C17.9517 34.0759 19.1417 37.0376 20.2919 39.9024C20.2932 39.9024 20.2932 39.9024 20.2932 39.9037C20.3477 40.0392 20.2813 40.1946 20.1458 40.249C20.1142 40.2623 20.081 40.2676 20.0465 40.2676ZM22.627 27.1298C22.5115 27.1298 22.4065 27.0514 22.3733 26.9399C22.3534 26.8721 22.3599 26.8004 22.3946 26.738C22.4278 26.6756 22.4836 26.6291 22.5513 26.6092C22.6894 26.568 22.842 26.6517 22.882 26.7885C22.9018 26.8562 22.8953 26.9279 22.8621 26.9903C22.8276 27.0528 22.7718 27.0979 22.7042 27.1178C22.6788 27.1258 22.6534 27.1298 22.627 27.1298Z" fill="#58595B"/>
<path d="M38.8212 28.9937C38.8033 28.9121 38.7844 28.8306 38.7643 28.7495C38.5691 27.9618 38.2266 27.1667 37.6042 26.6565C37.5344 26.5992 37.5395 26.4909 37.6125 26.4373C38.3279 25.9113 39.3066 25.8133 40.1836 25.9955C41.1211 26.1903 41.9731 26.665 42.8082 27.1331L45.3052 28.5329C45.8591 28.8434 46.8197 29.2781 46.8197 30.056C46.8787 30.4411 46.8071 30.8332 46.7277 31.2147C46.0755 34.3451 44.8825 37.3329 43.6904 40.2999C43.5097 40.7495 43.2505 41.2671 42.7257 41.2657C42.5608 41.2653 42.4002 41.2042 42.2675 41.1065C41.9419 40.8666 41.8032 40.4892 41.7081 40.1154C41.2903 38.474 41.5822 36.7035 41.0834 35.0849C40.6723 33.7509 39.7534 32.6214 39.3187 31.295C39.0738 30.5486 38.9895 29.761 38.8212 28.9937Z" fill="#414042"/>
</g>
<defs>
<clipPath id="clip0_1151_17243">
<rect width="60" height="60" fill="white" transform="translate(0.5 -0.00195312)"/>
</clipPath>
</defs>
</svg>
