<svg width="61" height="60" viewBox="0 0 61 60" fill="none" xmlns="http://www.w3.org/2000/svg">
<g clip-path="url(#clip0_1151_17171)">
<path d="M54.5352 7.13476L31.0039 0.0683516C30.6745 -0.025388 30.3255 -0.025388 29.9961 0.0683516L6.46484 7.13476C6.10308 7.24534 5.7862 7.4688 5.56057 7.77244C5.33495 8.07609 5.21243 8.44397 5.21094 8.82226V34.709C5.21094 38.0723 6.57031 41.5176 9.26562 44.9512C11.3164 47.5762 14.1641 50.2012 17.7031 52.7676C21.5072 55.4889 25.5513 57.8581 29.7852 59.8457C30.0098 59.9467 30.2537 59.9979 30.5 59.9957C30.7466 59.9984 30.9907 59.9463 31.2148 59.8434C31.4609 59.7379 37.332 57.0894 43.2969 52.7652C46.8477 50.1988 49.6836 47.5621 51.7344 44.9488C54.418 41.5152 55.7891 38.0699 55.7891 34.7066V8.8082C55.789 8.4312 55.6668 8.06436 55.4408 7.76267C55.2147 7.46097 54.897 7.24066 54.5352 7.13476ZM52.2969 34.709H52.2734C52.2734 38.3652 50.0234 41.8809 47.1289 44.8926C45.3008 46.791 43.2148 48.4902 41.2812 49.8965C39.4895 51.1937 37.6895 52.3422 36.0617 53.3066L35.9621 53.3652C33.5469 54.7937 31.523 55.8121 30.5 56.3066H30.4883C28.7539 55.4746 24.207 53.1543 19.7188 49.9082C14.8566 46.3867 9.09102 41.0254 8.74414 35.2691C8.73242 35.0875 8.72656 34.9059 8.72656 34.723V10.123L30.5 3.5957H30.5117L37.5312 5.70507L52.2969 10.1348V34.709Z" fill="#FFEBD2"/>
<path d="M52.5938 9.85332V34.7768H52.582C52.582 38.4846 50.2992 42.0506 47.3637 45.1045C45.5098 47.0299 43.3945 48.7537 41.434 50.1799C39.6164 51.4959 37.7906 52.6596 36.1395 53.6381L36.0387 53.6978C33.5859 55.1393 31.5316 56.1682 30.4875 56.6686C28.7297 55.8248 24.1172 53.4717 19.5645 50.1799C14.6426 46.6104 8.79492 41.1775 8.43164 35.3428C8.41992 35.1576 8.41406 34.9736 8.41406 34.7885V9.83926L30.4992 3.22168L37.6184 5.36152L52.5938 9.85332Z" fill="#D7AF9B"/>
<path d="M52.5931 9.81523V34.7387H52.5825C52.5825 38.4465 50.2997 42.0125 47.363 45.0664C47.2224 45.2141 47.0771 45.3605 46.9318 45.5059C46.8579 45.582 46.7818 45.657 46.7044 45.732L46.6142 45.8211C46.5075 45.9242 46.4032 46.0262 46.2954 46.127C46.1876 46.2277 46.0611 46.3531 45.9439 46.4645L45.5665 46.809C45.4423 46.9215 45.3181 47.0324 45.1939 47.1418C45.0696 47.2512 44.9462 47.3563 44.8236 47.457C44.4431 47.7875 44.0599 48.1082 43.6739 48.4191C43.5568 48.5187 43.4278 48.6184 43.3048 48.7156C43.0857 48.8902 42.8665 49.0602 42.6509 49.2277L42.1446 49.3063L41.6607 48.0523C36.4008 34.403 34.8179 19.6115 37.0704 5.1582L37.6165 5.32227L52.5931 9.81523Z" fill="#C19E8C"/>
<g clip-path="url(#clip1_1151_17171)">
<path d="M47.0251 25.9997C47.0184 26.0043 45.9043 26.7944 45.9043 27.7718C45.9043 29.3586 44.6886 31.6028 42.7392 31.9686C42.0337 33.7562 40.7811 34.2824 40.5382 35.0129C40.3085 35.702 39.5808 36.7491 35.9277 37.8825C33.9478 38.4973 31.7162 38.9262 30.5005 38.9262C29.2848 38.9262 27.0533 38.4973 25.0733 37.8825C21.4203 36.7491 20.6926 35.702 20.4628 35.0129C20.2205 34.284 18.9667 33.7546 18.2618 31.9686C16.3124 31.6028 15.0967 29.3586 15.0967 27.7718C15.0967 26.7944 13.9826 26.0043 13.9713 25.9963C13.5411 25.7168 13.3877 25.181 13.5849 24.7076C14.4315 22.6716 16.736 17.7968 18.8707 16.7295C20.3778 15.9759 22.4149 16.0801 23.9599 16.3325C26.8223 15.2984 34.0979 15.2691 37.0411 16.3325C38.5862 16.0801 40.6232 15.9766 42.1297 16.7295C44.2576 17.7928 46.5791 22.6946 47.4161 24.7076C47.6133 25.181 47.4546 25.7208 47.0251 25.9997Z" fill="#A07765"/>
<path d="M43.2498 28.8328C43.2498 33.3273 40.8774 33.9958 40.5396 35.0116C40.3098 35.7008 39.5821 36.7479 35.929 37.8812C33.9491 38.496 31.7176 38.925 30.5019 38.925C29.2862 38.925 27.0546 38.496 25.0747 37.8812C21.4216 36.7479 20.6939 35.7008 20.4642 35.0116C20.1195 33.9751 17.7539 33.3653 17.7539 28.8328C17.7539 24.2782 21.0739 18.0835 23.0071 16.7946C24.7931 15.6082 28.894 15.5537 31.033 15.5537C32.8626 15.5537 36.4631 15.7723 37.9953 16.794C39.9441 18.0928 43.2498 24.2954 43.2498 28.8328Z" fill="#FFDFBA"/>
<path d="M42.9871 26.4097C42.4827 28.6735 40.7936 29.4605 40.5371 30.2321C40.3074 30.9213 39.5797 31.9684 35.9266 33.1017C33.9467 33.7166 31.7151 34.1455 30.4994 34.1455C29.2837 34.1455 27.0521 33.7166 25.0722 33.1017C21.4191 31.9684 20.6914 30.9213 20.4617 30.2321C20.2016 29.45 18.5157 28.6714 18.0117 26.4097C18.7811 22.5824 21.267 17.9541 23.0047 16.7956C25.6086 15.0658 35.5683 15.1783 37.9928 16.795C39.7384 17.9583 42.2196 22.592 42.9871 26.4097Z" fill="#FFEBD2"/>
<path d="M36.7847 37.2371C36.6645 37.5073 36.4328 37.7218 36.138 37.8161C34.1288 38.4588 31.7592 38.9249 30.503 38.9249C29.2468 38.9249 26.8771 38.4588 24.868 37.8161C24.7255 37.7706 24.5942 37.6955 24.4827 37.5957C24.3713 37.496 24.2822 37.3737 24.2213 37.2371C22.957 34.7802 21.4301 30.561 23.3781 28.613C24.8342 27.1532 26.0497 25.4558 28.2362 25.1591C28.8489 25.0766 29.4049 25.5327 29.44 26.1537C29.4891 26.3197 29.9101 26.7081 30.503 26.7081C31.0959 26.7081 31.5168 26.3197 31.566 26.1537C31.6012 25.5315 32.1582 25.0768 32.7697 25.1591C34.9519 25.4552 36.1596 27.1409 37.6279 28.613C39.5778 30.5629 38.0452 34.7875 36.7847 37.2371Z" fill="#A07765"/>
<path d="M38.4147 30.0298C38.1396 31.5123 37.4478 33.2836 36.7801 34.5813C36.6599 34.8515 36.4282 35.0659 36.1334 35.1602C34.1242 35.8029 31.7546 36.269 30.4984 36.269C29.2422 36.269 26.8725 35.8029 24.8634 35.1602C24.7209 35.1148 24.5896 35.0397 24.4781 34.9399C24.3667 34.8401 24.2776 34.7179 24.2167 34.5813C23.5543 33.2941 22.8589 31.5216 22.582 30.0298C22.8444 29.0331 23.2609 28.7496 24.133 27.8229C25.2531 26.635 26.4117 25.4061 28.2316 25.1591C28.8443 25.0766 29.4003 25.5327 29.4354 26.1537C29.4845 26.3197 29.9055 26.7081 30.4984 26.7081C31.0913 26.7081 31.5122 26.3197 31.5614 26.1537C31.5966 25.5315 32.1536 25.0768 32.7651 25.1591C34.585 25.4061 35.7436 26.635 36.8637 27.8229C37.6944 28.7055 38.1472 29.0137 38.4147 30.0298Z" fill="#C79A83"/>
<path d="M23.3289 23.5225C22.2973 23.5225 21.4688 24.3581 21.4688 25.3815C21.4688 26.4083 22.3011 27.2406 23.3278 27.2406C24.3594 27.2406 25.188 26.405 25.188 25.3815C25.188 24.3548 24.3556 23.5225 23.3289 23.5225ZM37.6693 27.2406C38.7009 27.2406 39.5294 26.405 39.5294 25.3815C39.5294 24.3548 38.6971 23.5225 37.6703 23.5225C36.6388 23.5225 35.8102 24.3581 35.8102 25.3815C35.8102 26.4083 36.6425 27.2406 37.6693 27.2406Z" fill="#A07765"/>
<path d="M34.6272 32.6137C34.6583 32.5982 33.6085 30.5745 31.562 30.0336V27.7723C31.562 27.1856 31.0864 26.71 30.4997 26.71C29.913 26.71 29.4374 27.1856 29.4374 27.7723V30.0336C27.4053 30.5706 26.4102 32.5135 26.3625 32.6089L26.3722 32.6137C25.8904 33.3107 26.3856 34.2791 27.2463 34.2791C27.7149 34.2791 28.1119 33.9753 28.253 33.5542L28.2629 33.5591C28.0582 33.9641 28.894 32.0217 30.4997 32.0217C31.9257 32.0217 32.7316 33.5497 32.7396 33.5652C32.7355 33.5572 32.734 33.5603 32.7463 33.5542C32.8874 33.9753 33.2844 34.2791 33.753 34.2791C34.614 34.2791 35.1089 33.3106 34.6272 32.6137Z" fill="#999999"/>
<path d="M33.6865 26.1784C33.6865 27.6344 32.1083 28.8342 30.4995 28.8342C28.8681 28.8342 27.3125 27.6156 27.3125 26.1784C27.3125 25.1512 28.1497 24.0537 30.4995 24.0537C32.8492 24.0537 33.6865 25.1512 33.6865 26.1784Z" fill="#818182"/>
</g>
</g>
<defs>
<clipPath id="clip0_1151_17171">
<rect width="60" height="60" fill="white" transform="translate(0.5 -0.00195312)"/>
</clipPath>
<clipPath id="clip1_1151_17171">
<rect width="34" height="34" fill="white" transform="translate(13.5 10.2324)"/>
</clipPath>
</defs>
</svg>
