<svg width="61" height="60" viewBox="0 0 61 60" fill="none" xmlns="http://www.w3.org/2000/svg">
<path d="M32.8634 17.8233L41.6094 13.7027C41.9318 13.5507 42.2044 13.3103 42.3953 13.0093C42.5861 12.7083 42.6875 12.3593 42.6875 12.0029V2.22449C42.6875 1.91371 42.564 1.61567 42.3442 1.39593C42.1245 1.17618 41.8264 1.05273 41.5156 1.05273H19.4844C19.1736 1.05273 18.8755 1.1762 18.6557 1.39597C18.436 1.61574 18.3125 1.91381 18.3125 2.22461V12.0029C18.3125 12.3593 18.4139 12.7083 18.6047 13.0093C18.7956 13.3103 19.0682 13.5507 19.3906 13.7027L28.1366 17.8233" fill="url(#paint0_linear_1151_17451)"/>
<path d="M28.1371 17.9407H32.864L37.4308 15.672V1.05297C32.8106 1.01359 28.1905 1.01359 23.5703 1.05297V15.6719L28.1371 17.9407Z" fill="url(#paint1_linear_1151_17451)"/>
<path d="M26.8672 22.4061V18.5857C26.8672 17.7241 27.2095 16.8977 27.8187 16.2885C28.428 15.6792 29.2543 15.3369 30.116 15.3369H30.884C31.7456 15.3369 32.5719 15.6792 33.1812 16.2885C33.7904 16.8978 34.1327 17.7241 34.1327 18.5857V22.406" fill="#494949"/>
<path d="M50.827 38.6176C50.827 41.1891 47.6997 43.1204 46.7725 45.3566C45.8112 47.6746 46.6206 51.2429 44.8737 52.9899C43.1268 54.737 39.5584 53.9274 37.2404 54.8887C35.0042 55.8159 33.0729 58.9432 30.5014 58.9432C27.9298 58.9432 25.9986 55.8159 23.7624 54.8887C21.4443 53.9274 17.8761 54.7368 16.129 52.9899C14.382 51.243 15.1915 47.6746 14.2302 45.3566C13.303 43.1204 10.1758 41.1891 10.1758 38.6176C10.1758 36.046 13.303 34.1148 14.2302 31.8786C15.1915 29.5605 14.3821 25.9923 16.129 24.2452C17.8759 22.4982 21.4443 23.3077 23.7624 22.3464C25.9986 21.4193 27.9298 18.292 30.5014 18.292C33.0729 18.292 35.0042 21.4193 37.2404 22.3464C39.5584 23.3077 43.1267 22.4983 44.8737 24.2452C46.6207 25.9921 45.8112 29.5605 46.7725 31.8786C47.6997 34.1148 50.827 36.046 50.827 38.6176Z" fill="#F0C7BD"/>
<path d="M30.5002 55.6956C39.9322 55.6956 47.5784 48.0494 47.5784 38.6173C47.5784 29.1853 39.9322 21.5391 30.5002 21.5391C21.0681 21.5391 13.4219 29.1853 13.4219 38.6173C13.4219 48.0494 21.0681 55.6956 30.5002 55.6956Z" fill="#CA9283"/>
<path d="M30.5002 54.2602C39.1384 54.2602 46.1411 47.2575 46.1411 38.6194C46.1411 29.9812 39.1384 22.9785 30.5002 22.9785C21.862 22.9785 14.8594 29.9812 14.8594 38.6194C14.8594 47.2575 21.862 54.2602 30.5002 54.2602Z" fill="url(#paint2_linear_1151_17451)"/>
<path d="M27.5169 34.5999L24.7378 29.597C24.3312 28.8653 23.8247 28.1939 23.2329 27.602C23.159 27.5281 23.0713 27.4696 22.9748 27.4296C22.8783 27.3896 22.7748 27.3691 22.6704 27.3691C22.4595 27.3692 22.2572 27.4531 22.1081 27.6022C21.9589 27.7514 21.8751 27.9536 21.875 28.1645C21.875 28.6278 21.9829 29.0847 22.19 29.4991C22.7228 30.5645 23.0001 31.7393 23 32.9304V35.4635C23 36.065 23.0738 36.6642 23.2198 37.2478C23.4836 38.3034 24.0672 39.2516 24.8908 39.9628" fill="#895442"/>
<path d="M24.7367 29.597C24.3302 28.8653 23.8237 28.1939 23.2318 27.602C23.158 27.5281 23.0703 27.4695 22.9738 27.4295C22.8773 27.3896 22.7738 27.3691 22.6693 27.3691C22.5436 27.37 22.4199 27.401 22.3086 27.4595C24.0255 30.0556 25.2862 32.9259 26.0365 35.9465L26.3327 37.0186L27.5173 34.5999L24.7367 29.597Z" fill="#353535"/>
<path d="M33.4844 34.5999L36.2635 29.597C36.67 28.8653 37.1765 28.1939 37.7684 27.602C37.8422 27.5281 37.9299 27.4696 38.0264 27.4296C38.123 27.3896 38.2264 27.3691 38.3309 27.3691C38.5418 27.3692 38.744 27.4531 38.8932 27.6022C39.0423 27.7514 39.1262 27.9536 39.1262 28.1645C39.1262 28.6278 39.0184 29.0847 38.8112 29.4991C38.2785 30.5645 38.0011 31.7393 38.0012 32.9304V35.4635C38.0012 36.065 37.9274 36.6642 37.7815 37.2478C37.5176 38.3034 36.934 39.2516 36.1105 39.9628" fill="#895442"/>
<path d="M38.6916 27.4595C38.5803 27.401 38.4566 27.37 38.3309 27.3691C38.2264 27.3691 38.1229 27.3896 38.0264 27.4295C37.9299 27.4695 37.8422 27.5281 37.7684 27.602C37.1765 28.1939 36.67 28.8653 36.2635 29.597L33.4844 34.5999L34.6934 37.0689L34.9652 35.9465C35.715 32.926 36.9753 30.0557 38.6916 27.4595Z" fill="#353535"/>
<path d="M31.6316 49.2961C31.5015 49.4737 31.3313 49.6182 31.135 49.7177C30.9386 49.8173 30.7215 49.8692 30.5013 49.8691C30.2812 49.8692 30.0641 49.8173 29.8677 49.7177C29.6714 49.6182 29.5012 49.4737 29.3711 49.2961L30.5013 47.9941L31.6316 49.2961Z" fill="#5A361F"/>
<path d="M30.5 47.9941L31.175 48.8941C31.3147 49.0804 31.4959 49.2316 31.7042 49.3358C31.9125 49.4399 32.1421 49.4941 32.375 49.4941C32.7728 49.4941 33.1544 49.3361 33.4357 49.0548C33.717 48.7735 33.875 48.392 33.875 47.9941V47.6863C33.875 46.9124 34.126 46.1595 34.5905 45.5405C34.8611 45.1795 35.0609 44.7705 35.1796 44.3353L35.7305 42.3163C35.9923 41.3558 36.125 40.3647 36.125 39.3691C36.125 37.8773 35.5324 36.4466 34.4775 35.3917C33.4226 34.3368 31.9918 33.7441 30.5 33.7441C29.0082 33.7441 27.5774 34.3368 26.5225 35.3917C25.4676 36.4466 24.875 37.8773 24.875 39.3691C24.875 40.3647 25.0077 41.3558 25.2695 42.3163L25.8204 44.3353C25.9391 44.7705 26.1389 45.1795 26.4095 45.5405C26.874 46.1595 27.125 46.9124 27.125 47.6863V47.9941C27.125 48.392 27.283 48.7735 27.5643 49.0548C27.8456 49.3361 28.2272 49.4941 28.625 49.4941C28.8579 49.4941 29.0875 49.4399 29.2958 49.3358C29.5041 49.2316 29.6853 49.0804 29.825 48.8941L30.5 47.9941Z" fill="#353535"/>
<path d="M30.5 33.7441C29.1911 33.7423 27.9228 34.1988 26.9154 35.0345C26.0797 36.0419 25.6231 37.3102 25.625 38.6191C25.625 39.6147 25.7577 40.6058 26.0195 41.5663L26.5704 43.5853C26.6891 44.0206 26.8889 44.4295 27.1595 44.7905C27.624 45.4095 27.875 46.1624 27.875 46.9363V47.2441C27.8742 47.502 27.9402 47.7556 28.0664 47.9805C28.1926 48.2053 28.3748 48.3937 28.5953 48.5274C28.8157 48.6611 29.0671 48.7354 29.3248 48.7433C29.5825 48.7512 29.8379 48.6923 30.0661 48.5724L30.5 47.9941L31.175 48.8941C31.3639 49.146 31.6273 49.332 31.9278 49.4259C32.2283 49.5198 32.5507 49.5167 32.8493 49.4172C33.148 49.3176 33.4078 49.1266 33.5919 48.8712C33.7759 48.6158 33.875 48.309 33.875 47.9941V47.6863C33.875 46.9124 34.1261 46.1595 34.5905 45.5405C34.8611 45.1795 35.061 44.7706 35.1796 44.3353L35.7305 42.3163C35.9923 41.3558 36.125 40.3647 36.125 39.3691C36.125 37.8773 35.5324 36.4466 34.4775 35.3917C33.4226 34.3368 31.9918 33.7441 30.5 33.7441Z" fill="#494949"/>
<path d="M34.4329 44.9941C34.2687 44.9942 34.1083 44.945 33.9723 44.853C33.8364 44.7609 33.7311 44.6302 33.6702 44.4778L33.2723 43.4833C33.2308 43.3796 33.1603 43.2901 33.0692 43.2256C32.9781 43.1611 32.8702 43.1243 32.7587 43.1196C32.6471 43.115 32.5366 43.1427 32.4404 43.1995C32.3443 43.2562 32.2666 43.3395 32.2167 43.4394L31.8345 44.2033H29.169L28.7869 43.4394C28.737 43.3395 28.6593 43.2562 28.5631 43.1995C28.467 43.1427 28.3564 43.115 28.2449 43.1196C28.1333 43.1243 28.0255 43.1611 27.9344 43.2256C27.8432 43.2901 27.7727 43.3796 27.7313 43.4833L27.3334 44.4778C27.2912 44.5832 27.2276 44.6788 27.1466 44.7584C27.0655 44.8381 26.9689 44.9 26.8627 44.9404C26.7565 44.9808 26.6431 44.9987 26.5297 44.9931C26.4162 44.9874 26.3052 44.9583 26.2035 44.9075L25.9883 44.7999C26.0993 45.0627 26.2413 45.3114 26.4113 45.5405C26.8757 46.1595 27.1268 46.9124 27.1268 47.6863V47.9941C27.1268 48.309 27.2258 48.6158 27.4099 48.8712C27.594 49.1266 27.8538 49.3176 28.1524 49.4172C28.4511 49.5167 28.7735 49.5198 29.074 49.4259C29.3745 49.332 29.6379 49.146 29.8268 48.8941L30.5018 47.9941L31.1768 48.8941C31.3657 49.146 31.629 49.332 31.9295 49.4259C32.23 49.5198 32.5525 49.5167 32.8511 49.4172C33.1498 49.3176 33.4096 49.1266 33.5936 48.8712C33.7777 48.6158 33.8768 48.309 33.8768 47.9941V47.6863C33.8768 46.9124 34.1278 46.1595 34.5923 45.5405C34.7623 45.3114 34.9043 45.0627 35.0153 44.7999L34.8 44.9075C34.686 44.9645 34.5603 44.9942 34.4329 44.9941Z" fill="#895442"/>
<path d="M35.0143 44.7999L34.7991 44.9075C34.6975 44.9583 34.5864 44.9874 34.473 44.9931C34.3595 44.9987 34.2461 44.9808 34.1399 44.9404C34.0337 44.9 33.9371 44.8381 33.8561 44.7584C33.7751 44.6788 33.7114 44.5832 33.6692 44.4778L33.2713 43.4833C33.2299 43.3796 33.1594 43.2901 33.0683 43.2256C32.9771 43.1611 32.8693 43.1243 32.7577 43.1196C32.6462 43.115 32.5357 43.1427 32.4395 43.1995C32.3433 43.2562 32.2656 43.3395 32.2157 43.4394L31.8336 44.2033H29.1681L28.786 43.4394C28.7361 43.3395 28.6584 43.2562 28.5622 43.1995C28.466 43.1427 28.3555 43.115 28.244 43.1196C28.1324 43.1243 28.0246 43.1611 27.9334 43.2256C27.8423 43.2901 27.7718 43.3796 27.7303 43.4833L27.3325 44.4778C27.2875 44.583 27.2208 44.6776 27.1367 44.7553C27.145 44.7665 27.1521 44.7789 27.1603 44.7905C27.6248 45.4095 27.8759 46.1624 27.8758 46.9363V47.2441C27.8751 47.502 27.941 47.7556 28.0672 47.9805C28.1934 48.2053 28.3756 48.3937 28.5961 48.5274C28.8166 48.6611 29.0679 48.7355 29.3256 48.7433C29.5833 48.7512 29.8387 48.6923 30.067 48.5724L30.5008 47.9941L31.1758 48.8941C31.3647 49.146 31.6281 49.332 31.9286 49.4259C32.2291 49.5198 32.5515 49.5167 32.8502 49.4172C33.1489 49.3176 33.4086 49.1266 33.5927 48.8712C33.7768 48.6158 33.8758 48.309 33.8758 47.9941V47.6863C33.8758 46.9124 34.1269 46.1595 34.5913 45.5405C34.7613 45.3114 34.9034 45.0627 35.0143 44.7999Z" fill="#995F50"/>
<path d="M27.875 40.4941C28.2892 40.4941 28.625 40.1584 28.625 39.7441C28.625 39.3299 28.2892 38.9941 27.875 38.9941C27.4608 38.9941 27.125 39.3299 27.125 39.7441C27.125 40.1584 27.4608 40.4941 27.875 40.4941Z" fill="#353535"/>
<path d="M33.125 40.4941C33.5392 40.4941 33.875 40.1584 33.875 39.7441C33.875 39.3299 33.5392 38.9941 33.125 38.9941C32.7108 38.9941 32.375 39.3299 32.375 39.7441C32.375 40.1584 32.7108 40.4941 33.125 40.4941Z" fill="#353535"/>
<path d="M30.125 48.4936L30.5 47.9938L30.875 48.4936V46.4941H30.125V48.4936Z" fill="#75462E"/>
<path d="M32.375 44.9941C32.375 44.3728 31.5354 43.8691 30.5 43.8691C29.4646 43.8691 28.625 44.3728 28.625 44.9941C28.625 45.6155 29.4646 46.8691 30.5 46.8691C31.5354 46.8691 32.375 45.6155 32.375 44.9941Z" fill="#1E1E1E"/>
<path d="M27.875 39.7441C28.0821 39.7441 28.25 39.5762 28.25 39.3691C28.25 39.162 28.0821 38.9941 27.875 38.9941C27.6679 38.9941 27.5 39.162 27.5 39.3691C27.5 39.5762 27.6679 39.7441 27.875 39.7441Z" fill="white"/>
<path d="M33.125 39.7441C33.3321 39.7441 33.5 39.5762 33.5 39.3691C33.5 39.162 33.3321 38.9941 33.125 38.9941C32.9179 38.9941 32.75 39.162 32.75 39.3691C32.75 39.5762 32.9179 39.7441 33.125 39.7441Z" fill="white"/>
<defs>
<linearGradient id="paint0_linear_1151_17451" x1="14.2873" y1="25.716" x2="34.8586" y2="2.2818" gradientUnits="userSpaceOnUse">
<stop stop-color="#CE3A50"/>
<stop offset="0.999" stop-color="#D94452"/>
</linearGradient>
<linearGradient id="paint1_linear_1151_17451" x1="23.5703" y1="9.48203" x2="37.4308" y2="9.48203" gradientUnits="userSpaceOnUse">
<stop stop-color="#E5E5E5"/>
<stop offset="0.999" stop-color="#F4F6F8"/>
</linearGradient>
<linearGradient id="paint2_linear_1151_17451" x1="30.5002" y1="16.6147" x2="30.5002" y2="59.1376" gradientUnits="userSpaceOnUse">
<stop stop-color="#FEE0D9"/>
<stop offset="1" stop-color="#E78A72"/>
</linearGradient>
</defs>
</svg>
