<svg width="61" height="60" viewBox="0 0 61 60" fill="none" xmlns="http://www.w3.org/2000/svg">
<path d="M32.8634 17.8233L41.6094 13.7027C41.9318 13.5507 42.2044 13.3103 42.3953 13.0093C42.5861 12.7083 42.6875 12.3593 42.6875 12.0029V2.22449C42.6875 1.91371 42.564 1.61567 42.3442 1.39593C42.1245 1.17618 41.8264 1.05273 41.5156 1.05273H19.4844C19.1736 1.05273 18.8755 1.1762 18.6557 1.39597C18.436 1.61574 18.3125 1.91381 18.3125 2.22461V12.0029C18.3125 12.3593 18.4139 12.7083 18.6047 13.0093C18.7956 13.3103 19.0682 13.5507 19.3906 13.7027L28.1366 17.8233" fill="url(#paint0_linear_1151_17372)"/>
<path d="M28.1371 17.9407H32.864L37.4308 15.672V1.05297C32.8106 1.01359 28.1905 1.01359 23.5703 1.05297V15.6719L28.1371 17.9407Z" fill="url(#paint1_linear_1151_17372)"/>
<path d="M26.8672 22.4061V18.5857C26.8672 17.7241 27.2095 16.8977 27.8187 16.2885C28.428 15.6792 29.2543 15.3369 30.116 15.3369H30.884C31.7456 15.3369 32.5719 15.6792 33.1812 16.2885C33.7904 16.8978 34.1327 17.7241 34.1327 18.5857V22.406" fill="#838383"/>
<path d="M50.827 38.6176C50.827 41.1891 47.6997 43.1204 46.7725 45.3566C45.8112 47.6746 46.6206 51.2429 44.8737 52.9899C43.1268 54.737 39.5584 53.9274 37.2404 54.8887C35.0042 55.8159 33.0729 58.9432 30.5014 58.9432C27.9298 58.9432 25.9986 55.8159 23.7624 54.8887C21.4443 53.9274 17.8761 54.7368 16.129 52.9899C14.382 51.243 15.1915 47.6746 14.2302 45.3566C13.303 43.1204 10.1758 41.1891 10.1758 38.6176C10.1758 36.046 13.303 34.1148 14.2302 31.8786C15.1915 29.5605 14.3821 25.9923 16.129 24.2452C17.8759 22.4982 21.4443 23.3077 23.7624 22.3464C25.9986 21.4193 27.9298 18.292 30.5014 18.292C33.0729 18.292 35.0042 21.4193 37.2404 22.3464C39.5584 23.3077 43.1267 22.4983 44.8737 24.2452C46.6207 25.9921 45.8112 29.5605 46.7725 31.8786C47.6997 34.1148 50.827 36.046 50.827 38.6176Z" fill="url(#paint2_linear_1151_17372)"/>
<path d="M30.5041 55.4105C39.7787 55.4105 47.2972 47.8919 47.2972 38.6173C47.2972 29.3428 39.7787 21.8242 30.5041 21.8242C21.2295 21.8242 13.7109 29.3428 13.7109 38.6173C13.7109 47.8919 21.2295 55.4105 30.5041 55.4105Z" fill="url(#paint3_linear_1151_17372)"/>
<path d="M30.5008 53.9986C38.9947 53.9986 45.8805 47.1129 45.8805 38.6189C45.8805 30.125 38.9947 23.2393 30.5008 23.2393C22.0068 23.2393 15.1211 30.125 15.1211 38.6189C15.1211 47.1129 22.0068 53.9986 30.5008 53.9986Z" fill="url(#paint4_linear_1151_17372)"/>
<g clip-path="url(#clip0_1151_17372)">
<path d="M21.0898 31.7004L23.0475 41.7644L30.5001 44.1634L35.3063 42.3946L37.9521 41.4211L40.0151 31.428L35.2054 30.1865C34.8138 29.9605 34.3594 29.8311 33.8746 29.8311H27.1256C26.6407 29.8311 26.1863 29.9605 25.7947 30.1865L21.0898 31.7004Z" fill="#838383"/>
<path d="M35.3062 42.3946L37.952 41.4211L40.015 31.428L35.2053 30.1865C34.8137 29.9605 34.3593 29.8311 33.8744 29.8311H31.7656C34.3646 31.2788 36.5265 36.6346 35.3062 42.3946Z" fill="#5A5A5A"/>
<path d="M22.3251 41.8937C22.3053 42.5417 22.6202 43.1487 23.148 43.5249C24.2074 44.2797 24.8622 45.511 24.8622 46.8511V46.9916H36.1379V46.8511C36.1379 45.511 36.7922 44.2797 37.8517 43.5249C38.38 43.1487 38.6948 42.5417 38.6746 41.8937L38.6494 41.0684L37.9521 39.9326C37.3364 41.4364 36.4629 41.6624 35.5304 41.0669C35.316 40.9303 35.0982 40.7497 34.8795 40.5309H26.1207C24.9525 41.6986 23.8057 41.7826 23.0475 39.9326L22.3507 41.0684L22.3251 41.8937Z" fill="#DC8758"/>
<path d="M34.7506 46.9916H36.1394V46.8511C36.1394 45.511 36.7938 44.2797 37.8532 43.5249C38.3815 43.1487 38.6964 42.5417 38.6761 41.8937L38.651 41.0684L37.9537 39.9326C37.338 41.4364 36.4644 41.6624 35.532 41.0669C35.4284 41.8892 35.2616 42.7022 35.0331 43.4988C34.5947 45.0286 34.5512 46.1591 34.7506 46.9916Z" fill="#D77F4A"/>
<path d="M35.2385 30.2315L36.7055 32.1153C37.5367 33.1828 37.9137 34.5349 37.7548 35.8785L37.5747 37.404C37.4764 38.2378 37.5953 39.0828 37.9198 39.8571C38.2442 40.6315 38.7633 41.3088 39.4266 41.8234C39.5309 41.9046 39.6478 41.9403 39.7613 41.9403C40.0742 41.9403 40.3634 41.6655 40.3079 41.3043L40.2297 40.7987C40.1399 40.2157 40.1744 39.6202 40.3308 39.0514C40.4873 38.4826 40.7622 37.9533 41.1375 37.4981C42.0182 36.4298 42.4998 35.0885 42.4998 33.704C42.4998 33.1945 42.4341 32.6817 42.3008 32.1776C42.1866 31.7462 41.9695 31.3488 41.6682 31.0196C41.3674 30.6903 40.9913 30.4388 40.5721 30.2865L39.3185 29.8307L36.323 28.7413C35.4186 28.4124 34.6474 29.4719 35.2385 30.2315Z" fill="#9C9C9C"/>
<path d="M39.4275 41.8238C39.5318 41.9049 39.6486 41.9407 39.7621 41.9407C40.075 41.9407 40.3643 41.6659 40.3088 41.3047L40.2305 40.7991C40.1408 40.216 40.1752 39.6206 40.3317 39.0518C40.4881 38.483 40.7631 37.9536 41.1384 37.4985C42.019 36.4302 42.5006 35.0889 42.5006 33.7044C42.5006 33.1949 42.435 32.6821 42.3017 32.1779C42.1874 31.7465 41.9704 31.3492 41.6691 31.0199C41.3683 30.6907 40.9921 30.4391 40.5729 30.2869L39.3193 29.8311C39.9505 30.9847 40.6371 31.6713 40.8066 33.3373C41.1384 36.5988 37.4756 36.566 39.4275 41.8238Z" fill="#838383"/>
<path d="M20.4277 30.2864L24.6769 28.7413C25.5813 28.4124 26.3524 29.4721 25.7612 30.2315L24.2945 32.1153C23.4633 33.1829 23.0862 34.5349 23.2448 35.8786L23.4249 37.4042C23.5233 38.2379 23.4046 39.0829 23.0802 39.8572C22.7558 40.6315 22.2367 41.3088 21.5734 41.8234C21.1801 42.1284 20.6162 41.7965 20.6919 41.3046L20.7699 40.7987C20.8597 40.2157 20.8252 39.6203 20.6688 39.0515C20.5124 38.4827 20.2375 37.9533 19.8622 37.4982C19.2597 36.7675 18.8399 35.9038 18.6376 34.9785C18.4353 34.0533 18.4563 33.0932 18.699 32.1777C18.8133 31.7464 19.0302 31.3491 19.3312 31.0198C19.6322 30.6905 20.0084 30.4389 20.4277 30.2864Z" fill="#9C9C9C"/>
<path d="M27.4755 37.944C27.3794 37.944 27.2873 37.9059 27.2194 37.838C27.1514 37.77 27.1133 37.6779 27.1133 37.5819V36.4842C27.1133 36.3882 27.1514 36.2961 27.2194 36.2281C27.2873 36.1602 27.3794 36.1221 27.4755 36.1221C27.5715 36.1221 27.6636 36.1602 27.7315 36.2281C27.7995 36.2961 27.8376 36.3882 27.8376 36.4842V37.5819C27.8376 37.6779 27.7995 37.77 27.7315 37.838C27.6636 37.9059 27.5715 37.944 27.4755 37.944ZM33.5293 37.944C33.4332 37.944 33.3411 37.9059 33.2732 37.838C33.2053 37.77 33.1671 37.6779 33.1671 37.5819V36.4842C33.1671 36.2842 33.3292 36.1221 33.5293 36.1221C33.7294 36.1221 33.8915 36.2842 33.8915 36.4842V37.5819C33.8915 37.6779 33.8533 37.77 33.7854 37.838C33.7175 37.9059 33.6254 37.944 33.5293 37.944Z" fill="#444444"/>
<path d="M33.244 35.0692C33.9813 34.7896 34.441 34.1993 34.2709 33.7508C34.1008 33.3022 33.3652 33.1653 32.6279 33.4449C31.8906 33.7245 31.4309 34.3148 31.601 34.7634C31.7711 35.2119 32.5067 35.3489 33.244 35.0692Z" fill="#E8AD8C"/>
<path d="M29.3997 34.7674C29.5701 34.3189 29.1106 33.7284 28.3735 33.4484C27.6364 33.1684 26.9007 33.3049 26.7303 33.7534C26.56 34.2019 27.0194 34.7924 27.7566 35.0724C28.4937 35.3524 29.2293 35.2159 29.3997 34.7674Z" fill="#E8AD8C"/>
<path d="M27.5781 42.7168V47.6366C27.5781 48.2923 28.2479 48.7351 28.8515 48.4787L29.3383 48.2716C29.7584 48.093 30.2139 48.0137 30.6696 48.0398C31.0086 48.0591 31.3447 48.1359 31.6639 48.2716L32.1507 48.4787C32.7543 48.7351 33.4241 48.2923 33.4241 47.6366V42.7168H27.5781Z" fill="#DC8758"/>
<path d="M32.2183 43.668H28.9805V46.3778C29.3499 46.8004 29.8927 47.0669 30.4977 47.0669C31.1033 47.0669 31.6461 46.7999 32.0155 46.3774L32.2183 43.668Z" fill="#838383"/>
<path d="M30.668 48.0399C31.007 48.0592 31.3431 48.136 31.6623 48.2717L32.149 48.4789C32.7526 48.7353 33.4224 48.2925 33.4224 47.6367V44.9474L31.7651 44.5684C31.7651 44.5684 33.3244 46.9486 30.668 48.0399Z" fill="#D77F4A"/>
<path d="M36.1378 44.0797V47.4866C36.1378 48.3814 35.0996 48.8759 34.4047 48.3118L31.2625 45.7626C31.1091 45.6379 30.9743 45.4918 30.8622 45.329C30.6262 44.9855 30.5 44.5785 30.5 44.1618V38.4414C30.6217 38.4414 30.7424 38.4453 30.8622 38.4535C33.8078 38.6399 36.1378 41.0872 36.1378 44.0797Z" fill="#E8AD8C"/>
<path d="M30.5 38.4414V38.8166C32.6132 39.6303 34.1121 41.6797 34.1121 44.0797V47.4866C34.1121 47.6691 34.0691 47.8352 33.9938 47.9786L34.4052 48.3123C35.1001 48.8763 36.1383 48.3814 36.1383 47.4866V44.0797C36.1383 40.966 33.6142 38.4414 30.5 38.4414Z" fill="#E19974"/>
<path d="M30.5011 38.4414V44.1618C30.5011 44.5834 30.3722 44.9895 30.1389 45.329C30.0279 45.4903 29.8936 45.6366 29.7386 45.7626L26.5964 48.3118C25.9015 48.8759 24.8633 48.3814 24.8633 47.4866V44.0797C24.8633 41.0872 27.1933 38.6399 30.1389 38.4535C30.2587 38.4453 30.3794 38.4414 30.5011 38.4414Z" fill="#E8AD8C"/>
<path d="M30.8611 40.201V45.3288C30.6278 44.9894 30.37 44.9894 30.1367 45.3288V40.201C30.1367 40.0006 30.299 39.8389 30.4989 39.8389C30.6988 39.8389 30.8611 40.0006 30.8611 40.201Z" fill="#E19974"/>
<path d="M30.4994 38.4414H29.7881C28.8351 38.4414 28.0625 39.2139 28.0625 40.167C28.0625 40.8231 28.5667 41.3876 29.222 41.4185C29.9218 41.4514 30.4994 40.8938 30.4994 40.2014C30.4994 40.8939 31.077 41.4514 31.7768 41.4185C32.4321 41.3876 32.9363 40.8231 32.9363 40.167C32.9363 39.214 32.1637 38.4414 31.2107 38.4414H30.4994Z" fill="#5A5A5A"/>
<path d="M31.0726 41.235C31.2748 41.3619 31.5172 41.4306 31.7765 41.4185C32.432 41.3872 32.9359 40.8229 32.9359 40.1668C32.9359 39.6904 32.743 39.259 32.4309 38.947C32.1183 38.6349 31.6875 38.4414 31.2105 38.4414H29.9297C30.4061 38.4414 30.838 38.6348 31.1501 38.947C31.4622 39.259 31.6557 39.6904 31.6557 40.1668C31.6556 40.6102 31.4248 41.0124 31.0726 41.235Z" fill="#444444"/>
<path d="M27.6545 43.6651C27.5584 43.6651 27.4663 43.7032 27.3984 43.7711C27.3305 43.8391 27.2923 43.9312 27.2923 44.0272V44.034C27.2923 44.13 27.3305 44.2221 27.3984 44.29C27.4663 44.358 27.5584 44.3961 27.6545 44.3961C27.7505 44.3961 27.8427 44.358 27.9106 44.29C27.9785 44.2221 28.0166 44.13 28.0166 44.034V44.0272C28.0166 43.9312 27.9785 43.8391 27.9106 43.7711C27.8427 43.7032 27.7505 43.6651 27.6545 43.6651ZM26.9277 42.6865C26.8316 42.6865 26.7395 42.7247 26.6716 42.7926C26.6037 42.8605 26.5655 42.9526 26.5655 43.0487V43.0554C26.5655 43.1515 26.6037 43.2436 26.6716 43.3115C26.7395 43.3794 26.8316 43.4176 26.9277 43.4176C27.0237 43.4176 27.1158 43.3794 27.1838 43.3115C27.2517 43.2436 27.2898 43.1515 27.2898 43.0554V43.0487C27.2898 42.9526 27.2517 42.8605 27.1838 42.7926C27.1158 42.7247 27.0237 42.6865 26.9277 42.6865ZM26.4911 43.7554C26.395 43.7554 26.3029 43.7936 26.235 43.8615C26.1671 43.9294 26.1289 44.0215 26.1289 44.1176V44.1243C26.1289 44.2204 26.1671 44.3125 26.235 44.3804C26.3029 44.4483 26.395 44.4865 26.4911 44.4865C26.5871 44.4865 26.6793 44.4483 26.7472 44.3804C26.8151 44.3125 26.8533 44.2204 26.8533 44.1243V44.1176C26.8533 44.0215 26.8151 43.9294 26.7472 43.8615C26.6793 43.7936 26.5871 43.7554 26.4911 43.7554ZM33.3438 43.6651C33.2478 43.6651 33.1557 43.7032 33.0877 43.7711C33.0198 43.8391 32.9817 43.9312 32.9817 44.0272V44.034C32.9817 44.234 33.1438 44.3961 33.3438 44.3961C33.5439 44.3961 33.706 44.234 33.706 44.034V44.0272C33.706 43.9312 33.6678 43.8391 33.5999 43.7711C33.532 43.7032 33.4399 43.6651 33.3438 43.6651ZM34.4329 43.0555V43.0487C34.4329 42.8487 34.2707 42.6866 34.0707 42.6866C33.8706 42.6866 33.7085 42.8487 33.7085 43.0487V43.0555C33.7085 43.2555 33.8706 43.4176 34.0707 43.4176C34.2707 43.4176 34.4329 43.2555 34.4329 43.0555ZM34.5073 43.7554C34.4112 43.7554 34.3191 43.7936 34.2512 43.8615C34.1833 43.9294 34.1451 44.0215 34.1451 44.1176V44.1243C34.1451 44.3243 34.3072 44.4865 34.5073 44.4865C34.7073 44.4865 34.8694 44.3243 34.8694 44.1243V44.1176C34.8694 44.0215 34.8313 43.9294 34.7634 43.8615C34.6954 43.7936 34.6033 43.7554 34.5073 43.7554Z" fill="#5A5A5A"/>
</g>
<defs>
<linearGradient id="paint0_linear_1151_17372" x1="14.2873" y1="25.716" x2="34.8586" y2="2.2818" gradientUnits="userSpaceOnUse">
<stop stop-color="#CE3A50"/>
<stop offset="0.999" stop-color="#D94452"/>
</linearGradient>
<linearGradient id="paint1_linear_1151_17372" x1="23.5703" y1="9.48203" x2="37.4308" y2="9.48203" gradientUnits="userSpaceOnUse">
<stop stop-color="#E5E5E5"/>
<stop offset="0.999" stop-color="#F4F6F8"/>
</linearGradient>
<linearGradient id="paint2_linear_1151_17372" x1="43.5126" y1="25.6064" x2="11.7818" y2="57.3371" gradientUnits="userSpaceOnUse">
<stop offset="0.002" stop-color="#EAECEF"/>
<stop offset="1" stop-color="#CAD0D7"/>
</linearGradient>
<linearGradient id="paint3_linear_1151_17372" x1="62.2184" y1="4.18994" x2="19.8412" y2="50.1924" gradientUnits="userSpaceOnUse">
<stop offset="0.002" stop-color="#EAECEF"/>
<stop offset="1" stop-color="#CAD0D7"/>
</linearGradient>
<linearGradient id="paint4_linear_1151_17372" x1="30.5008" y1="13.4272" x2="30.5008" y2="60.3359" gradientUnits="userSpaceOnUse">
<stop stop-color="#E4E8EB"/>
<stop offset="1" stop-color="#A9B0BB"/>
</linearGradient>
<clipPath id="clip0_1151_17372">
<rect width="24" height="24" fill="white" transform="translate(18.5 26.6172)"/>
</clipPath>
</defs>
</svg>
