<svg width="32" height="32" viewBox="0 0 32 32" fill="none" xmlns="http://www.w3.org/2000/svg">
<rect width="32" height="32" rx="6" fill="#092522"/>
<g clip-path="url(#clip0_1151_19374)">
<path d="M15.168 10.168H16.8346" stroke="#FFC000" stroke-width="1.25" stroke-linecap="round" stroke-linejoin="round"/>
<path d="M21.8307 16C21.2749 20.4442 19.8866 22.6667 17.6641 22.6667H14.3307C12.1082 22.6667 10.7199 20.4442 10.1641 16" stroke="#FFC000" stroke-width="1.25" stroke-linecap="round" stroke-linejoin="round"/>
<path d="M15.168 19.332C15.168 19.8879 15.4455 20.1654 16.0013 20.1654C16.5571 20.1654 16.8346 19.8879 16.8346 19.332H15.168Z" stroke="#FFC000" stroke-width="1.25" stroke-linecap="round" stroke-linejoin="round"/>
<path d="M16 21V22.6667" stroke="#FFC000" stroke-width="1.25" stroke-linecap="round" stroke-linejoin="round"/>
<path d="M14.332 15.168V15.1763" stroke="#FFC000" stroke-width="1.25" stroke-linecap="round" stroke-linejoin="round"/>
<path d="M17.668 15.168V15.1763" stroke="#FFC000" stroke-width="1.25" stroke-linecap="round" stroke-linejoin="round"/>
<path d="M10.1663 9.33203L15.1663 10.1404L9.96793 15.7137C9.82191 15.8778 9.61805 15.9791 9.39904 15.9964C9.18003 16.0136 8.96284 15.9455 8.79293 15.8062C8.6777 15.7124 8.59108 15.5882 8.54291 15.4477C8.49474 15.3072 8.48695 15.1559 8.52043 15.0112L10.1663 9.33203Z" stroke="#FFC000" stroke-width="1.25" stroke-linecap="round" stroke-linejoin="round"/>
<path d="M21.832 9.33203L16.832 10.1404L22.0304 15.7137C22.3287 16.0537 22.8545 16.0954 23.2054 15.8062C23.3206 15.7124 23.4072 15.5882 23.4554 15.4477C23.5036 15.3072 23.5113 15.1559 23.4779 15.0112L21.832 9.33203Z" stroke="#FFC000" stroke-width="1.25" stroke-linecap="round" stroke-linejoin="round"/>
</g>
<defs>
<clipPath id="clip0_1151_19374">
<rect width="20" height="20" fill="white" transform="translate(6 6)"/>
</clipPath>
</defs>
</svg>
