<svg width="128" height="97" viewBox="0 0 128 97" fill="none" xmlns="http://www.w3.org/2000/svg">
<path d="M53.5385 29.3412L52.7027 28.7921L53.5385 29.3412ZM50.8462 61.896L50.0617 62.5162L50.8462 61.896ZM66.2308 58.408L67.2174 58.5712L66.2308 58.408ZM33.1538 52.9822L33.5732 53.89L33.5732 53.89L33.1538 52.9822ZM6.22325 96.6298C6.57109 97.0588 7.20083 97.1246 7.62981 96.7767L14.6205 91.1084C15.0495 90.7606 15.1153 90.1309 14.7675 89.7019C14.4196 89.2729 13.7899 89.2071 13.3609 89.5549L7.14693 94.5934L2.10843 88.3795C1.7606 87.9505 1.13086 87.8847 0.701875 88.2325C0.272889 88.5804 0.207104 89.2101 0.55494 89.6391L6.22325 96.6298ZM7.99459 96.1039C8.08449 95.2433 8.19196 94.3917 8.3161 93.5495L6.33748 93.2579C6.20927 94.1278 6.09826 95.0073 6.00541 95.8961L7.99459 96.1039ZM9.27994 88.4989C9.67879 86.8013 10.1439 85.1488 10.6665 83.5447L8.76494 82.9251C8.22519 84.5816 7.74489 86.2882 7.33295 88.0414L9.27994 88.4989ZM12.4637 78.7259C13.1431 77.1146 13.8784 75.5632 14.6591 74.0758L12.8882 73.1463C12.0818 74.6828 11.3223 76.285 10.6208 77.949L12.4637 78.7259ZM17.2411 69.6297C18.1917 68.1446 19.1833 66.7428 20.2013 65.4298L18.6207 64.2043C17.5657 65.5649 16.5395 67.0159 15.5566 68.5515L17.2411 69.6297ZM23.5353 61.5341C24.7687 60.2318 26.0155 59.0596 27.2524 58.0256L25.9697 56.4911C24.67 57.5776 23.3669 58.8033 22.0832 60.1588L23.5353 61.5341ZM31.3672 55.0655C32.1218 54.612 32.8591 54.2198 33.5732 53.89L32.7345 52.0743C31.9489 52.4372 31.1477 52.864 30.337 53.3512L31.3672 55.0655ZM33.5732 53.89C34.3495 53.5314 35.1087 53.1935 35.8512 52.8756L35.0639 51.037C34.3036 51.3626 33.5272 51.7082 32.7345 52.0743L33.5732 53.89ZM40.4737 51.0712C42.1556 50.4826 43.7353 50.0089 45.2173 49.6375L44.7311 47.6975C43.1854 48.0849 41.5475 48.5765 39.8131 49.1835L40.4737 51.0712ZM50.0277 48.7338C51.8279 48.5208 53.4359 48.4873 54.8665 48.5945L55.016 46.6001C53.4434 46.4823 51.706 46.5213 49.7927 46.7477L50.0277 48.7338ZM59.4677 49.5956C61.0995 50.2446 62.3309 51.1388 63.2313 52.1308L64.7122 50.7865C63.5987 49.5599 62.1103 48.4942 60.2068 47.7372L59.4677 49.5956ZM65.2101 56.079C65.3497 56.8576 65.3513 57.5972 65.2442 58.2448L67.2174 58.5712C67.3641 57.684 67.3559 56.7142 67.1787 55.7259L65.2101 56.079ZM65.2442 58.2448C65.1133 59.0358 64.8893 59.7461 64.5931 60.3774L66.4037 61.2269C66.7809 60.423 67.0578 59.536 67.2174 58.5712L65.2442 58.2448ZM61.6447 63.5222C60.3642 64.2208 58.8663 64.5231 57.3606 64.3956L57.1918 66.3885C59.0688 66.5474 60.9612 66.1734 62.6026 65.2779L61.6447 63.5222ZM53.2363 62.8362C52.6563 62.4072 52.1147 61.8883 51.6307 61.2759L50.0617 62.5162C50.6555 63.2675 51.3248 63.91 52.0469 64.4441L53.2363 62.8362ZM51.6307 61.2759C51.1019 60.607 50.6341 59.8534 50.2292 59.0241L48.432 59.9016C48.8936 60.8469 49.4357 61.7243 50.0617 62.5162L51.6307 61.2759ZM48.6609 53.8258C48.3879 52.0951 48.2939 50.2324 48.3803 48.2938L46.3823 48.2048C46.2906 50.2626 46.3893 52.2604 46.6853 54.1374L48.6609 53.8258ZM49.0858 42.7569C49.4587 40.9618 49.9724 39.1552 50.6249 37.3777L48.7474 36.6885C48.061 38.5582 47.5204 40.4592 47.1276 42.3502L49.0858 42.7569ZM52.9355 32.2848C53.3832 31.4683 53.8629 30.6686 54.3742 29.8903L52.7027 28.7921C52.1614 29.6161 51.6544 30.4614 51.1818 31.3231L52.9355 32.2848ZM54.3742 29.8903C54.8433 29.1763 55.3245 28.4793 55.8171 27.7991L54.1973 26.626C53.6869 27.3308 53.1885 28.0527 52.7027 28.7921L54.3742 29.8903ZM58.9783 23.8321C60.1055 22.5445 61.2778 21.327 62.4899 20.1762L61.1128 18.7258C59.8569 19.9182 58.6418 21.1801 57.4735 22.5147L58.9783 23.8321ZM66.322 16.8557C67.6588 15.7988 69.0325 14.8101 70.4369 13.886L69.3376 12.2153C67.8862 13.1702 66.4653 14.1928 65.0816 15.2868L66.322 16.8557ZM74.7948 11.2719C76.2905 10.4558 77.8117 9.70371 79.3518 9.0118L78.5322 7.18745C76.947 7.89963 75.3795 8.67452 73.8368 9.51627L74.7948 11.2719ZM84.0695 7.09542C85.6743 6.50901 87.2914 5.98145 88.9137 5.50866L88.3541 3.58854C86.6909 4.07324 85.0314 4.61457 83.383 5.21692L84.0695 7.09542ZM93.8546 4.23567C95.5309 3.85825 97.2044 3.53478 98.8672 3.26074L98.542 1.28736C96.8425 1.56744 95.1309 1.89824 93.4153 2.28452L93.8546 4.23567ZM103.93 2.56985C105.653 2.38242 107.354 2.24493 109.025 2.152L108.914 0.155091C107.209 0.249904 105.473 0.390218 103.714 0.581581L103.93 2.56985ZM114.133 2.00062C115.891 1.99411 117.599 2.03491 119.244 2.11574L119.342 0.118152C117.662 0.035616 115.919 -0.0060035 114.126 0.000637352L114.133 2.00062ZM124.34 2.50885C125.208 2.60112 126.05 2.70421 126.863 2.81668L127.137 0.835538C126.303 0.720139 125.44 0.614505 124.552 0.520053L124.34 2.50885Z" fill="#BF9002"/>
</svg>
