<svg width="19" height="20" viewBox="0 0 19 20" fill="none" xmlns="http://www.w3.org/2000/svg">
<path d="M17.3899 4.67191C16.3124 3.67745 15.9773 4.14137 15.422 3.39798C14.8666 2.65459 14.8739 1.86786 14.484 0.989275C13.932 -0.254604 12.0771 -0.355773 11.1539 0.851496C9.99317 2.36933 11.3224 3.45513 10.9364 5.07294C10.655 6.25283 5.51957 11.1619 4.67517 11.287C3.24828 11.4984 2.54184 9.76447 1.07187 10.8575C-0.0973444 11.7269 -0.310638 13.8806 0.651852 14.7171C1.33168 15.308 1.99362 15.393 2.53252 16.1527C3.07143 16.9125 2.62953 17.2572 3.29653 18.659C3.96972 20.0738 5.76754 20.4468 6.82372 19.3986C7.7538 18.4755 7.2956 17.0723 7.54351 15.3071C7.67822 14.3479 12.9853 8.96825 13.8724 9.02591C15.402 9.12532 16.5167 9.77867 17.4468 8.8556C18.503 7.80736 18.4774 5.67558 17.3899 4.67191Z" fill="#F7EDD7"/>
<path d="M14.976 3.64848C15.7886 4.57899 17.0881 5.34218 16.8309 6.93964C16.723 7.44156 16.4305 7.9687 15.9162 8.00536C14.9544 8.17038 14.3655 7.1757 13.439 6.83192C13.1878 6.76545 12.8639 6.69211 12.6676 6.88693C10.3356 8.88547 7.67394 10.8955 6.54527 13.9895C6.17821 15.0644 6.68071 16.7764 5.57166 17.4824C5.03972 17.7734 4.39784 17.5419 3.99152 17.0767C3.14563 15.9148 1.99247 14.8637 0.666016 14.7278C1.34108 15.3081 1.99784 15.3976 2.53316 16.1522C3.07206 16.912 2.63018 17.2567 3.29718 18.6585C3.97037 20.0733 5.76818 20.4463 6.82437 19.3981C7.75445 18.475 7.29625 17.0718 7.54415 15.3066C7.67886 14.3474 12.9859 8.96774 13.8731 9.0254C15.4027 9.12481 16.5174 9.77817 17.4474 8.85509C18.5036 7.80687 18.478 5.67509 17.3905 4.67141C16.3131 3.67696 15.978 4.14088 15.4226 3.39749C14.8672 2.65409 14.8746 1.86737 14.4846 0.988772C14.4165 0.835317 14.3284 0.699419 14.2249 0.581055C14.1493 1.7156 14.2467 2.78661 14.976 3.64848Z" fill="#E8D8BD"/>
<path d="M3.87948 15.9918C3.70564 15.715 3.52083 15.4514 3.2984 15.2244C2.90038 14.8181 2.4013 14.5718 1.89587 14.41C1.75249 14.3641 1.60718 14.326 1.46174 14.2902C1.31772 14.2548 1.16455 14.2167 1.01734 14.2178C0.991418 14.218 0.985573 14.255 1.00823 14.268C1.12631 14.3353 1.25793 14.3775 1.38334 14.424C1.50744 14.47 1.63133 14.5163 1.7539 14.5676C1.99539 14.6689 2.23551 14.779 2.46342 14.9174C2.6915 15.0559 2.91192 15.2212 3.10816 15.4155C3.20837 15.5148 3.29926 15.6258 3.38544 15.7414C3.48067 15.8691 3.56823 16.0158 3.67953 16.1253C3.80407 16.2478 3.91905 16.3826 4.0479 16.4999C4.17599 16.6165 4.31386 16.7027 4.4709 16.751C4.4802 16.7539 4.48871 16.7417 4.4819 16.7323C4.29404 16.4722 4.05258 16.2674 3.87948 15.9918Z" fill="#E8D8BD"/>
<path d="M13.7832 1.04097C13.7325 1.18084 13.6856 1.31576 13.6638 1.46682C13.6428 1.61235 13.633 1.75658 13.635 1.90415C13.6391 2.20543 13.6752 2.50268 13.7511 2.79093C13.8277 3.08191 13.935 3.3564 14.0844 3.60655C14.2414 3.86938 14.4403 4.08631 14.66 4.27662C14.7293 4.33663 14.8051 4.37264 14.8791 4.42231C14.9539 4.47252 15.0251 4.53539 15.0947 4.5948C15.1629 4.65301 15.2337 4.71336 15.2958 4.7801C15.3244 4.8109 15.3505 4.84437 15.3773 4.87733C15.4102 4.91786 15.4514 4.94594 15.4831 4.98632C15.5134 5.02485 15.5611 4.98523 15.5469 4.93856C15.5336 4.89467 15.5309 4.84998 15.5128 4.80776C15.4996 4.777 15.4807 4.74836 15.4637 4.72034C15.4193 4.64718 15.3712 4.57328 15.3168 4.51016C15.214 4.39099 15.0919 4.29527 14.9906 4.17553C14.8838 4.04919 14.7585 3.95215 14.6431 3.83722C14.555 3.74948 14.4751 3.64975 14.402 3.54501C14.0989 3.11062 13.9262 2.57185 13.8726 2.01796C13.8574 1.86061 13.8527 1.70099 13.8526 1.5427C13.8524 1.38082 13.8449 1.21873 13.8516 1.0579C13.8535 1.01035 13.7988 0.998087 13.7832 1.04097Z" fill="#E8D8BD"/>
<path d="M3.23219 14.5416C3.10878 14.4414 2.97077 14.3611 2.83122 14.2963C2.68785 14.2298 2.53817 14.222 2.38661 14.2062C2.35157 14.2026 2.33983 14.2637 2.37376 14.2769C2.50637 14.3285 2.62542 14.4189 2.75111 14.4896C2.87867 14.5613 2.99653 14.653 3.11023 14.751C3.2224 14.8477 3.31477 14.9639 3.41852 15.0712C3.47098 15.1255 3.51915 15.1766 3.56324 15.2407C3.60864 15.3067 3.65297 15.3737 3.69791 15.4402C3.74853 15.5151 3.84536 15.4357 3.81546 15.3522C3.75674 15.1885 3.66501 15.0362 3.57529 14.8932C3.48831 14.7545 3.35206 14.639 3.23219 14.5416Z" fill="#E8D8BD"/>
<path d="M13.3435 2.74015C13.3135 2.82904 13.2866 2.92333 13.2735 3.01768C13.2608 3.10873 13.2702 3.20158 13.2851 3.29179C13.3179 3.49147 13.3874 3.67423 13.4825 3.84359C13.5901 4.03526 13.7279 4.1916 13.8838 4.32953C14.043 4.47043 14.2255 4.60031 14.4137 4.68081C14.436 4.69034 14.456 4.65688 14.4401 4.63593C14.3185 4.47581 14.1698 4.34127 14.0354 4.1961C13.9046 4.05484 13.7767 3.89842 13.6747 3.72731C13.594 3.59179 13.5273 3.43189 13.4915 3.27196C13.4736 3.19203 13.4667 3.11047 13.4537 3.02961C13.4391 2.93945 13.4328 2.85607 13.4431 2.76484C13.451 2.69532 13.3644 2.67864 13.3435 2.74015Z" fill="#E8D8BD"/>
<path d="M4.54543 11.5359C4.46222 11.538 4.37752 11.5716 4.29666 11.5758C4.22049 11.5797 4.13599 11.5689 4.05822 11.5527C3.98255 11.5368 3.91148 11.5043 3.84051 11.4709C3.76426 11.435 3.68978 11.3963 3.6252 11.3364C3.58995 11.3037 3.54529 11.3652 3.57322 11.404C3.63065 11.4837 3.68933 11.5615 3.76283 11.6214C3.83794 11.6826 3.92786 11.7258 4.01545 11.7559C4.10379 11.7863 4.19561 11.8008 4.2877 11.7998C4.37864 11.7988 4.49729 11.7971 4.57667 11.7394C4.61178 11.7139 4.63589 11.6744 4.62821 11.6238C4.62163 11.5804 4.58549 11.5349 4.54543 11.5359Z" fill="#E8D8BD"/>
<path d="M4.42325 11.899C4.37586 11.8665 4.32624 11.9015 4.27932 11.9212L4.27644 11.9221L4.27115 11.9243L4.27038 11.9245L4.26778 11.9258L4.26955 11.9248C4.26218 11.9272 4.25479 11.9294 4.24732 11.9313C4.23058 11.9357 4.21363 11.9389 4.19656 11.9409L4.18439 11.9421L4.17951 11.9425C4.17387 11.9429 4.17627 11.9427 4.18669 11.9421L4.16722 11.943C4.16067 11.9434 4.15454 11.9442 4.1481 11.9451C4.14022 11.9463 4.13233 11.947 4.1244 11.9479L4.12418 11.9479L4.11258 11.9481C4.10446 11.9481 4.09634 11.9478 4.08824 11.9473C4.08345 11.947 4.07857 11.9467 4.0738 11.946L4.06741 11.9447L4.05911 11.9426L4.04723 11.9389C4.03856 11.9361 4.03003 11.933 4.02153 11.9295C3.99804 11.92 3.97119 11.9326 3.96033 11.9587C3.94999 11.9836 3.95466 12.0183 3.97658 12.0336C4.01035 12.057 4.04705 12.0765 4.08389 12.0924C4.12255 12.1092 4.1624 12.12 4.20376 12.1187C4.24483 12.1174 4.28538 12.1128 4.32509 12.1001C4.34723 12.0931 4.37051 12.0856 4.39159 12.0745C4.40582 12.0671 4.41761 12.0557 4.42869 12.0433C4.44851 12.021 4.45666 11.9991 4.45737 11.9715L4.45771 11.9702C4.46583 11.937 4.45033 11.9079 4.42325 11.899Z" fill="#E8D8BD"/>
<path d="M11.1921 4.35492C11.194 4.44343 11.1914 4.53329 11.1857 4.62181C11.1561 4.68603 11.1681 4.77632 11.1628 4.84699C11.1574 4.91811 11.1501 4.98965 11.1391 5.0599C11.1182 5.19458 11.0899 5.3366 11.0444 5.46286C11.0253 5.51617 11.0916 5.55028 11.1193 5.50696C11.1585 5.44563 11.1965 5.38717 11.2282 5.31953C11.2609 5.24943 11.2883 5.17805 11.3095 5.10212C11.3305 5.02691 11.3463 4.95031 11.3563 4.87207C11.3667 4.79096 11.3847 4.69358 11.3512 4.61935C11.341 4.52075 11.3213 4.42776 11.2917 4.33407C11.2741 4.27831 11.1907 4.2944 11.1921 4.35492Z" fill="#E8D8BD"/>
<path d="M11.6173 4.4372C11.6013 4.42569 11.5845 4.42 11.5657 4.42101C11.5271 4.42312 11.4844 4.46161 11.4853 4.51094C11.4858 4.53908 11.4856 4.56685 11.4877 4.59497L11.4886 4.60911C11.4888 4.61898 11.4889 4.62883 11.4891 4.63868C11.4899 4.68068 11.4885 4.72247 11.4837 4.76415C11.4814 4.78428 11.4784 4.80426 11.4761 4.82439C11.4748 4.83536 11.4733 4.84629 11.4716 4.85718L11.4696 4.86928L11.4693 4.87068C11.4604 4.91232 11.4497 4.95288 11.4355 4.99249C11.4237 5.02539 11.4403 5.06455 11.466 5.07969C11.4937 5.09599 11.5259 5.08568 11.5442 5.05655C11.5909 4.98233 11.6316 4.89543 11.6486 4.80502C11.6672 4.7067 11.679 4.59952 11.653 4.50167C11.6463 4.47639 11.6378 4.452 11.6173 4.4372Z" fill="#E8D8BD"/>
<path d="M13.5164 4.98982C13.503 4.97931 13.4883 4.97326 13.4722 4.97168C13.4644 4.9721 13.4566 4.97252 13.4488 4.97295C13.4326 4.97638 13.4181 4.98433 13.4055 4.99677C13.3956 5.00589 13.3884 5.01712 13.3838 5.03046C13.3775 5.04234 13.3741 5.05539 13.3736 5.06959C13.3721 5.08373 13.3737 5.09724 13.3782 5.11013C13.3809 5.12417 13.3865 5.13663 13.3951 5.14748C13.4011 5.15388 13.4072 5.16027 13.4133 5.16666C13.4267 5.17718 13.4414 5.18322 13.4574 5.1848C13.4652 5.18438 13.473 5.18395 13.4808 5.18352C13.4971 5.1801 13.5115 5.17215 13.5241 5.15969C13.5341 5.15058 13.5413 5.13935 13.5459 5.126C13.5522 5.11412 13.5556 5.10109 13.5561 5.08687C13.5575 5.07274 13.556 5.05924 13.5514 5.04633C13.5487 5.03228 13.5431 5.01984 13.5346 5.00898C13.5285 5.00261 13.5224 4.99622 13.5164 4.98982Z" fill="#E8D8BD"/>
<path d="M13.8988 6.12089C13.7607 6.258 13.943 6.5089 14.0813 6.37156C14.2195 6.23446 14.0372 5.98356 13.8988 6.12089Z" fill="#E8D8BD"/>
<path d="M14.2427 5.26511C14.159 5.34737 14.2695 5.49792 14.3534 5.41552C14.4371 5.33325 14.3266 5.18272 14.2427 5.26511Z" fill="#E8D8BD"/>
<path d="M14.836 5.83625C14.8228 5.839 14.8111 5.84537 14.8008 5.85536C14.7907 5.86543 14.7833 5.87774 14.7789 5.89232L14.7768 5.90276L14.7757 5.90798L14.7753 5.91036L14.775 5.91178C14.7739 5.91779 14.7728 5.92379 14.7717 5.9298C14.7713 5.9361 14.7715 5.94233 14.7725 5.94846C14.7763 5.97362 14.792 5.99497 14.8129 6.00343L14.8209 6.00543C14.8287 6.0081 14.8366 6.00845 14.8446 6.00647L14.8457 6.00639L14.848 6.00622L14.8526 6.00589L14.8619 6.0052C14.875 6.00245 14.8867 5.99608 14.897 5.9861C14.9072 5.97603 14.9145 5.96371 14.919 5.94913C14.9276 5.9206 14.9224 5.88823 14.9055 5.86519C14.8885 5.84212 14.8617 5.83098 14.836 5.83625Z" fill="#E8D8BD"/>
<path d="M15.0597 7.00505C14.9305 7.13334 15.101 7.36812 15.2305 7.23961C15.3598 7.11132 15.1892 6.87655 15.0597 7.00505Z" fill="#E8D8BD"/>
<path d="M15.5965 5.61127C15.5772 5.59602 15.5558 5.58725 15.5326 5.58496C15.5212 5.58558 15.5099 5.58619 15.4986 5.58681C15.475 5.59179 15.4541 5.6033 15.4358 5.62138C15.4214 5.63459 15.4109 5.65088 15.4042 5.67026C15.3951 5.68748 15.3902 5.7064 15.3894 5.72702C15.3873 5.74752 15.3896 5.76711 15.3962 5.78582C15.4001 5.8062 15.4082 5.82426 15.4206 5.84001L15.4471 5.86783C15.4665 5.88308 15.4878 5.89185 15.5111 5.89414C15.5224 5.89352 15.5337 5.89291 15.545 5.89228C15.5686 5.8873 15.5895 5.87578 15.6079 5.85772C15.6222 5.8445 15.6328 5.8282 15.6394 5.80884C15.6485 5.79163 15.6534 5.7727 15.6542 5.75208C15.6563 5.73158 15.654 5.71198 15.6475 5.69327C15.6435 5.6729 15.6354 5.65484 15.623 5.63909L15.5965 5.61127Z" fill="#E8D8BD"/>
<path d="M16.0072 6.18722C15.8829 6.31061 16.0469 6.53642 16.1714 6.41283C16.2958 6.28945 16.1317 6.06363 16.0072 6.18722Z" fill="#E8D8BD"/>
<path d="M4.61983 14.1009C4.5994 14.0927 4.57853 14.0907 4.55724 14.095C4.53527 14.0996 4.51575 14.1103 4.49868 14.1272C4.4817 14.1441 4.4695 14.1649 4.46203 14.1894C4.45499 14.2133 4.45329 14.2377 4.45696 14.2625C4.46094 14.2882 4.47013 14.311 4.48454 14.3309C4.49906 14.3507 4.51686 14.365 4.53789 14.3737L4.54717 14.3771C4.55698 14.3795 4.56681 14.3819 4.57662 14.3843L4.57732 14.3843L4.57818 14.3844L4.58009 14.3844L4.58426 14.3846C4.59876 14.3866 4.61262 14.3844 4.62584 14.378C4.64025 14.3743 4.65303 14.3664 4.66416 14.3545C4.67072 14.346 4.67729 14.3375 4.68384 14.329C4.69463 14.3103 4.70082 14.2897 4.70244 14.2673L4.703 14.2626C4.7046 14.2491 4.70428 14.2419 4.70209 14.2233L4.70075 14.2121C4.69677 14.1864 4.68758 14.1636 4.67316 14.1437C4.65864 14.1239 4.64086 14.1096 4.61983 14.1009Z" fill="#E8D8BD"/>
<path d="M4.87656 15.003C4.76803 15.1107 4.91123 15.3078 5.01995 15.1999C5.12849 15.0922 4.98529 14.8951 4.87656 15.003Z" fill="#E8D8BD"/>
<path d="M5.5998 15.3472C5.59048 15.3417 5.58116 15.3362 5.57185 15.3307C5.56177 15.3282 5.5517 15.3257 5.54163 15.3232C5.53134 15.3238 5.52106 15.3244 5.51078 15.3249C5.50082 15.3286 5.49087 15.3322 5.48091 15.3359C5.46542 15.3436 5.45273 15.3551 5.44282 15.3704C5.43454 15.3787 5.42858 15.3888 5.42494 15.4008C5.41669 15.4164 5.4122 15.4336 5.41149 15.4524C5.4106 15.4583 5.40969 15.4642 5.40881 15.47C5.40713 15.4865 5.40894 15.5023 5.41425 15.5174C5.41741 15.5338 5.42396 15.5483 5.43392 15.561C5.44102 15.5685 5.44813 15.5759 5.45525 15.5834C5.47085 15.5957 5.48803 15.6027 5.50676 15.6046C5.51189 15.6045 5.517 15.6044 5.52211 15.6043C5.53238 15.6038 5.54268 15.6032 5.55296 15.6026C5.56292 15.599 5.57287 15.5953 5.58282 15.5917C5.59832 15.584 5.61101 15.5725 5.62091 15.5572C5.62918 15.5489 5.63515 15.5388 5.63879 15.5268C5.64473 15.5165 5.64815 15.5052 5.64902 15.4928C5.65247 15.4812 5.6533 15.4693 5.6515 15.4572C5.65233 15.4448 5.65052 15.433 5.64609 15.4217C5.64253 15.4032 5.63512 15.3868 5.62388 15.3725C5.61585 15.364 5.60783 15.3556 5.5998 15.3472Z" fill="#E8D8BD"/>
<path d="M5.5787 14.0793C5.47382 14.0386 5.41442 14.2152 5.5137 14.2694C5.62105 14.328 5.69109 14.1229 5.5787 14.0793Z" fill="#E8D8BD"/>
<path d="M5.05193 16.1631C5.03216 16.1552 5.01199 16.1533 4.99138 16.1574C4.97015 16.1619 4.95126 16.1723 4.93475 16.1885C4.91833 16.2049 4.90652 16.225 4.8993 16.2488C4.89249 16.2719 4.89085 16.2954 4.89439 16.3195C4.89824 16.3443 4.90713 16.3663 4.92107 16.3856C4.93513 16.4048 4.95232 16.4186 4.97267 16.427L4.98493 16.4329C5.00355 16.4404 5.02255 16.4422 5.04193 16.4383C5.06193 16.4341 5.0797 16.4243 5.09524 16.409C5.1107 16.3936 5.12183 16.3747 5.12862 16.3523C5.13503 16.3306 5.13657 16.3084 5.13325 16.2858L5.1302 16.2707C5.12636 16.2459 5.11747 16.2238 5.10353 16.2045C5.08947 16.1853 5.07227 16.1715 5.05193 16.1631Z" fill="#E8D8BD"/>
<path d="M4.6113 14.9601C4.59919 14.9474 4.58709 14.9347 4.57498 14.9219C4.56092 14.9137 4.54687 14.9054 4.53281 14.8971C4.51035 14.8869 4.4874 14.8836 4.46398 14.8871C4.44801 14.8857 4.43276 14.8889 4.4182 14.8967C4.40204 14.9001 4.38768 14.908 4.37513 14.9204C4.36003 14.9287 4.34772 14.9409 4.33824 14.957C4.32576 14.9695 4.31677 14.9847 4.31128 15.0028C4.29883 15.0264 4.29208 15.0523 4.29102 15.0806C4.29173 15.0987 4.29246 15.1168 4.29318 15.1349C4.29791 15.1525 4.30264 15.17 4.30737 15.1875C4.31617 15.2035 4.32497 15.2195 4.33377 15.2355C4.34587 15.2482 4.35798 15.2609 4.37008 15.2736C4.38414 15.2819 4.39818 15.2902 4.41224 15.2985C4.4347 15.3087 4.45765 15.312 4.48107 15.3084C4.49704 15.3099 4.51229 15.3067 4.52685 15.2989C4.55077 15.2926 4.57197 15.2796 4.59047 15.2598L4.59887 15.2533C4.61762 15.236 4.63137 15.2148 4.64007 15.1895C4.65191 15.1671 4.65834 15.1424 4.65936 15.1155C4.65867 15.0982 4.65798 15.081 4.65729 15.0638C4.65172 15.0279 4.63884 14.996 4.61865 14.9681L4.6113 14.9601Z" fill="#E8D8BD"/>
<path d="M5.69184 16.2495C5.68571 16.2459 5.6796 16.2423 5.67348 16.2388L5.66356 16.2363C5.65371 16.2329 5.64364 16.2325 5.63337 16.235C5.62682 16.2374 5.62029 16.2398 5.61376 16.2422C5.60061 16.2494 5.58989 16.2599 5.58163 16.2737L5.57357 16.2895L5.57314 16.2903L5.57289 16.2908C5.56713 16.3021 5.56779 16.3008 5.56598 16.3106L5.56472 16.3175C5.56398 16.3248 5.56478 16.3318 5.56715 16.3385L5.56914 16.3457L5.56954 16.3469L5.57096 16.3511L5.57383 16.3596L5.57463 16.362L5.57503 16.3632L5.57521 16.3637C5.58064 16.3795 5.58549 16.3833 5.5947 16.3929L5.60261 16.4011C5.61117 16.4083 5.62059 16.4127 5.6309 16.4142C5.63746 16.4168 5.64414 16.4174 5.65096 16.4161C5.66134 16.4165 5.67126 16.414 5.6807 16.4084L5.68966 16.4018C5.69923 16.396 5.70695 16.3876 5.71284 16.3768C5.71593 16.3698 5.71901 16.3627 5.72209 16.3556C5.72591 16.3443 5.72715 16.3328 5.72583 16.321L5.72536 16.3093C5.72387 16.2969 5.7199 16.2859 5.71343 16.2763C5.70837 16.2652 5.70119 16.2563 5.69184 16.2495Z" fill="#E8D8BD"/>
<path d="M4.65928 16.9569C4.60145 17.0137 4.67775 17.1177 4.73567 17.0608C4.7935 17.004 4.71719 16.9 4.65928 16.9569Z" fill="#E8D8BD"/>
<path d="M5.83009 14.6319C5.77525 14.6857 5.8476 14.7843 5.90253 14.7303C5.95737 14.6765 5.88501 14.5779 5.83009 14.6319Z" fill="#E8D8BD"/>
<path d="M5.34501 13.393C5.29216 13.4449 5.36187 13.5399 5.41481 13.4879C5.46765 13.436 5.39792 13.341 5.34501 13.393Z" fill="#E8D8BD"/>
<path d="M3.71045 14.1595C3.69609 14.1482 3.68028 14.1417 3.66301 14.14C3.64574 14.1384 3.62924 14.1419 3.61349 14.1503C3.59716 14.1594 3.58386 14.1726 3.57359 14.1899C3.56392 14.2067 3.55834 14.2252 3.55688 14.2453C3.55586 14.2608 3.55815 14.2756 3.56218 14.29C3.56383 14.2968 3.56552 14.3036 3.56718 14.3103C3.56943 14.3186 3.57168 14.327 3.57393 14.3353C3.57863 14.3483 3.58569 14.3589 3.59511 14.3672C3.60018 14.3741 3.60639 14.3791 3.61375 14.3821C3.62336 14.389 3.63392 14.3928 3.64542 14.3934C3.65278 14.393 3.66016 14.3926 3.66753 14.3922C3.67467 14.3896 3.68179 14.3869 3.68893 14.3843C3.70003 14.3788 3.70913 14.3706 3.71623 14.3596C3.72466 14.3504 3.73062 14.3393 3.73409 14.3261C3.73667 14.3198 3.73927 14.3134 3.74183 14.307C3.7478 14.2936 3.7521 14.2794 3.75323 14.2639C3.75457 14.2438 3.75162 14.2245 3.74438 14.2061C3.73664 14.187 3.72533 14.1715 3.71045 14.1595Z" fill="#E8D8BD"/>
<path d="M2.10071 13.9236C2.00993 14.0137 2.1297 14.1786 2.22064 14.0884C2.31141 13.9983 2.19164 13.8334 2.10071 13.9236Z" fill="#E8D8BD"/>
<path d="M13.3566 2.19337C13.3444 2.18462 13.331 2.17987 13.3165 2.17912C13.2972 2.17737 13.2788 2.18121 13.2613 2.19063C13.2431 2.20067 13.2283 2.21537 13.2169 2.23472L13.2076 2.24829C13.2035 2.25791 13.1993 2.26752 13.1952 2.27714C13.19 2.29251 13.1884 2.30821 13.1902 2.32423C13.1894 2.33516 13.191 2.34561 13.1949 2.35556C13.1981 2.37193 13.2046 2.38644 13.2146 2.3991C13.2217 2.40655 13.2288 2.41401 13.2358 2.42146C13.2441 2.42631 13.2523 2.43115 13.2606 2.436C13.2737 2.44199 13.2872 2.44395 13.3009 2.44185C13.3149 2.44245 13.3282 2.43897 13.3409 2.43139L13.3539 2.42292C13.3721 2.41286 13.3869 2.39816 13.3983 2.37882C13.4091 2.36013 13.4153 2.33956 13.4169 2.31712C13.4165 2.30622 13.4161 2.2953 13.4156 2.28439C13.4121 2.26167 13.4039 2.24148 13.3912 2.22381C13.3818 2.20997 13.3703 2.19981 13.3566 2.19337Z" fill="#E8D8BD"/>
<path d="M0.357816 13.2865C0.368071 13.0121 0.442976 12.7466 0.528891 12.4909C0.665823 12.0832 0.832622 11.6893 1.02685 11.3147C1.10189 11.1701 1.18373 11.0248 1.30106 10.9256C1.42642 10.8196 1.58302 10.7748 1.73739 10.7615C2.47845 10.6974 3.14955 11.3091 3.57002 12.0245C3.61899 12.1078 3.66708 12.1974 3.67448 12.2981C3.69479 12.5748 3.41125 12.7459 3.17359 12.7564C2.85434 12.7705 2.53804 12.6412 2.2197 12.6727C1.6417 12.7298 1.19575 13.2978 0.918763 13.8931C0.621363 14.5323 0.345557 13.6147 0.357816 13.2865Z" fill="#FFFCF4"/>
<path d="M11.0491 2.06867C11.106 1.55353 11.3164 1.04872 11.6733 0.738752C12.0303 0.428768 12.5405 0.344999 12.9306 0.594618C13.002 0.640356 13.0707 0.698561 13.1123 0.780449C13.1578 0.870296 13.1661 0.979448 13.1617 1.08375C13.1444 1.49908 12.9491 1.87433 12.8718 2.28025C12.7886 2.71756 12.8452 3.17483 12.9359 3.61013C12.9524 3.68971 12.9701 3.77381 12.9497 3.85217C12.908 4.01225 12.7264 4.06508 12.5895 4.0155C12.4527 3.96591 12.3432 3.848 12.2198 3.76279C11.9698 3.59005 11.6526 3.55651 11.3796 3.67417C11.0526 3.81398 11.0208 2.32535 11.0491 2.06867Z" fill="#FFFCF4"/>
<path d="M7.77011 9.44027C7.01475 10.1069 6.20481 10.696 5.51594 11.4545C5.41451 11.5662 5.31207 11.7535 5.40651 11.8733C5.45191 11.9308 5.52551 11.9416 5.59252 11.9433C6.00053 11.9541 6.39264 11.7664 6.75647 11.5506C8.01085 10.8063 9.07881 9.70127 10.0978 8.56832C10.5062 8.11419 10.9296 7.61093 11.0351 6.96401C11.087 6.64557 10.9762 6.18326 10.6272 6.29824C10.3123 6.40199 10.0167 7.02558 9.80232 7.29524C9.18033 8.07772 8.49952 8.79653 7.77011 9.44027Z" fill="#FFFCF4"/>
</svg>
