<svg width="50" height="50" viewBox="0 0 50 50" fill="none" xmlns="http://www.w3.org/2000/svg">
<g opacity="0.2">
<path fill-rule="evenodd" clip-rule="evenodd" d="M25.9131 42.2959C13.6555 42.2959 3.71866 44.0198 3.71866 46.1465C3.71866 48.2731 13.6555 49.997 25.9131 49.997C38.1705 49.997 48.1074 48.2731 48.1074 46.1465C48.1074 44.0198 38.1705 42.2959 25.9131 42.2959Z" fill="#380072"/>
</g>
<path fill-rule="evenodd" clip-rule="evenodd" d="M48.3596 17.875C49.7426 22.3088 46.8892 26.2338 40.8871 29.3586C41.9354 35.3826 38.6118 41.3156 32.9271 43.5685C33.5182 44.1526 33.7101 45.0295 33.4169 45.8071C33.1237 46.5847 32.4004 47.1165 31.5709 47.165C29.2119 47.1358 27.7378 47.1061 27.1485 47.0764C26.0615 46.4823 25.4227 45.7649 25.2322 44.9243C23.9052 45.0028 23.2419 45.0425 23.2419 45.0425C23.525 46.4229 22.9255 47.0914 21.4437 47.0472C16.0779 46.9782 13.3949 46.944 13.3949 46.944C10.7539 44.9117 9.48811 41.5617 10.1247 38.2906C10.7614 35.0196 13.2085 32.4479 16.4021 31.4957C19.6771 30.5193 21.3885 28.8685 21.5907 26.7197C19.3047 24.8817 17.705 22.3268 17.0505 19.4673C17.3309 16.6767 18.3483 14.0106 19.9984 11.7428C23.7792 -0.609491 26.963 -2.90913 29.5505 4.8442C38.2607 2.51614 44.8868 6.74237 48.3596 17.875Z" fill="#6E787A"/>
<path fill-rule="evenodd" clip-rule="evenodd" d="M20.5843 36.5902C21.6939 36.4456 22.5244 35.6898 23.0755 34.3223C23.186 38.2167 23.8958 41.7502 25.2051 44.9226L23.2403 45.0396C23.3243 45.4486 23.3305 45.7954 23.2593 46.0791C23.3592 45.0484 22.9982 44.2913 22.1763 43.8075C22.001 43.7038 21.8047 43.6132 21.5872 43.5351C23.7732 43.2651 22.7437 38.7569 20.5843 36.5902Z" fill="white"/>
<g opacity="0.3">
<path fill-rule="evenodd" clip-rule="evenodd" d="M31.3724 42.6983C31.5123 41.7729 31.6491 40.0489 31.043 38.0257C30.4542 36.0604 29.4368 34.7219 28.8227 34.0244C29.3221 34.8027 30.1408 36.3062 30.3886 38.3755C30.604 40.1752 30.2961 41.6382 30.0473 42.4915C30.0471 42.4946 30.0468 42.4977 30.0465 42.5007C30.0228 42.7592 30.1783 43.0012 30.4238 43.0856C32.1494 43.6784 32.968 44.7109 32.8793 46.1833C33.0138 46.0653 33.3225 45.7613 33.4177 45.2809C33.5297 44.7158 33.2747 44.2673 33.1272 44.0077C32.6141 43.1048 31.6779 42.7877 31.3724 42.6983Z" fill="white"/>
</g>
<g opacity="0.3">
<path fill-rule="evenodd" clip-rule="evenodd" d="M21.1102 43.4657C19.9608 43.4469 19.2375 43.5643 18.9405 43.8183C21.7016 43.9457 22.7971 45.0011 22.2272 46.9853C23.9707 45.7937 23.5982 44.6205 21.1102 43.4657ZM21.5532 38.0228C21.1235 36.6616 19.9392 35.6768 18.5228 35.5021C17.1064 35.3275 15.7183 35.9952 14.971 37.211C18.7257 34.2061 22.8957 40.2008 21.5883 43.5354C23.2128 43.0399 23.2013 41.2024 21.5532 38.0228Z" fill="white"/>
</g>
<g opacity="0.3">
<path fill-rule="evenodd" clip-rule="evenodd" d="M18.1978 30.82C13.7385 32.251 11.3956 34.1136 11.1696 36.4079C12.5943 34.2227 15.0709 32.6112 18.5989 31.573C20.5566 31.0695 21.9381 29.3218 21.9766 27.3008C21.8105 27.3154 21.6469 27.3309 21.4844 27.3467C20.9587 28.9691 19.863 30.1273 18.1978 30.82Z" fill="white"/>
</g>
<path fill-rule="evenodd" clip-rule="evenodd" d="M48.6115 21.1178C48.1033 24.2313 45.3749 27.019 40.8822 29.3579C41.9305 35.3819 38.607 41.3148 32.9222 43.5677H32.9224C32.4091 43.1624 31.8336 42.7543 31.1952 42.3435C31.1952 42.3435 31.2346 41.96 31.3136 41.1937C31.6945 37.6552 30.4613 35.191 28.0708 33.2043C26.7814 32.1326 26.4624 30.8144 26.6535 29.1189C18.8193 25.1564 20.0107 18.422 25.8304 17.5496C27.8322 9.10896 35.3401 6.71113 38.4488 15.6628C38.631 8.44127 43.3607 8.44547 45.4656 17.1665C47.685 17.1744 48.7338 18.4918 48.6115 21.1178Z" fill="white"/>
<g opacity="0.3">
<path fill-rule="evenodd" clip-rule="evenodd" d="M48.3574 17.8744C48.3692 17.9116 48.3798 17.9488 48.3906 17.986C48.2718 18.095 48.1508 18.202 48.027 18.3064C46.0421 13.1247 43.5411 9.51103 40.5241 7.46623C40.6751 7.68267 40.7273 7.88574 40.6484 8.03531C40.4672 8.37706 39.6673 8.30814 38.8616 7.88154C38.0558 7.45494 37.5492 6.83199 37.7303 6.49024C37.8105 6.33858 38.0132 6.26794 38.2844 6.27337C36.0073 5.36631 33.4786 5.2234 30.6988 5.84429C28.2355 6.61724 25.8538 7.89618 23.5533 9.68065C25.2851 7.67223 27.017 6.38534 28.7484 5.82007C28.645 5.6826 28.5777 5.49667 28.547 5.26311C26.9246 -1.06466 24.2222 1.16603 20.4393 11.9552C20.3207 11.7785 20.2066 11.5993 20.0965 11.4184C23.833 -0.648107 26.9838 -2.8412 29.5483 4.84363C38.2584 2.51557 44.8846 6.74179 48.3574 17.8744Z" fill="white"/>
</g>
<path d="M31.5674 47.5244C31.5744 47.5244 31.5813 47.5241 31.5883 47.5237C32.5584 47.4671 33.4069 46.8431 33.7498 45.9339C34.0306 45.1892 33.9303 44.3642 33.5051 43.7148C36.1332 42.5589 38.3359 40.5636 39.7421 38.0533C41.1848 35.4777 41.7274 32.4704 41.2801 29.5562C47.5092 26.2477 50.074 22.1754 48.6993 17.768C46.9639 12.2048 44.4129 8.25034 41.1174 6.01442C37.9443 3.86167 34.1317 3.32323 29.7797 4.41277C28.746 1.44489 27.602 0 26.2882 0C26.2807 0 26.2732 5.59593e-05 26.2657 0.000131631C24.1804 0.0262762 22.0836 3.70681 19.669 11.5803C18.0039 13.8868 16.974 16.6001 16.6896 19.4314C16.6857 19.4702 16.6881 19.5094 16.6968 19.5475C17.3515 22.4079 18.95 25.0017 21.2076 26.8736C20.9335 28.8225 19.2823 30.2611 16.296 31.1514C12.9229 32.157 10.4217 34.8663 9.76851 38.222C9.20439 41.121 10.0802 44.1305 12.1115 46.2722C12.7307 46.9251 13.6041 47.3061 14.5076 47.3177L21.4356 47.4065C22.3012 47.4333 22.9298 47.2232 23.2986 46.7848C23.5888 46.4397 23.7072 45.9675 23.6523 45.3778C23.9357 45.3609 24.3726 45.335 24.9632 45.3001C25.2473 46.1148 25.9218 46.8174 26.9727 47.3918C27.0202 47.4178 27.073 47.4327 27.127 47.4354C27.7221 47.4654 29.2146 47.4953 31.563 47.5243C31.5644 47.5244 31.5659 47.5244 31.5674 47.5244ZM48.0131 17.982C49.6233 23.1439 44.9345 26.8445 40.7176 29.0398C40.5788 29.1121 40.5027 29.2659 40.5296 29.4202C41.5434 35.2459 38.2889 41.0556 32.7912 43.2343C32.6783 43.279 32.5957 43.3777 32.5715 43.4966C32.5472 43.6156 32.5847 43.7388 32.6711 43.8241C33.1605 44.3078 33.32 45.0363 33.0772 45.6803C32.8359 46.3204 32.2406 46.7609 31.5586 46.8054C29.3299 46.7778 27.8804 46.7496 27.2459 46.7214C26.3017 46.1899 25.7411 45.5588 25.5793 44.8448C25.5404 44.6733 25.3837 44.5557 25.2076 44.5655C23.8803 44.644 23.217 44.6837 23.217 44.6837C23.113 44.69 23.0168 44.7411 22.9534 44.8237C22.8899 44.9064 22.8655 45.0126 22.8865 45.1146C23.0006 45.6713 22.9541 46.0774 22.7485 46.322C22.5282 46.584 22.0917 46.7072 21.4509 46.6879L14.5168 46.599C13.8061 46.5898 13.1195 46.2904 12.633 45.7776C10.7613 43.804 9.95416 41.0308 10.474 38.3592C11.0759 35.2671 13.3855 32.7691 16.5014 31.8401C20.7235 30.5814 21.7921 28.3791 21.945 26.7534C21.9564 26.6331 21.9066 26.5152 21.8125 26.4396C19.6143 24.6722 18.0527 22.19 17.4107 19.4444C17.6928 16.7412 18.6863 14.1523 20.2856 11.9542C20.3091 11.9219 20.327 11.8861 20.3387 11.8479C23.1461 2.6759 25.1163 0.733352 26.2747 0.718804C26.2789 0.718747 26.283 0.718709 26.2872 0.718709C27.2714 0.718709 28.2804 2.18382 29.2062 4.95791C29.2663 5.13818 29.4562 5.24056 29.6399 5.19134C38.3248 2.87022 44.6786 7.29279 48.0131 17.982Z" fill="#3B0075"/>
<path fill-rule="evenodd" clip-rule="evenodd" d="M43.3594 8.4455C41.4216 6.29586 39.073 4.95757 36.3142 4.43154C38.1787 -1.1312 40.5272 0.20662 43.3594 8.4455Z" fill="#6E787A"/>
<path d="M43.3609 8.86267C43.4322 8.86267 43.5041 8.84411 43.5692 8.80582C43.7373 8.70674 43.8126 8.50298 43.7491 8.31842C41.9541 3.09692 40.3831 0.664062 38.8059 0.664062C38.8039 0.664062 38.802 0.664119 38.8 0.664119C37.6864 0.668413 36.7464 1.86017 35.926 4.30748C35.8883 4.41989 35.9011 4.54312 35.961 4.64543C36.0209 4.74778 36.122 4.81923 36.2385 4.84144C38.8943 5.34783 41.1879 6.65508 43.0557 8.72695C43.1359 8.81588 43.2476 8.86267 43.3609 8.86267ZM38.8058 1.48546C39.3878 1.48546 40.5806 2.23654 42.3643 6.90455C40.76 5.52874 38.9154 4.59925 36.8578 4.13171C37.4832 2.42305 38.1678 1.48792 38.8031 1.48548C38.804 1.48546 38.805 1.48546 38.8058 1.48546Z" fill="#3B0075"/>
<g opacity="0.3">
<path fill-rule="evenodd" clip-rule="evenodd" d="M37.4161 4.69004C37.0576 4.58895 36.6916 4.50247 36.3176 4.43142H36.3168H36.3166C37.0693 2.2914 37.874 1.17122 38.7309 1.07093C39.474 1.01997 40.2701 1.72566 41.1191 3.18802C39.333 1.43947 38.1464 1.9513 37.5602 4.72389L37.4161 4.69004Z" fill="white"/>
</g>
<path d="M33.656 44.2327C33.5057 43.908 33.2999 43.6003 33.0416 43.3365C32.7851 43.0716 32.4783 42.8498 32.1453 42.691C31.8138 42.528 31.4578 42.4284 31.1033 42.3764C30.9256 42.35 30.7458 42.3483 30.5687 42.3668C30.48 42.3791 30.3919 42.3908 30.3049 42.4145C30.218 42.4407 30.132 42.4661 30.0477 42.5065C30.0002 42.5294 29.9802 42.5864 30.003 42.634C30.0124 42.6535 30.0275 42.6683 30.0453 42.6775L30.0498 42.6799C30.1324 42.7224 30.2133 42.7499 30.2932 42.7782C30.373 42.8055 30.4511 42.8334 30.529 42.8549C30.6841 42.9019 30.836 42.9411 30.9856 42.9805C31.2857 43.0557 31.5703 43.1641 31.834 43.3033C31.9658 43.3736 32.0896 43.4555 32.2112 43.5402C32.272 43.5828 32.3275 43.6324 32.3863 43.6777L32.5532 43.826C32.7688 44.033 32.9599 44.2697 33.1387 44.5251L33.1413 44.5289C33.2356 44.6638 33.4215 44.6966 33.5564 44.6022C33.6766 44.5181 33.7157 44.3613 33.656 44.2327Z" fill="#3B0075"/>
<path d="M31.5908 42.6837C31.7228 41.8874 31.7896 41.0777 31.7729 40.2677C31.757 39.8628 31.7336 39.4579 31.6722 39.0568C31.649 38.8556 31.6057 38.6569 31.571 38.4575C31.5503 38.3584 31.526 38.2599 31.5037 38.1611C31.4818 38.0623 31.458 37.9639 31.429 37.8668L31.3468 37.5745L31.2511 37.2865C31.2208 37.19 31.1854 37.0953 31.148 37.0013C31.1111 36.9072 31.0763 36.8124 31.0375 36.7192C30.878 36.3476 30.7031 35.9857 30.4985 35.635C30.0804 34.9314 29.5456 34.3286 28.9727 33.7765C28.9003 33.7068 28.7851 33.7089 28.7153 33.7813C28.6477 33.8515 28.6476 33.962 28.7137 34.0322L28.7148 34.0334C29.2438 34.594 29.7293 35.2034 30.081 35.8685C30.2558 36.2045 30.4058 36.5578 30.5386 36.9138C30.5708 37.0033 30.5991 37.0943 30.6295 37.1842C30.6604 37.2741 30.6893 37.3646 30.7133 37.4567L30.79 37.731L30.8535 38.0086C30.8764 38.1006 30.8941 38.1938 30.9099 38.2874C30.9263 38.3809 30.9447 38.4739 30.9595 38.5675C30.9826 38.7559 31.0144 38.9427 31.0267 39.1323C31.0661 39.5094 31.069 39.8897 31.0658 40.2686C31.0442 41.0274 30.945 41.7838 30.7842 42.5282L30.7839 42.5298C30.736 42.7516 30.877 42.9702 31.0987 43.0181C31.3205 43.066 31.5392 42.925 31.5871 42.7032C31.5884 42.6972 31.5897 42.6897 31.5908 42.6837Z" fill="#3B0075"/>
<path d="M25.8657 45.4283L25.5741 44.724C25.4827 44.4869 25.3871 44.2515 25.2991 44.0132C25.1253 43.5356 24.9606 43.0548 24.8079 42.5699C24.5044 41.5993 24.2518 40.6123 24.0447 39.6143C23.841 38.6157 23.6782 37.6069 23.5651 36.5906C23.5044 36.0828 23.4538 35.5736 23.3971 35.0635C23.374 34.8081 23.3429 34.5528 23.3159 34.2969C23.2894 34.0409 23.2631 33.7845 23.2262 33.5276L23.2256 33.5239C23.2125 33.4321 23.1275 33.3684 23.0357 33.3816C22.9581 33.3927 22.9005 33.4555 22.8927 33.5301C22.8653 33.7897 22.8484 34.0499 22.8314 34.3103C22.8198 34.5707 22.8137 34.8314 22.8104 35.0922C22.8054 35.3532 22.8172 35.6136 22.8212 35.8746C22.8263 36.1356 22.8496 36.3956 22.8629 36.6564C22.9427 37.6972 23.0671 38.737 23.2561 39.767C23.4418 40.7975 23.6874 41.8188 23.9957 42.822C24.0697 43.0736 24.1573 43.3212 24.2382 43.5708C24.3225 43.8193 24.4179 44.0641 24.5073 44.3108C24.6005 44.5561 24.7015 44.7986 24.7982 45.0425C24.8999 45.2846 25.0102 45.523 25.1157 45.7632C25.2069 45.9708 25.4492 46.0652 25.6568 45.974C25.8616 45.884 25.9562 45.6471 25.8712 45.4414L25.8657 45.4283Z" fill="#3B0075"/>
<path d="M15.5856 47.2807C15.6721 47.2807 15.7581 47.2444 15.819 47.1737C15.9301 47.0449 15.9156 46.8503 15.7868 46.7393C14.1464 45.3255 13.1554 42.845 13.3207 40.5667C13.4487 38.8043 14.2489 37.3696 15.5742 36.5269C16.6489 35.8436 17.9685 35.642 19.1977 35.9727C21.1767 36.8555 22.7379 40.2422 22.4615 42.1418C22.3653 42.8028 22.0581 43.17 21.5484 43.2329C21.4069 43.2503 21.2959 43.3626 21.28 43.5043C21.2641 43.6461 21.3475 43.7801 21.4816 43.8284C22.5925 44.2288 23.0596 44.9357 22.9517 46.0531C22.9352 46.2224 23.0593 46.373 23.2286 46.3893C23.398 46.4064 23.5486 46.2817 23.5648 46.1124C23.6743 44.9805 23.2601 44.1118 22.3608 43.5648C22.7374 43.2926 22.9827 42.8383 23.0711 42.2305C23.384 40.0802 21.6718 36.3812 19.4242 35.3993C19.4106 35.3934 19.3967 35.3884 19.3824 35.3845C17.9796 34.9999 16.471 35.2266 15.2435 36.007C13.7497 36.957 12.8486 38.5605 12.7063 40.5221C12.5246 43.0237 13.576 45.6473 15.3846 47.206C15.4428 47.2561 15.5143 47.2807 15.5856 47.2807Z" fill="#3B0075"/>
<path d="M22.3044 43.5317C21.7617 43.3231 21.1999 43.231 20.6484 43.2044C20.0958 43.1784 19.5502 43.2171 19.0139 43.2889C18.9745 43.2942 18.9468 43.3304 18.9521 43.3699C18.9569 43.4057 18.9878 43.4319 19.023 43.4323C19.5574 43.4393 20.0895 43.4808 20.6032 43.5816C21.116 43.6822 21.6107 43.8449 22.0427 44.0895C22.1912 44.1736 22.3797 44.1213 22.4638 43.9728C22.5478 43.8244 22.4956 43.6358 22.3471 43.5518C22.3341 43.5444 22.3209 43.5382 22.3074 43.5329L22.3044 43.5317Z" fill="#3B0075"/>
<path d="M17.8029 45.1137C17.9174 45.2767 18.0311 45.4396 18.1235 45.6083C18.2164 45.7749 18.2992 45.9479 18.3352 46.1067C18.3397 46.1448 18.3492 46.1836 18.3513 46.2182C18.3482 46.25 18.3562 46.2868 18.3458 46.3094C18.3406 46.3661 18.3119 46.3845 18.2914 46.4048C18.2836 46.409 18.2772 46.4134 18.2721 46.4186L18.2434 46.4324C18.2306 46.4437 18.1947 46.4509 18.1732 46.462C18.1446 46.4712 18.1093 46.4784 18.0791 46.4879L17.968 46.5066L17.954 46.5089C17.7284 46.5468 17.5762 46.7604 17.6141 46.986C17.652 47.2117 17.8656 47.3638 18.0912 47.326C18.1228 47.3207 18.1549 47.311 18.1832 47.2993L18.3609 47.2246C18.4222 47.1913 18.4816 47.1612 18.5416 47.1221L18.6317 47.0556C18.6611 47.0352 18.6903 47.0076 18.7188 46.9775C18.747 46.9479 18.7751 46.9202 18.8008 46.8878C18.8256 46.8523 18.8492 46.816 18.8714 46.7795C18.9544 46.629 18.992 46.4454 18.9707 46.2989C18.9686 46.2197 18.9449 46.158 18.9294 46.0897C18.9095 46.0257 18.883 45.9694 18.8592 45.9105C18.7516 45.6897 18.6128 45.5194 18.4712 45.3576C18.3298 45.1957 18.1762 45.0539 18.0233 44.9134C17.9625 44.8576 17.868 44.8616 17.8121 44.9223C17.7637 44.975 17.7602 45.0531 17.7998 45.1094L17.8029 45.1137Z" fill="#3B0075"/>
<path d="M20.9183 45.0772C20.9928 45.2459 21.0631 45.4151 21.1117 45.5845C21.1596 45.753 21.19 45.9223 21.1839 46.0704C21.1778 46.2196 21.1358 46.3347 21.0632 46.4015C20.9938 46.4712 20.893 46.5233 20.7578 46.559C20.5362 46.6174 20.4038 46.8443 20.4623 47.0659C20.5206 47.2876 20.7476 47.4199 20.9692 47.3615C21.0005 47.3532 21.03 47.3416 21.0575 47.3272L21.0844 47.3126C21.2951 47.1998 21.5174 47.0241 21.6513 46.7724C21.688 46.7127 21.7076 46.6441 21.7317 46.5797C21.7487 46.514 21.7638 46.4467 21.7702 46.382C21.7813 46.2521 21.7747 46.1269 21.7502 46.0139C21.7048 45.7854 21.6167 45.5912 21.5194 45.4112C21.4207 45.2319 21.3059 45.0703 21.1892 44.913C21.1369 44.8424 21.0373 44.8276 20.9667 44.8799C20.9059 44.925 20.8865 45.0054 20.9159 45.0719L20.9183 45.0772Z" fill="#3B0075"/>
<path d="M29.1001 45.1803C29.1476 45.3466 29.1945 45.5124 29.2255 45.6775C29.2574 45.8419 29.2815 46.0062 29.2829 46.1597C29.2853 46.3115 29.2633 46.4572 29.2138 46.541C29.1643 46.629 29.1181 46.6367 29.0447 46.6549C28.8211 46.7105 28.6849 46.9369 28.7405 47.1605C28.7962 47.3841 29.0225 47.5203 29.2461 47.4647C29.2854 47.4549 29.3221 47.4398 29.3554 47.4204L29.3876 47.4013C29.5078 47.3306 29.626 47.2407 29.7141 47.1194C29.7997 47.0008 29.8603 46.8657 29.8825 46.7405C29.9351 46.4859 29.898 46.2708 29.8511 46.0763C29.8016 45.8815 29.7301 45.7061 29.6535 45.5364C29.5774 45.3665 29.4886 45.2074 29.3999 45.0497C29.3555 44.9706 29.2553 44.9425 29.1762 44.9869C29.1085 45.0249 29.0781 45.1037 29.0986 45.1752L29.1001 45.1803Z" fill="#3B0075"/>
<path d="M31.473 44.836C31.5346 45.0316 31.5869 45.2279 31.6211 45.4228C31.6537 45.6174 31.6663 45.8111 31.6483 45.9892C31.6304 46.1673 31.5805 46.3273 31.4954 46.4463C31.4117 46.5665 31.3017 46.6538 31.1661 46.7206C30.9604 46.822 30.8758 47.0709 30.9771 47.2766C31.0785 47.4823 31.3274 47.5669 31.5331 47.4656C31.5634 47.4506 31.5911 47.4325 31.6159 47.4118L31.6386 47.3925C31.8425 47.2203 32.017 46.9864 32.1077 46.7287C32.2021 46.471 32.2081 46.2068 32.1752 45.9712C32.1056 45.4958 31.9018 45.1042 31.6846 44.7381C31.6516 44.6824 31.5797 44.6641 31.5241 44.6971C31.4763 44.7254 31.4561 44.7822 31.4721 44.833L31.473 44.836Z" fill="#3B0075"/>
<path fill-rule="evenodd" clip-rule="evenodd" d="M9.96078 39.8634C10.0195 38.2561 10.3874 36.8735 11.0645 35.7154C8.96742 35.2307 7.15475 33.9212 6.03624 32.0829C4.91714 30.2445 4.58668 28.0322 5.11939 25.9473C3.1381 28.1964 2.15855 31.1558 2.40692 34.1431C1.60993 33.7771 0.949391 33.1684 0.520314 32.4038C-0.0449905 34.9077 0.877313 37.5145 2.89179 39.1059C4.90605 40.6973 7.65507 40.9919 9.96078 39.8634Z" fill="#6E787A"/>
<g opacity="0.3">
<path fill-rule="evenodd" clip-rule="evenodd" d="M10.9238 35.6815C8.88637 35.1718 7.12964 33.8799 6.03622 32.0829C4.91711 30.2445 4.58665 28.0322 5.11936 25.9473C3.34488 27.9615 2.37434 30.5453 2.36929 33.2089C2.50762 33.498 2.65426 33.7922 2.80884 34.0913C3.04509 32.6737 3.27116 30.7768 3.95867 29.5806C4.62297 32.8203 7.36844 35.9552 10.5988 36.665C10.7157 36.3316 10.8233 36.0045 10.9238 35.6815Z" fill="white"/>
</g>
<path d="M7.03961 40.9021C8.09163 40.9021 9.14737 40.6686 10.1207 40.1923C10.2398 40.134 10.3171 40.0149 10.3219 39.8825C10.3781 38.3428 10.733 37.0037 11.3767 35.9028C11.4343 35.8041 11.4416 35.6839 11.3964 35.579C11.3511 35.4741 11.2586 35.3969 11.1473 35.3712C9.15688 34.9112 7.40662 33.6468 6.34525 31.9021C5.28297 30.1572 4.96382 28.0214 5.46955 26.0422C5.51066 25.8813 5.43611 25.7131 5.28925 25.6355C5.14237 25.5577 4.96142 25.591 4.85168 25.7156C2.96284 27.8598 1.94767 30.6713 2.01537 33.5174C1.52922 33.1895 1.12731 32.7536 0.835596 32.2339C0.762799 32.1042 0.617229 32.0331 0.47035 32.0542C0.323112 32.0756 0.204308 32.1855 0.171618 32.3306C-0.420588 34.9542 0.560416 37.7267 2.67084 39.3939C3.93072 40.3893 5.48093 40.9021 7.03961 40.9021ZM9.61358 39.6362C7.48356 40.5907 4.95569 40.2832 3.11645 38.8299C1.44969 37.5132 0.567622 35.4286 0.741459 33.3427C1.1576 33.8209 1.67111 34.2058 2.25877 34.4758C2.3747 34.5288 2.5104 34.5168 2.61515 34.4433C2.71971 34.37 2.77754 34.2467 2.76691 34.1194C2.56674 31.7112 3.2054 29.2926 4.53898 27.2984C4.41068 29.0282 4.8223 30.7828 5.73123 32.2757C6.81125 34.051 8.54305 35.3718 10.5319 35.9529C9.99758 37.0157 9.68923 38.2514 9.61358 39.6362Z" fill="#3B0075"/>
<path d="M18.5443 23.9817C18.6773 24.1791 18.8108 24.3765 18.9487 24.5706C19.0958 24.7581 19.2372 24.9504 19.3895 25.1338C19.5489 25.3113 19.7019 25.4944 19.8667 25.6666L20.118 25.9212C20.2021 26.0056 20.2837 26.0926 20.374 26.1707C21.0733 26.8189 21.8514 27.3785 22.6793 27.8373C23.5065 28.2977 24.3796 28.6646 25.2752 28.9395C26.1698 29.2183 27.085 29.4128 28.0057 29.5331C28.0645 29.5408 28.1184 29.4994 28.126 29.4406C28.1332 29.3861 28.0981 29.3358 28.046 29.3226L28.0454 29.3225C27.1545 29.0967 26.2795 28.8256 25.436 28.4869C25.2229 28.408 25.0178 28.3098 24.8107 28.218C24.6016 28.1308 24.4006 28.0263 24.1985 27.9256C23.9941 27.8292 23.7995 27.7145 23.6026 27.6051C23.4034 27.4999 23.2149 27.3767 23.0244 27.2577C22.2672 26.7743 21.5623 26.218 20.9286 25.5914C20.8455 25.517 20.7711 25.4339 20.6941 25.3535L20.4641 25.1113C20.3133 24.9476 20.174 24.7733 20.0283 24.6052L19.6169 24.0788L19.2316 23.532L19.2202 23.5159C19.0896 23.3305 18.8335 23.2862 18.6482 23.4168C18.4654 23.5456 18.42 23.797 18.5443 23.9817Z" fill="#3B0075"/>
<path d="M41.6506 28.4732C40.422 29.2224 39.0632 29.7695 37.6457 30.081C36.2283 30.3932 34.7531 30.4696 33.2991 30.3024C33.1957 30.2904 33.1023 30.3646 33.0904 30.4679C33.0789 30.568 33.1485 30.6588 33.2467 30.6754C34.7314 30.9218 36.2631 30.9212 37.7594 30.6692C39.2557 30.418 40.7158 29.9155 42.0599 29.1854L42.0606 29.185C42.26 29.0767 42.3338 28.8273 42.2255 28.6279C42.1172 28.4285 41.8677 28.3547 41.6683 28.463C41.6627 28.466 41.656 28.47 41.6506 28.4732Z" fill="#3B0075"/>
<path fill-rule="evenodd" clip-rule="evenodd" d="M37.9302 46.23C36.1388 46.2024 35.134 44.9828 34.9161 42.5704C37.4094 41.0433 39.272 38.734 40.2654 36.0684C40.2977 39.4388 40.6592 41.2931 41.3502 41.6307C42.4267 41.7047 43.3179 42.496 43.5189 43.556C43.7198 44.6164 43.2839 46.1193 42.2051 46.1415L37.9302 46.23Z" fill="#6E787A"/>
<g opacity="0.3">
<path fill-rule="evenodd" clip-rule="evenodd" d="M40.2906 37.2578C40.3901 39.8829 40.7427 41.3436 41.3483 41.6394C42.4248 41.7134 43.316 42.5047 43.517 43.5647C43.6549 44.2934 43.4926 45.2309 43.0269 45.7536C42.9463 45.7628 42.865 45.7699 42.7833 45.7749C43.193 43.5697 41.9989 42.3121 39.2014 42.0012C39.2014 42.0012 39.3487 41.7756 39.6437 41.3231C39.4042 40.6458 39.332 39.499 39.4272 37.8833C39.6938 37.6376 39.9842 37.4291 40.2906 37.2578Z" fill="white"/>
</g>
<path d="M37.9302 46.5954C37.9327 46.5954 37.9352 46.5953 37.9377 46.5953L42.2125 46.5067C42.6569 46.4975 43.0514 46.2961 43.3531 45.9242C43.9015 45.248 44.0088 44.217 43.872 43.495C43.6462 42.3037 42.6619 41.4065 41.4623 41.2855C41.2273 41.1108 40.6649 40.253 40.6247 36.0709C40.623 35.8976 40.498 35.7503 40.3274 35.7203C40.1568 35.6902 39.989 35.7865 39.9285 35.9488C38.9521 38.569 37.1053 40.8139 34.7284 42.2698C34.6119 42.3412 34.5459 42.4726 34.5582 42.6086C34.7944 45.2232 35.9271 46.5645 37.9247 46.5953C37.9265 46.5953 37.9284 46.5954 37.9302 46.5954ZM39.9508 37.6671C40.1166 40.9773 40.6892 41.7137 41.1924 41.9595C41.234 41.9799 41.2792 41.992 41.3255 41.9951C42.2386 42.0579 42.9954 42.7297 43.1657 43.6288C43.2891 44.2794 43.1331 45.0543 42.7949 45.4713C42.6259 45.6796 42.4305 45.7832 42.1977 45.788L37.9294 45.8765C36.3959 45.8501 35.533 44.8308 35.2964 42.7625C37.2657 41.5084 38.8769 39.7373 39.9508 37.6671Z" fill="#3B0075"/>
<path d="M41.9762 41.3822C41.0545 41.2362 40.119 41.2731 39.2384 41.4804C39.1649 41.4977 39.1194 41.5713 39.1367 41.6448C39.1512 41.7065 39.2054 41.7485 39.2659 41.7502L39.2788 41.7505C39.4988 41.7565 39.7156 41.7665 39.9303 41.7818C40.145 41.8009 40.3573 41.8199 40.5675 41.8508C40.7774 41.8847 40.9854 41.9176 41.1912 41.96L41.808 42.081L41.8509 42.0894C42.0456 42.1276 42.2343 42.0007 42.2725 41.8061C42.3107 41.6114 42.1838 41.4226 41.9892 41.3845C41.9853 41.3837 41.98 41.3828 41.9762 41.3822Z" fill="#3B0075"/>
<path d="M38.7926 44.3299C38.8602 44.4885 38.9274 44.6466 38.9751 44.8057C39.0239 44.9639 39.0616 45.1227 39.0717 45.2686C39.0832 45.4144 39.0577 45.5424 39.0117 45.6103C38.9869 45.6438 38.9644 45.667 38.9295 45.6847C38.9004 45.7048 38.8537 45.7187 38.8073 45.7343C38.5908 45.8072 38.4744 46.0419 38.5473 46.2584C38.6203 46.475 38.855 46.5913 39.0715 46.5184C39.1014 46.5083 39.1295 46.4951 39.1554 46.4793L39.1614 46.4754C39.2702 46.4081 39.3791 46.3324 39.4709 46.2226C39.5652 46.119 39.6339 45.9857 39.6726 45.8555C39.7463 45.5888 39.7073 45.3502 39.6484 45.1519C39.587 44.9515 39.4996 44.7777 39.406 44.6131C39.3128 44.4479 39.2055 44.2982 39.0989 44.1496C39.0415 44.0696 38.9301 44.0512 38.85 44.1087C38.7808 44.1583 38.7577 44.2482 38.7898 44.3234L38.7926 44.3299Z" fill="#3B0075"/>
<path d="M41.296 44.3765C41.3994 44.6672 41.4814 44.968 41.4853 45.2363C41.4876 45.369 41.4658 45.4891 41.4246 45.5719C41.3824 45.6554 41.3261 45.6965 41.2537 45.7347C41.0506 45.842 40.9729 46.0936 41.0802 46.2968C41.1874 46.4999 41.439 46.5776 41.6422 46.4704C41.6725 46.4544 41.7001 46.4351 41.7246 46.4133L41.758 46.3832C41.9358 46.2233 42.0721 45.9896 42.1114 45.763C42.1534 45.5362 42.1281 45.3298 42.083 45.1473C41.9884 44.7819 41.8198 44.4853 41.6426 44.2034C41.5853 44.1124 41.4652 44.085 41.3742 44.1422C41.2956 44.1916 41.2645 44.288 41.2944 44.372L41.296 44.3765Z" fill="#3B0075"/>
<path fill-rule="evenodd" clip-rule="evenodd" d="M28.4824 5.9466C26.5605 0.975847 24.8702 2.09641 23.4118 9.30746C24.7566 7.94583 26.4466 6.82526 28.4824 5.9466Z" fill="#FC5180"/>
<path d="M23.4089 9.56125C23.4759 9.56125 23.5421 9.53501 23.5916 9.48495C24.9074 8.15262 26.5862 7.04049 28.5813 6.17941C28.7079 6.12477 28.7688 5.97979 28.719 5.85116C27.8456 3.59206 27.0345 2.5743 26.1585 2.64829C25.0025 2.74639 24.049 4.84532 23.1573 9.25366C23.1348 9.36492 23.1881 9.47776 23.2883 9.53115C23.3264 9.55141 23.3678 9.56125 23.4089 9.56125ZM28.1502 5.80792C26.4828 6.55198 25.0341 7.47163 23.8303 8.54938C24.834 3.97284 25.7384 3.19918 26.2019 3.15983C26.5261 3.13249 27.204 3.44719 28.1502 5.80792Z" fill="#3B0075"/>
<path fill-rule="evenodd" clip-rule="evenodd" d="M41.7871 6.95581C40.9241 6.26095 40.022 5.70361 39.0805 5.28329C39.5524 2.8006 40.4547 3.358 41.7871 6.95581Z" fill="#FC5180"/>
<path d="M41.7843 7.20987C41.8368 7.20987 41.8893 7.19385 41.9342 7.16152C42.028 7.09409 42.0651 6.97234 42.025 6.86403C40.9036 3.83598 40.2831 3.46763 39.822 3.50537C39.3524 3.54468 39.0451 4.07739 38.8255 5.23269C38.8033 5.34964 38.8643 5.46648 38.973 5.51502C39.8902 5.92455 40.7819 6.47565 41.6233 7.1531C41.6702 7.19084 41.7272 7.20987 41.7843 7.20987ZM39.8701 4.0168C39.9396 4.0168 40.3618 4.11216 41.2192 6.20719C40.6207 5.78782 40.0017 5.42788 39.3696 5.13187C39.6015 4.05191 39.8536 4.01795 39.8649 4.01702C39.8663 4.01689 39.8681 4.0168 39.8701 4.0168Z" fill="#3B0075"/>
<path fill-rule="evenodd" clip-rule="evenodd" d="M39.0332 18.208C37.7551 18.208 36.7191 18.6567 36.7191 19.2104C36.7191 19.7639 37.7551 21.3036 39.0332 21.3036C40.3115 21.3036 41.3477 19.7639 41.3477 19.2104C41.3477 18.6567 40.3115 18.208 39.0332 18.208Z" fill="#3B0075"/>
<path d="M42.5944 21.7864C42.2258 22.0715 41.8667 22.3344 41.5028 22.4981C41.3173 22.5693 41.1401 22.6281 40.9601 22.6436C40.7814 22.6612 40.6023 22.6478 40.4216 22.6062C40.2401 22.5733 40.056 22.4953 39.8742 22.4119C39.7836 22.3647 39.6925 22.3208 39.6034 22.2644L39.5361 22.2245C39.5105 22.2096 39.5006 22.2027 39.4539 22.1771C39.4144 22.156 39.3759 22.1341 39.3344 22.1155C39.2915 22.0983 39.248 22.082 39.2043 22.0666C39.0244 22.0106 38.8304 22.0026 38.662 22.0272C38.4922 22.0507 38.345 22.1012 38.2145 22.1568C37.9559 22.2693 37.7495 22.4005 37.5597 22.5062C37.1865 22.7106 36.8033 22.8748 36.4151 22.9689C36.0268 23.0617 35.6374 23.0743 35.2662 22.9993C34.8952 22.9233 34.5433 22.7495 34.2232 22.5062C33.9035 22.2615 33.6215 21.9475 33.362 21.6062L33.3413 21.5789C33.2042 21.3986 32.9469 21.3636 32.7666 21.5007C32.5906 21.6345 32.5535 21.8836 32.6794 22.063C32.962 22.4648 33.2935 22.8446 33.6948 23.1591C33.7421 23.201 33.7964 23.2359 33.8492 23.2722L34.008 23.3802C34.1158 23.4496 34.2332 23.5064 34.3456 23.5688C34.4641 23.6211 34.5847 23.6704 34.7061 23.7152L34.8938 23.7687C34.9566 23.7854 35.0182 23.8065 35.0829 23.8145C35.5937 23.917 36.1192 23.8819 36.601 23.7541C37.0851 23.6273 37.5298 23.4138 37.9417 23.1674C38.1443 23.0435 38.3294 22.9199 38.5112 22.8334C38.6934 22.7472 38.8598 22.7087 39.0041 22.7459C39.0222 22.7523 39.0404 22.7581 39.059 22.7635C39.0773 22.7707 39.0951 22.7809 39.1137 22.7889C39.1283 22.7945 39.1612 22.8131 39.1863 22.8261L39.2663 22.8687C39.3712 22.9277 39.4838 22.9765 39.5946 23.0268C39.8217 23.1185 40.0556 23.204 40.3073 23.2388C40.5571 23.2742 40.8164 23.2727 41.0662 23.2194C41.3152 23.1623 41.5469 23.0582 41.7566 22.9287C41.8569 22.858 41.9603 22.7916 42.0497 22.71C42.1447 22.6344 42.2291 22.5494 42.3128 22.4642C42.3975 22.3797 42.4682 22.2843 42.546 22.1953C42.6187 22.1024 42.6868 22.0067 42.7571 21.9129C42.7907 21.868 42.7815 21.8043 42.7366 21.7706C42.6992 21.7426 42.6488 21.7442 42.6135 21.7715L42.5944 21.7864Z" fill="#3B0075"/>
<path fill-rule="evenodd" clip-rule="evenodd" d="M39.791 22.8586C38.796 29.1183 36.5199 28.901 33.0197 21.832C34.1906 23.5814 35.8255 24.0477 37.766 22.938C38.2614 22.6543 38.7586 22.287 39.2549 22.5841C39.4381 22.6936 39.6165 22.7855 39.791 22.8586Z" fill="#3B0075"/>
<path d="M37.4967 27.7672C37.5724 27.7672 37.6475 27.7615 37.7221 27.7501C38.9155 27.5684 39.7016 26.0351 40.196 22.9247C40.2258 22.7377 40.1238 22.5546 39.9491 22.4814C39.7967 22.4175 39.6339 22.334 39.4649 22.2331C38.8142 21.8436 38.1823 22.2171 37.7207 22.4899C37.6676 22.5213 37.6144 22.5527 37.5613 22.5832C35.8598 23.5563 34.446 23.2273 33.3604 21.6052C33.2398 21.4253 33.0005 21.3697 32.8132 21.4781C32.6259 21.5866 32.555 21.8219 32.651 22.0158C34.5871 25.9258 36.1353 27.7672 37.4967 27.7672ZM39.3346 23.1C38.788 26.2838 38.0172 26.8743 37.5985 26.9381C37.1339 27.0078 36.1605 26.6171 34.4623 23.6744C35.5033 24.143 36.6985 24.0229 37.9693 23.2961C38.026 23.2636 38.0823 23.2304 38.1387 23.197C38.596 22.9267 38.8341 22.8126 39.0434 22.9381C39.1417 22.9968 39.239 23.0509 39.3346 23.1Z" fill="#3B0075"/>
<path fill-rule="evenodd" clip-rule="evenodd" d="M34.6023 24.7006C35.4312 23.9151 36.6694 23.7475 37.6774 24.2848C39.4241 25.2153 39.6752 28.1847 37.7116 28.4287C35.9493 28.6481 35.712 26.0046 34.6023 24.7006Z" fill="#FC5180"/>
<path d="M37.5037 28.7481C37.5821 28.7481 37.6631 28.743 37.747 28.7325C38.6044 28.626 39.1891 28.0629 39.351 27.1876C39.5437 26.1459 39.0725 24.6786 37.8195 24.0112C36.6933 23.4108 35.3142 23.5973 34.3877 24.4751C34.2689 24.5877 34.2589 24.7736 34.365 24.8983C34.7189 25.3142 34.99 25.9049 35.2521 26.4761C35.7427 27.5451 36.2949 28.7481 37.5037 28.7481ZM36.4256 24.2784C36.8021 24.2784 37.1812 24.3691 37.5298 24.5549C38.488 25.0653 38.9002 26.2374 38.7452 27.0756C38.6806 27.4243 38.4554 28.0238 37.671 28.1212C36.8038 28.2286 36.3885 27.475 35.8121 26.2192C35.5778 25.7084 35.3367 25.1832 35.0239 24.7435C35.4349 24.4369 35.9279 24.2784 36.4256 24.2784Z" fill="#3B0075"/>
<g opacity="0.3">
<path fill-rule="evenodd" clip-rule="evenodd" d="M23.2018 44.9771C22.8824 44.2893 22.4316 43.8285 21.8496 43.5949C23.5422 42.0908 22.8732 39.4151 19.8428 35.5675C21.0165 35.8767 21.9893 35.13 22.7615 33.3271C23.2545 38.6697 24.0801 42.5717 25.2383 45.0322C23.8806 44.9954 23.2018 44.9771 23.2018 44.9771Z" fill="#3B0075"/>
</g>
<path d="M32.4585 22.7284C32.6405 22.7284 32.8068 22.6065 32.8553 22.4222C32.928 22.1464 33.1231 21.766 33.9737 21.6485C34.1983 21.6175 34.3553 21.4102 34.3242 21.1855C34.2933 20.9608 34.086 20.8044 33.8612 20.8348C32.6286 21.0052 32.202 21.6783 32.0611 22.2129C32.0033 22.4322 32.1342 22.6569 32.3535 22.7147C32.3886 22.7239 32.4238 22.7284 32.4585 22.7284Z" fill="#3B0075"/>
<g opacity="0.3">
<path fill-rule="evenodd" clip-rule="evenodd" d="M40.6434 29.447C41.6254 29.0247 42.8202 28.3928 44.0455 27.4392C46.3107 25.6764 47.6045 23.6517 48.2969 22.3354C47.4647 23.4489 43.6833 28.2513 36.9605 29.2875C31.5247 30.1253 25.8438 28.2422 22.3053 24.4842C21.2992 23.4158 19.4399 21.3765 18.9557 18.141C18.6511 16.1055 18.9977 13.9726 19.9954 11.7422C18.3908 13.8124 17.4927 15.8413 17.2997 17.8293L17.2995 17.8285V17.8331C17.1265 19.623 17.5259 21.3799 18.4981 23.103L18.499 23.1038C20.0906 26.0723 23.2654 28.1806 28.0245 29.4282C24.8332 28.3565 22.7569 27.6237 21.7964 27.2305C25.9465 30.7535 31.2757 32.5756 36.714 32.3307C37.667 32.7105 37.4213 33.8503 35.977 35.7506C34.7914 37.3236 33.779 37.589 32.9403 36.5465C32.5575 36.0198 31.8254 35.1665 30.6329 34.5385C29.9601 34.1841 29.3317 34.0021 28.8453 33.9043C29.4175 34.4821 30.7491 35.9835 31.2264 38.3497C31.6081 40.242 31.2633 41.7947 31.033 42.5722C32.1026 42.9495 32.7646 43.3331 33.0188 43.7237C33.2259 43.6402 33.4293 43.5504 33.6294 43.4567C33.1693 43.3632 32.7119 43.2282 32.2626 43.0494C33.442 42.4996 36.2979 40.9763 38.399 37.6592C40.6147 34.1611 40.682 30.7342 40.6434 29.447Z" fill="#3B0075"/>
</g>
<g opacity="0.3">
<path fill-rule="evenodd" clip-rule="evenodd" d="M27.4819 47.0929C24.8574 46.2384 23.4832 41.7022 23.3592 33.4834C24.4968 41.3099 26.512 45.3523 29.4049 45.6101C30.9009 46.0976 32.2373 46.1641 33.4141 45.8098C33.2607 47.0557 31.2832 47.4831 27.4819 47.0929Z" fill="#3B0075"/>
</g>
<g opacity="0.3">
<path fill-rule="evenodd" clip-rule="evenodd" d="M15.3535 46.7768C15.2547 46.7953 15.1588 46.8125 15.066 46.8285C13.9938 47.0127 12.8981 46.6402 12.1753 45.8272C11.0041 44.5097 10.2479 42.8589 10.0268 41.084C9.73666 38.7547 10.3924 36.4062 11.8473 34.5645C11.3432 36.6778 11.922 37.9358 13.5843 38.3378C12.4284 41.2512 13.1249 44.5728 15.3535 46.7768Z" fill="#3B0075"/>
</g>
<g opacity="0.3">
<path fill-rule="evenodd" clip-rule="evenodd" d="M21.0586 46.6055C17.6006 46.8558 15.8717 46.9811 15.8717 46.9811C14.2512 45.8902 13.2121 44.1241 13.0458 42.1784C12.8792 40.2317 13.6033 38.3148 15.0149 36.9648C13.7882 43.4669 15.8029 46.6803 21.0586 46.6055Z" fill="#3B0075"/>
</g>
<g opacity="0.3">
<path fill-rule="evenodd" clip-rule="evenodd" d="M9.73921 40.1428C9.96524 39.0828 10.1184 38.355 10.1992 37.9593C7.37188 37.4809 5.12841 35.3158 4.55056 32.5068C4.14235 33.7883 4.11165 35.1595 4.462 36.4573C2.66435 36.1193 1.18173 34.8504 0.570478 33.1261C0.24142 35.4934 1.21117 37.8549 3.10934 39.3072C5.00747 40.7599 7.54023 41.0791 9.73921 40.1428Z" fill="#3B0075"/>
</g>
<g opacity="0.3">
<path fill-rule="evenodd" clip-rule="evenodd" d="M28.2871 6.0336C27.5741 3.83171 26.7719 2.90878 25.8803 3.26474C27.0803 4.46928 27.1737 5.33916 26.1605 5.87397C25.0255 6.5776 24.1829 7.66765 23.7873 8.94327C25.9864 7.25569 27.4864 6.28594 28.2871 6.0336Z" fill="#3B0075"/>
</g>
<g opacity="0.3">
<path fill-rule="evenodd" clip-rule="evenodd" d="M38.5429 39.9082C36.3759 41.4052 35.1941 42.5045 34.9973 43.2069C35.3863 46.2707 37.7177 47.0875 41.9922 45.6573C38.2955 45.6632 37.1457 43.7471 38.5429 39.9082Z" fill="#3B0075"/>
</g>
<path d="M43.3615 8.80689C43.4239 8.80689 43.4868 8.79064 43.5437 8.7571C43.6909 8.6704 43.7567 8.49213 43.7011 8.33061C41.9144 3.13286 40.3587 0.710938 38.8066 0.710938C38.8046 0.710938 38.8028 0.710938 38.8008 0.710938C37.712 0.715137 36.7877 1.89543 35.9753 4.31928C35.9423 4.41765 35.9535 4.52545 36.0058 4.61501C36.0582 4.70456 36.1468 4.76709 36.2487 4.78653C38.9157 5.29505 41.2189 6.6077 43.0943 8.68807C43.1645 8.76593 43.2624 8.80689 43.3615 8.80689ZM38.8063 1.4297C39.4089 1.4297 40.6484 2.20545 42.4851 7.0728C40.8368 5.6158 38.9283 4.64058 36.79 4.16449C37.5995 1.91934 38.3263 1.43156 38.8036 1.4297C38.8045 1.4297 38.8054 1.4297 38.8063 1.4297Z" fill="#3B0075"/>
<g opacity="0.38">
<path fill-rule="evenodd" clip-rule="evenodd" d="M39.0543 18.8779C38.3215 18.8779 37.7275 18.9686 37.7275 19.0806C37.7275 19.1925 38.3214 19.2832 39.0543 19.2832C39.7869 19.2832 40.3809 19.1925 40.3809 19.0806C40.3809 18.9686 39.7869 18.8779 39.0543 18.8779Z" fill="white"/>
</g>
<path d="M34.2681 14.0132C33.4177 13.8921 32.6537 14.8608 32.5617 16.1768C32.4697 17.4929 33.0845 18.6579 33.9349 18.779C34.7853 18.9001 35.5493 17.9314 35.6413 16.6153C35.7333 15.2993 35.1185 14.1342 34.2681 14.0132Z" fill="#3B0075"/>
<path d="M34.2171 14.5677C33.9491 14.6795 33.8415 15.1249 33.9768 15.5625C34.1121 16 34.4391 16.2641 34.7071 16.1522C34.9751 16.0404 35.0827 15.595 34.9474 15.1574C34.8121 14.7199 34.4852 14.4558 34.2171 14.5677Z" fill="white"/>
<path d="M33.3665 17.38C33.2404 17.4772 33.2297 17.7244 33.3425 17.9321C33.4553 18.1398 33.649 18.2294 33.775 18.1322C33.901 18.0351 33.9117 17.7879 33.7989 17.5802C33.6861 17.3725 33.4925 17.2829 33.3665 17.38Z" fill="#B199C5"/>
<path d="M42.4109 14.5751C41.7018 14.4923 41.0873 15.3131 41.0384 16.4085C40.9894 17.5039 41.5245 18.4591 42.2337 18.5419C42.9428 18.6247 43.5573 17.8039 43.6063 16.7085C43.6552 15.6131 43.12 14.6579 42.4109 14.5751Z" fill="#3B0075"/>
<path d="M42.3769 15.027C42.1565 15.1256 42.0764 15.4979 42.198 15.8586C42.3195 16.2194 42.5967 16.4319 42.8171 16.3334C43.0374 16.2348 43.1175 15.8625 42.996 15.5018C42.8744 15.141 42.5972 14.9285 42.3769 15.027Z" fill="white"/>
<path d="M41.7255 17.3808C41.6228 17.4641 41.6191 17.6697 41.7172 17.84C41.8152 18.0102 41.978 18.0806 42.0806 17.9972C42.1833 17.9138 42.187 17.7082 42.089 17.538C41.9909 17.3678 41.8282 17.2974 41.7255 17.3808Z" fill="#B199C5"/>
</svg>
