<svg width="49" height="49" viewBox="0 0 49 49" fill="none" xmlns="http://www.w3.org/2000/svg">
<rect x="0.332031" y="0.498047" width="48" height="48" rx="12" fill="#092522"/>
<g clip-path="url(#clip0_1151_25802)">
<path d="M14.25 24.998C14.25 26.2784 14.5022 27.5463 14.9922 28.7292C15.4822 29.9121 16.2003 30.987 17.1057 31.8923C18.0111 32.7977 19.0859 33.5159 20.2688 34.0059C21.4518 34.4959 22.7196 34.748 24 34.748C25.2804 34.748 26.5482 34.4959 27.7312 34.0059C28.9141 33.5159 29.9889 32.7977 30.8943 31.8923C31.7997 30.987 32.5178 29.9121 33.0078 28.7292C33.4978 27.5463 33.75 26.2784 33.75 24.998C33.75 23.7177 33.4978 22.4498 33.0078 21.2669C32.5178 20.084 31.7997 19.0091 30.8943 18.1038C29.9889 17.1984 28.9141 16.4802 27.7312 15.9902C26.5482 15.5002 25.2804 15.248 24 15.248C22.7196 15.248 21.4518 15.5002 20.2688 15.9902C19.0859 16.4802 18.0111 17.1984 17.1057 18.1038C16.2003 19.0091 15.4822 20.084 14.9922 21.2669C14.5022 22.4498 14.25 23.7177 14.25 24.998Z" stroke="white" stroke-width="1.625" stroke-linecap="round" stroke-linejoin="round"/>
<path d="M27.0333 21.7467C26.8371 21.4062 26.552 21.1256 26.2085 20.9348C25.865 20.7439 25.4761 20.6501 25.0833 20.6633H22.9167C22.342 20.6633 21.7909 20.8916 21.3846 21.2979C20.9783 21.7043 20.75 22.2554 20.75 22.83C20.75 23.4046 20.9783 23.9557 21.3846 24.3621C21.7909 24.7684 22.342 24.9967 22.9167 24.9967H25.0833C25.658 24.9967 26.2091 25.2249 26.6154 25.6313C27.0217 26.0376 27.25 26.5887 27.25 27.1633C27.25 27.738 27.0217 28.2891 26.6154 28.6954C26.2091 29.1017 25.658 29.33 25.0833 29.33H22.9167C22.5239 29.3432 22.135 29.2494 21.7915 29.0586C21.448 28.8677 21.1629 28.5871 20.9667 28.2467" stroke="white" stroke-width="1.625" stroke-linecap="round" stroke-linejoin="round"/>
<path d="M24 19.5801V30.4134" stroke="white" stroke-width="1.625" stroke-linecap="round" stroke-linejoin="round"/>
</g>
<defs>
<clipPath id="clip0_1151_25802">
<rect width="26" height="26" fill="white" transform="translate(11 11.998)"/>
</clipPath>
</defs>
</svg>
