<svg width="47" height="50" viewBox="0 0 47 50" fill="none" xmlns="http://www.w3.org/2000/svg">
<g opacity="0.3">
<path d="M24.21 49.9979C36.7966 49.9979 47.0001 48.352 47.0001 46.3217C47.0001 44.2914 36.7966 42.6455 24.21 42.6455C11.6234 42.6455 1.41992 44.2914 1.41992 46.3217C1.41992 48.352 11.6234 49.9979 24.21 49.9979Z" fill="#3F2017"/>
</g>
<path d="M12.3378 40.655C5.3289 43.4478 2.54525 40.2289 1.74381 38.9111C1.58759 38.6555 1.70628 38.3217 1.99034 38.2253L2.92669 37.9068C0.813579 36.589 0.573144 33.573 0.5762 32.2289C0.5772 31.9022 0.904879 31.677 1.20922 31.7947L2.02484 32.1082C1.91327 30.0235 2.79683 28.5606 3.69362 27.6253C3.69464 27.6243 3.69464 27.6243 3.69464 27.6243C4.09129 27.2104 4.49098 26.9 4.8075 26.6849C5.0956 26.4891 5.48819 26.6707 5.52978 27.0156L5.6079 27.6628C10.2572 26.484 11.8387 28.7838 12.2303 29.5639C12.2901 29.6836 12.2252 29.8277 12.0953 29.8622C11.44 30.0346 9.65659 30.7194 9.30152 33.1196C8.86329 36.0747 12.0517 37.9068 12.0517 37.9068L12.2769 40.0717L12.3378 40.655Z" fill="#FFBD5C"/>
<path d="M12.3378 40.6566C5.3289 43.4494 2.54525 40.2306 1.74381 38.9128C1.58759 38.6571 1.70628 38.3234 1.99034 38.227L2.92669 37.9085C0.813579 36.5907 0.573144 33.5747 0.5762 32.2306C0.5772 31.9039 0.904879 31.6787 1.20922 31.7964L2.02484 32.1098C1.91327 30.0251 2.79683 28.5623 3.69362 27.627C3.65407 27.7294 1.37254 33.6376 5.08851 36.2945L3.17322 36.1038C3.17322 36.1038 4.15825 37.806 6.57874 38.1966L4.60967 38.8935C4.60967 38.8935 6.48946 41.2541 12.2769 40.0733L12.3378 40.6566Z" fill="#F79654"/>
<path d="M7.30538 42.1382C6.32129 42.1382 5.41265 41.9845 4.58291 41.6766C2.79084 41.0118 1.83497 39.7815 1.42464 39.1072C1.29076 38.8871 1.2643 38.6226 1.35194 38.3812C1.43913 38.1412 1.62796 37.9563 1.86997 37.8742L2.14083 37.7822C0.395972 36.2096 0.199822 33.433 0.203166 32.2299C0.203916 31.9533 0.340461 31.6949 0.568479 31.5388C0.796074 31.383 1.0857 31.3491 1.34327 31.4482L1.64379 31.5638C1.71958 28.7625 3.49746 27.1257 4.5978 26.3784C4.8407 26.2136 5.14548 26.1875 5.41323 26.3094C5.6823 26.4317 5.86415 26.6798 5.89971 26.9732L5.92791 27.2062C10.547 26.1949 12.1692 28.6137 12.5633 29.3985C12.6427 29.5567 12.6466 29.7397 12.574 29.9006C12.5012 30.0617 12.3611 30.1799 12.1897 30.225C11.5382 30.3963 9.98837 31.0267 9.66984 33.1767C9.27533 35.8399 12.2084 37.5689 12.2381 37.5861C12.3415 37.6459 12.4105 37.7518 12.4228 37.8707L12.7084 40.6184C12.7257 40.7844 12.6305 40.9417 12.4755 41.0035C10.5788 41.7594 8.84957 42.1382 7.30538 42.1382ZM1.04122 32.1381C1.01967 32.1381 1.00232 32.1461 0.990071 32.1545C0.971581 32.1672 0.949477 32.1909 0.949381 32.232C0.946055 33.4339 1.15135 36.3622 3.12427 37.5927C3.24661 37.669 3.314 37.809 3.29743 37.9522C3.28086 38.0954 3.18329 38.2162 3.04679 38.2625L2.10996 38.5807C2.07552 38.5924 2.06018 38.6172 2.05337 38.636C2.04751 38.6521 2.04084 38.6843 2.06216 38.7193C2.88032 40.0639 5.46928 42.8886 11.9369 40.4128L11.6996 38.1302C11.0138 37.6872 8.5171 35.8659 8.9317 33.0673C9.29096 30.6422 11.0271 29.8132 11.8023 29.5615C11.3239 28.7547 9.77219 26.994 5.69939 28.0269C5.5955 28.0531 5.48517 28.0336 5.39672 27.9729C5.30827 27.9123 5.25016 27.8165 5.23732 27.7101L5.15896 27.0629C5.15342 27.0173 5.1224 26.9968 5.10439 26.9885C5.08336 26.9791 5.05109 26.9725 5.01707 26.9957C3.97476 27.7036 2.24823 29.3069 2.39672 32.0899C2.40342 32.2162 2.34576 32.3373 2.24345 32.4116C2.14125 32.4859 2.0082 32.5034 1.89019 32.4579L1.07541 32.1446C1.06307 32.14 1.05164 32.1381 1.04122 32.1381Z" fill="#3F2017"/>
<path d="M40.5162 45.9692C40.085 47.8155 34.8941 47.3641 32.925 47.3022C30.955 47.2413 30.0115 46.6256 30.0115 46.6256C30.0115 46.6256 27.3952 47.007 24.3671 47.0151H24.2758C21.2091 47.0151 18.5401 46.6256 18.5401 46.6256C18.5401 46.6256 17.5966 47.2413 15.6276 47.3022C13.6575 47.3641 8.46652 47.8155 8.0354 45.9692C7.95221 45.6131 7.95728 45.3088 8.01816 45.0511C8.26466 43.992 9.45158 43.6918 9.45158 43.6918C6.16879 35.8947 12.0516 35.9636 12.0516 35.9636C12.9606 31.9241 14.1911 28.1463 15.1457 25.4924C15.9877 23.1501 16.6136 21.6832 16.6136 21.6832C16.6136 21.6832 20.3438 19.7912 24.2089 19.7861H24.3286C28.1997 19.7861 31.938 21.6832 31.938 21.6832C31.938 21.6832 34.7886 28.3583 36.5 35.9636C36.5 35.9636 42.3828 35.8947 39.1001 43.6918C39.1 43.6918 40.9382 44.1574 40.5162 45.9692Z" fill="#FFBD5C"/>
<path d="M40.7161 45.0519C40.4127 45.4972 39.6732 45.9222 37.9496 45.9111C34.3585 45.8877 32.6319 45.8259 32.008 44.2869C31.3841 42.748 33.2628 41.763 33.2628 41.763C33.2628 41.763 33.2771 37.0853 37.0529 36.1561C37.0529 36.1561 34.8789 35.6904 34.0582 33.9121L25.7823 39.0554C25.7823 39.0554 25.27 39.6306 24.3671 39.6306C23.4642 39.6306 22.952 39.0554 22.952 39.0554L14.676 33.9121C13.8553 35.6904 11.6814 36.1561 11.6814 36.1561C15.4572 37.0853 15.4714 41.763 15.4714 41.763C15.4714 41.763 17.3501 42.748 16.7262 44.2869C16.1023 45.8259 14.3757 45.8877 10.7846 45.9111C9.06101 45.9222 8.32148 45.4972 8.01816 45.0519C7.95728 45.3095 7.95221 45.6138 8.0354 45.9699C8.46654 47.8162 13.6575 47.3648 15.6276 47.3029C17.5966 47.2421 18.5401 46.6263 18.5401 46.6263C18.5401 46.6263 21.2091 47.0158 24.2758 47.0158H24.3671H24.4584C27.5251 47.0158 30.1941 46.6263 30.1941 46.6263C30.1941 46.6263 31.1376 47.2421 33.1066 47.3029C35.0767 47.3648 40.2677 47.8162 40.6988 45.9699C40.782 45.6138 40.7769 45.3095 40.7161 45.0519Z" fill="#F79654"/>
<path d="M31.8029 21.6832C31.8029 21.6832 28.0727 19.7912 24.2077 19.7861C20.3426 19.7912 16.6124 21.6832 16.6124 21.6832C16.6124 21.6832 15.9865 23.1501 15.1445 25.4924C16.232 25.9246 17.5752 26.3375 18.8666 26.4166C18.8666 26.4166 20.8701 28.9598 24.2077 28.9598C27.5452 28.9598 29.5488 26.4166 29.5488 26.4166C30.8402 26.3375 32.1833 25.9246 33.2708 25.4924C32.4288 23.1501 31.8029 21.6832 31.8029 21.6832Z" fill="#F79654"/>
<path d="M9.35676 43.3299C10.4342 43.1081 11.535 43.0616 12.6236 43.2138C12.9849 43.2616 13.3413 43.3511 13.692 43.4538C13.8224 43.4919 13.8971 43.6286 13.859 43.759C13.8213 43.8889 13.6852 43.9624 13.5568 43.9271C13.2284 43.8528 12.8972 43.7896 12.5591 43.7658C11.5521 43.6852 10.5132 43.7912 9.53991 44.0534C9.04784 44.1761 8.86382 43.4572 9.35676 43.3299Z" fill="#3F2017"/>
<path d="M39.0059 44.0518C38.0351 43.7916 36.9994 43.686 35.9953 43.7666C35.6531 43.7907 35.3182 43.8551 34.9858 43.9305C34.8533 43.9605 34.7215 43.8774 34.6916 43.7449C34.6628 43.6176 34.7391 43.4909 34.8624 43.4545C35.5608 43.2408 36.2896 43.1377 37.0181 43.1284C37.5634 43.1192 38.1078 43.1539 38.6478 43.2321C38.8305 43.2587 39.0034 43.2876 39.1976 43.3306C39.399 43.3751 39.5261 43.5745 39.4816 43.7758C39.4357 43.9883 39.2131 44.1169 39.0059 44.0518Z" fill="#3F2017"/>
<path d="M11.7618 47.3673C11.2598 46.5288 11.1533 45.4396 11.9225 44.724C12.1214 44.5165 12.4474 44.7832 12.2852 45.0187C11.7992 45.5895 11.9899 46.3465 12.4244 46.8844C12.833 47.3557 12.0904 47.9004 11.7618 47.3673Z" fill="#3F2017"/>
<path d="M9.64659 47.2716C9.14455 46.433 9.03809 45.3441 9.80722 44.6283C10.0062 44.4208 10.3322 44.6876 10.17 44.923C9.68391 45.4939 9.87474 46.2506 10.3091 46.7887C10.7177 47.26 9.97517 47.8047 9.64659 47.2716Z" fill="#3F2017"/>
<path d="M36.1293 46.8855C36.4306 46.5051 36.6502 45.9805 36.5196 45.4958C36.4856 45.3354 36.3898 45.1936 36.2899 45.0507C36.1964 44.9436 36.206 44.7762 36.3264 44.6936C36.423 44.6261 36.5528 44.6417 36.6312 44.7251L36.7509 44.8525C37.2164 45.3419 37.2818 46.0962 37.0808 46.7151C37.0056 46.9587 36.9135 47.1774 36.7742 47.396C36.4259 47.8868 35.7312 47.3382 36.1293 46.8855Z" fill="#3F2017"/>
<path d="M38.2445 46.7898C38.5458 46.4095 38.7655 45.8848 38.6348 45.4001C38.6008 45.2398 38.5051 45.098 38.4052 44.9549C38.3116 44.8479 38.3213 44.6805 38.4416 44.5979C38.5382 44.5304 38.668 44.546 38.7464 44.6294L38.8662 44.7567C39.3316 45.2462 39.397 46.0005 39.1961 46.6194C39.1209 46.863 39.0288 47.0817 38.8895 47.3003C38.5411 47.7912 37.8465 47.2425 38.2445 46.7898Z" fill="#3F2017"/>
<path d="M12.6634 47.7707C10.4072 47.7708 8.00727 47.4954 7.67117 46.0552C7.33542 44.6163 8.21683 43.8097 8.95738 43.4738C7.86968 40.7365 7.79315 38.6437 8.73069 37.2494C9.61037 35.9411 11.1065 35.6648 11.7495 35.607C13.4553 28.1689 16.241 21.6048 16.2693 21.5385C16.3037 21.4579 16.3654 21.392 16.4435 21.3523C16.5995 21.2732 20.307 19.4141 24.2215 19.4141C24.2396 19.4141 24.2573 19.4153 24.2747 19.4177C24.292 19.4153 24.3097 19.4141 24.3277 19.4141C28.2423 19.4141 31.9498 21.2732 32.1058 21.3523C32.1839 21.392 32.2456 21.4579 32.28 21.5385C32.3083 21.6048 35.094 28.1689 36.7998 35.607C37.4427 35.6648 38.9389 35.9411 39.8186 37.2494C40.7561 38.6437 40.6796 40.7365 39.5919 43.4738C40.3325 43.8097 41.2139 44.6163 40.8781 46.0552C40.4224 48.0083 36.1703 47.819 33.63 47.7061C33.3611 47.6942 33.1186 47.6833 32.9118 47.6769C31.2507 47.625 30.2705 47.1912 29.9357 47.0138C29.3632 47.0904 26.9549 47.3898 24.2747 47.3898C21.5945 47.3898 19.1861 47.0904 18.6136 47.0138C18.2788 47.1912 17.2986 47.625 15.6375 47.6769C15.4308 47.6833 15.1883 47.6942 14.9194 47.7061C14.2523 47.7358 13.4667 47.7707 12.6634 47.7707ZM12.0458 36.338C12.0041 36.338 10.2298 36.3504 9.34645 37.671C8.52102 38.9049 8.6716 40.8823 9.79408 43.5482C9.83627 43.6484 9.83266 43.762 9.78418 43.8593C9.73571 43.9566 9.64722 44.0279 9.54187 44.0547C9.39165 44.0941 8.07077 44.4836 8.39789 45.8857C8.71287 47.2353 13.0391 47.0427 14.8862 46.9607C15.1588 46.9485 15.4046 46.9376 15.6142 46.931C17.4347 46.8742 18.3284 46.3188 18.3373 46.3133C18.4128 46.2652 18.5048 46.2449 18.5932 46.2577C18.6196 46.2615 21.273 46.6437 24.2747 46.6437C27.2764 46.6437 29.9297 46.2615 29.9561 46.2577C30.046 46.2444 30.1377 46.2647 30.2138 46.3144C30.2209 46.3188 31.1146 46.8742 32.9351 46.931C33.1448 46.9376 33.3906 46.9485 33.6632 46.9606C35.5104 47.0427 39.8365 47.2352 40.1514 45.8856C40.4871 44.4471 39.068 44.07 39.0075 44.0547C38.9021 44.0279 38.8136 43.9566 38.7651 43.8593C38.7167 43.762 38.713 43.6484 38.7552 43.5482C39.8793 40.8784 40.0287 38.8993 39.1994 37.6657C38.3031 36.3327 36.5246 36.3392 36.5029 36.338C36.5014 36.338 36.5 36.338 36.4985 36.338C36.3242 36.3381 36.1729 36.2172 36.1345 36.0468C34.5791 29.1351 32.0467 22.9192 31.6473 21.9591C30.9819 21.6432 27.679 20.1602 24.3277 20.1602C24.3097 20.1602 24.292 20.159 24.2747 20.1565C24.2573 20.159 24.2396 20.1602 24.2215 20.1602C20.8702 20.1602 17.5674 21.6432 16.902 21.9591C16.5026 22.9192 13.9702 29.1351 12.4147 36.0468C12.3764 36.2172 12.2251 36.338 12.0508 36.338C12.0492 36.338 12.0491 36.3381 12.0458 36.338Z" fill="#3F2017"/>
<path d="M44.4139 14.0469C44.0304 17.4605 42.7035 15.8323 42.7035 15.8323C42.7035 15.8323 42.3373 16.9919 41.686 18.6495C40.8927 20.6703 40.2242 23.4884 38.8628 23.526C38.5909 23.5341 38.2916 23.4306 37.9579 23.1882C37.5024 22.8564 36.983 22.265 36.3834 21.3398C36.3834 21.3398 36.3439 21.4098 36.2546 21.5295C35.788 22.1463 33.9629 24.0921 29.1311 24.7017C29.1311 24.7017 27.4156 26.7083 24.2181 26.7083C21.0205 26.7083 19.3051 24.7017 19.3051 24.7017C13.5349 23.9734 12.0528 21.3398 12.0528 21.3398C8.81664 26.331 7.91784 21.6239 6.7502 18.6495C6.09892 16.9919 5.7327 15.8324 5.7327 15.8324C5.7327 15.8324 4.40581 17.4606 4.02335 14.0469C3.63989 10.6333 6.36167 7.51585 6.36167 7.51585C3.73525 6.33909 11.019 2.96806 11.019 2.96806C9.99343 2.43445 10.7735 1.53159 12.7426 1.49001C14.7705 1.44842 16.1339 2.53388 16.1339 2.53388C16.1339 2.53388 17.1737 1.48696 18.9156 0.889453C20.6574 0.291951 24.2181 0.376139 24.2181 0.376139C24.2181 0.376139 27.7799 0.291951 29.5207 0.889453C30.6406 1.27393 31.4694 1.84304 31.9198 2.20215C31.9198 2.20215 31.9209 2.20215 31.9219 2.20317C32.1704 2.40099 32.3023 2.53388 32.3023 2.53388C32.3023 2.53388 33.6657 1.44842 35.6936 1.49001C37.6637 1.53161 38.4428 2.43447 37.4172 2.96806C37.4172 2.96806 44.701 6.33909 42.0745 7.51585C42.0745 7.51585 44.7963 10.6333 44.4139 14.0469Z" fill="#FFBD5C"/>
<path d="M44.4139 14.0473C44.0304 17.461 42.7035 15.8328 42.7035 15.8328C42.7035 15.8328 42.3373 16.9923 41.686 18.6499C40.8927 20.6707 40.2242 23.4889 38.8628 23.5264C38.5392 23.4513 38.2379 23.3377 37.9579 23.1886C37.2711 22.8234 36.7101 22.2502 36.2546 21.53C33.3888 17.0055 34.6376 6.67123 34.4083 5.63547C34.104 4.26191 31.9878 2.26647 31.9219 2.20358C32.1704 2.4014 32.3023 2.53429 32.3023 2.53429C32.3023 2.53429 33.6657 1.44883 35.6936 1.49042C37.6637 1.53202 38.4428 2.43488 37.4172 2.96847C37.4172 2.96847 44.701 6.3395 42.0745 7.51626C42.0745 7.51626 44.7963 10.6337 44.4139 14.0473Z" fill="#C47737"/>
<path d="M15.7925 2.31515C15.9102 2.38717 15.9984 2.44702 16.0522 2.4866C15.3451 2.95324 14.0081 3.96465 13.6155 5.30679C13.3183 6.32531 15.0307 17.0055 12.1648 21.5299C11.7093 22.2502 11.1484 22.8234 10.4616 23.1886C10.1816 23.3377 9.88027 23.4513 9.55667 23.5264C8.19527 23.4888 7.52675 20.6707 6.73344 18.6499C6.08216 16.9923 5.71594 15.8328 5.71594 15.8328C5.71594 15.8328 5.23305 16.4252 4.76541 16.1462C4.45803 15.9626 4.15776 15.4016 4.00559 14.0473C3.62313 10.6337 6.34493 7.51625 6.34493 7.51625C3.7185 6.33949 11.0023 2.96846 11.0023 2.96846C9.97668 2.43485 10.7558 1.53199 12.7259 1.49041C14.1674 1.46097 15.2741 2.00065 15.7925 2.31515Z" fill="#C47737"/>
<path d="M16.4859 2.21289C16.2455 2.40564 16.1177 2.53448 16.1177 2.53448C16.1177 2.53448 16.0953 2.51723 16.0527 2.48681C16.2779 2.33767 16.4392 2.24434 16.4859 2.21289Z" fill="#D37826"/>
<path d="M34.9878 17.4404C35.0852 19.4811 34.331 22.4182 28.9374 23.2241C28.9374 23.2241 27.2341 25.1293 24.2177 25.4392C21.2012 25.1292 19.498 23.2241 19.498 23.2241C14.1044 22.4182 13.3502 19.4811 13.4475 17.4404C13.1381 18.896 12.687 20.26 12.0508 21.3396C12.0508 21.3396 13.5324 23.9731 19.3035 24.7008C19.3035 24.7008 20.9906 26.6723 24.1367 26.7053C24.1367 26.7055 24.1367 26.7056 24.1367 26.7058C24.1606 26.7067 24.1853 26.7067 24.21 26.7067C24.2119 26.7067 24.2138 26.7068 24.2157 26.7068C24.2164 26.7068 24.217 26.7068 24.2177 26.7068C24.2183 26.7068 24.2189 26.7068 24.2196 26.7068C24.2215 26.7068 24.2234 26.7067 24.2253 26.7067C24.25 26.7067 24.2748 26.7067 24.2986 26.7058C24.2986 26.7056 24.2986 26.7055 24.2986 26.7053C27.4447 26.6723 29.1318 24.7008 29.1318 24.7008C34.9029 23.9731 36.3845 21.3396 36.3845 21.3396C35.7483 20.2599 35.2972 18.896 34.9878 17.4404Z" fill="#F79654"/>
<path d="M19.0547 17.2509C19.0547 17.2509 19.6365 18.7326 21.1835 18.5766C22.7305 18.4206 23.1542 17.043 23.1542 17.043L23.8834 17.4037L24.2184 17.9398L24.1396 19.2785C24.1396 19.2785 19.9079 21.3185 19.0547 17.2509Z" fill="#F79654"/>
<path d="M29.3864 17.2509C29.3864 17.2509 28.8046 18.7326 27.2576 18.5766C25.7105 18.4206 25.2868 17.043 25.2868 17.043L24.5577 17.4037L24.2227 17.9398L24.3015 19.2785C24.3015 19.2785 28.5332 21.3185 29.3864 17.2509Z" fill="#F79654"/>
<path d="M13.8718 10.5674C13.8718 10.5674 13.5451 15.3987 13.4487 17.4403V17.4432C13.1392 18.8988 12.6881 20.2627 12.0519 21.3424C10.9916 22.9772 10.1944 23.5662 9.55723 23.516C9.52446 23.5131 9.49169 23.5093 9.45892 23.5026C9.45023 23.5016 9.44156 23.4997 9.43289 23.4968C9.41748 23.4939 9.40204 23.49 9.38663 23.4862C9.36639 23.4813 9.34711 23.4746 9.32783 23.4678C9.24685 23.4418 9.16974 23.4033 9.09358 23.356C9.07719 23.3454 9.06081 23.3348 9.04538 23.3232C9.02706 23.3117 9.0097 23.2982 8.99141 23.2837C8.96248 23.2616 8.93357 23.2384 8.90464 23.2124C8.89115 23.2008 8.87766 23.1883 8.86416 23.1758C8.85451 23.1661 8.84392 23.1565 8.83427 23.1469C8.77836 23.0919 8.72439 23.0321 8.6704 22.9666C8.65882 22.9521 8.64725 22.9377 8.6357 22.9223C8.61835 22.9011 8.60099 22.8789 8.58461 22.8557C8.57016 22.8365 8.55569 22.8162 8.54219 22.797C8.44676 22.663 8.35519 22.5126 8.26747 22.3506C8.25301 22.3246 8.23856 22.2976 8.22409 22.2697C8.18553 22.1964 8.14697 22.1212 8.10938 22.0431C8.18361 21.8879 8.23083 21.7973 8.23083 21.7973C8.23083 21.7973 9.20835 23.503 10.8306 20.9654C12.5588 18.262 13.2221 15.6628 13.8718 10.5674Z" fill="#96511E"/>
<path d="M34.4062 10.7188C34.4062 10.7188 34.892 15.3982 34.9884 17.4398V17.4427C35.2978 18.8983 35.749 20.2622 36.3852 21.3419C37.4455 22.9767 38.2427 23.5657 38.8798 23.5155C38.9126 23.5126 38.9454 23.5088 38.9782 23.5021C38.9868 23.5011 38.9955 23.4992 39.0042 23.4963C39.0196 23.4934 39.035 23.4895 39.0505 23.4857C39.0707 23.4808 39.09 23.4741 39.1092 23.4673C39.1902 23.4413 39.2673 23.4028 39.3435 23.3555C39.3599 23.3449 39.3763 23.3343 39.3917 23.3227C39.41 23.3112 39.4274 23.2977 39.4457 23.2832C39.4746 23.2611 39.5035 23.2379 39.5324 23.2119C39.5459 23.2003 39.5594 23.1878 39.5729 23.1753C39.5826 23.1656 39.5932 23.156 39.6028 23.1464C39.6587 23.0914 39.7127 23.0316 39.7667 22.9661C39.7783 22.9516 39.7898 22.9372 39.8014 22.9218C39.8187 22.9006 39.8361 22.8784 39.8525 22.8553C39.8669 22.836 39.8814 22.8157 39.8949 22.7965C39.9903 22.6625 40.0819 22.5121 40.1696 22.3501C40.1841 22.3241 40.1985 22.2971 40.213 22.2692C40.2515 22.1959 40.2901 22.1207 40.3277 22.0426C40.2535 21.8874 40.2062 21.7968 40.2062 21.7968C40.2062 21.7968 39.2287 23.5025 37.6065 20.965C35.8782 18.2615 35.0559 15.8141 34.4062 10.7188Z" fill="#96511E"/>
<g opacity="0.25">
<path d="M11.7433 3.69882C10.3661 4.38449 6.70374 6.34207 7.5964 7.35805C7.74164 7.52335 7.72866 7.77456 7.55588 7.91082C6.62398 8.64577 4.50487 10.9076 4.76541 16.1462C4.45803 15.9626 4.15776 15.4016 4.00559 14.0473C3.62313 10.6337 6.34493 7.51625 6.34493 7.51625C3.7185 6.33949 11.0023 2.96846 11.0023 2.96846C9.97669 2.43485 10.7558 1.53199 12.7259 1.49041C14.1674 1.46099 15.2742 2.00067 15.7926 2.31516C15.7936 2.40037 15.7946 2.44704 15.7946 2.44704C15.2762 2.24922 14.6056 2.08386 13.8275 2.1001C12.3537 2.13159 11.6072 2.68876 11.8946 3.15835C12.0116 3.3495 11.944 3.59893 11.7433 3.69882Z" fill="white"/>
</g>
<g opacity="0.25">
<path d="M36.6957 3.69882C38.073 4.38449 41.7353 6.34207 40.8427 7.35805C40.6974 7.52335 40.7104 7.77456 40.8832 7.91082C41.8151 8.64577 43.9342 10.9076 43.6737 16.1462C43.9811 15.9626 44.2813 15.4016 44.4335 14.0473C44.816 10.6337 42.0942 7.51625 42.0942 7.51625C44.7206 6.33949 37.4368 2.96846 37.4368 2.96846C38.4624 2.43485 37.6833 1.53199 35.7132 1.49041C34.2717 1.46099 33.1649 2.00067 32.6465 2.31516C32.6455 2.40037 32.6445 2.44704 32.6445 2.44704C33.1629 2.24922 33.8335 2.08386 34.6116 2.1001C36.0854 2.13159 36.8319 2.68876 36.5445 3.15835C36.4274 3.3495 36.4951 3.59893 36.6957 3.69882Z" fill="white"/>
</g>
<path d="M32.5631 2.26795L32.9777 3.19715L33.0065 3.26189C33.0872 3.44178 32.8546 3.60043 32.7164 3.46351C32.6518 3.40022 31.9811 2.74235 31.9394 2.70144C31.5318 2.24646 32.2784 1.72725 32.5631 2.26795Z" fill="#3F2017"/>
<path d="M16.395 2.79938L15.4579 3.19583L15.3926 3.22345C15.2112 3.30057 15.0571 3.065 15.1966 2.92945C15.2612 2.86606 15.9319 2.20832 15.9737 2.16738C16.4365 1.76875 16.9411 2.52521 16.395 2.79938Z" fill="#3F2017"/>
<path d="M34.2 4.30151C34.6239 4.9018 34.7349 5.66717 34.7751 6.38609C34.8192 7.10467 34.6962 7.853 34.6288 8.56696C34.3693 12.4019 34.7318 17.8105 36.7049 21.1511C36.8121 21.3271 36.7563 21.5566 36.5803 21.6638C36.4036 21.7715 36.1727 21.7145 36.0663 21.5371C34.2618 18.3647 33.9342 14.3008 33.9074 10.724C33.9167 9.79941 33.9543 8.86315 34.0784 7.93709C34.1446 7.44918 34.2004 6.88478 34.1769 6.39978C34.1464 5.79278 34.0736 5.17485 33.7503 4.66292C33.5442 4.41061 33.904 4.00235 34.2 4.30151Z" fill="#3F2017"/>
<path d="M14.2355 4.29924C14.0298 4.60056 13.9261 4.95625 13.8517 5.30824C13.711 6.01914 13.7382 6.75056 13.8271 7.46573C14.5076 11.5907 14.3838 17.7916 12.3735 21.5277C12.2741 21.7082 12.0473 21.774 11.8668 21.6746C11.6787 21.5717 11.6175 21.3302 11.7306 21.1488C12.4122 19.9375 12.8043 18.5516 13.0733 17.1557C13.5816 14.3555 13.6755 11.4419 13.3765 8.6114C13.3397 8.29871 13.2658 7.84711 13.2219 7.53279C13.1333 6.752 13.114 5.96563 13.2782 5.18007C13.3697 4.76065 13.5102 4.32357 13.7649 3.9647C13.9993 3.61228 14.4954 3.95989 14.2355 4.29924Z" fill="#3F2017"/>
<path d="M16.6407 7.36249C17.0823 6.43941 18.2706 5.98775 19.2298 6.34694C19.5535 6.46987 19.8382 6.66101 20.0419 6.9098C20.309 7.23417 19.9931 7.7141 19.5936 7.60374C19.1458 7.47726 18.7808 7.37078 18.3365 7.40193C17.9107 7.42531 17.4402 7.59553 17.022 7.72521L16.8921 7.73513C16.697 7.75554 16.55 7.53412 16.6407 7.36249Z" fill="#3F2017"/>
<path d="M31.7774 7.36249C31.3358 6.43941 30.1475 5.98775 29.1883 6.34694C28.8646 6.46987 28.5799 6.66101 28.3762 6.9098C28.1092 7.23417 28.4251 7.7141 28.8245 7.60374C29.2723 7.47726 29.6373 7.37078 30.0816 7.40193C30.5074 7.42531 30.9779 7.59553 31.3961 7.72521L31.526 7.73513C31.7211 7.75554 31.8681 7.53412 31.7774 7.36249Z" fill="#3F2017"/>
<g opacity="0.5">
<path d="M32.1536 2.3976C32.0938 2.34555 32.0157 2.27905 31.9193 2.2029C31.4701 1.84431 30.6402 1.27462 29.5201 0.89001C27.7782 0.292354 24.2174 0.377196 24.2174 0.377196C24.2174 0.377196 20.6566 0.292373 18.9148 0.89001C17.7947 1.27462 16.9647 1.84431 16.5155 2.2029C16.4191 2.27905 16.341 2.34555 16.2812 2.3976C16.3169 2.62316 16.342 2.76872 16.342 2.76872C16.342 2.76872 17.8029 1.65089 24.2174 1.65056C30.6319 1.65091 32.0928 2.76872 32.0928 2.76872C32.0928 2.76872 32.1179 2.62316 32.1536 2.3976Z" fill="white"/>
</g>
<path d="M24.2086 18.9736C24.2048 18.9787 22.5758 20.4435 19.6113 20.056C19.6113 20.056 21.4734 22.2091 24.2084 22.2092C24.2084 22.2092 24.2085 22.2092 24.2085 22.2092H24.2086C26.9436 22.2091 28.8056 20.056 28.8056 20.056C25.8412 20.4435 24.2085 19.7096 24.2086 18.9736Z" fill="#3F2017"/>
<path d="M26.9038 16.0564C26.8769 15.4733 26.4199 15.0013 25.8378 14.9576L25.8112 14.9556C24.7447 14.8755 23.6737 14.8755 22.6071 14.9556L22.5563 14.9594C22.0014 15.001 21.5512 15.4411 21.5178 15.9964C21.5168 16.0129 21.5159 16.0294 21.5151 16.0459C21.4955 16.4479 21.6814 16.8365 22.0121 17.0659C22.5284 17.4241 23.1294 17.6776 23.7984 17.8472C24.0679 17.9155 24.3505 17.9155 24.6199 17.8472C25.2985 17.6752 25.9072 17.4168 26.4284 17.0504C26.7439 16.8287 26.9208 16.4582 26.9045 16.0729C26.9043 16.0674 26.904 16.0619 26.9038 16.0564Z" fill="#3F2017"/>
<g opacity="0.35">
<path d="M24.2209 15.8679C25.0278 15.8679 25.682 15.744 25.682 15.5912C25.682 15.4383 25.0278 15.3145 24.2209 15.3145C23.4139 15.3145 22.7598 15.4383 22.7598 15.5912C22.7598 15.744 23.4139 15.8679 24.2209 15.8679Z" fill="white"/>
</g>
<path d="M30.2977 17.0225C30.2981 18.2276 29.7302 19.727 28.6351 20.3518C28.3945 20.4979 28.0846 20.5704 27.8122 20.6329C26.6332 20.8627 25.3986 20.5233 24.4173 19.8566C24.2573 19.749 24.1245 19.6485 23.9739 19.5161H24.4482C24.1662 19.7663 23.8683 19.9594 23.5409 20.1372C22.6576 20.6174 21.605 20.8249 20.6105 20.6292C20.5322 20.6054 20.285 20.5548 20.2047 20.5272C19.8747 20.4218 19.5596 20.2341 19.3132 19.9956C18.7719 19.4687 18.4597 18.7835 18.284 18.0745C18.2033 17.7243 18.1581 17.3813 18.1726 17.0179C18.178 16.9026 18.2758 16.8135 18.3911 16.8189C18.4861 16.8233 18.562 16.8903 18.5844 16.9775C18.7733 17.595 18.9625 18.2245 19.2538 18.7693C19.5044 19.2242 19.8394 19.6186 20.3205 19.8008C21.2729 20.1169 22.3186 19.9491 23.1999 19.4893C23.4682 19.3499 23.7424 19.1784 23.975 18.9902C24.115 18.8753 24.3137 18.8798 24.4482 18.9911C24.4943 19.0293 24.5611 19.0808 24.6221 19.1242C24.8123 19.26 25.0136 19.3828 25.2215 19.4905C26.1022 19.9506 27.1493 20.1147 28.0998 19.7961C28.8825 19.4928 29.2638 18.6546 29.514 17.8929C29.6154 17.5878 29.7067 17.2648 29.7933 16.9591C29.8724 16.6793 30.29 16.731 30.2977 17.0225Z" fill="#3F2017"/>
<path d="M24.3786 17.1992L24.5696 19.0954C24.597 19.6208 23.8231 19.6216 23.8503 19.0954L24.0413 17.1993C24.0628 16.9981 24.3579 16.9992 24.3786 17.1992Z" fill="#3F2017"/>
<path d="M29.6548 15.8529C27.1419 13.7964 22.4148 13.7249 19.6266 15.2654C19.3262 15.4319 19.0226 15.6254 18.7659 15.8529C18.5933 16.0018 18.3533 15.7626 18.5096 15.5889C19.0135 14.9986 19.7008 14.576 20.402 14.252C22.3825 13.3594 24.8349 13.2724 26.9161 13.8502C28.021 14.1843 29.1378 14.7122 29.9053 15.5948C30.0543 15.7616 29.8278 16.0002 29.6548 15.8529Z" fill="#3F2017"/>
<path d="M18.3773 15.0179C19.6957 15.0179 20.7644 13.7599 20.7644 12.2082C20.7644 10.6564 19.6957 9.39844 18.3773 9.39844C17.059 9.39844 15.9902 10.6564 15.9902 12.2082C15.9902 13.7599 17.059 15.0179 18.3773 15.0179Z" fill="#3F2017"/>
<path d="M18.8661 12.6334C19.3153 12.6334 19.6794 12.2048 19.6794 11.6761C19.6794 11.1474 19.3153 10.7188 18.8661 10.7188C18.4169 10.7188 18.0527 11.1474 18.0527 11.6761C18.0527 12.2048 18.4169 12.6334 18.8661 12.6334Z" fill="white"/>
<g opacity="0.35">
<path d="M18.2053 13.955C18.4195 13.7408 18.359 13.333 18.0702 13.0442C17.7813 12.7553 17.3735 12.6948 17.1593 12.909C16.9451 13.1232 17.0056 13.531 17.2945 13.8199C17.5833 14.1087 17.9911 14.1692 18.2053 13.955Z" fill="white"/>
</g>
<path d="M30.057 15.0179C31.3753 15.0179 32.4441 13.7599 32.4441 12.2082C32.4441 10.6564 31.3753 9.39844 30.057 9.39844C28.7386 9.39844 27.6699 10.6564 27.6699 12.2082C27.6699 13.7599 28.7386 15.0179 30.057 15.0179Z" fill="#3F2017"/>
<path d="M29.5672 12.6334C30.0164 12.6334 30.3806 12.2048 30.3806 11.6761C30.3806 11.1474 30.0164 10.7188 29.5672 10.7188C29.1181 10.7188 28.7539 11.1474 28.7539 11.6761C28.7539 12.2048 29.1181 12.6334 29.5672 12.6334Z" fill="white"/>
<g opacity="0.35">
<path d="M31.1385 13.8201C31.4274 13.5312 31.4879 13.1234 31.2737 12.9092C31.0595 12.695 30.6517 12.7555 30.3628 13.0444C30.074 13.3332 30.0135 13.741 30.2277 13.9552C30.4419 14.1694 30.8497 14.1089 31.1385 13.8201Z" fill="white"/>
</g>
<path d="M24.2171 27.0828C21.288 27.0828 19.5497 25.4976 19.1222 25.056C14.7325 24.4736 12.7811 22.8035 12.0687 21.9848C11.0903 23.3798 10.2481 23.9882 9.44054 23.8925C8.16744 23.7417 7.49957 21.8517 6.85373 20.0237C6.69977 19.5879 6.55429 19.1763 6.40183 18.788C6.00891 17.7872 5.71672 16.9599 5.54665 16.4607C5.34051 16.572 5.08204 16.6423 4.79953 16.5595C4.18465 16.3787 3.81967 15.5941 3.65097 14.0902C3.32479 11.1833 5.09821 8.53724 5.80375 7.61429C5.49525 7.36117 5.41787 7.07295 5.41652 6.85052C5.41353 6.36916 5.69967 5.55451 8.20796 4.04386C9.02504 3.55171 9.83357 3.13377 10.3398 2.88273C10.1613 2.62313 10.1836 2.37433 10.2128 2.24932C10.3664 1.5915 11.3559 1.14787 12.7337 1.11915C14.3678 1.08451 15.5894 1.73135 16.102 2.05965C16.5144 1.70714 17.4533 0.998269 18.7932 0.538312C20.5509 -0.0651481 23.9738 -0.00114315 24.2171 0.00466157C24.4603 -0.000970166 27.8834 -0.0650713 29.641 0.538312C30.9809 0.998288 31.9197 1.70716 32.3321 2.05965C32.8448 1.73135 34.0661 1.08499 35.7005 1.11915C37.0783 1.14787 38.0678 1.5915 38.2213 2.24932C38.2505 2.37433 38.2729 2.62313 38.0944 2.88273C38.6006 3.13377 39.4091 3.55171 40.2262 4.04386C42.7345 5.55451 43.0206 6.36916 43.0176 6.85052C43.0163 7.07295 42.9389 7.36117 42.6304 7.61429C43.3359 8.53724 45.1093 11.1833 44.7832 14.0902C44.6145 15.5941 44.2495 16.3787 43.6346 16.5595C43.3522 16.6424 43.0936 16.5719 42.8875 16.4608C42.7174 16.9599 42.4252 17.7872 42.0323 18.788C41.8798 19.1763 41.7344 19.5879 41.5804 20.0237C40.9346 21.8517 40.2667 23.7418 38.9936 23.8925C38.1864 23.9882 37.3439 23.3798 36.3655 21.9848C35.653 22.8035 33.7016 24.4736 29.3119 25.056C28.8845 25.4976 27.1462 27.0828 24.2171 27.0828ZM12.0518 20.9689C12.0558 20.9689 12.0597 20.9689 12.0635 20.969C12.1941 20.9731 12.313 21.0452 12.377 21.159C12.3902 21.1817 13.8747 23.6424 19.3509 24.3331C19.443 24.3447 19.5274 24.3903 19.5878 24.4608C19.6034 24.4789 21.2428 26.3367 24.2171 26.3367C27.1913 26.3367 28.8307 24.4789 28.8469 24.4601C28.9072 24.3904 28.9917 24.3447 29.0832 24.3331C34.5595 23.6424 36.0439 21.1818 36.0582 21.157C36.1233 21.0447 36.2426 20.9732 36.3723 20.97C36.5002 20.9647 36.6247 21.03 36.6953 21.139C37.8273 22.8847 38.5231 23.1959 38.9059 23.1514C39.7178 23.0553 40.3336 21.3127 40.8768 19.7751C41.0261 19.3526 41.1805 18.9156 41.3377 18.5152C41.9768 16.8876 42.3432 15.7326 42.3469 15.7212C42.3882 15.5904 42.4979 15.4928 42.6326 15.4671C42.7671 15.4416 42.9052 15.4915 42.9919 15.5979C43.0783 15.7016 43.296 15.8824 43.4248 15.8434C43.4683 15.8303 43.8553 15.6679 44.0416 14.0071C44.4012 10.8015 41.8183 7.79254 41.7922 7.7625C41.7146 7.67343 41.6837 7.55265 41.7091 7.4372C41.7345 7.32186 41.813 7.2252 41.9209 7.17686C42.1527 7.07297 42.2707 6.96166 42.2714 6.84593C42.2761 6.09643 39.6734 4.42596 37.2593 3.30807C37.1302 3.24829 37.0463 3.12026 37.043 2.97799C37.0398 2.83581 37.1177 2.70403 37.2439 2.63843C37.4469 2.53285 37.4994 2.43928 37.4946 2.41891C37.4636 2.28601 36.9578 1.89173 35.6849 1.86527C33.8129 1.82688 32.5461 2.8173 32.5335 2.82716C32.3846 2.9457 32.1706 2.93322 32.0365 2.79825C32.0271 2.78887 31.0294 1.80389 29.3987 1.24407C27.7409 0.674953 24.2608 0.749838 24.2259 0.75078C24.2201 0.750972 24.2141 0.750972 24.2083 0.75078C24.1733 0.749934 20.6932 0.675049 19.0354 1.24407C17.4047 1.80389 16.407 2.78887 16.3972 2.79873C16.263 2.93276 16.0491 2.94543 15.9006 2.82716C15.8886 2.81778 14.6087 1.82679 12.7493 1.86527C11.4763 1.89173 10.9705 2.28601 10.9395 2.41891C10.9347 2.43928 10.9872 2.53285 11.1902 2.63843C11.3164 2.70403 11.3943 2.83581 11.3911 2.97799C11.3878 3.12026 11.3039 3.24829 11.1748 3.30807C8.7607 4.42594 6.15799 6.09641 6.16274 6.84593C6.16345 6.96164 6.28137 7.07295 6.51319 7.17686C6.62118 7.2252 6.69977 7.32186 6.7251 7.4374C6.75044 7.55293 6.71951 7.67362 6.64176 7.76279C6.61576 7.79254 4.03287 10.8015 4.39251 14.0071C4.57886 15.6679 4.96585 15.8303 5.00935 15.8434C5.13816 15.8823 5.35575 15.7016 5.44351 15.5963C5.53089 15.4916 5.66886 15.442 5.80286 15.4684C5.93664 15.4947 6.04612 15.5911 6.08724 15.7212C6.09089 15.7326 6.45818 16.8897 7.09643 18.5152C7.25358 18.9156 7.40802 19.3526 7.55733 19.7751C8.10055 21.3127 8.71631 23.0553 9.52823 23.1514C9.91203 23.1967 10.6069 22.8846 11.7388 21.139C11.8077 21.0327 11.9257 20.9689 12.0518 20.9689Z" fill="#3F2017"/>
<path d="M27.3782 25.0468C26.8808 27.8166 24.2193 27.622 24.2193 27.622C24.2193 27.622 21.5578 27.8166 21.0611 25.0468C20.8304 23.7618 20.9975 22.6835 21.2433 21.8958C21.5274 20.985 21.9164 20.4633 21.9164 20.4633C21.9164 20.4633 23.2902 20.2803 24.2186 19.3154L24.2193 19.3163C25.1477 20.2803 26.5221 20.4634 26.5221 20.4634C26.5221 20.4634 27.875 22.2761 27.3782 25.0468Z" fill="#F48787"/>
<path d="M26.5198 20.4633C26.5198 20.4633 25.1461 20.2803 24.2177 19.3154C23.2893 20.2803 21.9156 20.4633 21.9156 20.4633C21.9156 20.4633 21.8017 20.6363 21.6855 20.838C21.6855 20.838 22.2375 20.9628 22.9135 20.7984C23.3495 20.6924 23.7676 21.0555 23.8148 21.5891C23.9044 22.6009 24.0502 24.0864 24.217 25.1602V25.1698C24.3819 24.1078 24.5278 22.6338 24.6176 21.6228C24.6669 21.068 25.1152 20.7043 25.5624 20.846C26.2631 21.068 26.8632 21.059 26.8632 21.059C26.8408 21.0104 26.5198 20.4633 26.5198 20.4633Z" fill="#D85050"/>
<path d="M24.1358 27.9996C23.5903 27.9996 21.1823 27.8425 20.6927 25.1149C20.1729 22.2189 21.5574 20.3218 21.6166 20.2425C21.6767 20.1619 21.7668 20.109 21.8664 20.0957C21.8782 20.0941 23.1263 19.9142 23.9489 19.0596C24.0193 18.9865 24.1163 18.9453 24.2177 18.9453C24.3191 18.9453 24.4162 18.9865 24.4865 19.0596C25.3149 19.9202 26.5581 20.0941 26.5705 20.0957C26.6702 20.109 26.7603 20.1619 26.8205 20.2425C26.8796 20.3218 28.2641 22.2189 27.7443 25.1149C27.2224 28.0226 24.5191 28.0086 24.2185 27.9983C24.1998 27.9989 24.1719 27.9996 24.1358 27.9996ZM24.2188 27.2518C24.2279 27.2518 24.2369 27.2521 24.2457 27.2527C24.34 27.2584 26.5798 27.379 27.0099 24.9831C27.4017 22.7999 26.5643 21.2332 26.2989 20.8052C25.9191 20.7285 24.9927 20.4849 24.2177 19.8289C23.443 20.4849 22.5175 20.7285 22.1382 20.8052C21.8735 21.2319 21.0352 22.799 21.4272 24.9831C21.8572 27.3791 24.097 27.2582 24.1926 27.2526C24.2011 27.2521 24.21 27.2518 24.2188 27.2518Z" fill="#3F2017"/>
<path d="M34.8651 46.1541C34.4927 47.627 31.9113 48.2852 29.0117 47.7108C27.6806 47.4477 26.6145 46.4555 26.251 45.1491C26.0756 44.5185 25.8953 43.747 25.7475 42.8179C25.3879 40.5597 25.2145 37.3704 25.7386 33.0008C25.7386 33.0008 26.855 30.8509 29.7506 31.4618C32.6463 32.0727 33.736 33.853 33.736 33.853C33.736 33.853 34.0809 35.5004 33.3458 38.4227C32.6512 41.1804 33.1252 43.6574 33.1252 43.6574C33.1252 43.6574 34.3154 44.0279 34.7617 44.9451C34.9223 45.2752 34.9863 45.6752 34.8651 46.1541Z" fill="#FFBD5C"/>
<path d="M34.8657 46.1531C34.4932 47.6261 31.9119 48.2842 29.0122 47.7098C27.6811 47.4467 26.6151 46.4546 26.2515 45.1481C26.0761 44.5175 25.8958 43.7461 25.748 42.817C25.8377 42.3775 25.8988 42.0889 25.8988 42.0889C25.8988 42.0889 26.35 46.3373 29.565 46.3511C32.7799 46.3659 34.8804 45.7816 34.7602 45.0377C34.7533 44.9934 34.7543 44.9629 34.7622 44.9441C34.9228 45.2742 34.9869 45.6743 34.8657 46.1531Z" fill="#F79654"/>
<path d="M33.7401 33.8529C34.0031 35.0733 33.8934 36.3463 33.7051 37.5705C33.5703 38.3737 33.3722 39.1777 33.3142 39.9919C33.2226 41.1868 33.2653 42.412 33.4997 43.586L33.2384 43.2935C33.3987 43.3483 33.5203 43.4017 33.6656 43.4722C34.3582 43.8129 35.0102 44.3622 35.2167 45.147C35.4698 46.1576 34.9744 47.1022 34.0824 47.5799C32.5046 48.4357 30.3471 48.3201 28.6592 47.903C27.3957 47.5401 26.3685 46.4851 26.0391 45.2145C25.9863 45.015 25.8899 44.6136 25.8455 44.4124C25.4917 42.8062 25.3293 41.1605 25.2884 39.5208C25.2436 37.3367 25.3592 35.1483 25.739 33.0014C25.7875 32.7715 26.124 32.8042 26.1177 33.0468C26.1331 35.2088 25.8557 37.3394 25.9664 39.4947C26.0232 41.0959 26.1966 42.6878 26.5564 44.2458C26.6009 44.4378 26.6981 44.8252 26.7505 45.0154C26.9374 45.6912 27.3531 46.2991 27.9241 46.7096C28.3125 46.9895 28.7452 47.1686 29.22 47.2535C30.6983 47.5222 32.345 47.5948 33.69 46.9059C33.9839 46.7386 34.2278 46.5366 34.3757 46.2491C34.6038 45.764 34.5355 45.2001 34.1786 44.7944C33.8871 44.4475 33.4408 44.1804 33.0119 44.0218C32.8621 43.995 32.768 43.8699 32.7506 43.7293C32.7042 43.5079 32.6698 43.307 32.6402 43.088C32.4139 41.4048 32.5142 39.6807 32.9324 38.0299C33.2112 36.8725 33.3117 35.6797 33.3487 34.494C33.3571 34.345 33.3573 34.0381 33.3657 33.8868C33.3771 33.6776 33.6876 33.6391 33.7401 33.8529Z" fill="#3F2017"/>
<path d="M33.3915 44.1805C32.6551 43.8972 31.8347 43.8753 31.0581 43.9881C30.6811 44.0497 30.3134 44.1616 29.9371 44.2332C29.7461 44.2665 29.6497 44.0049 29.8153 43.9061C30.2611 43.6195 30.7874 43.4651 31.3025 43.3564C32.0904 43.211 32.9316 43.2061 33.6952 43.4809C34.1631 43.6918 33.8668 44.3779 33.3915 44.1805Z" fill="#3F2017"/>
<path d="M30.8805 47.3636C31.2258 46.8338 31.4374 46.1207 31.177 45.5156L31.1514 45.451C31.128 45.4106 31.0693 45.3101 31.0462 45.2686C30.8648 45.0148 31.2152 44.737 31.4153 44.9759C31.4549 45.026 31.5489 45.1474 31.5859 45.1961C31.6681 45.3315 31.7413 45.4658 31.7954 45.6172C32.0478 46.3384 31.9024 47.1358 31.5714 47.8062C31.2724 48.3157 30.5423 47.8493 30.8805 47.3636Z" fill="#3F2017"/>
<path d="M32.9957 47.1195C33.341 46.5897 33.5526 45.8767 33.2922 45.2715L33.2666 45.2069C33.2433 45.1665 33.1845 45.066 33.1614 45.0245C32.9812 44.7686 33.3286 44.4936 33.5305 44.7318C33.5702 44.7819 33.664 44.9033 33.7012 44.952C33.7834 45.0874 33.8565 45.2216 33.9107 45.3731C34.163 46.0943 34.0177 46.8917 33.6866 47.5621C33.3876 48.0716 32.6576 47.6052 32.9957 47.1195Z" fill="#3F2017"/>
<path d="M13.5747 46.1541C13.9471 47.627 16.5285 48.2852 19.4282 47.7108C20.7593 47.4477 21.8253 46.4555 22.1889 45.1491C22.3643 44.5185 22.5446 43.747 22.6923 42.8179C23.052 40.5597 23.2254 37.3704 22.7012 33.0008C22.7012 33.0008 21.5849 30.8509 18.6892 31.4618C15.7935 32.0727 14.7038 33.853 14.7038 33.853C14.7038 33.853 14.359 35.5004 15.094 38.4227C15.7886 41.1804 15.3147 43.6574 15.3147 43.6574C15.3147 43.6574 14.1245 44.0279 13.6782 44.9451C13.5176 45.2752 13.4535 45.6752 13.5747 46.1541Z" fill="#FFBD5C"/>
<path d="M13.5747 46.1531C13.9471 47.6261 16.5285 48.2842 19.4282 47.7098C20.7593 47.4467 21.8253 46.4546 22.1889 45.1481C22.3643 44.5175 22.5446 43.7461 22.6923 42.817C22.6027 42.3775 22.5416 42.0889 22.5416 42.0889C22.5416 42.0889 22.0903 46.3373 18.8754 46.3511C15.6605 46.3659 13.5599 45.7816 13.6802 45.0377C13.6871 44.9934 13.6861 44.9629 13.6782 44.9441C13.5176 45.2742 13.4535 45.6743 13.5747 46.1531Z" fill="#F79654"/>
<path d="M14.7076 33.8508C14.5764 35.4932 14.929 37.1247 15.3705 38.6955C15.7855 40.3339 15.897 42.0453 15.6894 43.7255C15.6596 43.9469 15.452 44.0091 15.2686 44.076C14.6948 44.3117 14.0928 44.7149 13.9137 45.3291C13.8048 45.7325 13.8806 46.2232 14.1602 46.5546C14.6395 47.1152 15.388 47.3512 16.117 47.4956C17.1393 47.6809 18.2156 47.6403 19.2596 47.4613C19.5184 47.4189 19.7529 47.3588 19.9929 47.2636C20.9413 46.8958 21.6911 46.0695 21.9742 45.0913C22.9539 41.7034 23.0203 38.1261 22.7945 34.6272C22.7811 34.3558 22.7691 34.084 22.7471 33.8131L22.701 32.9976C22.695 32.8923 22.7755 32.8022 22.8808 32.7962C22.9783 32.7907 23.0619 32.8595 23.0796 32.9521C23.3484 34.0241 23.4658 35.1216 23.5202 36.2217C23.6554 39.2575 23.505 42.3468 22.6856 45.2905C22.3136 46.6435 21.1959 47.7515 19.8416 48.1144C18.5776 48.4109 17.2723 48.4806 15.985 48.2654C14.9685 48.0813 13.7789 47.6348 13.2888 46.6177C12.771 45.4379 13.31 44.2941 14.3722 43.6725C14.64 43.5115 14.9017 43.3873 15.2015 43.2897L14.9402 43.5822C14.9644 43.4014 14.9821 43.1953 14.9968 42.9992C15.0932 41.611 15.0043 40.2022 14.6896 38.8467C14.3905 37.6181 14.1091 36.3597 14.1315 35.0871C14.1429 34.6442 14.1953 34.1985 14.3305 33.7717C14.4007 33.5535 14.7325 33.6159 14.7076 33.8508Z" fill="#3F2017"/>
<path d="M14.7452 43.4806C15.6275 43.166 16.6035 43.2124 17.4989 43.439C17.8903 43.5444 18.2834 43.6856 18.6252 43.9058C18.7092 43.9566 18.7361 44.0657 18.6853 44.1497C18.6432 44.2197 18.5621 44.2482 18.4874 44.2302C18.3336 44.2039 18.1875 44.1635 18.0408 44.1282C17.9346 44.1063 17.8176 44.0769 17.7121 44.0504C17.6445 44.0377 17.4529 44.0013 17.3823 43.9878C17.2562 43.9726 17.0659 43.9436 16.9405 43.9386C16.2974 43.895 15.6371 43.9491 15.0363 44.1855C14.5651 44.3647 14.2836 43.6873 14.7452 43.4806Z" fill="#3F2017"/>
<path d="M16.8596 47.7891C16.5085 47.0683 16.3738 46.193 16.716 45.4429C16.7738 45.336 16.8343 45.2178 16.9114 45.123L17.0253 44.9769C17.1048 44.8749 17.2519 44.8567 17.3538 44.9362C17.4468 45.0087 17.4702 45.1376 17.4131 45.2371C17.3808 45.2934 17.3221 45.3965 17.2892 45.452C16.9954 46.0722 17.1987 46.8146 17.5601 47.3646C17.9037 47.8617 17.1439 48.3245 16.8596 47.7891Z" fill="#3F2017"/>
<path d="M14.7444 47.5413C14.3414 46.7204 14.2192 45.6452 14.7962 44.8753L14.9101 44.7291C15.0891 44.5041 15.4384 44.7401 15.2979 44.9893C15.2656 45.0457 15.207 45.1487 15.174 45.2042C14.8803 45.8245 15.0835 46.5668 15.4449 47.1169C15.7886 47.6139 15.0288 48.0767 14.7444 47.5413Z" fill="#3F2017"/>
</svg>
