<svg width="32" height="32" viewBox="0 0 32 32" fill="none" xmlns="http://www.w3.org/2000/svg">
<rect width="32" height="32" rx="6" fill="#092522"/>
<g clip-path="url(#clip0_1151_19414)">
<path d="M19.9193 12.6667C19.7534 12.196 19.4505 11.7858 19.0495 11.4888C18.6485 11.1918 18.1678 11.0215 17.6693 11H14.3359C13.6729 11 13.037 11.2634 12.5682 11.7322C12.0993 12.2011 11.8359 12.837 11.8359 13.5C11.8359 14.163 12.0993 14.7989 12.5682 15.2678C13.037 15.7366 13.6729 16 14.3359 16H17.6693C18.3323 16 18.9682 16.2634 19.437 16.7322C19.9059 17.2011 20.1693 17.837 20.1693 18.5C20.1693 19.163 19.9059 19.7989 19.437 20.2678C18.9682 20.7366 18.3323 21 17.6693 21H14.3359C13.8374 20.9785 13.3567 20.8082 12.9557 20.5112C12.5547 20.2142 12.2518 19.804 12.0859 19.3333" stroke="#FFC000" stroke-width="1.25" stroke-linecap="round" stroke-linejoin="round"/>
<path d="M16 8.5V11M16 21V23.5" stroke="#FFC000" stroke-width="1.25" stroke-linecap="round" stroke-linejoin="round"/>
</g>
<defs>
<clipPath id="clip0_1151_19414">
<rect width="20" height="20" fill="white" transform="translate(6 6)"/>
</clipPath>
</defs>
</svg>
