<svg width="58" height="50" viewBox="0 0 58 50" fill="none" xmlns="http://www.w3.org/2000/svg">
<path opacity="0.1" d="M27.8622 50.0018C43.237 50.0018 55.7009 48.6705 55.7009 47.0282C55.7009 45.386 43.237 44.0547 27.8622 44.0547C12.4873 44.0547 0.0234375 45.386 0.0234375 47.0282C0.0234375 48.6705 12.4873 50.0018 27.8622 50.0018Z" fill="white"/>
<path d="M14.1881 21.1571C15.2904 21.7223 16.0926 22.797 16.5941 23.9669C17.096 25.1368 17.3289 26.4097 17.5506 27.6701C17.8605 29.4332 18.1553 31.2594 17.7505 33.0016C17.6059 33.6236 17.3574 34.2472 16.8921 34.6638C16.4478 35.0616 15.8577 35.227 15.2837 35.3469C14.3447 35.543 13.3578 35.6463 12.4395 35.3627C11.4449 35.0555 10.6097 34.3086 10.0299 33.4109C9.45007 32.5134 9.10644 31.4708 8.87185 30.4164C8.52499 28.8585 8.40268 27.2467 8.51075 25.651C8.57644 24.6823 8.7489 23.6664 9.34911 22.9246C9.78949 22.3807 10.4136 22.0424 11.0213 21.7179C11.5986 21.4093 12.3819 20.2309 14.1881 21.1571Z" fill="#FFF0CE"/>
<path d="M17.4445 33.9762C15.7041 36.3937 13.717 38.6281 11.4495 40.5105C11.0331 40.8562 10.5924 41.1975 10.0769 41.3353C9.56148 41.4731 8.95026 41.3616 8.6199 40.9264C8.16237 40.3234 8.41896 39.4418 8.72635 38.7429C9.83036 36.2333 11.3618 33.9293 13.2272 31.9707C13.7119 31.4618 14.2593 30.9544 14.9369 30.8308C15.7442 30.6839 16.6029 31.1708 16.977 31.9318C17.351 32.6925 17.2488 33.6652 17.4445 33.9762Z" fill="#FFF0CE"/>
<path d="M11.7812 39.0184C11.8259 40.9476 12.1469 42.8698 12.7299 44.7011C12.8584 45.1043 13.0114 45.5219 13.3224 45.7961C13.7136 46.1411 14.2627 46.185 14.7561 46.3295C15.2495 46.474 15.7773 46.8417 15.7705 47.3762C15.766 47.7321 15.51 48.042 15.2062 48.2031C14.902 48.3641 14.5545 48.4046 14.2154 48.4428C13.5489 48.5174 12.85 48.588 12.2297 48.3229C11.4612 47.9948 11.2033 47.3857 10.7785 46.6412C10.2003 45.6276 9.38425 44.0076 8.97073 42.91C8.7122 42.2239 8.50933 41.1462 8.40061 40.4179C8.3414 40.0229 8.72256 39.6808 9.20694 39.1443C9.69099 38.6078 10.4802 38.3472 11.7812 39.0184Z" fill="#FFF0CE"/>
<path d="M42.3509 28.2532C43.9888 31.1569 45.6267 34.0602 47.2646 36.9639C47.5377 37.448 47.8169 37.9498 47.8862 38.5069C47.9554 39.0643 47.761 39.6974 47.286 39.9624C46.6861 40.2973 45.9554 39.9324 45.3921 39.534C43.6617 38.3104 42.1988 36.7174 40.867 35.036C40.2228 34.2226 39.5951 33.3664 39.2618 32.37C38.9286 31.3737 38.9292 30.2034 39.4909 29.3259C40.0533 28.4481 41.2586 28.0017 42.3509 28.2532Z" fill="#FFF0CE"/>
<path d="M47.7252 37.8287C48.1067 38.6596 48.1627 39.6208 48.0391 40.5331C47.9158 41.4454 47.623 42.3222 47.3321 43.192C47.1904 43.6161 46.9668 44.1114 46.539 44.1586C46.2821 44.187 46.0317 44.027 45.8773 43.8105C45.7227 43.5945 45.6473 43.3291 45.5839 43.0674C45.2713 41.7807 45.1768 40.4366 45.3063 39.1161C45.3671 38.4972 45.5098 37.8233 45.9851 37.4471C46.5465 37.0031 47.4512 37.2314 47.7252 37.8287Z" fill="#FFF0CE"/>
<path d="M47.3991 42.1249C47.3988 42.7458 47.601 43.3444 47.7961 43.9309C47.9913 44.5174 48.1841 45.1214 48.1637 45.742C48.1433 46.3626 47.8654 47.0115 47.3334 47.2901C47.0681 47.4292 46.7145 47.4518 46.499 47.2387C46.3492 47.0905 46.2993 46.866 46.2566 46.655C46.0563 45.6657 45.8564 44.6764 45.6561 43.6871C45.5787 43.3046 45.5008 42.916 45.5296 42.526C45.5584 42.1364 45.7091 41.7383 46.0101 41.5053C46.4779 41.1431 47.3994 41.3298 47.3991 42.1249Z" fill="#FFF0CE"/>
<path d="M57.2709 11.6923C57.0522 11.0444 56.361 10.7439 55.7654 10.4515C54.7804 9.96798 53.8735 9.31162 53.0946 8.51818C51.8162 7.21592 50.7808 5.47946 49.0776 4.91663C48.8009 4.82513 48.5171 4.77549 48.2308 4.7522C48.2305 4.75051 48.2305 4.74916 48.2305 4.74747C48.0978 3.37735 48.4709 2.41475 48.4709 0.724889C48.4709 0.424732 48.3511 0.0543452 48.0674 0.00505052C47.7901 -0.0432313 47.5882 0.264016 47.4636 0.527033C47.2986 0.875472 47.1368 1.2256 46.9724 1.57438C46.9346 1.41029 46.8967 1.2462 46.8585 1.08211C46.7932 0.799844 46.6828 0.467949 46.412 0.401435C46.0593 0.314325 45.806 0.741096 45.6778 1.09494C45.0365 2.86786 44.4577 4.66509 43.9354 6.47988C43.4103 6.92893 42.9168 7.42289 42.4302 7.91921C40.0093 9.24274 38.2387 11.8685 35.909 13.5104C33.5577 15.1676 30.676 15.7756 27.8558 16.0994C24.1898 16.5201 20.8023 16.0272 17.1431 16.511C14.6737 16.8375 11.3671 16.9199 9.31637 18.392C7.26561 19.8641 6.31594 23.1533 7.69725 25.3142C8.75078 26.9625 9.69624 27.2319 11.5454 28.3802C13.3946 29.5289 15.5619 31.1758 17.6311 31.7914C23.9066 33.6578 31.8848 36.4554 39.2227 33.8692C41.9355 32.913 44.6146 31.292 45.9432 28.6449C47.418 25.7065 46.9705 22.0621 48.2903 19.0443C48.6773 18.1597 49.2109 17.3304 49.5723 16.4425C49.7376 16.4212 49.9023 16.3989 50.0657 16.3763C51.3221 16.2027 52.5883 16.0265 53.7854 15.5923C54.9826 15.1584 56.1203 14.4427 56.8655 13.373C57.2046 12.8868 57.4621 12.2595 57.2709 11.6923Z" fill="#FFF0CE"/>
<mask id="mask0_1151_19823" style="mask-type:luminance" maskUnits="userSpaceOnUse" x="7" y="0" width="51" height="35">
<path d="M57.2709 11.6923C57.0522 11.0444 56.361 10.7439 55.7654 10.4515C54.7804 9.96798 53.8735 9.31162 53.0946 8.51818C51.8162 7.21592 50.7808 5.47946 49.0776 4.91663C48.8009 4.82513 48.5171 4.77549 48.2308 4.7522C48.2305 4.75051 48.2305 4.74916 48.2305 4.74747C48.0978 3.37735 48.4709 2.41475 48.4709 0.724889C48.4709 0.424732 48.3511 0.0543452 48.0674 0.00505052C47.7901 -0.0432313 47.5882 0.264016 47.4636 0.527033C47.2986 0.875472 47.1368 1.2256 46.9724 1.57438C46.9346 1.41029 46.8967 1.2462 46.8585 1.08211C46.7932 0.799844 46.6828 0.467949 46.412 0.401435C46.0593 0.314325 45.806 0.741096 45.6778 1.09494C45.0365 2.86786 44.4577 4.66509 43.9354 6.47988C43.4103 6.92893 42.9168 7.42289 42.4302 7.91921C40.0093 9.24274 38.2387 11.8685 35.909 13.5104C33.5577 15.1676 30.676 15.7756 27.8558 16.0994C24.1898 16.5201 20.8023 16.0272 17.1431 16.511C14.6737 16.8375 11.3671 16.9199 9.31637 18.392C7.26561 19.8641 6.31594 23.1533 7.69725 25.3142C8.75078 26.9625 9.69624 27.2319 11.5454 28.3802C13.3946 29.5289 15.5619 31.1758 17.6311 31.7914C23.9066 33.6578 31.8848 36.4554 39.2227 33.8692C41.9355 32.913 44.6146 31.292 45.9432 28.6449C47.418 25.7065 46.9705 22.0621 48.2903 19.0443C48.6773 18.1597 49.2109 17.3304 49.5723 16.4425C49.7376 16.4212 49.9023 16.3989 50.0657 16.3763C51.3221 16.2027 52.5883 16.0265 53.7854 15.5923C54.9826 15.1584 56.1203 14.4427 56.8655 13.373C57.2046 12.8868 57.4621 12.2595 57.2709 11.6923Z" fill="white"/>
</mask>
<g mask="url(#mask0_1151_19823)">
<path d="M13.7507 16.9112C16.147 18.2145 17.8791 21.3852 19.4853 21.7275C21.2105 22.0952 23.2561 20.6559 24.9937 20.3588C27.5579 19.9198 30.162 23.6521 33.6255 24.2487C36.5761 24.7571 39.6959 22.3606 40.1075 19.2699C40.4485 16.7086 39.1766 13.9616 40.1673 11.5914C40.2874 11.3041 40.4424 11.0141 40.4268 10.7007C40.3977 10.1092 39.7464 9.72902 39.1811 9.78709C38.6162 9.84516 38.1276 10.2044 37.6574 10.5366C32.8567 13.9272 26.9778 15.6234 21.1898 15.2878C18.8534 15.1521 13.3165 16.6748 13.7507 16.9112Z" fill="#FFD7B4"/>
</g>
<mask id="mask1_1151_19823" style="mask-type:luminance" maskUnits="userSpaceOnUse" x="7" y="0" width="51" height="35">
<path d="M57.2709 11.6923C57.0522 11.0444 56.361 10.7439 55.7654 10.4515C54.7804 9.96798 53.8735 9.31162 53.0946 8.51818C51.8162 7.21592 50.7808 5.47946 49.0776 4.91663C48.8009 4.82513 48.5171 4.77549 48.2308 4.7522C48.2305 4.75051 48.2305 4.74916 48.2305 4.74747C48.0978 3.37735 48.4709 2.41475 48.4709 0.724889C48.4709 0.424732 48.3511 0.0543452 48.0674 0.00505052C47.7901 -0.0432313 47.5882 0.264016 47.4636 0.527033C47.2986 0.875472 47.1368 1.2256 46.9724 1.57438C46.9346 1.41029 46.8967 1.2462 46.8585 1.08211C46.7932 0.799844 46.6828 0.467949 46.412 0.401435C46.0593 0.314325 45.806 0.741096 45.6778 1.09494C45.0365 2.86786 44.4577 4.66509 43.9354 6.47988C43.4103 6.92893 42.9168 7.42289 42.4302 7.91921C40.0093 9.24274 38.2387 11.8685 35.909 13.5104C33.5577 15.1676 30.676 15.7756 27.8558 16.0994C24.1898 16.5201 20.8023 16.0272 17.1431 16.511C14.6737 16.8375 11.3671 16.9199 9.31637 18.392C7.26561 19.8641 6.31594 23.1533 7.69725 25.3142C8.75078 26.9625 9.69624 27.2319 11.5454 28.3802C13.3946 29.5289 15.5619 31.1758 17.6311 31.7914C23.9066 33.6578 31.8848 36.4554 39.2227 33.8692C41.9355 32.913 44.6146 31.292 45.9432 28.6449C47.418 25.7065 46.9705 22.0621 48.2903 19.0443C48.6773 18.1597 49.2109 17.3304 49.5723 16.4425C49.7376 16.4212 49.9023 16.3989 50.0657 16.3763C51.3221 16.2027 52.5883 16.0265 53.7854 15.5923C54.9826 15.1584 56.1203 14.4427 56.8655 13.373C57.2046 12.8868 57.4621 12.2595 57.2709 11.6923Z" fill="white"/>
</mask>
<g mask="url(#mask1_1151_19823)">
<path d="M48.6762 4.77673C49.0804 5.59347 48.639 6.57194 48.1864 7.36065C47.734 8.14937 47.2457 9.08225 47.57 9.93714C47.7667 10.4561 48.2456 10.8613 48.2857 11.4177C48.3087 11.7378 48.1779 12.048 48.1546 12.3681C48.097 13.1612 48.8309 13.9111 49.5897 13.8338C50.2808 13.7636 50.7924 13.1562 51.2289 12.593C51.7084 11.9744 52.1876 11.3559 52.6671 10.7373C52.9357 10.3906 53.2139 10.0229 53.2845 9.5833C53.3845 8.96138 53.0492 8.36309 52.7276 7.82895C52.2682 7.06623 51.8025 6.29541 51.1819 5.66944C50.561 5.04346 49.7595 4.56706 48.6762 4.77673Z" fill="#FFD7B4"/>
</g>
<mask id="mask2_1151_19823" style="mask-type:luminance" maskUnits="userSpaceOnUse" x="7" y="0" width="51" height="35">
<path d="M57.2709 11.6923C57.0522 11.0444 56.361 10.7439 55.7654 10.4515C54.7804 9.96798 53.8735 9.31162 53.0946 8.51818C51.8162 7.21592 50.7808 5.47946 49.0776 4.91663C48.8009 4.82513 48.5171 4.77549 48.2308 4.7522C48.2305 4.75051 48.2305 4.74916 48.2305 4.74747C48.0978 3.37735 48.4709 2.41475 48.4709 0.724889C48.4709 0.424732 48.3511 0.0543452 48.0674 0.00505052C47.7901 -0.0432313 47.5882 0.264016 47.4636 0.527033C47.2986 0.875472 47.1368 1.2256 46.9724 1.57438C46.9346 1.41029 46.8967 1.2462 46.8585 1.08211C46.7932 0.799844 46.6828 0.467949 46.412 0.401435C46.0593 0.314325 45.806 0.741096 45.6778 1.09494C45.0365 2.86786 44.4577 4.66509 43.9354 6.47988C43.4103 6.92893 42.9168 7.42289 42.4302 7.91921C40.0093 9.24274 38.2387 11.8685 35.909 13.5104C33.5577 15.1676 30.676 15.7756 27.8558 16.0994C24.1898 16.5201 20.8023 16.0272 17.1431 16.511C14.6737 16.8375 11.3671 16.9199 9.31637 18.392C7.26561 19.8641 6.31594 23.1533 7.69725 25.3142C8.75078 26.9625 9.69624 27.2319 11.5454 28.3802C13.3946 29.5289 15.5619 31.1758 17.6311 31.7914C23.9066 33.6578 31.8848 36.4554 39.2227 33.8692C41.9355 32.913 44.6146 31.292 45.9432 28.6449C47.418 25.7065 46.9705 22.0621 48.2903 19.0443C48.6773 18.1597 49.2109 17.3304 49.5723 16.4425C49.7376 16.4212 49.9023 16.3989 50.0657 16.3763C51.3221 16.2027 52.5883 16.0265 53.7854 15.5923C54.9826 15.1584 56.1203 14.4427 56.8655 13.373C57.2046 12.8868 57.4621 12.2595 57.2709 11.6923Z" fill="white"/>
</mask>
<g mask="url(#mask2_1151_19823)">
<path d="M48.4298 1.11719C47.6193 2.48157 46.9106 3.91179 46.3133 5.39131C46.2286 5.60165 46.1522 5.86467 46.2926 6.03956C46.3929 6.16449 46.5657 6.18914 46.7217 6.19353C47.2002 6.20737 47.6817 6.11013 48.1211 5.9116C48.2143 4.30716 48.3078 2.70306 48.4298 1.11719Z" fill="#FFD7B4"/>
</g>
<path d="M46.896 1.72266C46.3816 2.69842 45.0705 5.10609 44.1797 6.0356" stroke="black" stroke-width="0.337635" stroke-miterlimit="10" stroke-linecap="round" stroke-linejoin="round"/>
<path d="M48.2268 4.74609C48.2032 5.00607 48.1899 5.80458 48.1602 6.03485" stroke="black" stroke-width="0.337635" stroke-miterlimit="10" stroke-linecap="round" stroke-linejoin="round"/>
<path d="M51.2109 12.8672C52.325 13.8855 53.8377 14.4136 55.3147 14.2998" stroke="black" stroke-width="0.337635" stroke-miterlimit="10" stroke-linecap="round" stroke-linejoin="round"/>
<path d="M57.1528 12.9997C57.4252 12.6138 57.6388 12.1823 57.7824 11.7269C57.8426 11.5358 57.8899 11.3237 57.8177 11.1373C57.7219 10.8902 57.4543 10.7741 57.2097 10.6964C56.7519 10.5512 56.2811 10.4516 55.8054 10.3993C55.6514 10.3824 55.4738 10.379 55.368 10.4969C55.2492 10.6295 55.2851 10.8416 55.3418 11.0134C55.5899 11.766 56.0772 12.4031 56.5555 13.0234C56.6234 13.1115 56.6956 13.2033 56.7956 13.2479C56.8955 13.2925 56.9816 13.2418 57.1528 12.9997Z" fill="#555151"/>
<path d="M50.137 10.941C50.9461 10.941 51.6021 10.1838 51.6021 9.24981C51.6021 8.31578 50.9461 7.55859 50.137 7.55859C49.3278 7.55859 48.6719 8.31578 48.6719 9.24981C48.6719 10.1838 49.3278 10.941 50.137 10.941Z" fill="white"/>
<mask id="mask3_1151_19823" style="mask-type:luminance" maskUnits="userSpaceOnUse" x="48" y="7" width="4" height="4">
<path d="M50.137 10.941C50.9461 10.941 51.6021 10.1838 51.6021 9.24981C51.6021 8.31578 50.9461 7.55859 50.137 7.55859C49.3278 7.55859 48.6719 8.31578 48.6719 9.24981C48.6719 10.1838 49.3278 10.941 50.137 10.941Z" fill="white"/>
</mask>
<g mask="url(#mask3_1151_19823)">
<path d="M51.0679 10.4697C51.5822 10.4697 51.9992 9.98854 51.9992 9.395C51.9992 8.80147 51.5822 8.32031 51.0679 8.32031C50.5536 8.32031 50.1367 8.80147 50.1367 9.395C50.1367 9.98854 50.5536 10.4697 51.0679 10.4697Z" fill="black"/>
</g>
<path d="M40.111 9.65625C42.7025 12.724 45.8485 15.5335 49.6158 16.7597C49.587 17.3219 49.4165 18.0792 48.9981 18.4138C45.1732 16.6953 41.5163 14.1613 38.6094 11.0493C38.8074 10.5223 39.4875 9.81224 40.111 9.65625Z" fill="#C45023"/>
<path d="M48.9669 18.5499C49.3274 19.0499 49.1918 20.0125 48.9359 20.6763C48.8922 20.7898 48.8404 20.9015 48.7654 20.9893C48.6903 21.0771 48.5887 21.1396 48.4826 21.1365C48.379 21.1335 48.282 21.0686 48.2092 20.9819C48.0085 20.7425 47.983 20.3697 48.0079 20.0351C48.0315 19.7164 48.0898 19.4014 48.1813 19.0999C48.2441 18.8936 48.3282 18.6846 48.478 18.5539C48.6279 18.4236 48.8016 18.3203 48.9669 18.5499Z" fill="#FFCC77"/>
<path d="M48.6719 18.6267C48.6719 18.6267 49.2821 17.1593 49.3002 16.8507C49.3041 16.7849 49.3051 16.7136 49.3436 16.6616C49.4669 16.4962 49.4928 16.798 49.4847 16.9263C49.4714 17.1343 49.4099 17.4477 49.3345 17.6411C49.1262 18.1749 48.9136 18.6685 48.7715 18.6668C48.6728 18.6655 48.6719 18.6267 48.6719 18.6267Z" fill="#FFCC77"/>
<path d="M44.1839 30.9688C43.1886 32.3038 41.7587 33.2789 40.1875 33.6941" stroke="black" stroke-width="0.337635" stroke-miterlimit="10" stroke-linecap="round" stroke-linejoin="round"/>
<path d="M17.978 31.7949C17.0516 31.6203 16.166 31.2162 15.4141 30.625" stroke="black" stroke-width="0.337635" stroke-miterlimit="10" stroke-linecap="round" stroke-linejoin="round"/>
<path d="M35.4266 29.899C35.3295 28.3752 33.8887 27.0909 32.4313 27.2289C31.4658 27.3204 30.6041 27.9451 29.9936 28.7311C29.383 29.5168 28.9889 30.4574 28.6136 31.3903C27.3565 34.5168 26.2279 37.7169 25.5788 41.0389C25.4818 41.5355 25.3957 42.0508 25.5021 42.5454C25.6083 43.04 25.9538 43.5124 26.4321 43.6012C27.1527 43.7352 27.7283 43.0107 28.1289 42.3712C29.8117 39.6846 31.4946 36.9977 33.1775 34.3112C34.022 32.964 35.5395 31.6736 35.4266 29.899Z" fill="#FFF0CE"/>
<path d="M25.4102 41.6717C25.4852 42.6464 25.8292 43.5736 26.1692 44.4848C26.532 45.4562 26.8947 46.4279 27.2571 47.3993C27.3719 47.7076 27.5075 48.0405 27.7864 48.1968C27.9967 48.3146 28.2482 48.3079 28.4866 48.2984C29.0312 48.2765 29.5761 48.2542 30.1206 48.2322C30.4497 48.2187 30.7843 48.2046 31.0962 48.0945C31.4081 47.9844 31.7 47.7629 31.8229 47.4439C31.9556 47.0995 31.8614 46.6811 31.6165 46.4117C31.3716 46.1423 30.9949 46.0214 30.6419 46.068C30.3653 46.1045 30.086 46.2351 29.8175 46.1571C29.4696 46.0562 29.2972 45.6591 29.1697 45.3066C28.828 44.3636 28.4857 43.4179 28.2498 42.4401C28.1346 41.9627 28.0304 41.4495 27.6955 41.1027C27.4143 40.8117 26.9872 40.6837 26.6009 40.7752C26.2145 40.8667 25.8819 41.1743 25.4102 41.6717Z" fill="#FFF0CE"/>
<path d="M29.7246 28.3828C28.7164 30.3536 27.9719 32.4712 27.5195 34.6551" stroke="black" stroke-width="0.337635" stroke-miterlimit="10" stroke-linecap="round" stroke-linejoin="round"/>
<path d="M34.8184 32.4023C33.991 33.0712 33.2918 33.9119 32.7734 34.8607" stroke="black" stroke-width="0.337635" stroke-miterlimit="10" stroke-linecap="round" stroke-linejoin="round"/>
<path d="M9.81168 18.6258C7.37555 18.9395 7.00862 21.8452 6.97821 23.7285C6.9507 25.4353 7.27201 27.1272 7.66093 28.7849C7.97641 30.1297 8.34431 31.4789 9.00503 32.6796C9.66575 33.8802 10.6523 34.9329 11.8993 35.4056C12.5096 35.6369 13.237 35.7078 13.7708 35.3226C14.1937 35.0177 14.4092 34.4927 14.5946 33.9923C15.434 31.7274 16.0918 29.3501 16.106 26.9222C16.1199 24.4943 15.4349 21.9944 13.8669 20.2002C13.2884 19.5385 12.5811 18.9719 11.7589 18.7133C11.2185 18.5435 10.6238 18.5212 9.81168 18.6258Z" fill="#FFF0CE"/>
<path d="M9.16089 31.2538C7.63721 31.9729 6.11386 32.6921 4.59019 33.4113C4.09254 33.6462 3.58195 33.8904 3.20305 34.3009C2.82416 34.7115 2.60251 35.3327 2.80054 35.8642C2.973 36.3264 3.42567 36.6235 3.89031 36.7268C4.35528 36.8301 4.83739 36.7711 5.30915 36.7116C7.39422 36.449 9.47928 36.1859 11.5647 35.9233C12.4192 35.8156 13.3258 35.6849 13.9856 35.1082C14.5169 34.6436 14.8647 33.2256 15.097 32.5442C15.4798 31.4226 14.7686 31.7629 14.4865 31.1025C14.1833 30.3935 13.7015 29.7108 12.9997 29.4525C12.2189 29.1652 11.3466 29.4667 10.6393 29.9161C9.93195 30.3651 9.31135 30.961 9.16089 31.2538Z" fill="#FFF0CE"/>
<path d="M7.21007 35.4135C6.60014 36.2971 6.63703 37.5085 6.92954 38.5538C7.22204 39.5991 7.73716 40.5654 8.02513 41.6121C8.30372 42.6257 8.36197 43.7048 8.19403 44.7443C8.12738 45.1576 7.97142 45.6283 7.58897 45.7562C7.1308 45.9095 6.69721 45.4696 6.43286 45.0499C5.93424 44.2581 5.57703 43.3806 5.22272 42.5082C4.49567 40.7184 3.76764 38.9272 3.15125 37.0925C2.86942 36.2542 2.50346 35.5235 2.90242 34.7389C3.32209 33.9137 4.51637 33.3718 5.34988 33.7131C6.18307 34.0548 6.74737 34.93 7.21007 35.4135Z" fill="#FFF0CE"/>
<path d="M16.0853 25.9297C15.7161 28.8968 15.1586 31.8383 14.3769 34.7622C14.2436 35.1576 13.9087 35.4503 13.5405 35.6178C13.1723 35.7849 12.7684 35.8437 12.3705 35.9007C11.5269 36.0216 10.6834 36.1425 9.83984 36.2633" stroke="black" stroke-width="0.337635" stroke-miterlimit="10" stroke-linecap="round" stroke-linejoin="round"/>
<path d="M9.94618 19.5117C9.11397 18.5173 8.35423 17.4295 7.88215 16.191C7.41039 14.9526 7.24407 13.5457 7.6055 12.265C7.97954 10.9388 8.92792 9.81447 10.1177 9.28607C11.3077 8.75733 12.7162 8.83465 13.794 9.71419C14.2577 8.7185 13.851 7.36053 12.9343 6.84395C13.53 6.7663 14.1428 6.84395 14.7058 7.06781C14.038 5.54811 12.7149 4.44168 11.2592 3.83293C8.10379 2.51345 4.22875 3.54087 2.00261 6.28618C-0.223201 9.03183 -0.644809 13.3046 0.995675 16.4925C2.4624 19.3425 5.22405 21.0945 7.89574 22.624C8.22642 21.5483 8.93989 20.6151 9.94618 19.5117Z" fill="#FFF0CE"/>
<path d="M9.282 18.6484C8.39899 19.6394 7.70429 20.8123 7.25 22.0798" stroke="black" stroke-width="0.337635" stroke-miterlimit="10" stroke-linecap="round" stroke-linejoin="round"/>
</svg>
