<svg width="49" height="49" viewBox="0 0 49 49" fill="none" xmlns="http://www.w3.org/2000/svg">
<rect x="0.666016" y="0.498047" width="48" height="48" rx="12" fill="#092522"/>
<g clip-path="url(#clip0_1151_25792)">
<path d="M30.4173 20.6634V17.4134C30.4173 17.1261 30.3032 16.8505 30.1 16.6474C29.8969 16.4442 29.6213 16.3301 29.334 16.3301H18.5007C17.926 16.3301 17.3749 16.5584 16.9686 16.9647C16.5623 17.371 16.334 17.9221 16.334 18.4967M16.334 18.4967C16.334 19.0714 16.5623 19.6225 16.9686 20.0288C17.3749 20.4351 17.926 20.6634 18.5007 20.6634H31.5007C31.788 20.6634 32.0635 20.7775 32.2667 20.9807C32.4698 21.1839 32.584 21.4594 32.584 21.7467V24.9967M16.334 18.4967V31.4967C16.334 32.0714 16.5623 32.6225 16.9686 33.0288C17.3749 33.4351 17.926 33.6634 18.5007 33.6634H31.5007C31.788 33.6634 32.0635 33.5493 32.2667 33.3461C32.4698 33.1429 32.584 32.8674 32.584 32.5801V29.3301" stroke="white" stroke-width="1.625" stroke-linecap="round" stroke-linejoin="round"/>
<path d="M33.6621 24.998V29.3314H29.3288C28.7541 29.3314 28.203 29.1031 27.7967 28.6968C27.3904 28.2904 27.1621 27.7393 27.1621 27.1647C27.1621 26.5901 27.3904 26.039 27.7967 25.6326C28.203 25.2263 28.7541 24.998 29.3288 24.998H33.6621Z" stroke="white" stroke-width="1.625" stroke-linecap="round" stroke-linejoin="round"/>
</g>
<defs>
<clipPath id="clip0_1151_25792">
<rect width="26" height="26" fill="white" transform="translate(11.998 11.998)"/>
</clipPath>
</defs>
</svg>
